<svg width="178" height="157" viewBox="0 0 178 157" fill="none" xmlns="http://www.w3.org/2000/svg">
<path d="M73.4165 95H61.229V78.5H18.3852V95H6.19775V61.3906C6.19775 56.4844 7.0415 51.9688 8.729 47.8438C10.4165 43.7188 12.7602 40.1719 15.7602 37.2031C18.7602 34.2344 22.3071 31.9219 26.4009 30.2656C30.4946 28.6094 34.9634 27.7812 39.8071 27.7812H67.2759C68.1196 27.7812 68.9165 27.9375 69.6665 28.25C70.4165 28.5625 71.0727 29 71.6352 29.5625C72.1977 30.125 72.6352 30.7812 72.9477 31.5312C73.2602 32.2812 73.4165 33.0781 73.4165 33.9219V95ZM18.3852 66.3125H61.229V39.9688H39.8071C39.4321 39.9688 38.6352 40.0312 37.4165 40.1562C36.229 40.25 34.8384 40.5156 33.2446 40.9531C31.6821 41.3906 30.0259 42.0625 28.2759 42.9688C26.5259 43.875 24.9165 45.125 23.4477 46.7188C21.979 48.3125 20.7602 50.3125 19.7915 52.7188C18.854 55.0938 18.3852 57.9844 18.3852 61.3906V66.3125ZM173.844 27.7812L162.594 90.7812C162.344 92.0312 161.781 93.1094 160.906 94.0156C160.031 94.9219 158.969 95.5 157.719 95.75C156.438 95.9688 155.219 95.8281 154.062 95.3281C152.938 94.8281 152.047 94.0469 151.391 92.9844L129.078 56.3281L106.719 92.9844C106.188 93.8906 105.453 94.5938 104.516 95.0938C103.609 95.5938 102.625 95.8438 101.562 95.8438C100.094 95.8438 98.7969 95.375 97.6719 94.4375C96.5469 93.5 95.8594 92.2812 95.6094 90.7812L84.2656 27.7812H96.6406L104.703 72.1719L123.922 41.5156C124.453 40.6094 125.172 39.9062 126.078 39.4062C127.016 38.9062 128.016 38.6562 129.078 38.6562C130.141 38.6562 131.125 38.9062 132.031 39.4062C132.938 39.9062 133.688 40.6094 134.281 41.5156L153.406 72.1719L161.469 27.7812H173.844Z" fill="#494F5C"/>
<path d="M47.7363 150H45.7051V147.25H38.5644V150H36.5332V144.398C36.5332 143.581 36.6738 142.828 36.9551 142.141C37.2363 141.453 37.6269 140.862 38.1269 140.367C38.6269 139.872 39.2181 139.487 39.9004 139.211C40.5827 138.935 41.3275 138.797 42.1348 138.797H46.7129C46.8535 138.797 46.9863 138.823 47.1113 138.875C47.2363 138.927 47.3457 139 47.4394 139.094C47.5332 139.188 47.6061 139.297 47.6582 139.422C47.7103 139.547 47.7363 139.68 47.7363 139.82V150ZM38.5644 145.219H45.7051V140.828H42.1348C42.0723 140.828 41.9394 140.839 41.7363 140.859C41.5384 140.875 41.3066 140.919 41.041 140.992C40.7806 141.065 40.5045 141.177 40.2129 141.328C39.9212 141.479 39.653 141.688 39.4082 141.953C39.1634 142.219 38.9603 142.552 38.7988 142.953C38.6426 143.349 38.5644 143.831 38.5644 144.398V145.219ZM61.4761 148.977C61.4761 149.122 61.45 149.258 61.3979 149.383C61.3459 149.508 61.2729 149.617 61.1792 149.711C61.0854 149.799 60.9761 149.87 60.8511 149.922C60.7261 149.974 60.5933 150 60.4526 150H55.8745C55.4422 150 55.0047 149.953 54.562 149.859C54.1193 149.766 53.6896 149.622 53.2729 149.43C52.8615 149.232 52.4735 148.982 52.1089 148.68C51.7443 148.378 51.424 148.021 51.1479 147.609C50.8771 147.193 50.6636 146.719 50.5073 146.188C50.3511 145.651 50.2729 145.055 50.2729 144.398V138.797H52.3042V144.398C52.3042 144.971 52.3823 145.456 52.5386 145.852C52.7 146.247 52.9031 146.578 53.1479 146.844C53.3927 147.109 53.661 147.318 53.9526 147.469C54.2443 147.62 54.5203 147.732 54.7808 147.805C55.0464 147.878 55.2781 147.924 55.4761 147.945C55.6792 147.961 55.812 147.969 55.8745 147.969H59.4448V138.797H61.4761V148.977ZM75.4189 145.312C75.4189 145.995 75.2991 146.622 75.0596 147.195C74.8252 147.768 74.4997 148.263 74.083 148.68C73.6663 149.091 73.1715 149.414 72.5986 149.648C72.0257 149.883 71.4033 150 70.7314 150H65.2471C65.1012 150 64.9658 149.974 64.8408 149.922C64.7158 149.87 64.6064 149.799 64.5127 149.711C64.4241 149.617 64.3538 149.508 64.3018 149.383C64.2497 149.258 64.2236 149.122 64.2236 148.977V139.82C64.2236 139.68 64.2497 139.547 64.3018 139.422C64.3538 139.297 64.4241 139.188 64.5127 139.094C64.6064 139 64.7158 138.927 64.8408 138.875C64.9658 138.823 65.1012 138.797 65.2471 138.797H70.7314C71.4033 138.797 72.0257 138.914 72.5986 139.148C73.1715 139.383 73.6663 139.708 74.083 140.125C74.4997 140.536 74.8252 141.031 75.0596 141.609C75.2991 142.182 75.4189 142.807 75.4189 143.484V145.312ZM73.3877 143.484C73.3877 143.089 73.3226 142.727 73.1924 142.398C73.0674 142.07 72.8877 141.792 72.6533 141.562C72.4189 141.328 72.1377 141.148 71.8096 141.023C71.4866 140.893 71.1273 140.828 70.7314 140.828H66.2549V147.969H70.7314C71.1273 147.969 71.4866 147.906 71.8096 147.781C72.1377 147.651 72.4189 147.471 72.6533 147.242C72.8877 147.008 73.0674 146.729 73.1924 146.406C73.3226 146.078 73.3877 145.714 73.3877 145.312V143.484ZM79.854 150H77.8228V138.797H79.854V150ZM94.3828 145.469C94.3828 146.151 94.2656 146.779 94.0312 147.352C93.7969 147.924 93.4714 148.419 93.0547 148.836C92.638 149.253 92.1432 149.578 91.5703 149.812C91.0026 150.042 90.3828 150.156 89.7109 150.156H86.9609C86.2891 150.156 85.6667 150.042 85.0938 149.812C84.5208 149.578 84.026 149.253 83.6094 148.836C83.1927 148.419 82.8646 147.924 82.625 147.352C82.3906 146.779 82.2734 146.151 82.2734 145.469V143.328C82.2734 142.651 82.3906 142.026 82.625 141.453C82.8646 140.875 83.1927 140.38 83.6094 139.969C84.026 139.552 84.5208 139.227 85.0938 138.992C85.6667 138.758 86.2891 138.641 86.9609 138.641H89.7109C90.3828 138.641 91.0026 138.758 91.5703 138.992C92.1432 139.227 92.638 139.552 93.0547 139.969C93.4714 140.38 93.7969 140.875 94.0312 141.453C94.2656 142.026 94.3828 142.651 94.3828 143.328V145.469ZM92.3516 143.328C92.3516 142.927 92.2865 142.565 92.1562 142.242C92.0312 141.914 91.8516 141.635 91.6172 141.406C91.388 141.172 91.1094 140.992 90.7812 140.867C90.4583 140.737 90.1016 140.672 89.7109 140.672H86.9609C86.5651 140.672 86.2031 140.737 85.875 140.867C85.5521 140.992 85.2734 141.172 85.0391 141.406C84.8047 141.635 84.6224 141.914 84.4922 142.242C84.3672 142.565 84.3047 142.927 84.3047 143.328V145.469C84.3047 145.87 84.3672 146.234 84.4922 146.562C84.6224 146.885 84.8047 147.164 85.0391 147.398C85.2734 147.628 85.5521 147.807 85.875 147.938C86.2031 148.062 86.5651 148.125 86.9609 148.125H89.6953C90.0911 148.125 90.4505 148.062 90.7734 147.938C91.1016 147.807 91.3828 147.628 91.6172 147.398C91.8516 147.164 92.0312 146.885 92.1562 146.562C92.2865 146.234 92.3516 145.87 92.3516 145.469V143.328ZM110.998 138.797L109.123 149.297C109.081 149.505 108.987 149.685 108.841 149.836C108.695 149.987 108.518 150.083 108.31 150.125C108.097 150.161 107.893 150.138 107.701 150.055C107.513 149.971 107.365 149.841 107.255 149.664L103.537 143.555L99.8101 149.664C99.7215 149.815 99.5991 149.932 99.4429 150.016C99.2918 150.099 99.1278 150.141 98.9507 150.141C98.7059 150.141 98.4897 150.062 98.3022 149.906C98.1147 149.75 98.0002 149.547 97.9585 149.297L96.0679 138.797H98.1304L99.4741 146.195L102.677 141.086C102.766 140.935 102.886 140.818 103.037 140.734C103.193 140.651 103.36 140.609 103.537 140.609C103.714 140.609 103.878 140.651 104.029 140.734C104.18 140.818 104.305 140.935 104.404 141.086L107.591 146.195L108.935 138.797H110.998ZM115.183 150H113.151V138.797H115.183V150ZM129.133 145.312C129.133 145.995 129.014 146.622 128.774 147.195C128.54 147.768 128.214 148.263 127.797 148.68C127.381 149.091 126.886 149.414 126.313 149.648C125.74 149.883 125.118 150 124.446 150H118.961C118.816 150 118.68 149.974 118.555 149.922C118.43 149.87 118.321 149.799 118.227 149.711C118.139 149.617 118.068 149.508 118.016 149.383C117.964 149.258 117.938 149.122 117.938 148.977V139.82C117.938 139.68 117.964 139.547 118.016 139.422C118.068 139.297 118.139 139.188 118.227 139.094C118.321 139 118.43 138.927 118.555 138.875C118.68 138.823 118.816 138.797 118.961 138.797H124.446C125.118 138.797 125.74 138.914 126.313 139.148C126.886 139.383 127.381 139.708 127.797 140.125C128.214 140.536 128.54 141.031 128.774 141.609C129.014 142.182 129.133 142.807 129.133 143.484V145.312ZM127.102 143.484C127.102 143.089 127.037 142.727 126.907 142.398C126.782 142.07 126.602 141.792 126.368 141.562C126.133 141.328 125.852 141.148 125.524 141.023C125.201 140.893 124.842 140.828 124.446 140.828H119.969V147.969H124.446C124.842 147.969 125.201 147.906 125.524 147.781C125.852 147.651 126.133 147.471 126.368 147.242C126.602 147.008 126.782 146.729 126.907 146.406C127.037 146.078 127.102 145.714 127.102 145.312V143.484ZM140.732 145.422H134.318V143.375H140.732V145.422ZM141.646 150H134.318C134.037 150 133.73 149.951 133.396 149.852C133.063 149.753 132.753 149.591 132.467 149.367C132.186 149.138 131.949 148.844 131.756 148.484C131.568 148.12 131.475 147.674 131.475 147.148V139.82C131.475 139.68 131.501 139.547 131.553 139.422C131.605 139.297 131.675 139.188 131.764 139.094C131.857 139 131.967 138.927 132.092 138.875C132.217 138.823 132.352 138.797 132.498 138.797H141.646V140.828H133.506V147.148C133.506 147.414 133.576 147.617 133.717 147.758C133.857 147.898 134.063 147.969 134.334 147.969H141.646V150Z" fill="#494F5C"/>
</svg>
