<svg width="100" height="144" viewBox="0 0 100 144" fill="none" xmlns="http://www.w3.org/2000/svg">
<path d="M7.72 89.576V17H44.296L43.144 28.328H21.832V47.144H36.904V59.048H21.832V88.424L7.72 89.576ZM71.6643 90.344C63.5363 90.344 57.8083 86.856 54.4803 79.88C51.2163 72.84 49.5843 63.752 49.5843 52.616C49.5843 40.776 51.3443 31.656 54.8643 25.256C58.3843 18.856 64.0483 15.656 71.8563 15.656C86.7683 15.656 94.2243 27.848 94.2243 52.232C94.2243 63.176 92.5283 72.264 89.1363 79.496C85.8083 86.728 79.9843 90.344 71.6643 90.344ZM71.8563 79.016C75.2483 79.016 77.4883 76.808 78.5763 72.392C79.6643 67.912 80.2083 61.16 80.2083 52.136C80.2083 44.904 79.6643 38.92 78.5763 34.184C77.5523 29.384 75.3123 26.984 71.8563 26.984C68.4003 26.984 66.1603 29.352 65.1363 34.088C64.1123 38.824 63.6003 44.808 63.6003 52.04C63.6003 61.128 64.1123 67.912 65.1363 72.392C66.2243 76.808 68.4643 79.016 71.8563 79.016Z" fill="#494F5C"/>
<path d="M1.12 141.096V129H7.216L7.024 130.888H3.472V134.024H5.984V136.008H3.472V140.904L1.12 141.096ZM12.1234 135.736H11.2114V140.904L8.87537 141.096V129.096L11.7234 129C13.0994 129 14.1767 129.277 14.9554 129.832C15.734 130.376 16.1234 131.213 16.1234 132.344C16.1234 133.091 15.974 133.704 15.6754 134.184C15.3874 134.664 14.966 135.064 14.4114 135.384L15.4834 137.992L16.5714 140.584L14.2674 141.208L12.1234 135.736ZM12.0114 134.008C12.566 134.008 12.998 133.896 13.3074 133.672C13.6274 133.437 13.7874 133 13.7874 132.36C13.7874 131.368 13.2967 130.872 12.3154 130.872H11.2114V134.008H12.0114ZM17.3902 141L19.9182 129.144L23.2622 129L25.8542 140.904L23.2943 141L22.8622 138.424H19.9983L19.4862 141H17.3902ZM20.4302 136.504H22.4303L21.3263 130.76L20.4302 136.504ZM33.1424 141.096L29.6384 133.592V140.904L27.5424 141V129.096L29.9904 129L33.0944 136.136V129.192L35.0784 129V140.904L33.1424 141.096ZM40.9836 141.224C39.6076 141.224 38.637 140.6 38.0716 139.352C37.517 138.104 37.2396 136.568 37.2396 134.744C37.2396 133.763 37.3676 132.819 37.6236 131.912C37.8796 131.005 38.2903 130.259 38.8556 129.672C39.4316 129.075 40.157 128.776 41.0316 128.776C41.7036 128.776 42.2903 128.984 42.7916 129.4C43.3036 129.816 43.693 130.36 43.9596 131.032C44.237 131.693 44.3756 132.387 44.3756 133.112L42.1036 133.224C42.1036 132.744 42.0236 132.2 41.8636 131.592C41.7036 130.973 41.3836 130.664 40.9036 130.664C40.4023 130.664 40.0556 131.064 39.8636 131.864C39.6716 132.664 39.5756 133.624 39.5756 134.744C39.5756 136.131 39.6823 137.245 39.8956 138.088C40.109 138.92 40.5196 139.336 41.1276 139.336C41.5543 139.336 41.8583 139.085 42.0396 138.584C42.221 138.072 42.3383 137.453 42.3916 136.728L44.3916 136.92C44.3916 137.688 44.2636 138.403 44.0076 139.064C43.7516 139.715 43.3676 140.237 42.8556 140.632C42.3436 141.027 41.7196 141.224 40.9836 141.224ZM49.707 141.224C48.3523 141.224 47.3977 140.643 46.843 139.48C46.299 138.307 46.027 136.792 46.027 134.936C46.027 132.963 46.3203 131.443 46.907 130.376C47.4937 129.309 48.4377 128.776 49.739 128.776C52.2243 128.776 53.467 130.808 53.467 134.872C53.467 136.696 53.1843 138.211 52.619 139.416C52.0643 140.621 51.0937 141.224 49.707 141.224ZM49.739 139.336C50.3043 139.336 50.6777 138.968 50.859 138.232C51.0403 137.485 51.131 136.36 51.131 134.856C51.131 133.651 51.0403 132.653 50.859 131.864C50.6883 131.064 50.315 130.664 49.739 130.664C49.163 130.664 48.7897 131.059 48.619 131.848C48.4483 132.637 48.363 133.635 48.363 134.84C48.363 136.355 48.4483 137.485 48.619 138.232C48.8003 138.968 49.1737 139.336 49.739 139.336ZM55.6522 141.096V129.192L58.0042 129V140.904L55.6522 141.096ZM63.81 141.224C62.8393 141.224 62.018 140.957 61.346 140.424C60.6847 139.88 60.1993 139.155 59.89 138.248L61.874 137.32L62.066 137.64C62.3753 138.173 62.6687 138.589 62.946 138.888C63.234 139.187 63.5913 139.336 64.018 139.336C64.2953 139.336 64.5407 139.203 64.754 138.936C64.978 138.669 65.09 138.376 65.09 138.056C65.09 137.757 65.0153 137.485 64.866 137.24C64.7167 136.995 64.5247 136.797 64.29 136.648L62.194 135.4C61.586 135.059 61.1007 134.627 60.738 134.104C60.3753 133.581 60.194 132.995 60.194 132.344C60.194 131.651 60.354 131.032 60.674 130.488C61.0047 129.944 61.4473 129.523 62.002 129.224C62.5673 128.925 63.202 128.776 63.906 128.776C64.7273 128.776 65.426 128.979 66.002 129.384C66.578 129.789 67.0047 130.392 67.282 131.192L65.298 132.088C65.2553 132.003 65.1647 131.811 65.026 131.512C64.8873 131.213 64.7167 131 64.514 130.872C64.322 130.733 64.082 130.664 63.794 130.664C63.442 130.664 63.17 130.776 62.978 131C62.7967 131.224 62.706 131.512 62.706 131.864C62.706 132.12 62.7753 132.355 62.914 132.568C63.0633 132.771 63.2393 132.931 63.442 133.048L65.378 134.184C66.8073 134.995 67.5593 136.061 67.634 137.384C67.634 138.141 67.4633 138.813 67.122 139.4C66.7913 139.976 66.3327 140.424 65.746 140.744C65.17 141.064 64.5247 141.224 63.81 141.224ZM77.1035 141.224C75.7488 141.224 74.7942 140.643 74.2395 139.48C73.6955 138.307 73.4235 136.792 73.4235 134.936C73.4235 132.963 73.7168 131.443 74.3035 130.376C74.8902 129.309 75.8342 128.776 77.1355 128.776C79.6208 128.776 80.8635 130.808 80.8635 134.872C80.8635 136.696 80.5808 138.211 80.0155 139.416C79.4608 140.621 78.4902 141.224 77.1035 141.224ZM77.1355 139.336C77.7008 139.336 78.0742 138.968 78.2555 138.232C78.4368 137.485 78.5275 136.36 78.5275 134.856C78.5275 133.651 78.4368 132.653 78.2555 131.864C78.0848 131.064 77.7115 130.664 77.1355 130.664C76.5595 130.664 76.1862 131.059 76.0155 131.848C75.8448 132.637 75.7595 133.635 75.7595 134.84C75.7595 136.355 75.8448 137.485 76.0155 138.232C76.1968 138.968 76.5702 139.336 77.1355 139.336ZM88.6487 141.096L85.1447 133.592V140.904L83.0487 141V129.096L85.4967 129L88.6007 136.136V129.192L90.5847 129V140.904L88.6487 141.096ZM93.226 141V129H99.322L99.13 130.872H95.578V133.736H98.106L98.09 135.752H95.578V139.128H99.45L99.258 141H93.226Z" fill="#494F5C"/>
</svg>
