<svg width="1080" height="442" viewBox="0 0 1080 442" fill="none" xmlns="http://www.w3.org/2000/svg">
<rect y="230" width="1079" height="1" fill="#ECE9F1"/>
<rect width="1080" height="1" fill="#ECE9F1"/>
<rect x="360" width="1" height="442" fill="#ECE9F1"/>
<rect x="720" width="1" height="441" fill="#ECE9F1"/>
<rect x="1079" width="1" height="442" fill="#ECE9F1"/>
<rect width="1" height="442" fill="#ECE9F1"/>
<rect y="441" width="1080" height="1" fill="#ECE9F1"/>
<path opacity="0.7" d="M802.761 363V348.455H811.483V350.017H804.523V354.932H810.83V356.494H804.523V363H802.761ZM814.155 363V352.091H815.775V353.739H815.888C816.087 353.199 816.447 352.761 816.968 352.425C817.489 352.089 818.076 351.92 818.729 351.92C818.852 351.92 819.006 351.923 819.191 351.928C819.375 351.932 819.515 351.939 819.61 351.949V353.653C819.553 353.639 819.423 353.618 819.219 353.589C819.02 353.556 818.81 353.54 818.587 353.54C818.057 353.54 817.583 353.651 817.167 353.874C816.755 354.091 816.428 354.394 816.186 354.783C815.95 355.166 815.831 355.604 815.831 356.097V363H814.155ZM824.807 363.256C824.116 363.256 823.488 363.125 822.925 362.865C822.361 362.6 821.914 362.219 821.582 361.722C821.251 361.22 821.085 360.614 821.085 359.903C821.085 359.278 821.208 358.772 821.455 358.384C821.701 357.991 822.03 357.683 822.442 357.46C822.854 357.238 823.308 357.072 823.805 356.963C824.307 356.849 824.812 356.759 825.318 356.693C825.981 356.608 826.518 356.544 826.93 356.501C827.347 356.454 827.65 356.376 827.839 356.267C828.034 356.158 828.131 355.969 828.131 355.699V355.642C828.131 354.941 827.939 354.397 827.555 354.009C827.177 353.62 826.601 353.426 825.83 353.426C825.029 353.426 824.402 353.601 823.947 353.952C823.493 354.302 823.173 354.676 822.989 355.074L821.398 354.506C821.682 353.843 822.061 353.327 822.534 352.957C823.012 352.583 823.533 352.323 824.097 352.176C824.665 352.025 825.223 351.949 825.773 351.949C826.123 351.949 826.526 351.991 826.98 352.077C827.439 352.157 827.882 352.325 828.308 352.581C828.739 352.837 829.097 353.223 829.381 353.739C829.665 354.255 829.807 354.946 829.807 355.812V363H828.131V361.523H828.045C827.932 361.759 827.742 362.013 827.477 362.283C827.212 362.553 826.859 362.782 826.419 362.972C825.979 363.161 825.441 363.256 824.807 363.256ZM825.062 361.75C825.725 361.75 826.284 361.62 826.739 361.359C827.198 361.099 827.544 360.763 827.776 360.351C828.012 359.939 828.131 359.506 828.131 359.051V357.517C828.06 357.602 827.903 357.68 827.662 357.751C827.425 357.818 827.151 357.877 826.838 357.929C826.53 357.976 826.23 358.019 825.936 358.057C825.647 358.09 825.413 358.118 825.233 358.142C824.797 358.199 824.39 358.291 824.011 358.419C823.637 358.542 823.334 358.729 823.102 358.98C822.875 359.226 822.761 359.562 822.761 359.989C822.761 360.571 822.977 361.011 823.408 361.31C823.843 361.603 824.395 361.75 825.062 361.75ZM834.542 356.438V363H832.866V352.091H834.485V353.795H834.627C834.883 353.241 835.271 352.796 835.792 352.46C836.313 352.119 836.985 351.949 837.809 351.949C838.548 351.949 839.194 352.1 839.748 352.403C840.302 352.702 840.733 353.156 841.041 353.767C841.349 354.373 841.502 355.14 841.502 356.068V363H839.826V356.182C839.826 355.325 839.604 354.657 839.159 354.179C838.714 353.696 838.103 353.455 837.326 353.455C836.791 353.455 836.313 353.571 835.892 353.803C835.475 354.035 835.146 354.373 834.904 354.818C834.663 355.263 834.542 355.803 834.542 356.438ZM848.997 363.227C847.974 363.227 847.094 362.986 846.355 362.503C845.616 362.02 845.048 361.355 844.651 360.507C844.253 359.66 844.054 358.691 844.054 357.602C844.054 356.494 844.258 355.517 844.665 354.669C845.077 353.817 845.65 353.152 846.384 352.673C847.122 352.19 847.984 351.949 848.969 351.949C849.736 351.949 850.427 352.091 851.043 352.375C851.658 352.659 852.162 353.057 852.555 353.568C852.948 354.08 853.192 354.676 853.287 355.358H851.611C851.483 354.861 851.199 354.42 850.759 354.037C850.323 353.649 849.736 353.455 848.997 353.455C848.344 353.455 847.771 353.625 847.278 353.966C846.791 354.302 846.41 354.778 846.135 355.393C845.865 356.004 845.73 356.722 845.73 357.545C845.73 358.388 845.863 359.122 846.128 359.747C846.398 360.372 846.777 360.857 847.264 361.203C847.757 361.549 848.334 361.722 848.997 361.722C849.433 361.722 849.828 361.646 850.183 361.494C850.538 361.343 850.839 361.125 851.085 360.841C851.331 360.557 851.507 360.216 851.611 359.818H853.287C853.192 360.462 852.958 361.042 852.584 361.558C852.214 362.07 851.724 362.477 851.114 362.78C850.508 363.078 849.802 363.227 848.997 363.227ZM860.169 363.227C859.184 363.227 858.32 362.993 857.577 362.524C856.838 362.055 856.26 361.4 855.844 360.557C855.432 359.714 855.226 358.729 855.226 357.602C855.226 356.466 855.432 355.474 855.844 354.626C856.26 353.779 856.838 353.121 857.577 352.652C858.32 352.183 859.184 351.949 860.169 351.949C861.154 351.949 862.016 352.183 862.754 352.652C863.498 353.121 864.075 353.779 864.487 354.626C864.904 355.474 865.112 356.466 865.112 357.602C865.112 358.729 864.904 359.714 864.487 360.557C864.075 361.4 863.498 362.055 862.754 362.524C862.016 362.993 861.154 363.227 860.169 363.227ZM860.169 361.722C860.917 361.722 861.533 361.53 862.016 361.146C862.499 360.763 862.856 360.259 863.088 359.634C863.32 359.009 863.436 358.331 863.436 357.602C863.436 356.873 863.32 356.194 863.088 355.564C862.856 354.934 862.499 354.425 862.016 354.037C861.533 353.649 860.917 353.455 860.169 353.455C859.421 353.455 858.805 353.649 858.322 354.037C857.839 354.425 857.482 354.934 857.25 355.564C857.018 356.194 856.902 356.873 856.902 357.602C856.902 358.331 857.018 359.009 857.25 359.634C857.482 360.259 857.839 360.763 858.322 361.146C858.805 361.53 859.421 361.722 860.169 361.722ZM867.671 363V352.091H869.347V363H867.671ZM868.523 350.273C868.196 350.273 867.915 350.161 867.678 349.939C867.446 349.716 867.33 349.449 867.33 349.136C867.33 348.824 867.446 348.556 867.678 348.334C867.915 348.111 868.196 348 868.523 348C868.85 348 869.129 348.111 869.361 348.334C869.598 348.556 869.716 348.824 869.716 349.136C869.716 349.449 869.598 349.716 869.361 349.939C869.129 350.161 868.85 350.273 868.523 350.273ZM880.144 354.534L878.638 354.96C878.544 354.709 878.404 354.465 878.219 354.229C878.04 353.987 877.793 353.788 877.481 353.632C877.168 353.476 876.768 353.398 876.281 353.398C875.613 353.398 875.057 353.552 874.612 353.859C874.171 354.162 873.951 354.548 873.951 355.017C873.951 355.434 874.103 355.763 874.406 356.004C874.709 356.246 875.182 356.447 875.826 356.608L877.445 357.006C878.421 357.242 879.147 357.605 879.626 358.092C880.104 358.575 880.343 359.198 880.343 359.96C880.343 360.585 880.163 361.144 879.803 361.636C879.448 362.129 878.951 362.517 878.312 362.801C877.673 363.085 876.929 363.227 876.082 363.227C874.969 363.227 874.048 362.986 873.319 362.503C872.59 362.02 872.128 361.314 871.934 360.386L873.525 359.989C873.676 360.576 873.963 361.016 874.384 361.31C874.81 361.603 875.367 361.75 876.053 361.75C876.835 361.75 877.455 361.584 877.914 361.253C878.378 360.917 878.61 360.514 878.61 360.045C878.61 359.667 878.478 359.349 878.212 359.094C877.947 358.833 877.54 358.639 876.991 358.511L875.173 358.085C874.174 357.848 873.44 357.482 872.971 356.984C872.507 356.482 872.275 355.855 872.275 355.102C872.275 354.487 872.448 353.942 872.793 353.469C873.144 352.995 873.62 352.624 874.221 352.354C874.827 352.084 875.513 351.949 876.281 351.949C877.36 351.949 878.208 352.186 878.823 352.659C879.443 353.133 879.884 353.758 880.144 354.534ZM892.923 363.227C891.938 363.227 891.074 362.993 890.331 362.524C889.592 362.055 889.014 361.4 888.598 360.557C888.186 359.714 887.98 358.729 887.98 357.602C887.98 356.466 888.186 355.474 888.598 354.626C889.014 353.779 889.592 353.121 890.331 352.652C891.074 352.183 891.938 351.949 892.923 351.949C893.908 351.949 894.77 352.183 895.508 352.652C896.252 353.121 896.829 353.779 897.241 354.626C897.658 355.474 897.866 356.466 897.866 357.602C897.866 358.729 897.658 359.714 897.241 360.557C896.829 361.4 896.252 362.055 895.508 362.524C894.77 362.993 893.908 363.227 892.923 363.227ZM892.923 361.722C893.671 361.722 894.287 361.53 894.77 361.146C895.252 360.763 895.61 360.259 895.842 359.634C896.074 359.009 896.19 358.331 896.19 357.602C896.19 356.873 896.074 356.194 895.842 355.564C895.61 354.934 895.252 354.425 894.77 354.037C894.287 353.649 893.671 353.455 892.923 353.455C892.175 353.455 891.559 353.649 891.076 354.037C890.593 354.425 890.236 354.934 890.004 355.564C889.772 356.194 889.656 356.873 889.656 357.602C889.656 358.331 889.772 359.009 890.004 359.634C890.236 360.259 890.593 360.763 891.076 361.146C891.559 361.53 892.175 361.722 892.923 361.722ZM902.101 356.438V363H900.425V352.091H902.044V353.795H902.186C902.442 353.241 902.83 352.796 903.351 352.46C903.872 352.119 904.544 351.949 905.368 351.949C906.107 351.949 906.753 352.1 907.307 352.403C907.861 352.702 908.292 353.156 908.599 353.767C908.907 354.373 909.061 355.14 909.061 356.068V363H907.385V356.182C907.385 355.325 907.162 354.657 906.717 354.179C906.272 353.696 905.661 353.455 904.885 353.455C904.35 353.455 903.872 353.571 903.45 353.803C903.034 354.035 902.705 354.373 902.463 354.818C902.222 355.263 902.101 355.803 902.101 356.438ZM916.698 363.227C915.647 363.227 914.74 362.995 913.978 362.531C913.22 362.062 912.635 361.409 912.223 360.571C911.816 359.728 911.613 358.748 911.613 357.631C911.613 356.513 911.816 355.528 912.223 354.676C912.635 353.819 913.208 353.152 913.942 352.673C914.681 352.19 915.542 351.949 916.527 351.949C917.096 351.949 917.657 352.044 918.211 352.233C918.765 352.422 919.269 352.73 919.723 353.156C920.178 353.578 920.54 354.136 920.81 354.832C921.08 355.528 921.215 356.385 921.215 357.403V358.114H912.806V356.665H919.51C919.51 356.049 919.387 355.5 919.141 355.017C918.9 354.534 918.554 354.153 918.104 353.874C917.659 353.594 917.133 353.455 916.527 353.455C915.86 353.455 915.282 353.62 914.794 353.952C914.311 354.278 913.94 354.705 913.679 355.23C913.419 355.756 913.289 356.319 913.289 356.92V357.886C913.289 358.71 913.431 359.409 913.715 359.982C914.004 360.55 914.404 360.983 914.915 361.281C915.426 361.575 916.021 361.722 916.698 361.722C917.138 361.722 917.536 361.66 917.891 361.537C918.251 361.409 918.561 361.22 918.821 360.969C919.082 360.713 919.283 360.396 919.425 360.017L921.044 360.472C920.874 361.021 920.587 361.504 920.185 361.92C919.783 362.332 919.285 362.654 918.694 362.886C918.102 363.114 917.436 363.227 916.698 363.227Z" fill="#495057"/>
<path d="M802.12 316.096V304.192L804.472 304V315.904L802.12 316.096ZM806.57 307.184L808.81 306.992V308.144C809.268 307.739 809.716 307.429 810.154 307.216C810.602 306.992 811.012 306.88 811.386 306.88C811.951 306.88 812.41 307.088 812.762 307.504C813.124 307.909 813.306 308.459 813.306 309.152V315.904L811.066 316.096V310C811.066 309.2 810.794 308.8 810.25 308.8C810.068 308.8 809.866 308.853 809.642 308.96C809.428 309.067 809.151 309.221 808.81 309.424V315.904L806.57 316.096V307.184ZM815.195 307.184L817.435 306.992V307.872C817.787 307.52 818.112 307.269 818.411 307.12C818.72 306.96 819.077 306.88 819.483 306.88C820.037 306.88 820.475 307.035 820.795 307.344C821.125 307.653 821.36 308.139 821.499 308.8C821.648 309.451 821.723 310.325 821.723 311.424C821.723 312.928 821.547 314.101 821.195 314.944C820.853 315.787 820.192 316.208 819.211 316.208C818.763 316.208 818.405 316.123 818.139 315.952C817.872 315.781 817.637 315.541 817.435 315.232V318.352L815.195 318.8V307.184ZM818.411 314.496C818.763 314.496 819.024 314.288 819.195 313.872C819.376 313.456 819.467 312.672 819.467 311.52C819.467 310.421 819.376 309.643 819.195 309.184C819.024 308.725 818.757 308.496 818.395 308.496C818.021 308.496 817.701 308.704 817.435 309.12V313.776C817.648 314.256 817.973 314.496 818.411 314.496ZM825.209 316.208C824.622 316.208 824.142 316.005 823.769 315.6C823.396 315.184 823.209 314.629 823.209 313.936V307.184L825.449 306.992V313.024C825.449 313.451 825.518 313.76 825.657 313.952C825.796 314.133 826.009 314.224 826.297 314.224C826.521 314.224 826.761 314.171 827.017 314.064C827.273 313.947 827.502 313.765 827.705 313.52V307.184L829.961 306.992V315.904L827.705 316.096V314.944C827.332 315.371 826.921 315.691 826.473 315.904C826.036 316.107 825.614 316.208 825.209 316.208ZM834.97 316.176C834.245 316.176 833.631 315.995 833.13 315.632C832.629 315.259 832.378 314.603 832.378 313.664V308.688H831.13L831.226 306.992H832.442L832.666 305.04L834.618 304.768V306.992H836.474L836.378 308.688H834.634V313.648C834.634 313.968 834.714 314.197 834.874 314.336C835.034 314.475 835.269 314.544 835.578 314.544C835.749 314.544 836.037 314.512 836.442 314.448V316C836.399 316.011 836.229 316.043 835.93 316.096C835.642 316.149 835.322 316.176 834.97 316.176ZM840.352 316.208C839.466 316.208 838.752 316.011 838.208 315.616C837.664 315.211 837.312 314.651 837.152 313.936L838.896 313.36C838.938 313.563 839.018 313.744 839.136 313.904C839.381 314.256 839.738 314.432 840.208 314.432C840.474 314.432 840.73 314.373 840.976 314.256C841.221 314.139 841.344 313.957 841.344 313.712C841.344 313.381 841.114 313.125 840.656 312.944L838.768 312.176C838.266 311.963 837.882 311.643 837.616 311.216C837.349 310.789 837.215 310.267 837.215 309.648C837.215 309.072 837.354 308.576 837.632 308.16C837.92 307.744 838.293 307.429 838.752 307.216C839.221 306.992 839.722 306.88 840.256 306.88C840.928 306.88 841.546 307.077 842.112 307.472C842.677 307.856 843.056 308.384 843.248 309.056L841.391 309.632C841.349 309.451 841.274 309.269 841.168 309.088C840.933 308.725 840.634 308.544 840.272 308.544C840.005 308.544 839.776 308.608 839.584 308.736C839.392 308.853 839.296 309.029 839.296 309.264C839.296 309.541 839.557 309.797 840.08 310.032L841.68 310.688C842.245 310.955 842.688 311.291 843.008 311.696C843.328 312.101 843.488 312.645 843.488 313.328C843.488 313.947 843.338 314.475 843.04 314.912C842.741 315.339 842.352 315.664 841.872 315.888C841.392 316.101 840.885 316.208 840.352 316.208Z" fill="#212529"/>
<path opacity="0.7" d="M442.761 364V349.455H451.483V351.017H444.523V355.932H450.83V357.494H444.523V364H442.761ZM454.155 364V353.091H455.775V354.739H455.888C456.087 354.199 456.447 353.761 456.968 353.425C457.489 353.089 458.076 352.92 458.729 352.92C458.852 352.92 459.006 352.923 459.191 352.928C459.375 352.932 459.515 352.939 459.61 352.949V354.653C459.553 354.639 459.423 354.618 459.219 354.589C459.02 354.556 458.81 354.54 458.587 354.54C458.057 354.54 457.583 354.651 457.167 354.874C456.755 355.091 456.428 355.394 456.186 355.783C455.95 356.166 455.831 356.604 455.831 357.097V364H454.155ZM464.807 364.256C464.116 364.256 463.488 364.125 462.925 363.865C462.361 363.6 461.914 363.219 461.582 362.722C461.251 362.22 461.085 361.614 461.085 360.903C461.085 360.278 461.208 359.772 461.455 359.384C461.701 358.991 462.03 358.683 462.442 358.46C462.854 358.238 463.308 358.072 463.805 357.963C464.307 357.849 464.812 357.759 465.318 357.693C465.981 357.608 466.518 357.544 466.93 357.501C467.347 357.454 467.65 357.376 467.839 357.267C468.034 357.158 468.131 356.969 468.131 356.699V356.642C468.131 355.941 467.939 355.397 467.555 355.009C467.177 354.62 466.601 354.426 465.83 354.426C465.029 354.426 464.402 354.601 463.947 354.952C463.493 355.302 463.173 355.676 462.989 356.074L461.398 355.506C461.682 354.843 462.061 354.327 462.534 353.957C463.012 353.583 463.533 353.323 464.097 353.176C464.665 353.025 465.223 352.949 465.773 352.949C466.123 352.949 466.526 352.991 466.98 353.077C467.439 353.157 467.882 353.325 468.308 353.581C468.739 353.837 469.097 354.223 469.381 354.739C469.665 355.255 469.807 355.946 469.807 356.812V364H468.131V362.523H468.045C467.932 362.759 467.742 363.013 467.477 363.283C467.212 363.553 466.859 363.782 466.419 363.972C465.979 364.161 465.441 364.256 464.807 364.256ZM465.062 362.75C465.725 362.75 466.284 362.62 466.739 362.359C467.198 362.099 467.544 361.763 467.776 361.351C468.012 360.939 468.131 360.506 468.131 360.051V358.517C468.06 358.602 467.903 358.68 467.662 358.751C467.425 358.818 467.151 358.877 466.838 358.929C466.53 358.976 466.23 359.019 465.936 359.057C465.647 359.09 465.413 359.118 465.233 359.142C464.797 359.199 464.39 359.291 464.011 359.419C463.637 359.542 463.334 359.729 463.102 359.98C462.875 360.226 462.761 360.562 462.761 360.989C462.761 361.571 462.977 362.011 463.408 362.31C463.843 362.603 464.395 362.75 465.062 362.75ZM474.542 357.438V364H472.866V353.091H474.485V354.795H474.627C474.883 354.241 475.271 353.796 475.792 353.46C476.313 353.119 476.985 352.949 477.809 352.949C478.548 352.949 479.194 353.1 479.748 353.403C480.302 353.702 480.733 354.156 481.041 354.767C481.349 355.373 481.502 356.14 481.502 357.068V364H479.826V357.182C479.826 356.325 479.604 355.657 479.159 355.179C478.714 354.696 478.103 354.455 477.326 354.455C476.791 354.455 476.313 354.571 475.892 354.803C475.475 355.035 475.146 355.373 474.904 355.818C474.663 356.263 474.542 356.803 474.542 357.438ZM488.997 364.227C487.974 364.227 487.094 363.986 486.355 363.503C485.616 363.02 485.048 362.355 484.651 361.507C484.253 360.66 484.054 359.691 484.054 358.602C484.054 357.494 484.258 356.517 484.665 355.669C485.077 354.817 485.65 354.152 486.384 353.673C487.122 353.19 487.984 352.949 488.969 352.949C489.736 352.949 490.427 353.091 491.043 353.375C491.658 353.659 492.162 354.057 492.555 354.568C492.948 355.08 493.192 355.676 493.287 356.358H491.611C491.483 355.861 491.199 355.42 490.759 355.037C490.323 354.649 489.736 354.455 488.997 354.455C488.344 354.455 487.771 354.625 487.278 354.966C486.791 355.302 486.41 355.778 486.135 356.393C485.865 357.004 485.73 357.722 485.73 358.545C485.73 359.388 485.863 360.122 486.128 360.747C486.398 361.372 486.777 361.857 487.264 362.203C487.757 362.549 488.334 362.722 488.997 362.722C489.433 362.722 489.828 362.646 490.183 362.494C490.538 362.343 490.839 362.125 491.085 361.841C491.331 361.557 491.507 361.216 491.611 360.818H493.287C493.192 361.462 492.958 362.042 492.584 362.558C492.214 363.07 491.724 363.477 491.114 363.78C490.508 364.078 489.802 364.227 488.997 364.227ZM500.169 364.227C499.184 364.227 498.32 363.993 497.577 363.524C496.838 363.055 496.26 362.4 495.844 361.557C495.432 360.714 495.226 359.729 495.226 358.602C495.226 357.466 495.432 356.474 495.844 355.626C496.26 354.779 496.838 354.121 497.577 353.652C498.32 353.183 499.184 352.949 500.169 352.949C501.154 352.949 502.016 353.183 502.754 353.652C503.498 354.121 504.075 354.779 504.487 355.626C504.904 356.474 505.112 357.466 505.112 358.602C505.112 359.729 504.904 360.714 504.487 361.557C504.075 362.4 503.498 363.055 502.754 363.524C502.016 363.993 501.154 364.227 500.169 364.227ZM500.169 362.722C500.917 362.722 501.533 362.53 502.016 362.146C502.499 361.763 502.856 361.259 503.088 360.634C503.32 360.009 503.436 359.331 503.436 358.602C503.436 357.873 503.32 357.194 503.088 356.564C502.856 355.934 502.499 355.425 502.016 355.037C501.533 354.649 500.917 354.455 500.169 354.455C499.421 354.455 498.805 354.649 498.322 355.037C497.839 355.425 497.482 355.934 497.25 356.564C497.018 357.194 496.902 357.873 496.902 358.602C496.902 359.331 497.018 360.009 497.25 360.634C497.482 361.259 497.839 361.763 498.322 362.146C498.805 362.53 499.421 362.722 500.169 362.722ZM507.671 364V353.091H509.347V364H507.671ZM508.523 351.273C508.196 351.273 507.915 351.161 507.678 350.939C507.446 350.716 507.33 350.449 507.33 350.136C507.33 349.824 507.446 349.556 507.678 349.334C507.915 349.111 508.196 349 508.523 349C508.85 349 509.129 349.111 509.361 349.334C509.598 349.556 509.716 349.824 509.716 350.136C509.716 350.449 509.598 350.716 509.361 350.939C509.129 351.161 508.85 351.273 508.523 351.273ZM520.144 355.534L518.638 355.96C518.544 355.709 518.404 355.465 518.219 355.229C518.04 354.987 517.793 354.788 517.481 354.632C517.168 354.476 516.768 354.398 516.281 354.398C515.613 354.398 515.057 354.552 514.612 354.859C514.171 355.162 513.951 355.548 513.951 356.017C513.951 356.434 514.103 356.763 514.406 357.004C514.709 357.246 515.182 357.447 515.826 357.608L517.445 358.006C518.421 358.242 519.147 358.605 519.626 359.092C520.104 359.575 520.343 360.198 520.343 360.96C520.343 361.585 520.163 362.144 519.803 362.636C519.448 363.129 518.951 363.517 518.312 363.801C517.673 364.085 516.929 364.227 516.082 364.227C514.969 364.227 514.048 363.986 513.319 363.503C512.59 363.02 512.128 362.314 511.934 361.386L513.525 360.989C513.676 361.576 513.963 362.016 514.384 362.31C514.81 362.603 515.367 362.75 516.053 362.75C516.835 362.75 517.455 362.584 517.914 362.253C518.378 361.917 518.61 361.514 518.61 361.045C518.61 360.667 518.478 360.349 518.212 360.094C517.947 359.833 517.54 359.639 516.991 359.511L515.173 359.085C514.174 358.848 513.44 358.482 512.971 357.984C512.507 357.482 512.275 356.855 512.275 356.102C512.275 355.487 512.448 354.942 512.793 354.469C513.144 353.995 513.62 353.624 514.221 353.354C514.827 353.084 515.513 352.949 516.281 352.949C517.36 352.949 518.208 353.186 518.823 353.659C519.443 354.133 519.884 354.758 520.144 355.534ZM532.923 364.227C531.938 364.227 531.074 363.993 530.331 363.524C529.592 363.055 529.014 362.4 528.598 361.557C528.186 360.714 527.98 359.729 527.98 358.602C527.98 357.466 528.186 356.474 528.598 355.626C529.014 354.779 529.592 354.121 530.331 353.652C531.074 353.183 531.938 352.949 532.923 352.949C533.908 352.949 534.77 353.183 535.508 353.652C536.252 354.121 536.829 354.779 537.241 355.626C537.658 356.474 537.866 357.466 537.866 358.602C537.866 359.729 537.658 360.714 537.241 361.557C536.829 362.4 536.252 363.055 535.508 363.524C534.77 363.993 533.908 364.227 532.923 364.227ZM532.923 362.722C533.671 362.722 534.287 362.53 534.77 362.146C535.252 361.763 535.61 361.259 535.842 360.634C536.074 360.009 536.19 359.331 536.19 358.602C536.19 357.873 536.074 357.194 535.842 356.564C535.61 355.934 535.252 355.425 534.77 355.037C534.287 354.649 533.671 354.455 532.923 354.455C532.175 354.455 531.559 354.649 531.076 355.037C530.593 355.425 530.236 355.934 530.004 356.564C529.772 357.194 529.656 357.873 529.656 358.602C529.656 359.331 529.772 360.009 530.004 360.634C530.236 361.259 530.593 361.763 531.076 362.146C531.559 362.53 532.175 362.722 532.923 362.722ZM542.101 357.438V364H540.425V353.091H542.044V354.795H542.186C542.442 354.241 542.83 353.796 543.351 353.46C543.872 353.119 544.544 352.949 545.368 352.949C546.107 352.949 546.753 353.1 547.307 353.403C547.861 353.702 548.292 354.156 548.599 354.767C548.907 355.373 549.061 356.14 549.061 357.068V364H547.385V357.182C547.385 356.325 547.162 355.657 546.717 355.179C546.272 354.696 545.661 354.455 544.885 354.455C544.35 354.455 543.872 354.571 543.45 354.803C543.034 355.035 542.705 355.373 542.463 355.818C542.222 356.263 542.101 356.803 542.101 357.438ZM556.698 364.227C555.647 364.227 554.74 363.995 553.978 363.531C553.22 363.062 552.635 362.409 552.223 361.571C551.816 360.728 551.613 359.748 551.613 358.631C551.613 357.513 551.816 356.528 552.223 355.676C552.635 354.819 553.208 354.152 553.942 353.673C554.681 353.19 555.542 352.949 556.527 352.949C557.096 352.949 557.657 353.044 558.211 353.233C558.765 353.422 559.269 353.73 559.723 354.156C560.178 354.578 560.54 355.136 560.81 355.832C561.08 356.528 561.215 357.385 561.215 358.403V359.114H552.806V357.665H559.51C559.51 357.049 559.387 356.5 559.141 356.017C558.9 355.534 558.554 355.153 558.104 354.874C557.659 354.594 557.133 354.455 556.527 354.455C555.86 354.455 555.282 354.62 554.794 354.952C554.311 355.278 553.94 355.705 553.679 356.23C553.419 356.756 553.289 357.319 553.289 357.92V358.886C553.289 359.71 553.431 360.409 553.715 360.982C554.004 361.55 554.404 361.983 554.915 362.281C555.426 362.575 556.021 362.722 556.698 362.722C557.138 362.722 557.536 362.66 557.891 362.537C558.251 362.409 558.561 362.22 558.821 361.969C559.082 361.713 559.283 361.396 559.425 361.017L561.044 361.472C560.874 362.021 560.587 362.504 560.185 362.92C559.783 363.332 559.285 363.654 558.694 363.886C558.102 364.114 557.436 364.227 556.698 364.227Z" fill="#495057"/>
<path d="M442.12 304H444.808C446.259 304 447.315 304.283 447.976 304.848C448.637 305.413 448.968 306.16 448.968 307.088C448.968 307.675 448.851 308.192 448.616 308.64C448.392 309.088 448.077 309.413 447.672 309.616C448.184 309.883 448.589 310.24 448.888 310.688C449.187 311.125 449.336 311.776 449.336 312.64C449.336 314.88 447.571 316 444.04 316H442.12V304ZM444.952 308.88C445.571 308.88 446.029 308.779 446.328 308.576C446.637 308.373 446.792 307.957 446.792 307.328C446.792 306.773 446.616 306.395 446.264 306.192C445.923 305.979 445.453 305.872 444.856 305.872H444.392V308.88H444.952ZM444.904 314.128C445.672 314.128 446.227 313.941 446.568 313.568C446.909 313.184 447.08 312.768 447.08 312.32C447.08 311.627 446.893 311.168 446.52 310.944C446.157 310.709 445.645 310.592 444.984 310.592H444.472V314.128H444.904ZM453.717 316.208C452.639 316.208 451.807 315.781 451.221 314.928C450.645 314.075 450.357 312.939 450.357 311.52C450.357 310.112 450.645 308.987 451.221 308.144C451.797 307.301 452.629 306.88 453.717 306.88C454.794 306.88 455.626 307.301 456.213 308.144C456.81 308.987 457.109 310.112 457.109 311.52C457.109 312.928 456.81 314.064 456.213 314.928C455.626 315.781 454.794 316.208 453.717 316.208ZM453.717 314.544C454.197 314.544 454.506 314.251 454.645 313.664C454.783 313.077 454.853 312.357 454.853 311.504C454.853 310.651 454.783 309.931 454.645 309.344C454.506 308.757 454.197 308.464 453.717 308.464C453.237 308.464 452.933 308.741 452.805 309.296C452.677 309.851 452.613 310.528 452.613 311.328C452.613 312.309 452.677 313.093 452.805 313.68C452.933 314.256 453.237 314.544 453.717 314.544ZM460.824 316.208C459.096 316.208 458.232 314.64 458.232 311.504C458.232 309.872 458.446 308.693 458.872 307.968C459.299 307.243 459.966 306.88 460.872 306.88C461.256 306.88 461.624 307.008 461.976 307.264C462.328 307.509 462.584 307.819 462.744 308.192V304.288L465 304V315.904L463.304 316.096L462.744 314.88C462.638 315.275 462.44 315.595 462.152 315.84C461.864 316.085 461.422 316.208 460.824 316.208ZM461.656 314.608C461.976 314.608 462.238 314.432 462.44 314.08C462.643 313.717 462.744 313.109 462.744 312.256V309.248C462.435 308.768 462.072 308.528 461.656 308.528C461.304 308.528 461.043 308.656 460.872 308.912C460.712 309.157 460.606 309.483 460.552 309.888C460.51 310.293 460.488 310.832 460.488 311.504C460.488 312.187 460.51 312.741 460.552 313.168C460.606 313.595 460.718 313.941 460.888 314.208C461.059 314.475 461.315 314.608 461.656 314.608ZM467.122 318.848C466.866 318.848 466.551 318.816 466.178 318.752V316.88C466.572 316.901 466.887 316.912 467.122 316.912C468.06 316.912 468.53 316.475 468.53 315.6V315.152L465.954 307.104L468.386 306.992L469.65 312.64L470.85 307.04L472.882 307.024L470.578 315.84C470.258 316.992 469.788 317.781 469.17 318.208C468.562 318.635 467.879 318.848 467.122 318.848ZM479.563 316.096V305.872H477.115L477.291 304H484.331L484.139 305.872H481.899V315.904L479.563 316.096ZM488.356 316.208C487.289 316.208 486.473 315.787 485.908 314.944C485.342 314.091 485.06 312.96 485.06 311.552C485.06 310.123 485.348 308.987 485.924 308.144C486.5 307.301 487.337 306.88 488.436 306.88C489.481 306.88 490.281 307.301 490.836 308.144C491.39 308.987 491.668 310.123 491.668 311.552C491.668 311.637 491.652 311.701 491.62 311.744C491.588 311.776 491.572 311.797 491.572 311.808H487.3C487.3 312.501 487.39 313.136 487.572 313.712C487.753 314.277 488.03 314.56 488.404 314.56C488.82 314.56 489.129 314.32 489.332 313.84C489.534 313.36 489.641 313.109 489.652 313.088L491.348 313.728C491.124 314.496 490.766 315.104 490.276 315.552C489.785 315.989 489.145 316.208 488.356 316.208ZM489.46 310.512C489.46 309.872 489.374 309.365 489.204 308.992C489.033 308.619 488.766 308.432 488.404 308.432C488.222 308.432 488.046 308.523 487.876 308.704C487.705 308.885 487.566 309.136 487.46 309.456C487.353 309.776 487.3 310.128 487.3 310.512H489.46ZM496.881 316.096L495.553 313.344L494.177 316H492.033L494.465 311.472L492.113 306.992H494.577L495.649 309.2L496.801 306.992H498.929L496.753 311.04L499.345 315.904L496.881 316.096ZM503.345 316.176C502.62 316.176 502.006 315.995 501.505 315.632C501.004 315.259 500.753 314.603 500.753 313.664V308.688H499.505L499.601 306.992H500.817L501.041 305.04L502.993 304.768V306.992H504.849L504.753 308.688H503.009V313.648C503.009 313.968 503.089 314.197 503.249 314.336C503.409 314.475 503.644 314.544 503.953 314.544C504.124 314.544 504.412 314.512 504.817 314.448V316C504.774 316.011 504.604 316.043 504.305 316.096C504.017 316.149 503.697 316.176 503.345 316.176Z" fill="#212529"/>
<path opacity="0.7" d="M81.7614 363V348.455H90.483V350.017H83.5227V354.932H89.8295V356.494H83.5227V363H81.7614ZM93.1552 363V352.091H94.7745V353.739H94.8881C95.087 353.199 95.4469 352.761 95.9677 352.425C96.4885 352.089 97.0756 351.92 97.729 351.92C97.8522 351.92 98.006 351.923 98.1907 351.928C98.3754 351.932 98.515 351.939 98.6097 351.949V353.653C98.5529 353.639 98.4227 353.618 98.2191 353.589C98.0202 353.556 97.8095 353.54 97.587 353.54C97.0567 353.54 96.5832 353.651 96.1665 353.874C95.7546 354.091 95.4279 354.394 95.1864 354.783C94.9497 355.166 94.8313 355.604 94.8313 356.097V363H93.1552ZM103.807 363.256C103.116 363.256 102.488 363.125 101.925 362.865C101.361 362.6 100.914 362.219 100.582 361.722C100.251 361.22 100.085 360.614 100.085 359.903C100.085 359.278 100.208 358.772 100.455 358.384C100.701 357.991 101.03 357.683 101.442 357.46C101.854 357.238 102.308 357.072 102.805 356.963C103.307 356.849 103.812 356.759 104.318 356.693C104.981 356.608 105.518 356.544 105.93 356.501C106.347 356.454 106.65 356.376 106.839 356.267C107.034 356.158 107.131 355.969 107.131 355.699V355.642C107.131 354.941 106.939 354.397 106.555 354.009C106.177 353.62 105.601 353.426 104.83 353.426C104.029 353.426 103.402 353.601 102.947 353.952C102.493 354.302 102.173 354.676 101.989 355.074L100.398 354.506C100.682 353.843 101.061 353.327 101.534 352.957C102.012 352.583 102.533 352.323 103.097 352.176C103.665 352.025 104.223 351.949 104.773 351.949C105.123 351.949 105.526 351.991 105.98 352.077C106.439 352.157 106.882 352.325 107.308 352.581C107.739 352.837 108.097 353.223 108.381 353.739C108.665 354.255 108.807 354.946 108.807 355.812V363H107.131V361.523H107.045C106.932 361.759 106.742 362.013 106.477 362.283C106.212 362.553 105.859 362.782 105.419 362.972C104.979 363.161 104.441 363.256 103.807 363.256ZM104.062 361.75C104.725 361.75 105.284 361.62 105.739 361.359C106.198 361.099 106.544 360.763 106.776 360.351C107.012 359.939 107.131 359.506 107.131 359.051V357.517C107.06 357.602 106.903 357.68 106.662 357.751C106.425 357.818 106.151 357.877 105.838 357.929C105.53 357.976 105.23 358.019 104.936 358.057C104.647 358.09 104.413 358.118 104.233 358.142C103.797 358.199 103.39 358.291 103.011 358.419C102.637 358.542 102.334 358.729 102.102 358.98C101.875 359.226 101.761 359.562 101.761 359.989C101.761 360.571 101.977 361.011 102.408 361.31C102.843 361.603 103.395 361.75 104.062 361.75ZM113.542 356.438V363H111.866V352.091H113.485V353.795H113.627C113.883 353.241 114.271 352.796 114.792 352.46C115.313 352.119 115.985 351.949 116.809 351.949C117.548 351.949 118.194 352.1 118.748 352.403C119.302 352.702 119.733 353.156 120.041 353.767C120.349 354.373 120.502 355.14 120.502 356.068V363H118.826V356.182C118.826 355.325 118.604 354.657 118.159 354.179C117.714 353.696 117.103 353.455 116.326 353.455C115.791 353.455 115.313 353.571 114.892 353.803C114.475 354.035 114.146 354.373 113.904 354.818C113.663 355.263 113.542 355.803 113.542 356.438ZM127.997 363.227C126.974 363.227 126.094 362.986 125.355 362.503C124.616 362.02 124.048 361.355 123.651 360.507C123.253 359.66 123.054 358.691 123.054 357.602C123.054 356.494 123.258 355.517 123.665 354.669C124.077 353.817 124.65 353.152 125.384 352.673C126.122 352.19 126.984 351.949 127.969 351.949C128.736 351.949 129.427 352.091 130.043 352.375C130.658 352.659 131.162 353.057 131.555 353.568C131.948 354.08 132.192 354.676 132.287 355.358H130.611C130.483 354.861 130.199 354.42 129.759 354.037C129.323 353.649 128.736 353.455 127.997 353.455C127.344 353.455 126.771 353.625 126.278 353.966C125.791 354.302 125.41 354.778 125.135 355.393C124.865 356.004 124.73 356.722 124.73 357.545C124.73 358.388 124.863 359.122 125.128 359.747C125.398 360.372 125.777 360.857 126.264 361.203C126.757 361.549 127.334 361.722 127.997 361.722C128.433 361.722 128.828 361.646 129.183 361.494C129.538 361.343 129.839 361.125 130.085 360.841C130.331 360.557 130.507 360.216 130.611 359.818H132.287C132.192 360.462 131.958 361.042 131.584 361.558C131.214 362.07 130.724 362.477 130.114 362.78C129.508 363.078 128.802 363.227 127.997 363.227ZM139.169 363.227C138.184 363.227 137.32 362.993 136.577 362.524C135.838 362.055 135.26 361.4 134.844 360.557C134.432 359.714 134.226 358.729 134.226 357.602C134.226 356.466 134.432 355.474 134.844 354.626C135.26 353.779 135.838 353.121 136.577 352.652C137.32 352.183 138.184 351.949 139.169 351.949C140.154 351.949 141.016 352.183 141.754 352.652C142.498 353.121 143.075 353.779 143.487 354.626C143.904 355.474 144.112 356.466 144.112 357.602C144.112 358.729 143.904 359.714 143.487 360.557C143.075 361.4 142.498 362.055 141.754 362.524C141.016 362.993 140.154 363.227 139.169 363.227ZM139.169 361.722C139.917 361.722 140.533 361.53 141.016 361.146C141.499 360.763 141.856 360.259 142.088 359.634C142.32 359.009 142.436 358.331 142.436 357.602C142.436 356.873 142.32 356.194 142.088 355.564C141.856 354.934 141.499 354.425 141.016 354.037C140.533 353.649 139.917 353.455 139.169 353.455C138.421 353.455 137.805 353.649 137.322 354.037C136.839 354.425 136.482 354.934 136.25 355.564C136.018 356.194 135.902 356.873 135.902 357.602C135.902 358.331 136.018 359.009 136.25 359.634C136.482 360.259 136.839 360.763 137.322 361.146C137.805 361.53 138.421 361.722 139.169 361.722ZM146.671 363V352.091H148.347V363H146.671ZM147.523 350.273C147.196 350.273 146.915 350.161 146.678 349.939C146.446 349.716 146.33 349.449 146.33 349.136C146.33 348.824 146.446 348.556 146.678 348.334C146.915 348.111 147.196 348 147.523 348C147.85 348 148.129 348.111 148.361 348.334C148.598 348.556 148.716 348.824 148.716 349.136C148.716 349.449 148.598 349.716 148.361 349.939C148.129 350.161 147.85 350.273 147.523 350.273ZM159.144 354.534L157.638 354.96C157.544 354.709 157.404 354.465 157.219 354.229C157.04 353.987 156.793 353.788 156.481 353.632C156.168 353.476 155.768 353.398 155.281 353.398C154.613 353.398 154.057 353.552 153.612 353.859C153.171 354.162 152.951 354.548 152.951 355.017C152.951 355.434 153.103 355.763 153.406 356.004C153.709 356.246 154.182 356.447 154.826 356.608L156.445 357.006C157.421 357.242 158.147 357.605 158.626 358.092C159.104 358.575 159.343 359.198 159.343 359.96C159.343 360.585 159.163 361.144 158.803 361.636C158.448 362.129 157.951 362.517 157.312 362.801C156.673 363.085 155.929 363.227 155.082 363.227C153.969 363.227 153.048 362.986 152.319 362.503C151.59 362.02 151.128 361.314 150.934 360.386L152.525 359.989C152.676 360.576 152.963 361.016 153.384 361.31C153.81 361.603 154.367 361.75 155.053 361.75C155.835 361.75 156.455 361.584 156.914 361.253C157.378 360.917 157.61 360.514 157.61 360.045C157.61 359.667 157.478 359.349 157.212 359.094C156.947 358.833 156.54 358.639 155.991 358.511L154.173 358.085C153.174 357.848 152.44 357.482 151.971 356.984C151.507 356.482 151.275 355.855 151.275 355.102C151.275 354.487 151.448 353.942 151.793 353.469C152.144 352.995 152.62 352.624 153.221 352.354C153.827 352.084 154.513 351.949 155.281 351.949C156.36 351.949 157.208 352.186 157.823 352.659C158.443 353.133 158.884 353.758 159.144 354.534ZM171.923 363.227C170.938 363.227 170.074 362.993 169.331 362.524C168.592 362.055 168.014 361.4 167.598 360.557C167.186 359.714 166.98 358.729 166.98 357.602C166.98 356.466 167.186 355.474 167.598 354.626C168.014 353.779 168.592 353.121 169.331 352.652C170.074 352.183 170.938 351.949 171.923 351.949C172.908 351.949 173.77 352.183 174.508 352.652C175.252 353.121 175.829 353.779 176.241 354.626C176.658 355.474 176.866 356.466 176.866 357.602C176.866 358.729 176.658 359.714 176.241 360.557C175.829 361.4 175.252 362.055 174.508 362.524C173.77 362.993 172.908 363.227 171.923 363.227ZM171.923 361.722C172.671 361.722 173.287 361.53 173.77 361.146C174.252 360.763 174.61 360.259 174.842 359.634C175.074 359.009 175.19 358.331 175.19 357.602C175.19 356.873 175.074 356.194 174.842 355.564C174.61 354.934 174.252 354.425 173.77 354.037C173.287 353.649 172.671 353.455 171.923 353.455C171.175 353.455 170.559 353.649 170.076 354.037C169.593 354.425 169.236 354.934 169.004 355.564C168.772 356.194 168.656 356.873 168.656 357.602C168.656 358.331 168.772 359.009 169.004 359.634C169.236 360.259 169.593 360.763 170.076 361.146C170.559 361.53 171.175 361.722 171.923 361.722ZM181.101 356.438V363H179.425V352.091H181.044V353.795H181.186C181.442 353.241 181.83 352.796 182.351 352.46C182.872 352.119 183.544 351.949 184.368 351.949C185.107 351.949 185.753 352.1 186.307 352.403C186.861 352.702 187.292 353.156 187.599 353.767C187.907 354.373 188.061 355.14 188.061 356.068V363H186.385V356.182C186.385 355.325 186.162 354.657 185.717 354.179C185.272 353.696 184.661 353.455 183.885 353.455C183.35 353.455 182.872 353.571 182.45 353.803C182.034 354.035 181.705 354.373 181.463 354.818C181.222 355.263 181.101 355.803 181.101 356.438ZM195.698 363.227C194.647 363.227 193.74 362.995 192.978 362.531C192.22 362.062 191.635 361.409 191.223 360.571C190.816 359.728 190.613 358.748 190.613 357.631C190.613 356.513 190.816 355.528 191.223 354.676C191.635 353.819 192.208 353.152 192.942 352.673C193.681 352.19 194.542 351.949 195.527 351.949C196.096 351.949 196.657 352.044 197.211 352.233C197.765 352.422 198.269 352.73 198.723 353.156C199.178 353.578 199.54 354.136 199.81 354.832C200.08 355.528 200.215 356.385 200.215 357.403V358.114H191.806V356.665H198.51C198.51 356.049 198.387 355.5 198.141 355.017C197.9 354.534 197.554 354.153 197.104 353.874C196.659 353.594 196.133 353.455 195.527 353.455C194.86 353.455 194.282 353.62 193.794 353.952C193.311 354.278 192.94 354.705 192.679 355.23C192.419 355.756 192.289 356.319 192.289 356.92V357.886C192.289 358.71 192.431 359.409 192.715 359.982C193.004 360.55 193.404 360.983 193.915 361.281C194.426 361.575 195.021 361.722 195.698 361.722C196.138 361.722 196.536 361.66 196.891 361.537C197.251 361.409 197.561 361.22 197.821 360.969C198.082 360.713 198.283 360.396 198.425 360.017L200.044 360.472C199.874 361.021 199.587 361.504 199.185 361.92C198.783 362.332 198.285 362.654 197.694 362.886C197.102 363.114 196.436 363.227 195.698 363.227Z" fill="#495057"/>
<path d="M81.26 300.5H84.284C85.916 300.5 87.104 300.818 87.848 301.454C88.592 302.09 88.964 302.93 88.964 303.974C88.964 304.634 88.832 305.216 88.568 305.72C88.316 306.224 87.962 306.59 87.506 306.818C88.082 307.118 88.538 307.52 88.874 308.024C89.21 308.516 89.378 309.248 89.378 310.22C89.378 312.74 87.392 314 83.42 314H81.26V300.5ZM84.446 305.99C85.142 305.99 85.658 305.876 85.994 305.648C86.342 305.42 86.516 304.952 86.516 304.244C86.516 303.62 86.318 303.194 85.922 302.966C85.538 302.726 85.01 302.606 84.338 302.606H83.816V305.99H84.446ZM84.392 311.894C85.256 311.894 85.88 311.684 86.264 311.264C86.648 310.832 86.84 310.364 86.84 309.86C86.84 309.08 86.63 308.564 86.21 308.312C85.802 308.048 85.226 307.916 84.482 307.916H83.906V311.894H84.392ZM95.0981 314.252C93.7541 314.252 92.7461 313.82 92.0741 312.956C91.4021 312.092 91.0661 310.958 91.0661 309.554V300.608L93.7121 300.5V309.77C93.7121 310.238 93.7361 310.634 93.7841 310.958C93.8441 311.282 93.9821 311.558 94.1981 311.786C94.4141 312.014 94.7441 312.128 95.1881 312.128C95.6081 312.128 95.9141 312.014 96.1061 311.786C96.3101 311.546 96.4361 311.27 96.4841 310.958C96.5321 310.634 96.5561 310.226 96.5561 309.734V300.716L98.9681 300.5V309.248C98.9681 310.52 98.7161 311.672 98.2121 312.704C97.7201 313.736 96.6821 314.252 95.0981 314.252ZM103.151 314.108V302.606H100.397L100.595 300.5H108.515L108.299 302.606H105.779V313.892L103.151 314.108ZM111.729 314.108V302.606H108.975L109.173 300.5H117.093L116.877 302.606H114.357V313.892L111.729 314.108ZM122.197 314.252C120.673 314.252 119.599 313.598 118.975 312.29C118.363 310.97 118.057 309.266 118.057 307.178C118.057 304.958 118.387 303.248 119.047 302.048C119.707 300.848 120.769 300.248 122.233 300.248C125.029 300.248 126.427 302.534 126.427 307.106C126.427 309.158 126.109 310.862 125.473 312.218C124.849 313.574 123.757 314.252 122.197 314.252ZM122.233 312.128C122.869 312.128 123.289 311.714 123.493 310.886C123.697 310.046 123.799 308.78 123.799 307.088C123.799 305.732 123.697 304.61 123.493 303.722C123.301 302.822 122.881 302.372 122.233 302.372C121.585 302.372 121.165 302.816 120.973 303.704C120.781 304.592 120.685 305.714 120.685 307.07C120.685 308.774 120.781 310.046 120.973 310.886C121.177 311.714 121.597 312.128 122.233 312.128ZM134.74 314.108L130.798 305.666V313.892L128.44 314V300.608L131.194 300.5L134.686 308.528V300.716L136.918 300.5V313.892L134.74 314.108ZM143.964 314V311.786H145.692V303.794L143.838 304.19V302.3L146.916 300.5H148.212V311.786H149.976L149.868 314H143.964Z" fill="#212529"/>
<path opacity="0.7" d="M803.358 142H801.511L806.852 127.455H808.67L814.011 142H812.165L807.818 129.756H807.705L803.358 142ZM804.04 136.318H811.483V137.881H804.04V136.318ZM822.925 137.54V131.091H824.601V142H822.925V140.153H822.811C822.555 140.707 822.158 141.179 821.618 141.567C821.078 141.95 820.396 142.142 819.572 142.142C818.891 142.142 818.285 141.993 817.754 141.695C817.224 141.392 816.807 140.937 816.504 140.331C816.201 139.72 816.05 138.951 816.05 138.023V131.091H817.726V137.909C817.726 138.705 817.948 139.339 818.393 139.812C818.843 140.286 819.416 140.523 820.112 140.523C820.529 140.523 820.953 140.416 821.384 140.203C821.819 139.99 822.184 139.663 822.477 139.223C822.776 138.783 822.925 138.222 822.925 137.54ZM831.79 142.227C830.881 142.227 830.078 141.998 829.382 141.538C828.686 141.074 828.142 140.421 827.749 139.578C827.356 138.731 827.159 137.729 827.159 136.574C827.159 135.428 827.356 134.434 827.749 133.591C828.142 132.748 828.689 132.097 829.39 131.638C830.09 131.179 830.9 130.949 831.819 130.949C832.529 130.949 833.09 131.067 833.502 131.304C833.918 131.536 834.236 131.801 834.453 132.099C834.676 132.393 834.849 132.634 834.972 132.824H835.114V127.455H836.79V142H835.171V140.324H834.972C834.849 140.523 834.674 140.774 834.446 141.077C834.219 141.375 833.895 141.643 833.473 141.879C833.052 142.111 832.491 142.227 831.79 142.227ZM832.017 140.722C832.69 140.722 833.258 140.546 833.722 140.196C834.186 139.841 834.539 139.351 834.78 138.726C835.022 138.096 835.142 137.369 835.142 136.545C835.142 135.731 835.024 135.018 834.787 134.408C834.551 133.792 834.2 133.314 833.736 132.973C833.272 132.627 832.699 132.455 832.017 132.455C831.307 132.455 830.715 132.637 830.242 133.001C829.773 133.361 829.42 133.851 829.184 134.472C828.952 135.087 828.836 135.778 828.836 136.545C828.836 137.322 828.954 138.027 829.191 138.662C829.432 139.292 829.787 139.794 830.256 140.168C830.73 140.537 831.317 140.722 832.017 140.722ZM840.093 142V131.091H841.769V142H840.093ZM840.945 129.273C840.618 129.273 840.337 129.161 840.1 128.939C839.868 128.716 839.752 128.449 839.752 128.136C839.752 127.824 839.868 127.556 840.1 127.334C840.337 127.111 840.618 127 840.945 127C841.272 127 841.551 127.111 841.783 127.334C842.02 127.556 842.138 127.824 842.138 128.136C842.138 128.449 842.02 128.716 841.783 128.939C841.551 129.161 841.272 129.273 840.945 129.273ZM849.271 142.227C848.286 142.227 847.422 141.993 846.678 141.524C845.94 141.055 845.362 140.4 844.945 139.557C844.533 138.714 844.327 137.729 844.327 136.602C844.327 135.466 844.533 134.474 844.945 133.626C845.362 132.779 845.94 132.121 846.678 131.652C847.422 131.183 848.286 130.949 849.271 130.949C850.255 130.949 851.117 131.183 851.856 131.652C852.599 132.121 853.177 132.779 853.589 133.626C854.005 134.474 854.214 135.466 854.214 136.602C854.214 137.729 854.005 138.714 853.589 139.557C853.177 140.4 852.599 141.055 851.856 141.524C851.117 141.993 850.255 142.227 849.271 142.227ZM849.271 140.722C850.019 140.722 850.634 140.53 851.117 140.146C851.6 139.763 851.958 139.259 852.19 138.634C852.422 138.009 852.538 137.331 852.538 136.602C852.538 135.873 852.422 135.194 852.19 134.564C851.958 133.934 851.6 133.425 851.117 133.037C850.634 132.649 850.019 132.455 849.271 132.455C848.522 132.455 847.907 132.649 847.424 133.037C846.941 133.425 846.584 133.934 846.352 134.564C846.12 135.194 846.004 135.873 846.004 136.602C846.004 137.331 846.12 138.009 846.352 138.634C846.584 139.259 846.941 139.763 847.424 140.146C847.907 140.53 848.522 140.722 849.271 140.722ZM858.873 142L855.549 131.091H857.31L859.668 139.443H859.782L862.112 131.091H863.901L866.202 139.415H866.316L868.674 131.091H870.435L867.112 142H865.464L863.077 133.619H862.907L860.521 142H858.873ZM872.651 142V131.091H874.327V142H872.651ZM873.504 129.273C873.177 129.273 872.895 129.161 872.658 128.939C872.426 128.716 872.31 128.449 872.31 128.136C872.31 127.824 872.426 127.556 872.658 127.334C872.895 127.111 873.177 127 873.504 127C873.83 127 874.11 127.111 874.342 127.334C874.578 127.556 874.697 127.824 874.697 128.136C874.697 128.449 874.578 128.716 874.342 128.939C874.11 129.161 873.83 129.273 873.504 129.273ZM881.517 142.227C880.608 142.227 879.805 141.998 879.109 141.538C878.413 141.074 877.868 140.421 877.475 139.578C877.083 138.731 876.886 137.729 876.886 136.574C876.886 135.428 877.083 134.434 877.475 133.591C877.868 132.748 878.415 132.097 879.116 131.638C879.817 131.179 880.627 130.949 881.545 130.949C882.255 130.949 882.816 131.067 883.228 131.304C883.645 131.536 883.962 131.801 884.18 132.099C884.403 132.393 884.575 132.634 884.699 132.824H884.841V127.455H886.517V142H884.897V140.324H884.699C884.575 140.523 884.4 140.774 884.173 141.077C883.946 141.375 883.621 141.643 883.2 141.879C882.779 142.111 882.217 142.227 881.517 142.227ZM881.744 140.722C882.416 140.722 882.984 140.546 883.449 140.196C883.913 139.841 884.265 139.351 884.507 138.726C884.748 138.096 884.869 137.369 884.869 136.545C884.869 135.731 884.751 135.018 884.514 134.408C884.277 133.792 883.927 133.314 883.463 132.973C882.999 132.627 882.426 132.455 881.744 132.455C881.034 132.455 880.442 132.637 879.968 133.001C879.5 133.361 879.147 133.851 878.91 134.472C878.678 135.087 878.562 135.778 878.562 136.545C878.562 137.322 878.681 138.027 878.917 138.662C879.159 139.292 879.514 139.794 879.983 140.168C880.456 140.537 881.043 140.722 881.744 140.722ZM894.393 142.227C893.342 142.227 892.435 141.995 891.673 141.531C890.915 141.062 890.331 140.409 889.919 139.571C889.511 138.728 889.308 137.748 889.308 136.631C889.308 135.513 889.511 134.528 889.919 133.676C890.331 132.819 890.904 132.152 891.637 131.673C892.376 131.19 893.238 130.949 894.223 130.949C894.791 130.949 895.352 131.044 895.906 131.233C896.46 131.422 896.964 131.73 897.419 132.156C897.873 132.578 898.235 133.136 898.505 133.832C898.775 134.528 898.91 135.385 898.91 136.403V137.114H890.501V135.665H897.206C897.206 135.049 897.083 134.5 896.836 134.017C896.595 133.534 896.249 133.153 895.799 132.874C895.354 132.594 894.829 132.455 894.223 132.455C893.555 132.455 892.977 132.62 892.49 132.952C892.007 133.278 891.635 133.705 891.375 134.23C891.114 134.756 890.984 135.319 890.984 135.92V136.886C890.984 137.71 891.126 138.409 891.41 138.982C891.699 139.55 892.099 139.983 892.61 140.281C893.122 140.575 893.716 140.722 894.393 140.722C894.833 140.722 895.231 140.66 895.586 140.537C895.946 140.409 896.256 140.22 896.517 139.969C896.777 139.713 896.978 139.396 897.12 139.017L898.74 139.472C898.569 140.021 898.283 140.504 897.88 140.92C897.478 141.332 896.981 141.654 896.389 141.886C895.797 142.114 895.132 142.227 894.393 142.227Z" fill="#495057"/>
<path d="M804.63 94.5469H812.654V89.3965H814.939V102H812.654V96.8496H804.63V102H802.345V89.3965H804.63V94.5469ZM827.517 95.6455C827.517 95.9619 827.461 96.3047 827.35 96.6738C827.238 97.0371 827.057 97.377 826.805 97.6934C826.559 98.0039 826.233 98.2646 825.829 98.4756C825.431 98.6865 824.944 98.792 824.37 98.792H820.248V96.6211H824.37C824.681 96.6211 824.921 96.5273 825.091 96.3398C825.261 96.1465 825.346 95.9092 825.346 95.6279C825.346 95.3291 825.249 95.0947 825.056 94.9248C824.868 94.7549 824.64 94.6699 824.37 94.6699H820.248C819.938 94.6699 819.697 94.7666 819.527 94.96C819.357 95.1475 819.272 95.3818 819.272 95.6631V98.8535C819.272 99.1582 819.366 99.3955 819.554 99.5654C819.747 99.7354 819.984 99.8203 820.266 99.8203H824.37V102H820.248C819.932 102 819.589 101.944 819.22 101.833C818.856 101.722 818.517 101.543 818.2 101.297C817.89 101.045 817.629 100.72 817.418 100.321C817.207 99.917 817.102 99.4277 817.102 98.8535V95.6455C817.102 95.3291 817.157 94.9893 817.269 94.626C817.38 94.2568 817.559 93.917 817.805 93.6064C818.057 93.29 818.382 93.0264 818.78 92.8154C819.185 92.6045 819.674 92.499 820.248 92.499H824.37C824.687 92.499 825.026 92.5547 825.39 92.666C825.759 92.7773 826.099 92.959 826.409 93.2109C826.726 93.457 826.989 93.7822 827.2 94.1865C827.411 94.585 827.517 95.0713 827.517 95.6455ZM838.793 98.8535C838.793 99.1699 838.737 99.5127 838.626 99.8818C838.515 100.245 838.333 100.585 838.081 100.901C837.835 101.212 837.51 101.473 837.105 101.684C836.707 101.895 836.221 102 835.646 102H831.524C831.208 102 830.865 101.944 830.496 101.833C830.133 101.722 829.793 101.543 829.477 101.297C829.166 101.045 828.905 100.72 828.694 100.321C828.483 99.917 828.378 99.4277 828.378 98.8535C828.378 98.5371 828.434 98.1943 828.545 97.8252C828.656 97.4561 828.835 97.1162 829.081 96.8057C829.333 96.4893 829.658 96.2256 830.057 96.0146C830.461 95.8037 830.95 95.6982 831.524 95.6982H835.646V97.8779H831.524C831.214 97.8779 830.974 97.9746 830.804 98.168C830.634 98.3555 830.549 98.5898 830.549 98.8711C830.549 99.1699 830.646 99.4043 830.839 99.5742C831.038 99.7383 831.272 99.8203 831.542 99.8203H835.646C835.957 99.8203 836.197 99.7266 836.367 99.5391C836.537 99.3516 836.622 99.1172 836.622 98.8359V95.6455C836.622 95.3467 836.528 95.1094 836.341 94.9336C836.159 94.7578 835.928 94.6699 835.646 94.6699H830.628V92.499H835.646C835.963 92.499 836.303 92.5547 836.666 92.666C837.035 92.7773 837.375 92.959 837.686 93.2109C838.002 93.457 838.266 93.7822 838.477 94.1865C838.688 94.585 838.793 95.0713 838.793 95.6455V98.8535ZM851.168 98.792C851.168 99.1846 851.118 99.5391 851.019 99.8555C850.919 100.166 850.787 100.441 850.623 100.682C850.459 100.916 850.269 101.118 850.052 101.288C849.835 101.452 849.606 101.587 849.366 101.692C849.132 101.798 848.892 101.877 848.646 101.93C848.405 101.977 848.177 102 847.96 102H843.838C843.445 102 843.094 101.95 842.783 101.851C842.473 101.751 842.197 101.619 841.957 101.455C841.723 101.285 841.521 101.092 841.351 100.875C841.187 100.658 841.052 100.433 840.946 100.198C840.841 99.958 840.762 99.7178 840.709 99.4775C840.662 99.2314 840.639 99.0029 840.639 98.792V95.6982C840.639 95.1123 840.744 94.6172 840.955 94.2129C841.172 93.8027 841.438 93.4717 841.755 93.2197C842.077 92.9619 842.426 92.7773 842.801 92.666C843.176 92.5547 843.521 92.499 843.838 92.499H847.96V94.7842H843.855C843.551 94.7842 843.319 94.8633 843.161 95.0215C843.003 95.1738 842.924 95.3994 842.924 95.6982V98.7744C842.924 99.085 843 99.3193 843.152 99.4775C843.311 99.6357 843.539 99.7148 843.838 99.7148H847.96C848.271 99.7148 848.502 99.6357 848.654 99.4775C848.807 99.3193 848.883 99.0908 848.883 98.792V88.4824H851.168V98.792ZM855.668 90.5479H853.383V88.4824H855.668V90.5479ZM855.668 102H853.383V92.499H855.668V102ZM868.395 102H866.109V96.7266C866.109 96.4277 866.057 96.1611 865.951 95.9268C865.852 95.6865 865.714 95.4814 865.538 95.3115C865.362 95.1416 865.154 95.0127 864.914 94.9248C864.68 94.8311 864.425 94.7842 864.149 94.7842H860.15V102H857.865V93.6328C857.865 93.4746 857.895 93.3281 857.953 93.1934C858.012 93.0527 858.094 92.9326 858.199 92.833C858.305 92.7275 858.428 92.6455 858.568 92.5869C858.709 92.5283 858.858 92.499 859.017 92.499H864.167C864.454 92.499 864.756 92.5312 865.072 92.5957C865.395 92.6602 865.711 92.7656 866.021 92.9121C866.338 93.0527 866.637 93.2344 866.918 93.457C867.205 93.6738 867.457 93.9404 867.674 94.2568C867.896 94.5674 868.072 94.9277 868.201 95.3379C868.33 95.748 868.395 96.2109 868.395 96.7266V102ZM880.734 102.914C880.734 103.307 880.685 103.658 880.585 103.969C880.485 104.285 880.354 104.561 880.189 104.795C880.025 105.035 879.835 105.237 879.618 105.401C879.401 105.571 879.173 105.709 878.933 105.814C878.698 105.92 878.458 105.996 878.212 106.043C877.972 106.096 877.743 106.122 877.526 106.122H873.404V103.837H877.526C877.837 103.837 878.068 103.758 878.221 103.6C878.373 103.441 878.449 103.213 878.449 102.914V95.6982C878.449 95.3994 878.373 95.1738 878.221 95.0215C878.068 94.8633 877.837 94.7842 877.526 94.7842H873.404C873.123 94.7842 872.9 94.8721 872.736 95.0479C872.572 95.2178 872.49 95.4346 872.49 95.6982V98.792C872.49 99.0908 872.569 99.3193 872.728 99.4775C872.886 99.6357 873.117 99.7148 873.422 99.7148H877.526V102H873.404C873.188 102 872.959 101.977 872.719 101.93C872.479 101.877 872.238 101.798 871.998 101.692C871.764 101.587 871.538 101.452 871.321 101.288C871.104 101.118 870.914 100.916 870.75 100.682C870.586 100.441 870.454 100.166 870.354 99.8555C870.255 99.5391 870.205 99.1846 870.205 98.792V95.6982C870.205 95.4814 870.229 95.2529 870.275 95.0127C870.328 94.7725 870.407 94.5352 870.513 94.3008C870.618 94.0605 870.753 93.832 870.917 93.6152C871.087 93.3984 871.289 93.208 871.523 93.0439C871.764 92.8799 872.039 92.748 872.35 92.6484C872.66 92.5488 873.012 92.499 873.404 92.499H877.526C877.743 92.499 877.972 92.5254 878.212 92.5781C878.458 92.625 878.698 92.7012 878.933 92.8066C879.173 92.9121 879.401 93.0498 879.618 93.2197C879.835 93.3838 880.025 93.5859 880.189 93.8262C880.354 94.0605 880.485 94.333 880.585 94.6436C880.685 94.9541 880.734 95.3057 880.734 95.6982V102.914ZM899.323 98.792C899.323 99.3838 899.215 99.8848 898.998 100.295C898.787 100.699 898.521 101.03 898.198 101.288C897.882 101.54 897.536 101.722 897.161 101.833C896.786 101.944 896.438 102 896.115 102H888.785V99.7148H896.115C896.426 99.7148 896.654 99.6357 896.801 99.4775C896.953 99.3193 897.029 99.0908 897.029 98.792V96.8496H888.785V94.5469H897.029V92.6221C897.029 91.9951 896.725 91.6816 896.115 91.6816H888.785V89.3965H896.115C896.508 89.3965 896.859 89.4463 897.17 89.5459C897.48 89.6455 897.753 89.7803 897.987 89.9502C898.228 90.1143 898.433 90.3047 898.603 90.5215C898.772 90.7383 898.91 90.9668 899.016 91.207C899.121 91.4414 899.197 91.6816 899.244 91.9277C899.297 92.168 899.323 92.3936 899.323 92.6045V98.792Z" fill="#212529"/>
<path opacity="0.7" d="M443.358 140H441.511L446.852 125.455H448.67L454.011 140H452.165L447.818 127.756H447.705L443.358 140ZM444.04 134.318H451.483V135.881H444.04V134.318ZM462.925 135.54V129.091H464.601V140H462.925V138.153H462.811C462.555 138.707 462.158 139.179 461.618 139.567C461.078 139.95 460.396 140.142 459.572 140.142C458.891 140.142 458.285 139.993 457.754 139.695C457.224 139.392 456.807 138.937 456.504 138.331C456.201 137.72 456.05 136.951 456.05 136.023V129.091H457.726V135.909C457.726 136.705 457.948 137.339 458.393 137.812C458.843 138.286 459.416 138.523 460.112 138.523C460.529 138.523 460.953 138.416 461.384 138.203C461.819 137.99 462.184 137.663 462.477 137.223C462.776 136.783 462.925 136.222 462.925 135.54ZM471.79 140.227C470.881 140.227 470.078 139.998 469.382 139.538C468.686 139.074 468.142 138.421 467.749 137.578C467.356 136.731 467.159 135.729 467.159 134.574C467.159 133.428 467.356 132.434 467.749 131.591C468.142 130.748 468.689 130.097 469.39 129.638C470.09 129.179 470.9 128.949 471.819 128.949C472.529 128.949 473.09 129.067 473.502 129.304C473.918 129.536 474.236 129.801 474.453 130.099C474.676 130.393 474.849 130.634 474.972 130.824H475.114V125.455H476.79V140H475.171V138.324H474.972C474.849 138.523 474.674 138.774 474.446 139.077C474.219 139.375 473.895 139.643 473.473 139.879C473.052 140.111 472.491 140.227 471.79 140.227ZM472.017 138.722C472.69 138.722 473.258 138.546 473.722 138.196C474.186 137.841 474.539 137.351 474.78 136.726C475.022 136.096 475.142 135.369 475.142 134.545C475.142 133.731 475.024 133.018 474.787 132.408C474.551 131.792 474.2 131.314 473.736 130.973C473.272 130.627 472.699 130.455 472.017 130.455C471.307 130.455 470.715 130.637 470.242 131.001C469.773 131.361 469.42 131.851 469.184 132.472C468.952 133.087 468.836 133.778 468.836 134.545C468.836 135.322 468.954 136.027 469.191 136.662C469.432 137.292 469.787 137.794 470.256 138.168C470.73 138.537 471.317 138.722 472.017 138.722ZM480.093 140V129.091H481.769V140H480.093ZM480.945 127.273C480.618 127.273 480.337 127.161 480.1 126.939C479.868 126.716 479.752 126.449 479.752 126.136C479.752 125.824 479.868 125.556 480.1 125.334C480.337 125.111 480.618 125 480.945 125C481.272 125 481.551 125.111 481.783 125.334C482.02 125.556 482.138 125.824 482.138 126.136C482.138 126.449 482.02 126.716 481.783 126.939C481.551 127.161 481.272 127.273 480.945 127.273ZM489.271 140.227C488.286 140.227 487.422 139.993 486.678 139.524C485.94 139.055 485.362 138.4 484.945 137.557C484.533 136.714 484.327 135.729 484.327 134.602C484.327 133.466 484.533 132.474 484.945 131.626C485.362 130.779 485.94 130.121 486.678 129.652C487.422 129.183 488.286 128.949 489.271 128.949C490.255 128.949 491.117 129.183 491.856 129.652C492.599 130.121 493.177 130.779 493.589 131.626C494.005 132.474 494.214 133.466 494.214 134.602C494.214 135.729 494.005 136.714 493.589 137.557C493.177 138.4 492.599 139.055 491.856 139.524C491.117 139.993 490.255 140.227 489.271 140.227ZM489.271 138.722C490.019 138.722 490.634 138.53 491.117 138.146C491.6 137.763 491.958 137.259 492.19 136.634C492.422 136.009 492.538 135.331 492.538 134.602C492.538 133.873 492.422 133.194 492.19 132.564C491.958 131.934 491.6 131.425 491.117 131.037C490.634 130.649 490.019 130.455 489.271 130.455C488.522 130.455 487.907 130.649 487.424 131.037C486.941 131.425 486.584 131.934 486.352 132.564C486.12 133.194 486.004 133.873 486.004 134.602C486.004 135.331 486.12 136.009 486.352 136.634C486.584 137.259 486.941 137.763 487.424 138.146C487.907 138.53 488.522 138.722 489.271 138.722ZM498.873 140L495.549 129.091H497.31L499.668 137.443H499.782L502.112 129.091H503.901L506.202 137.415H506.316L508.674 129.091H510.435L507.112 140H505.464L503.077 131.619H502.907L500.521 140H498.873ZM512.651 140V129.091H514.327V140H512.651ZM513.504 127.273C513.177 127.273 512.895 127.161 512.658 126.939C512.426 126.716 512.31 126.449 512.31 126.136C512.31 125.824 512.426 125.556 512.658 125.334C512.895 125.111 513.177 125 513.504 125C513.83 125 514.11 125.111 514.342 125.334C514.578 125.556 514.697 125.824 514.697 126.136C514.697 126.449 514.578 126.716 514.342 126.939C514.11 127.161 513.83 127.273 513.504 127.273ZM521.517 140.227C520.608 140.227 519.805 139.998 519.109 139.538C518.413 139.074 517.868 138.421 517.475 137.578C517.083 136.731 516.886 135.729 516.886 134.574C516.886 133.428 517.083 132.434 517.475 131.591C517.868 130.748 518.415 130.097 519.116 129.638C519.817 129.179 520.627 128.949 521.545 128.949C522.255 128.949 522.816 129.067 523.228 129.304C523.645 129.536 523.962 129.801 524.18 130.099C524.403 130.393 524.575 130.634 524.699 130.824H524.841V125.455H526.517V140H524.897V138.324H524.699C524.575 138.523 524.4 138.774 524.173 139.077C523.946 139.375 523.621 139.643 523.2 139.879C522.779 140.111 522.217 140.227 521.517 140.227ZM521.744 138.722C522.416 138.722 522.984 138.546 523.449 138.196C523.913 137.841 524.265 137.351 524.507 136.726C524.748 136.096 524.869 135.369 524.869 134.545C524.869 133.731 524.751 133.018 524.514 132.408C524.277 131.792 523.927 131.314 523.463 130.973C522.999 130.627 522.426 130.455 521.744 130.455C521.034 130.455 520.442 130.637 519.968 131.001C519.5 131.361 519.147 131.851 518.91 132.472C518.678 133.087 518.562 133.778 518.562 134.545C518.562 135.322 518.681 136.027 518.917 136.662C519.159 137.292 519.514 137.794 519.983 138.168C520.456 138.537 521.043 138.722 521.744 138.722ZM534.393 140.227C533.342 140.227 532.435 139.995 531.673 139.531C530.915 139.062 530.331 138.409 529.919 137.571C529.511 136.728 529.308 135.748 529.308 134.631C529.308 133.513 529.511 132.528 529.919 131.676C530.331 130.819 530.904 130.152 531.637 129.673C532.376 129.19 533.238 128.949 534.223 128.949C534.791 128.949 535.352 129.044 535.906 129.233C536.46 129.422 536.964 129.73 537.419 130.156C537.873 130.578 538.235 131.136 538.505 131.832C538.775 132.528 538.91 133.385 538.91 134.403V135.114H530.501V133.665H537.206C537.206 133.049 537.083 132.5 536.836 132.017C536.595 131.534 536.249 131.153 535.799 130.874C535.354 130.594 534.829 130.455 534.223 130.455C533.555 130.455 532.977 130.62 532.49 130.952C532.007 131.278 531.635 131.705 531.375 132.23C531.114 132.756 530.984 133.319 530.984 133.92V134.886C530.984 135.71 531.126 136.409 531.41 136.982C531.699 137.55 532.099 137.983 532.61 138.281C533.122 138.575 533.716 138.722 534.393 138.722C534.833 138.722 535.231 138.66 535.586 138.537C535.946 138.409 536.256 138.22 536.517 137.969C536.777 137.713 536.978 137.396 537.12 137.017L538.74 137.472C538.569 138.021 538.283 138.504 537.88 138.92C537.478 139.332 536.981 139.654 536.389 139.886C535.797 140.114 535.132 140.227 534.393 140.227Z" fill="#495057"/>
<path d="M445.84 88.0625H456.539V81.1953H459.586V98H456.539V91.1328H445.84V98H442.793V81.1953H445.84V88.0625ZM476.977 91.1328H467.355V88.0625H476.977V91.1328ZM478.348 98H467.355C466.934 98 466.473 97.9258 465.973 97.7773C465.473 97.6289 465.008 97.3867 464.578 97.0508C464.156 96.707 463.801 96.2656 463.512 95.7266C463.23 95.1797 463.09 94.5117 463.09 93.7227V82.7305C463.09 82.5195 463.129 82.3203 463.207 82.1328C463.285 81.9453 463.391 81.7812 463.523 81.6406C463.664 81.5 463.828 81.3906 464.016 81.3125C464.203 81.2344 464.406 81.1953 464.625 81.1953H478.348V84.2422H466.137V93.7227C466.137 94.1211 466.242 94.4258 466.453 94.6367C466.664 94.8477 466.973 94.9531 467.379 94.9531H478.348V98ZM497.789 98H494.742V93.875H484.031V98H480.984V89.5977C480.984 88.3711 481.195 87.2422 481.617 86.2109C482.039 85.1797 482.625 84.293 483.375 83.5508C484.125 82.8086 485.012 82.2305 486.035 81.8164C487.059 81.4023 488.176 81.1953 489.387 81.1953H496.254C496.465 81.1953 496.664 81.2344 496.852 81.3125C497.039 81.3906 497.203 81.5 497.344 81.6406C497.484 81.7812 497.594 81.9453 497.672 82.1328C497.75 82.3203 497.789 82.5195 497.789 82.7305V98ZM484.031 90.8281H494.742V84.2422H489.387C489.293 84.2422 489.094 84.2578 488.789 84.2891C488.492 84.3125 488.145 84.3789 487.746 84.4883C487.355 84.5977 486.941 84.7656 486.504 84.9922C486.066 85.2188 485.664 85.5312 485.297 85.9297C484.93 86.3281 484.625 86.8281 484.383 87.4297C484.148 88.0234 484.031 88.7461 484.031 89.5977V90.8281ZM518.109 90.9688C518.109 91.9922 517.93 92.9336 517.57 93.793C517.219 94.6523 516.73 95.3945 516.105 96.0195C515.48 96.6367 514.738 97.1211 513.879 97.4727C513.02 97.8242 512.086 98 511.078 98H502.852C502.633 98 502.43 97.9609 502.242 97.8828C502.055 97.8047 501.891 97.6992 501.75 97.5664C501.617 97.4258 501.512 97.2617 501.434 97.0742C501.355 96.8867 501.316 96.6836 501.316 96.4648V82.7305C501.316 82.5195 501.355 82.3203 501.434 82.1328C501.512 81.9453 501.617 81.7812 501.75 81.6406C501.891 81.5 502.055 81.3906 502.242 81.3125C502.43 81.2344 502.633 81.1953 502.852 81.1953H511.078C512.086 81.1953 513.02 81.3711 513.879 81.7227C514.738 82.0742 515.48 82.5625 516.105 83.1875C516.73 83.8047 517.219 84.5469 517.57 85.4141C517.93 86.2734 518.109 87.2109 518.109 88.2266V90.9688ZM515.062 88.2266C515.062 87.6328 514.965 87.0898 514.77 86.5977C514.582 86.1055 514.312 85.6875 513.961 85.3438C513.609 84.9922 513.188 84.7227 512.695 84.5352C512.211 84.3398 511.672 84.2422 511.078 84.2422H504.363V94.9531H511.078C511.672 94.9531 512.211 94.8594 512.695 94.6719C513.188 94.4766 513.609 94.207 513.961 93.8633C514.312 93.5117 514.582 93.0938 514.77 92.6094C514.965 92.1172 515.062 91.5703 515.062 90.9688V88.2266ZM524.168 98H521.121V81.1953H524.168V98ZM544.523 96.6992C544.523 96.918 544.48 97.1211 544.395 97.3086C544.316 97.4961 544.207 97.6602 544.066 97.8008C543.934 97.9336 543.773 98.0391 543.586 98.1172C543.398 98.1953 543.199 98.2344 542.988 98.2344C542.801 98.2344 542.609 98.1992 542.414 98.1289C542.227 98.0586 542.059 97.9453 541.91 97.7891L530.777 86.1641V98H527.73V82.4961C527.73 82.1836 527.816 81.9023 527.988 81.6523C528.168 81.3945 528.395 81.2031 528.668 81.0781C528.957 80.9609 529.254 80.9336 529.559 80.9961C529.863 81.0508 530.125 81.1914 530.344 81.418L541.477 93.0312V81.1953H544.523V96.6992ZM564.656 96.4648C564.656 96.6836 564.617 96.8867 564.539 97.0742C564.461 97.2617 564.352 97.4258 564.211 97.5664C564.078 97.6992 563.918 97.8047 563.73 97.8828C563.543 97.9609 563.34 98 563.121 98H552.129C551.848 98 551.543 97.9688 551.215 97.9062C550.895 97.8359 550.574 97.7305 550.254 97.5898C549.941 97.4492 549.641 97.2695 549.352 97.0508C549.062 96.8242 548.805 96.5547 548.578 96.2422C548.359 95.9219 548.184 95.5547 548.051 95.1406C547.918 94.7188 547.852 94.2461 547.852 93.7227V85.4727C547.852 85.1914 547.883 84.8906 547.945 84.5703C548.016 84.2422 548.121 83.9219 548.262 83.6094C548.402 83.2891 548.586 82.9844 548.812 82.6953C549.039 82.4062 549.309 82.1523 549.621 81.9336C549.941 81.707 550.309 81.5273 550.723 81.3945C551.137 81.2617 551.605 81.1953 552.129 81.1953H564.516V84.2422H552.129C551.73 84.2422 551.426 84.3477 551.215 84.5586C551.004 84.7695 550.898 85.082 550.898 85.4961V93.7227C550.898 94.1133 551.004 94.418 551.215 94.6367C551.434 94.8477 551.738 94.9531 552.129 94.9531H561.609V91.1328H553.5V88.0625H563.121C563.34 88.0625 563.543 88.1055 563.73 88.1914C563.918 88.2695 564.078 88.3789 564.211 88.5195C564.352 88.6602 564.461 88.8242 564.539 89.0117C564.617 89.1914 564.656 89.3867 564.656 89.5977V96.4648ZM590.543 98H575.109V92.3633C575.109 92.0742 575.141 91.7695 575.203 91.4492C575.273 91.1211 575.379 90.7969 575.52 90.4766C575.66 90.1562 575.84 89.8516 576.059 89.5625C576.285 89.2734 576.555 89.0195 576.867 88.8008C577.188 88.5742 577.555 88.3945 577.969 88.2617C578.383 88.1289 578.852 88.0625 579.375 88.0625H586.242C586.656 88.0625 586.961 87.9609 587.156 87.7578C587.359 87.5469 587.461 87.2422 587.461 86.8438V85.4961C587.461 85.082 587.359 84.7695 587.156 84.5586C586.953 84.3477 586.656 84.2422 586.266 84.2422H576.48V81.1953H586.266C586.781 81.1953 587.246 81.2617 587.66 81.3945C588.074 81.5273 588.438 81.707 588.75 81.9336C589.07 82.1523 589.344 82.4062 589.57 82.6953C589.797 82.9844 589.98 83.2891 590.121 83.6094C590.27 83.9219 590.375 84.2422 590.438 84.5703C590.508 84.8906 590.543 85.1914 590.543 85.4727V86.8438C590.543 87.6328 590.398 88.3008 590.109 88.8477C589.828 89.3867 589.473 89.8281 589.043 90.1719C588.613 90.5078 588.148 90.7539 587.648 90.9102C587.156 91.0586 586.695 91.1328 586.266 91.1328H579.375C579.125 91.1328 578.926 91.168 578.777 91.2383C578.629 91.3086 578.512 91.4023 578.426 91.5195C578.348 91.6367 578.289 91.7695 578.25 91.918C578.211 92.0664 578.18 92.2148 578.156 92.3633V94.9531H590.543V98Z" fill="#212529"/>
<path opacity="0.7" d="M82.358 140H80.5114L85.8523 125.455H87.6705L93.0114 140H91.1648L86.8182 127.756H86.7045L82.358 140ZM83.0398 134.318H90.483V135.881H83.0398V134.318ZM101.925 135.54V129.091H103.601V140H101.925V138.153H101.811C101.555 138.707 101.158 139.179 100.618 139.567C100.078 139.95 99.3963 140.142 98.5724 140.142C97.8906 140.142 97.2846 139.993 96.7543 139.695C96.224 139.392 95.8073 138.937 95.5043 138.331C95.2012 137.72 95.0497 136.951 95.0497 136.023V129.091H96.7259V135.909C96.7259 136.705 96.9484 137.339 97.3935 137.812C97.8433 138.286 98.4162 138.523 99.1122 138.523C99.5289 138.523 99.9527 138.416 100.384 138.203C100.819 137.99 101.184 137.663 101.477 137.223C101.776 136.783 101.925 136.222 101.925 135.54ZM110.79 140.227C109.881 140.227 109.078 139.998 108.382 139.538C107.686 139.074 107.142 138.421 106.749 137.578C106.356 136.731 106.159 135.729 106.159 134.574C106.159 133.428 106.356 132.434 106.749 131.591C107.142 130.748 107.689 130.097 108.39 129.638C109.09 129.179 109.9 128.949 110.819 128.949C111.529 128.949 112.09 129.067 112.502 129.304C112.918 129.536 113.236 129.801 113.453 130.099C113.676 130.393 113.849 130.634 113.972 130.824H114.114V125.455H115.79V140H114.171V138.324H113.972C113.849 138.523 113.674 138.774 113.446 139.077C113.219 139.375 112.895 139.643 112.473 139.879C112.052 140.111 111.491 140.227 110.79 140.227ZM111.017 138.722C111.69 138.722 112.258 138.546 112.722 138.196C113.186 137.841 113.539 137.351 113.78 136.726C114.022 136.096 114.142 135.369 114.142 134.545C114.142 133.731 114.024 133.018 113.787 132.408C113.551 131.792 113.2 131.314 112.736 130.973C112.272 130.627 111.699 130.455 111.017 130.455C110.307 130.455 109.715 130.637 109.242 131.001C108.773 131.361 108.42 131.851 108.184 132.472C107.952 133.087 107.836 133.778 107.836 134.545C107.836 135.322 107.954 136.027 108.191 136.662C108.432 137.292 108.787 137.794 109.256 138.168C109.73 138.537 110.317 138.722 111.017 138.722ZM119.093 140V129.091H120.769V140H119.093ZM119.945 127.273C119.618 127.273 119.337 127.161 119.1 126.939C118.868 126.716 118.752 126.449 118.752 126.136C118.752 125.824 118.868 125.556 119.1 125.334C119.337 125.111 119.618 125 119.945 125C120.272 125 120.551 125.111 120.783 125.334C121.02 125.556 121.138 125.824 121.138 126.136C121.138 126.449 121.02 126.716 120.783 126.939C120.551 127.161 120.272 127.273 119.945 127.273ZM128.271 140.227C127.286 140.227 126.422 139.993 125.678 139.524C124.94 139.055 124.362 138.4 123.945 137.557C123.533 136.714 123.327 135.729 123.327 134.602C123.327 133.466 123.533 132.474 123.945 131.626C124.362 130.779 124.94 130.121 125.678 129.652C126.422 129.183 127.286 128.949 128.271 128.949C129.255 128.949 130.117 129.183 130.856 129.652C131.599 130.121 132.177 130.779 132.589 131.626C133.005 132.474 133.214 133.466 133.214 134.602C133.214 135.729 133.005 136.714 132.589 137.557C132.177 138.4 131.599 139.055 130.856 139.524C130.117 139.993 129.255 140.227 128.271 140.227ZM128.271 138.722C129.019 138.722 129.634 138.53 130.117 138.146C130.6 137.763 130.958 137.259 131.19 136.634C131.422 136.009 131.538 135.331 131.538 134.602C131.538 133.873 131.422 133.194 131.19 132.564C130.958 131.934 130.6 131.425 130.117 131.037C129.634 130.649 129.019 130.455 128.271 130.455C127.522 130.455 126.907 130.649 126.424 131.037C125.941 131.425 125.584 131.934 125.352 132.564C125.12 133.194 125.004 133.873 125.004 134.602C125.004 135.331 125.12 136.009 125.352 136.634C125.584 137.259 125.941 137.763 126.424 138.146C126.907 138.53 127.522 138.722 128.271 138.722ZM137.873 140L134.549 129.091H136.31L138.668 137.443H138.782L141.112 129.091H142.901L145.202 137.415H145.316L147.674 129.091H149.435L146.112 140H144.464L142.077 131.619H141.907L139.521 140H137.873ZM151.651 140V129.091H153.327V140H151.651ZM152.504 127.273C152.177 127.273 151.895 127.161 151.658 126.939C151.426 126.716 151.31 126.449 151.31 126.136C151.31 125.824 151.426 125.556 151.658 125.334C151.895 125.111 152.177 125 152.504 125C152.83 125 153.11 125.111 153.342 125.334C153.578 125.556 153.697 125.824 153.697 126.136C153.697 126.449 153.578 126.716 153.342 126.939C153.11 127.161 152.83 127.273 152.504 127.273ZM160.517 140.227C159.608 140.227 158.805 139.998 158.109 139.538C157.413 139.074 156.868 138.421 156.475 137.578C156.083 136.731 155.886 135.729 155.886 134.574C155.886 133.428 156.083 132.434 156.475 131.591C156.868 130.748 157.415 130.097 158.116 129.638C158.817 129.179 159.627 128.949 160.545 128.949C161.255 128.949 161.816 129.067 162.228 129.304C162.645 129.536 162.962 129.801 163.18 130.099C163.403 130.393 163.575 130.634 163.699 130.824H163.841V125.455H165.517V140H163.897V138.324H163.699C163.575 138.523 163.4 138.774 163.173 139.077C162.946 139.375 162.621 139.643 162.2 139.879C161.779 140.111 161.217 140.227 160.517 140.227ZM160.744 138.722C161.416 138.722 161.984 138.546 162.449 138.196C162.913 137.841 163.265 137.351 163.507 136.726C163.748 136.096 163.869 135.369 163.869 134.545C163.869 133.731 163.751 133.018 163.514 132.408C163.277 131.792 162.927 131.314 162.463 130.973C161.999 130.627 161.426 130.455 160.744 130.455C160.034 130.455 159.442 130.637 158.968 131.001C158.5 131.361 158.147 131.851 157.91 132.472C157.678 133.087 157.562 133.778 157.562 134.545C157.562 135.322 157.681 136.027 157.917 136.662C158.159 137.292 158.514 137.794 158.983 138.168C159.456 138.537 160.043 138.722 160.744 138.722ZM173.393 140.227C172.342 140.227 171.435 139.995 170.673 139.531C169.915 139.062 169.331 138.409 168.919 137.571C168.511 136.728 168.308 135.748 168.308 134.631C168.308 133.513 168.511 132.528 168.919 131.676C169.331 130.819 169.904 130.152 170.637 129.673C171.376 129.19 172.238 128.949 173.223 128.949C173.791 128.949 174.352 129.044 174.906 129.233C175.46 129.422 175.964 129.73 176.419 130.156C176.873 130.578 177.235 131.136 177.505 131.832C177.775 132.528 177.91 133.385 177.91 134.403V135.114H169.501V133.665H176.206C176.206 133.049 176.083 132.5 175.836 132.017C175.595 131.534 175.249 131.153 174.799 130.874C174.354 130.594 173.829 130.455 173.223 130.455C172.555 130.455 171.977 130.62 171.49 130.952C171.007 131.278 170.635 131.705 170.375 132.23C170.114 132.756 169.984 133.319 169.984 133.92V134.886C169.984 135.71 170.126 136.409 170.41 136.982C170.699 137.55 171.099 137.983 171.61 138.281C172.122 138.575 172.716 138.722 173.393 138.722C173.833 138.722 174.231 138.66 174.586 138.537C174.946 138.409 175.256 138.22 175.517 137.969C175.777 137.713 175.978 137.396 176.12 137.017L177.74 137.472C177.569 138.021 177.283 138.504 176.88 138.92C176.478 139.332 175.981 139.654 175.389 139.886C174.797 140.114 174.132 140.227 173.393 140.227Z" fill="#495057"/>
<path d="M86.4531 83.75H100.719V74.5938H104.781V97H100.719V87.8438H86.4531V97H82.3906V74.5938H86.4531V83.75ZM127.969 87.8438H115.141V83.75H127.969V87.8438ZM129.797 97H115.141C114.578 97 113.964 96.901 113.297 96.7031C112.63 96.5052 112.01 96.1823 111.438 95.7344C110.875 95.276 110.401 94.6875 110.016 93.9688C109.641 93.2396 109.453 92.349 109.453 91.2969V76.6406C109.453 76.3594 109.505 76.0938 109.609 75.8438C109.714 75.5938 109.854 75.375 110.031 75.1875C110.219 75 110.438 74.8542 110.688 74.75C110.938 74.6458 111.208 74.5938 111.5 74.5938H129.797V78.6562H113.516V91.2969C113.516 91.8281 113.656 92.2344 113.938 92.5156C114.219 92.7969 114.63 92.9375 115.172 92.9375H129.797V97ZM155.719 97H151.656V91.5H137.375V97H133.312V85.7969C133.312 84.1615 133.594 82.6562 134.156 81.2812C134.719 79.9062 135.5 78.724 136.5 77.7344C137.5 76.7448 138.682 75.974 140.047 75.4219C141.411 74.8698 142.901 74.5938 144.516 74.5938H153.672C153.953 74.5938 154.219 74.6458 154.469 74.75C154.719 74.8542 154.938 75 155.125 75.1875C155.312 75.375 155.458 75.5938 155.562 75.8438C155.667 76.0938 155.719 76.3594 155.719 76.6406V97ZM137.375 87.4375H151.656V78.6562H144.516C144.391 78.6562 144.125 78.6771 143.719 78.7188C143.323 78.75 142.859 78.8385 142.328 78.9844C141.807 79.1302 141.255 79.3542 140.672 79.6562C140.089 79.9583 139.552 80.375 139.062 80.9062C138.573 81.4375 138.167 82.1042 137.844 82.9062C137.531 83.6979 137.375 84.6615 137.375 85.7969V87.4375ZM182.812 87.625C182.812 88.9896 182.573 90.2448 182.094 91.3906C181.625 92.5365 180.974 93.526 180.141 94.3594C179.307 95.1823 178.318 95.8281 177.172 96.2969C176.026 96.7656 174.781 97 173.438 97H162.469C162.177 97 161.906 96.9479 161.656 96.8438C161.406 96.7396 161.188 96.599 161 96.4219C160.823 96.2344 160.682 96.0156 160.578 95.7656C160.474 95.5156 160.422 95.2448 160.422 94.9531V76.6406C160.422 76.3594 160.474 76.0938 160.578 75.8438C160.682 75.5938 160.823 75.375 161 75.1875C161.188 75 161.406 74.8542 161.656 74.75C161.906 74.6458 162.177 74.5938 162.469 74.5938H173.438C174.781 74.5938 176.026 74.8281 177.172 75.2969C178.318 75.7656 179.307 76.4167 180.141 77.25C180.974 78.0729 181.625 79.0625 182.094 80.2188C182.573 81.3646 182.812 82.6146 182.812 83.9688V87.625ZM178.75 83.9688C178.75 83.1771 178.62 82.4531 178.359 81.7969C178.109 81.1406 177.75 80.5833 177.281 80.125C176.812 79.6562 176.25 79.2969 175.594 79.0469C174.948 78.7865 174.229 78.6562 173.438 78.6562H164.484V92.9375H173.438C174.229 92.9375 174.948 92.8125 175.594 92.5625C176.25 92.3021 176.812 91.9427 177.281 91.4844C177.75 91.0156 178.109 90.4583 178.359 89.8125C178.62 89.1562 178.75 88.4271 178.75 87.625V83.9688ZM190.891 97H186.828V74.5938H190.891V97ZM218.031 95.2656C218.031 95.5573 217.974 95.8281 217.859 96.0781C217.755 96.3281 217.609 96.5469 217.422 96.7344C217.245 96.9115 217.031 97.0521 216.781 97.1562C216.531 97.2604 216.266 97.3125 215.984 97.3125C215.734 97.3125 215.479 97.2656 215.219 97.1719C214.969 97.0781 214.745 96.9271 214.547 96.7188L199.703 81.2188V97H195.641V76.3281C195.641 75.9115 195.755 75.5365 195.984 75.2031C196.224 74.8594 196.526 74.6042 196.891 74.4375C197.276 74.2812 197.672 74.2448 198.078 74.3281C198.484 74.401 198.833 74.5885 199.125 74.8906L213.969 90.375V74.5938H218.031V95.2656ZM244.875 94.9531C244.875 95.2448 244.823 95.5156 244.719 95.7656C244.615 96.0156 244.469 96.2344 244.281 96.4219C244.104 96.599 243.891 96.7396 243.641 96.8438C243.391 96.9479 243.12 97 242.828 97H228.172C227.797 97 227.391 96.9583 226.953 96.875C226.526 96.7812 226.099 96.6406 225.672 96.4531C225.255 96.2656 224.854 96.026 224.469 95.7344C224.083 95.4323 223.74 95.0729 223.438 94.6562C223.146 94.2292 222.911 93.7396 222.734 93.1875C222.557 92.625 222.469 91.9948 222.469 91.2969V80.2969C222.469 79.9219 222.51 79.5208 222.594 79.0938C222.688 78.6562 222.828 78.2292 223.016 77.8125C223.203 77.3854 223.448 76.9792 223.75 76.5938C224.052 76.2083 224.411 75.8698 224.828 75.5781C225.255 75.276 225.745 75.0365 226.297 74.8594C226.849 74.6823 227.474 74.5938 228.172 74.5938H244.688V78.6562H228.172C227.641 78.6562 227.234 78.7969 226.953 79.0781C226.672 79.3594 226.531 79.776 226.531 80.3281V91.2969C226.531 91.8177 226.672 92.224 226.953 92.5156C227.245 92.7969 227.651 92.9375 228.172 92.9375H240.812V87.8438H230V83.75H242.828C243.12 83.75 243.391 83.8073 243.641 83.9219C243.891 84.026 244.104 84.1719 244.281 84.3594C244.469 84.5469 244.615 84.7656 244.719 85.0156C244.823 85.2552 244.875 85.5156 244.875 85.7969V94.9531ZM266.016 97H261.938V78.6562H258.266V74.5938H266.016V97Z" fill="#212529"/>
</svg>
