<svg width="1480" height="272" viewBox="0 0 1480 272" fill="none" xmlns="http://www.w3.org/2000/svg">
<g filter="url(#filter0_d_199_10816)">
<rect width="1440" height="72" transform="translate(20 20)" fill="#0B2342"/>
<g clip-path="url(#clip0_199_10816)">
<path d="M97.1308 63.9469C97.1308 67.5475 94.5609 69.5464 89.0157 69.5464C86.9264 69.5464 83.9009 69.4118 82.1321 69.4118C80.3633 69.4118 79.6156 69.4932 78.893 69.4932C78.0636 69.4932 77.7148 69.0396 77.7148 68.561C77.7148 67.3598 79.2669 67.8415 79.2669 65.9208V53.8148C79.2669 51.8941 77.7148 52.3759 77.7148 51.1747C77.7148 50.696 78.0636 50.2425 78.893 50.2425C79.6156 50.2425 80.2848 50.3238 82.1321 50.3238C83.9795 50.3238 85.8268 50.1111 88.1046 50.1111C92.7104 50.1111 95.7359 51.9786 95.7359 55.2569C95.7359 56.724 95.0384 58.1911 93.1376 59.1233C95.6008 59.9241 97.1277 61.629 97.1277 63.9501L97.1308 63.9469ZM85.0005 57.4153C85.0005 57.9503 85.189 58.163 85.9902 58.163H86.873C88.2931 58.163 89.6315 57.4435 89.6315 55.6041C89.6315 53.7648 88.3716 52.6981 86.7128 52.6981H86.5526C85.7231 52.6981 85.0005 52.9108 85.0005 53.8962V57.4153ZM90.8662 63.9751C90.8662 61.7604 89.3141 60.5623 86.7945 60.5623H85.9116C85.2425 60.5623 85.0005 60.8282 85.0005 61.5226V65.1482C85.0005 66.828 85.5346 67.0157 87.2217 67.0157H87.4888C89.4712 67.0157 90.863 65.7894 90.863 63.9751H90.8662Z" fill="white"/>
<path d="M113.837 65.8926C113.837 66.1335 113.755 66.3462 113.595 66.6403C112.791 68.001 110.221 69.9999 106.312 69.9999C101.813 69.9999 98.7344 67.0125 98.7344 62.827C98.7344 58.188 102.482 55.3351 106.689 55.3351C110.896 55.3351 113.331 58.2411 113.331 60.8281C113.331 61.7603 113.036 61.8667 112.473 62.0544L104.949 64.4537C105.806 65.7612 107.145 66.7466 108.885 66.7466C110.038 66.7466 110.975 66.3744 112.046 65.6518C112.637 65.2514 112.822 65.12 113.117 65.12C113.626 65.12 113.84 65.6518 113.84 65.8926H113.837ZM103.928 60.9595C103.928 61.4131 103.981 61.8667 104.088 62.3203L107.49 61.1472C107.918 61.0127 108.188 60.775 108.188 60.2682C108.188 59.0951 107.223 57.7344 105.992 57.7344C104.76 57.7344 103.931 58.9074 103.931 60.9595H103.928Z" fill="white"/>
<path d="M144.447 51.0683C144.447 52.3758 142.76 51.9473 142.116 53.7866L137.136 68.2919C136.841 69.1709 136.332 69.7309 134.271 69.7309C132.21 69.7309 131.808 69.1709 131.484 68.2919L128.566 60.0523L125.565 68.2919C125.245 69.1991 124.682 69.7309 122.646 69.7309C120.611 69.7309 120.237 69.1709 119.916 68.2919L114.773 53.7866C114.157 52.0286 112.605 52.3195 112.605 51.0683C112.605 50.6147 113.086 50.2675 113.677 50.2675C114.641 50.2675 115.499 50.3488 117.4 50.3488C119.301 50.3488 120.24 50.2675 121.201 50.2675C122.031 50.2675 122.486 50.5865 122.486 51.1746C122.486 52.3727 120.959 51.9223 120.959 53.308C120.959 53.6021 121.066 54.0807 121.226 54.5624L124.305 63.9469L127.145 55.9732L126.369 53.7866C125.754 52.0286 124.334 52.3195 124.334 51.0683C124.334 50.6147 124.814 50.2675 125.405 50.2675C126.341 50.2675 127.092 50.3488 128.968 50.3488C130.843 50.3488 131.886 50.2675 132.851 50.2675C133.68 50.2675 134.111 50.5865 134.111 51.1746C134.111 52.3727 132.424 51.9223 132.424 53.308C132.424 53.6803 132.584 54.2402 132.691 54.5624L135.851 63.8937L138.635 54.8815C138.902 54.0275 138.984 53.5207 138.984 53.308C138.984 51.9223 137.161 52.3758 137.161 51.1746C137.161 50.5865 137.563 50.2675 138.421 50.2675C139.357 50.2675 140.215 50.3488 140.966 50.3488C141.717 50.3488 142.546 50.2675 143.351 50.2675C144.073 50.2675 144.447 50.6147 144.447 51.0683Z" fill="white"/>
<path d="M158.501 65.8926C158.501 66.1335 158.419 66.3462 158.259 66.6403C157.455 68.001 154.885 69.9999 150.976 69.9999C146.477 69.9999 143.398 67.0125 143.398 62.827C143.398 58.188 147.147 55.3351 151.353 55.3351C155.56 55.3351 157.995 58.2411 157.995 60.8281C157.995 61.7603 157.7 61.8667 157.137 62.0544L149.613 64.4537C150.47 65.7612 151.809 66.7466 153.549 66.7466C154.702 66.7466 155.639 66.3744 156.71 65.6518C157.301 65.2514 157.486 65.12 157.781 65.12C158.29 65.12 158.504 65.6518 158.504 65.8926H158.501ZM148.592 60.9595C148.592 61.4131 148.645 61.8667 148.752 62.3203L152.154 61.1472C152.582 61.0127 152.852 60.775 152.852 60.2682C152.852 59.0951 151.887 57.7344 150.656 57.7344C149.424 57.7344 148.595 58.9074 148.595 60.9595H148.592Z" fill="white"/>
<path d="M177.004 67.1189C177.004 68.026 175.612 69.6245 172.853 69.6245C171.594 69.6245 170.444 69.0364 169.721 67.9447C168.757 68.7455 167.016 69.7309 164.688 69.7309C161.609 69.7309 159.762 67.9979 159.762 65.5173C159.762 63.0366 161.769 61.0909 165.521 61.0909C166.78 61.0909 167.77 61.2504 168.439 61.4381L168.414 61.1722C168.172 59.4392 167.129 58.5602 165.791 58.5602C164.613 58.5602 163.73 58.9075 162.979 59.2265C162.495 59.4392 162.043 59.6801 161.694 59.6801C161.32 59.6801 160.89 59.361 160.89 58.8011C160.89 58.1348 161.559 57.4685 162.043 57.0931C163.246 56.1609 165.015 55.5197 167.453 55.5197C170.72 55.5197 173.048 56.774 173.479 59.946L174.069 64.2378C174.283 65.8113 174.899 66.1836 176.454 66.4776C176.749 66.5308 177.016 66.7435 177.016 67.1189H177.004ZM169.105 66.2117L168.703 63.3588C168.383 63.2775 167.927 63.2243 167.365 63.2243C166.08 63.2243 165.062 63.7029 165.062 64.9323C165.062 66.1617 165.945 66.878 167.044 66.878C167.849 66.878 168.65 66.5308 169.105 66.2117Z" fill="white"/>
<path d="M191.999 57.8407C191.999 58.8011 191.49 60.0273 190.793 61.5194C190.526 62.1075 190.152 62.4516 189.64 62.4516C189.159 62.4516 188.81 62.0512 188.568 61.6258C187.978 60.5872 187.444 59.9178 186.614 59.9178C185.731 59.9178 184.5 60.85 184.5 63.6779V66.0772C184.5 67.9165 186.322 67.3566 186.322 68.611C186.322 69.0364 186.002 69.49 185.197 69.49C184.446 69.49 183.724 69.4087 181.905 69.4087C180.271 69.4087 179.627 69.49 178.958 69.49C178.153 69.49 177.833 69.0646 177.833 68.611C177.833 67.4629 179.307 67.9165 179.307 66.0772V61.119C179.307 59.386 177.645 60.0242 177.645 58.7197C177.645 58.0253 178.474 57.628 180.723 56.6677C182.784 55.7886 183.161 55.7073 183.482 55.7073C184.286 55.7073 184.5 56.3486 184.5 57.2276V59.0951C185.197 57.2026 187.07 55.601 189.106 55.601C190.846 55.601 191.999 56.6395 191.999 57.8407Z" fill="white"/>
<path d="M69.0711 68.9019C68.3924 66.9875 66.2938 61.8417 62.5708 59.3798L62.863 58.3506C62.9635 57.9972 62.6965 57.6437 62.3257 57.6437H56.9031C56.5795 58.4507 56.2182 59.2359 55.549 59.7771C55.3448 59.946 55.1249 60.0962 54.8924 60.2307C54.6662 60.362 54.4243 60.4778 54.1761 60.5748C53.887 60.6874 53.5823 60.775 53.2681 60.8344C53.0325 60.8782 52.7937 60.9095 52.5486 60.9189C52.3036 60.9064 52.0648 60.8782 51.8292 60.8344C51.515 60.775 51.2134 60.6874 50.9212 60.5748C50.673 60.4778 50.4342 60.362 50.2049 60.2307C49.9756 60.0962 49.7556 59.9429 49.5483 59.7771C48.8822 59.2359 48.5178 58.4507 48.1942 57.6437H42.7778C42.4071 57.6437 42.1401 57.994 42.2406 58.3506L42.5328 59.3798C38.8098 61.8417 36.7111 66.9906 36.0325 68.9019C35.9037 69.2617 36.1739 69.6402 36.5572 69.6402L52.5518 69.6621L68.5464 69.6402C68.9297 69.6402 69.1999 69.2617 69.0711 68.9019Z" fill="white"/>
<path d="M50.5529 56.1891C50.4021 56.2986 50.3298 56.4863 50.3706 56.6677C50.5026 57.2558 50.9707 58.5008 52.5604 58.5478C54.1753 58.5978 54.6151 57.2558 54.7314 56.6521C54.7659 56.4801 54.6937 56.3017 54.5523 56.1954C54.1376 55.8888 53.2233 55.2726 52.5604 55.2726C51.8975 55.2726 50.977 55.8826 50.5529 56.1891Z" fill="white"/>
<path d="M64.1936 48.6533V54.7313C64.1936 55.5634 63.537 56.236 62.7264 56.236H57.3729C57.2346 56.236 57.1027 56.1985 56.9833 56.1296L55.8177 55.454L53.6813 54.2152C53.1818 53.9243 51.9282 53.9243 51.4287 54.2152L49.2923 55.454L48.1267 56.1296C48.0073 56.1985 47.8723 56.236 47.7372 56.236H42.3773C41.5668 56.236 40.9102 55.5603 40.9102 54.7313V48.6533C40.9102 47.8212 41.5668 47.1487 42.3773 47.1487H62.7233C63.5338 47.1487 64.1905 47.8212 64.1905 48.6533H64.1936Z" fill="white"/>
<path d="M60.2403 39.4816C57.2807 38.8872 56.0963 42.1843 56.0963 42.1843C55.1035 41.6494 53.9913 41.4461 52.9169 41.3616C52.675 41.3428 52.4299 41.3428 52.188 41.3616C51.1324 41.443 49.9982 41.6494 49.0085 42.1843C49.0085 42.1843 47.8241 38.8872 44.8646 39.4816C44.8646 39.4816 41.6851 40.0134 41.7794 43.6139C41.7794 43.6139 41.7794 45.2875 42.37 45.863H62.7348C63.3255 45.2875 63.3255 43.6139 63.3255 43.6139C63.4197 40.0134 60.2403 39.4816 60.2403 39.4816Z" fill="white"/>
<path d="M52.552 64.5101C53.2408 64.5101 53.7992 63.9569 53.7992 63.2744C53.7992 62.592 53.2408 62.0388 52.552 62.0388C51.8631 62.0388 51.3047 62.592 51.3047 63.2744C51.3047 63.9569 51.8631 64.5101 52.552 64.5101Z" fill="#0B2342"/>
<path d="M52.552 68.4828C53.2408 68.4828 53.7992 67.9296 53.7992 67.2472C53.7992 66.5648 53.2408 66.0116 52.552 66.0116C51.8631 66.0116 51.3047 66.5648 51.3047 67.2472C51.3047 67.9296 51.8631 68.4828 52.552 68.4828Z" fill="#0B2342"/>
<path d="M61.8183 53.0297C61.6706 53.2799 61.3439 53.3707 61.0894 53.2205L60.0275 52.6105L60.04 53.8274C60.04 54.1214 59.8013 54.3592 59.5028 54.3623C59.2075 54.3623 58.9593 54.1152 58.9656 53.8274V52.6105L57.9131 53.2205C57.6555 53.3738 57.3256 53.2831 57.1842 53.0297C57.0303 52.7732 57.1214 52.4447 57.3884 52.3071L58.4315 51.694L57.3884 51.0808C57.1214 50.9401 57.0303 50.6147 57.1842 50.3582C57.3287 50.1049 57.6555 50.0141 57.9131 50.1674L58.9593 50.7774V49.5606C58.9593 49.2696 59.2075 49.0256 59.5028 49.0256C59.7981 49.0256 60.04 49.2665 60.0369 49.5574L60.0306 50.7774L61.0925 50.1674C61.3502 50.0141 61.6738 50.108 61.8214 50.3582C61.9754 50.6147 61.8811 50.9369 61.6266 51.0902L60.5836 51.6971L61.6266 52.3039C61.8811 52.4541 61.9785 52.7763 61.8214 53.0359" fill="#8DFFDC"/>
<path d="M45.8398 49.0069L46.4022 49.7076C46.4588 49.7796 46.5467 49.8202 46.6378 49.8202H47.5395C47.7312 49.8202 47.8757 49.9985 47.8317 50.1862L47.6306 51.0621C47.6118 51.1497 47.6306 51.2435 47.6872 51.3155L48.2495 52.0162C48.3689 52.1663 48.3187 52.3884 48.1459 52.4729L47.3322 52.8639C47.2505 52.9046 47.1908 52.9797 47.1688 53.0673L46.9677 53.9431C46.9237 54.1308 46.7195 54.2309 46.5436 54.1465L45.7299 53.7555C45.6482 53.7148 45.5508 53.7148 45.4691 53.7555L44.6554 54.1465C44.4826 54.2309 44.2752 54.1308 44.2313 53.9431L44.0302 53.0673C44.0113 52.9797 43.9485 52.9046 43.8668 52.8639L43.0531 52.4729C42.8803 52.3884 42.8269 52.1663 42.9494 52.0162L43.5118 51.3155C43.5683 51.2435 43.5903 51.1497 43.5683 51.0621L43.3673 50.1862C43.3233 49.9985 43.4678 49.8202 43.6595 49.8202H44.5611C44.6522 49.8202 44.7402 49.7796 44.7968 49.7076L45.3591 49.0069C45.4785 48.8567 45.7079 48.8567 45.8304 49.0069H45.8398Z" fill="#F8B1B8"/>
</g>
<path d="M901.766 65H898.133V50.8906H893.48V47.8672H906.418V50.8906H901.766V65ZM911.621 58.4258C911.621 59.7227 911.832 60.7031 912.254 61.3672C912.684 62.0312 913.379 62.3633 914.34 62.3633C915.293 62.3633 915.977 62.0352 916.391 61.3789C916.812 60.7148 917.023 59.7305 917.023 58.4258C917.023 57.1289 916.812 56.1562 916.391 55.5078C915.969 54.8594 915.277 54.5352 914.316 54.5352C913.363 54.5352 912.676 54.8594 912.254 55.5078C911.832 56.1484 911.621 57.1211 911.621 58.4258ZM920.68 58.4258C920.68 60.5586 920.117 62.2266 918.992 63.4297C917.867 64.6328 916.301 65.2344 914.293 65.2344C913.035 65.2344 911.926 64.9609 910.965 64.4141C910.004 63.8594 909.266 63.0664 908.75 62.0352C908.234 61.0039 907.977 59.8008 907.977 58.4258C907.977 56.2852 908.535 54.6211 909.652 53.4336C910.77 52.2461 912.34 51.6523 914.363 51.6523C915.621 51.6523 916.73 51.9258 917.691 52.4727C918.652 53.0195 919.391 53.8047 919.906 54.8281C920.422 55.8516 920.68 57.0508 920.68 58.4258ZM927.781 65.2344C926.242 65.2344 925.031 64.6367 924.148 63.4414C923.273 62.2461 922.836 60.5898 922.836 58.4727C922.836 56.3242 923.281 54.6523 924.172 53.457C925.07 52.2539 926.305 51.6523 927.875 51.6523C929.523 51.6523 930.781 52.293 931.648 53.5742H931.766C931.586 52.5977 931.496 51.7266 931.496 50.9609V46.7656H935.082V65H932.34L931.648 63.3008H931.496C930.684 64.5898 929.445 65.2344 927.781 65.2344ZM929.035 62.3867C929.949 62.3867 930.617 62.1211 931.039 61.5898C931.469 61.0586 931.703 60.1562 931.742 58.8828V58.4961C931.742 57.0898 931.523 56.082 931.086 55.4727C930.656 54.8633 929.953 54.5586 928.977 54.5586C928.18 54.5586 927.559 54.8984 927.113 55.5781C926.676 56.25 926.457 57.2305 926.457 58.5195C926.457 59.8086 926.68 60.7773 927.125 61.4258C927.57 62.0664 928.207 62.3867 929.035 62.3867ZM947.141 65L946.449 63.2188H946.355C945.754 63.9766 945.133 64.5039 944.492 64.8008C943.859 65.0898 943.031 65.2344 942.008 65.2344C940.75 65.2344 939.758 64.875 939.031 64.1562C938.312 63.4375 937.953 62.4141 937.953 61.0859C937.953 59.6953 938.438 58.6719 939.406 58.0156C940.383 57.3516 941.852 56.9844 943.812 56.9141L946.086 56.8438V56.2695C946.086 54.9414 945.406 54.2773 944.047 54.2773C943 54.2773 941.77 54.5938 940.355 55.2266L939.172 52.8125C940.68 52.0234 942.352 51.6289 944.188 51.6289C945.945 51.6289 947.293 52.0117 948.23 52.7773C949.168 53.543 949.637 54.707 949.637 56.2695V65H947.141ZM946.086 58.9297L944.703 58.9766C943.664 59.0078 942.891 59.1953 942.383 59.5391C941.875 59.8828 941.621 60.4062 941.621 61.1094C941.621 62.1172 942.199 62.6211 943.355 62.6211C944.184 62.6211 944.844 62.3828 945.336 61.9062C945.836 61.4297 946.086 60.7969 946.086 60.0078V58.9297ZM951.453 51.8984H955.367L957.84 59.2695C958.051 59.9102 958.195 60.668 958.273 61.543H958.344C958.43 60.7383 958.598 59.9805 958.848 59.2695L961.273 51.8984H965.105L959.562 66.6758C959.055 68.043 958.328 69.0664 957.383 69.7461C956.445 70.4258 955.348 70.7656 954.09 70.7656C953.473 70.7656 952.867 70.6992 952.273 70.5664V67.7305C952.703 67.832 953.172 67.8828 953.68 67.8828C954.312 67.8828 954.863 67.6875 955.332 67.2969C955.809 66.9141 956.18 66.332 956.445 65.5508L956.656 64.9062L951.453 51.8984Z" fill="#8DFFDC"/>
<path d="M1010.77 65H1007.13V50.8906H1002.48V47.8672H1015.42V50.8906H1010.77V65ZM1020.62 58.4258C1020.62 59.7227 1020.83 60.7031 1021.25 61.3672C1021.68 62.0312 1022.38 62.3633 1023.34 62.3633C1024.29 62.3633 1024.98 62.0352 1025.39 61.3789C1025.81 60.7148 1026.02 59.7305 1026.02 58.4258C1026.02 57.1289 1025.81 56.1562 1025.39 55.5078C1024.97 54.8594 1024.28 54.5352 1023.32 54.5352C1022.36 54.5352 1021.68 54.8594 1021.25 55.5078C1020.83 56.1484 1020.62 57.1211 1020.62 58.4258ZM1029.68 58.4258C1029.68 60.5586 1029.12 62.2266 1027.99 63.4297C1026.87 64.6328 1025.3 65.2344 1023.29 65.2344C1022.04 65.2344 1020.93 64.9609 1019.96 64.4141C1019 63.8594 1018.27 63.0664 1017.75 62.0352C1017.23 61.0039 1016.98 59.8008 1016.98 58.4258C1016.98 56.2852 1017.54 54.6211 1018.65 53.4336C1019.77 52.2461 1021.34 51.6523 1023.36 51.6523C1024.62 51.6523 1025.73 51.9258 1026.69 52.4727C1027.65 53.0195 1028.39 53.8047 1028.91 54.8281C1029.42 55.8516 1029.68 57.0508 1029.68 58.4258ZM1044.36 65H1040.79V57.3477C1040.79 56.4023 1040.63 55.6953 1040.31 55.2266C1040 54.75 1039.5 54.5117 1038.82 54.5117C1037.91 54.5117 1037.24 54.8477 1036.83 55.5195C1036.41 56.1914 1036.21 57.2969 1036.21 58.8359V65H1032.63V51.8984H1035.36L1035.84 53.5742H1036.04C1036.39 52.9727 1036.9 52.5039 1037.57 52.168C1038.23 51.8242 1038.99 51.6523 1039.85 51.6523C1041.81 51.6523 1043.14 52.293 1043.84 53.5742H1044.15C1044.5 52.9648 1045.02 52.4922 1045.7 52.1562C1046.39 51.8203 1047.16 51.6523 1048.02 51.6523C1049.5 51.6523 1050.62 52.0352 1051.38 52.8008C1052.15 53.5586 1052.53 54.7773 1052.53 56.457V65H1048.95V57.3477C1048.95 56.4023 1048.79 55.6953 1048.46 55.2266C1048.15 54.75 1047.66 54.5117 1046.98 54.5117C1046.1 54.5117 1045.45 54.8242 1045.01 55.4492C1044.58 56.0742 1044.36 57.0664 1044.36 58.4258V65ZM1059.06 58.4258C1059.06 59.7227 1059.27 60.7031 1059.69 61.3672C1060.12 62.0312 1060.82 62.3633 1061.78 62.3633C1062.73 62.3633 1063.41 62.0352 1063.83 61.3789C1064.25 60.7148 1064.46 59.7305 1064.46 58.4258C1064.46 57.1289 1064.25 56.1562 1063.83 55.5078C1063.41 54.8594 1062.71 54.5352 1061.75 54.5352C1060.8 54.5352 1060.11 54.8594 1059.69 55.5078C1059.27 56.1484 1059.06 57.1211 1059.06 58.4258ZM1068.12 58.4258C1068.12 60.5586 1067.55 62.2266 1066.43 63.4297C1065.3 64.6328 1063.74 65.2344 1061.73 65.2344C1060.47 65.2344 1059.36 64.9609 1058.4 64.4141C1057.44 63.8594 1056.7 63.0664 1056.19 62.0352C1055.67 61.0039 1055.41 59.8008 1055.41 58.4258C1055.41 56.2852 1055.97 54.6211 1057.09 53.4336C1058.21 52.2461 1059.78 51.6523 1061.8 51.6523C1063.06 51.6523 1064.17 51.9258 1065.13 52.4727C1066.09 53.0195 1066.83 53.8047 1067.34 54.8281C1067.86 55.8516 1068.12 57.0508 1068.12 58.4258ZM1078.38 51.6523C1078.87 51.6523 1079.27 51.6875 1079.59 51.7578L1079.32 55.1094C1079.03 55.0312 1078.68 54.9922 1078.27 54.9922C1077.12 54.9922 1076.23 55.2852 1075.59 55.8711C1074.96 56.457 1074.64 57.2773 1074.64 58.332V65H1071.07V51.8984H1073.78L1074.3 54.1016H1074.48C1074.89 53.3672 1075.43 52.7773 1076.12 52.332C1076.82 51.8789 1077.57 51.6523 1078.38 51.6523ZM1089.28 51.6523C1089.77 51.6523 1090.17 51.6875 1090.49 51.7578L1090.22 55.1094C1089.93 55.0312 1089.58 54.9922 1089.16 54.9922C1088.02 54.9922 1087.13 55.2852 1086.49 55.8711C1085.86 56.457 1085.54 57.2773 1085.54 58.332V65H1081.97V51.8984H1084.68L1085.2 54.1016H1085.38C1085.79 53.3672 1086.33 52.7773 1087.02 52.332C1087.71 51.8789 1088.47 51.6523 1089.28 51.6523ZM1095.71 58.4258C1095.71 59.7227 1095.93 60.7031 1096.35 61.3672C1096.78 62.0312 1097.47 62.3633 1098.43 62.3633C1099.39 62.3633 1100.07 62.0352 1100.48 61.3789C1100.91 60.7148 1101.12 59.7305 1101.12 58.4258C1101.12 57.1289 1100.91 56.1562 1100.48 55.5078C1100.06 54.8594 1099.37 54.5352 1098.41 54.5352C1097.46 54.5352 1096.77 54.8594 1096.35 55.5078C1095.93 56.1484 1095.71 57.1211 1095.71 58.4258ZM1104.77 58.4258C1104.77 60.5586 1104.21 62.2266 1103.09 63.4297C1101.96 64.6328 1100.39 65.2344 1098.39 65.2344C1097.13 65.2344 1096.02 64.9609 1095.06 64.4141C1094.1 63.8594 1093.36 63.0664 1092.84 62.0352C1092.33 61.0039 1092.07 59.8008 1092.07 58.4258C1092.07 56.2852 1092.63 54.6211 1093.75 53.4336C1094.86 52.2461 1096.43 51.6523 1098.46 51.6523C1099.71 51.6523 1100.82 51.9258 1101.79 52.4727C1102.75 53.0195 1103.48 53.8047 1104 54.8281C1104.52 55.8516 1104.77 57.0508 1104.77 58.4258ZM1118.5 65L1117.49 60.418L1116.13 54.6289H1116.05L1113.66 65H1109.81L1106.09 51.8984H1109.65L1111.16 57.6992C1111.4 58.7383 1111.65 60.1719 1111.9 62H1111.97C1112 61.4062 1112.14 60.4648 1112.38 59.1758L1112.57 58.1797L1114.18 51.8984H1118.12L1119.66 58.1797C1119.69 58.3516 1119.73 58.6055 1119.8 58.9414C1119.87 59.2773 1119.93 59.6367 1120 60.0195C1120.06 60.3945 1120.11 60.7656 1120.16 61.1328C1120.21 61.4922 1120.25 61.7812 1120.25 62H1120.32C1120.39 61.4375 1120.52 60.668 1120.7 59.6914C1120.88 58.707 1121.01 58.043 1121.09 57.6992L1122.66 51.8984H1126.16L1122.39 65H1118.5Z" fill="white"/>
<path d="M1165.66 65L1172.09 50.9375H1163.64V47.8906H1175.94V50.1641L1169.46 65H1165.66ZM1199.32 56.2695C1199.32 59.0898 1198.51 61.25 1196.9 62.75C1195.3 64.25 1192.98 65 1189.95 65H1185.1V47.8672H1190.48C1193.28 47.8672 1195.45 48.6055 1197 50.082C1198.54 51.5586 1199.32 53.6211 1199.32 56.2695ZM1195.54 56.3633C1195.54 52.6836 1193.92 50.8438 1190.67 50.8438H1188.73V62H1190.29C1193.79 62 1195.54 60.1211 1195.54 56.3633ZM1210.91 65L1210.21 63.2188H1210.12C1209.52 63.9766 1208.9 64.5039 1208.26 64.8008C1207.62 65.0898 1206.8 65.2344 1205.77 65.2344C1204.52 65.2344 1203.52 64.875 1202.8 64.1562C1202.08 63.4375 1201.72 62.4141 1201.72 61.0859C1201.72 59.6953 1202.2 58.6719 1203.17 58.0156C1204.15 57.3516 1205.62 56.9844 1207.58 56.9141L1209.85 56.8438V56.2695C1209.85 54.9414 1209.17 54.2773 1207.81 54.2773C1206.77 54.2773 1205.54 54.5938 1204.12 55.2266L1202.94 52.8125C1204.45 52.0234 1206.12 51.6289 1207.95 51.6289C1209.71 51.6289 1211.06 52.0117 1212 52.7773C1212.93 53.543 1213.4 54.707 1213.4 56.2695V65H1210.91ZM1209.85 58.9297L1208.47 58.9766C1207.43 59.0078 1206.66 59.1953 1206.15 59.5391C1205.64 59.8828 1205.39 60.4062 1205.39 61.1094C1205.39 62.1172 1205.96 62.6211 1207.12 62.6211C1207.95 62.6211 1208.61 62.3828 1209.1 61.9062C1209.6 61.4297 1209.85 60.7969 1209.85 60.0078V58.9297ZM1215.22 51.8984H1219.13L1221.61 59.2695C1221.82 59.9102 1221.96 60.668 1222.04 61.543H1222.11C1222.2 60.7383 1222.36 59.9805 1222.61 59.2695L1225.04 51.8984H1228.87L1223.33 66.6758C1222.82 68.043 1222.09 69.0664 1221.15 69.7461C1220.21 70.4258 1219.11 70.7656 1217.86 70.7656C1217.24 70.7656 1216.63 70.6992 1216.04 70.5664V67.7305C1216.47 67.832 1216.94 67.8828 1217.45 67.8828C1218.08 67.8828 1218.63 67.6875 1219.1 67.2969C1219.57 66.9141 1219.95 66.332 1220.21 65.5508L1220.42 64.9062L1215.22 51.8984ZM1239.9 61.1094C1239.9 62.4531 1239.43 63.4766 1238.49 64.1797C1237.56 64.8828 1236.17 65.2344 1234.31 65.2344C1233.36 65.2344 1232.54 65.168 1231.87 65.0352C1231.2 64.9102 1230.57 64.7227 1229.98 64.4727V61.5195C1230.65 61.832 1231.39 62.0938 1232.22 62.3047C1233.06 62.5156 1233.79 62.6211 1234.43 62.6211C1235.72 62.6211 1236.37 62.2461 1236.37 61.4961C1236.37 61.2148 1236.29 60.9883 1236.11 60.8164C1235.94 60.6367 1235.64 60.4375 1235.22 60.2188C1234.8 59.9922 1234.24 59.7305 1233.54 59.4336C1232.53 59.0117 1231.79 58.6211 1231.31 58.2617C1230.84 57.9023 1230.5 57.4922 1230.28 57.0312C1230.07 56.5625 1229.96 55.9883 1229.96 55.3086C1229.96 54.1445 1230.41 53.2461 1231.31 52.6133C1232.21 51.9727 1233.5 51.6523 1235.15 51.6523C1236.73 51.6523 1238.27 51.9961 1239.76 52.6836L1238.68 55.2617C1238.02 54.9805 1237.41 54.75 1236.84 54.5703C1236.27 54.3906 1235.69 54.3008 1235.09 54.3008C1234.04 54.3008 1233.51 54.5859 1233.51 55.1562C1233.51 55.4766 1233.68 55.7539 1234.02 55.9883C1234.36 56.2227 1235.11 56.5703 1236.25 57.0312C1237.28 57.4453 1238.03 57.832 1238.5 58.1914C1238.98 58.5508 1239.33 58.9648 1239.56 59.4336C1239.79 59.9023 1239.9 60.4609 1239.9 61.1094ZM1252.78 65H1249.2V47.8672H1259.02V50.8438H1252.78V55.2617H1258.59V58.2266H1252.78V65ZM1264.94 58.4258C1264.94 59.7227 1265.15 60.7031 1265.57 61.3672C1266 62.0312 1266.7 62.3633 1267.66 62.3633C1268.61 62.3633 1269.3 62.0352 1269.71 61.3789C1270.13 60.7148 1270.34 59.7305 1270.34 58.4258C1270.34 57.1289 1270.13 56.1562 1269.71 55.5078C1269.29 54.8594 1268.6 54.5352 1267.64 54.5352C1266.68 54.5352 1266 54.8594 1265.57 55.5078C1265.15 56.1484 1264.94 57.1211 1264.94 58.4258ZM1274 58.4258C1274 60.5586 1273.44 62.2266 1272.31 63.4297C1271.19 64.6328 1269.62 65.2344 1267.61 65.2344C1266.36 65.2344 1265.25 64.9609 1264.29 64.4141C1263.32 63.8594 1262.59 63.0664 1262.07 62.0352C1261.55 61.0039 1261.3 59.8008 1261.3 58.4258C1261.3 56.2852 1261.86 54.6211 1262.97 53.4336C1264.09 52.2461 1265.66 51.6523 1267.68 51.6523C1268.94 51.6523 1270.05 51.9258 1271.01 52.4727C1271.97 53.0195 1272.71 53.8047 1273.23 54.8281C1273.74 55.8516 1274 57.0508 1274 58.4258ZM1284.27 51.6523C1284.75 51.6523 1285.15 51.6875 1285.47 51.7578L1285.2 55.1094C1284.91 55.0312 1284.56 54.9922 1284.15 54.9922C1283.01 54.9922 1282.12 55.2852 1281.48 55.8711C1280.84 56.457 1280.53 57.2773 1280.53 58.332V65H1276.95V51.8984H1279.66L1280.19 54.1016H1280.36C1280.77 53.3672 1281.32 52.7773 1282 52.332C1282.7 51.8789 1283.45 51.6523 1284.27 51.6523ZM1293.28 54.1953C1292.52 54.1953 1291.93 54.4375 1291.5 54.9219C1291.07 55.3984 1290.82 56.0781 1290.76 56.9609H1295.77C1295.76 56.0781 1295.53 55.3984 1295.08 54.9219C1294.64 54.4375 1294.04 54.1953 1293.28 54.1953ZM1293.78 65.2344C1291.67 65.2344 1290.02 64.6523 1288.84 63.4883C1287.65 62.3242 1287.05 60.6758 1287.05 58.543C1287.05 56.3477 1287.6 54.6523 1288.7 53.457C1289.8 52.2539 1291.32 51.6523 1293.25 51.6523C1295.11 51.6523 1296.55 52.1797 1297.58 53.2344C1298.61 54.2891 1299.12 55.7461 1299.12 57.6055V59.3398H1290.68C1290.71 60.3555 1291.02 61.1484 1291.58 61.7188C1292.14 62.2891 1292.93 62.5742 1293.95 62.5742C1294.73 62.5742 1295.48 62.4922 1296.18 62.3281C1296.89 62.1641 1297.62 61.9023 1298.39 61.543V64.3086C1297.76 64.6211 1297.09 64.8516 1296.38 65C1295.67 65.1562 1294.8 65.2344 1293.78 65.2344ZM1307.35 65.2344C1303.27 65.2344 1301.23 62.9961 1301.23 58.5195C1301.23 56.293 1301.79 54.5938 1302.9 53.4219C1304.01 52.2422 1305.6 51.6523 1307.67 51.6523C1309.18 51.6523 1310.54 51.9492 1311.75 52.543L1310.69 55.3086C1310.13 55.082 1309.61 54.8984 1309.12 54.7578C1308.64 54.6094 1308.15 54.5352 1307.67 54.5352C1305.81 54.5352 1304.88 55.8555 1304.88 58.4961C1304.88 61.0586 1305.81 62.3398 1307.67 62.3398C1308.36 62.3398 1308.99 62.25 1309.58 62.0703C1310.16 61.8828 1310.75 61.5938 1311.34 61.2031V64.2617C1310.76 64.6289 1310.17 64.8828 1309.58 65.0234C1308.99 65.1641 1308.25 65.2344 1307.35 65.2344ZM1322.7 65L1322.01 63.2188H1321.92C1321.32 63.9766 1320.7 64.5039 1320.05 64.8008C1319.42 65.0898 1318.59 65.2344 1317.57 65.2344C1316.31 65.2344 1315.32 64.875 1314.59 64.1562C1313.88 63.4375 1313.52 62.4141 1313.52 61.0859C1313.52 59.6953 1314 58.6719 1314.97 58.0156C1315.95 57.3516 1317.41 56.9844 1319.38 56.9141L1321.65 56.8438V56.2695C1321.65 54.9414 1320.97 54.2773 1319.61 54.2773C1318.56 54.2773 1317.33 54.5938 1315.92 55.2266L1314.73 52.8125C1316.24 52.0234 1317.91 51.6289 1319.75 51.6289C1321.51 51.6289 1322.86 52.0117 1323.79 52.7773C1324.73 53.543 1325.2 54.707 1325.2 56.2695V65H1322.7ZM1321.65 58.9297L1320.27 58.9766C1319.23 59.0078 1318.45 59.1953 1317.95 59.5391C1317.44 59.8828 1317.18 60.4062 1317.18 61.1094C1317.18 62.1172 1317.76 62.6211 1318.92 62.6211C1319.75 62.6211 1320.41 62.3828 1320.9 61.9062C1321.4 61.4297 1321.65 60.7969 1321.65 60.0078V58.9297ZM1338.03 61.1094C1338.03 62.4531 1337.56 63.4766 1336.62 64.1797C1335.7 64.8828 1334.3 65.2344 1332.44 65.2344C1331.49 65.2344 1330.68 65.168 1330 65.0352C1329.33 64.9102 1328.7 64.7227 1328.12 64.4727V61.5195C1328.78 61.832 1329.53 62.0938 1330.36 62.3047C1331.19 62.5156 1331.93 62.6211 1332.56 62.6211C1333.86 62.6211 1334.5 62.2461 1334.5 61.4961C1334.5 61.2148 1334.42 60.9883 1334.25 60.8164C1334.07 60.6367 1333.78 60.4375 1333.36 60.2188C1332.93 59.9922 1332.37 59.7305 1331.67 59.4336C1330.66 59.0117 1329.92 58.6211 1329.44 58.2617C1328.97 57.9023 1328.63 57.4922 1328.41 57.0312C1328.2 56.5625 1328.09 55.9883 1328.09 55.3086C1328.09 54.1445 1328.54 53.2461 1329.44 52.6133C1330.35 51.9727 1331.63 51.6523 1333.29 51.6523C1334.86 51.6523 1336.4 51.9961 1337.89 52.6836L1336.81 55.2617C1336.16 54.9805 1335.54 54.75 1334.97 54.5703C1334.4 54.3906 1333.82 54.3008 1333.23 54.3008C1332.17 54.3008 1331.64 54.5859 1331.64 55.1562C1331.64 55.4766 1331.81 55.7539 1332.15 55.9883C1332.49 56.2227 1333.24 56.5703 1334.39 57.0312C1335.41 57.4453 1336.16 57.832 1336.64 58.1914C1337.11 58.5508 1337.46 58.9648 1337.69 59.4336C1337.92 59.9023 1338.03 60.4609 1338.03 61.1094ZM1346.34 62.3867C1346.96 62.3867 1347.71 62.25 1348.59 61.9766V64.6367C1347.7 65.0352 1346.61 65.2344 1345.31 65.2344C1343.88 65.2344 1342.84 64.875 1342.18 64.1562C1341.53 63.4297 1341.21 62.3438 1341.21 60.8984V54.582H1339.5V53.0703L1341.46 51.875L1342.5 49.1094H1344.78V51.8984H1348.45V54.582H1344.78V60.8984C1344.78 61.4062 1344.92 61.7812 1345.2 62.0234C1345.49 62.2656 1345.87 62.3867 1346.34 62.3867Z" fill="white"/>
<circle cx="1424" cy="56" r="20" fill="#E8E8E8"/>
<path d="M1435.73 60.8858C1435.09 59.4491 1434.16 58.1442 1433 57.0436C1431.84 55.9399 1430.47 55.0599 1428.96 54.4522C1428.94 54.4458 1428.93 54.4426 1428.92 54.4361C1431.02 52.9893 1432.4 50.6326 1432.4 47.9736C1432.4 43.5688 1428.64 40 1424 40C1419.36 40 1415.61 43.5688 1415.61 47.9736C1415.61 50.6326 1416.98 52.9893 1419.09 54.4393C1419.07 54.4458 1419.06 54.449 1419.05 54.4554C1417.53 55.0631 1416.17 55.9344 1415 57.0468C1413.84 58.1483 1412.91 59.453 1412.27 60.889C1411.64 62.2948 1411.3 63.8021 1411.27 65.3291C1411.27 65.3634 1411.28 65.3976 1411.29 65.4295C1411.31 65.4615 1411.33 65.4906 1411.35 65.5152C1411.38 65.5397 1411.41 65.5593 1411.44 65.5726C1411.47 65.5859 1411.51 65.5928 1411.54 65.5928H1413.58C1413.72 65.5928 1413.84 65.4802 1413.85 65.342C1413.91 62.8599 1414.96 60.5353 1416.82 58.7734C1418.74 56.9504 1421.29 55.9473 1424 55.9473C1426.72 55.9473 1429.26 56.9504 1431.18 58.7734C1433.04 60.5353 1434.09 62.8599 1434.16 65.342C1434.16 65.4835 1434.28 65.5928 1434.43 65.5928H1436.46C1436.49 65.5928 1436.53 65.5859 1436.56 65.5726C1436.6 65.5593 1436.63 65.5397 1436.65 65.5152C1436.68 65.4906 1436.7 65.4615 1436.71 65.4295C1436.72 65.3976 1436.73 65.3634 1436.73 65.3291C1436.69 63.7923 1436.36 62.2972 1435.73 60.8858ZM1424 53.5037C1422.45 53.5037 1420.98 52.9282 1419.88 51.8833C1418.78 50.8383 1418.18 49.4494 1418.18 47.9736C1418.18 46.4979 1418.78 45.1089 1419.88 44.064C1420.98 43.019 1422.45 42.4435 1424 42.4435C1425.55 42.4435 1427.02 43.019 1428.12 44.064C1429.22 45.1089 1429.82 46.4979 1429.82 47.9736C1429.82 49.4494 1429.22 50.8383 1428.12 51.8833C1427.02 52.9282 1425.55 53.5037 1424 53.5037Z" fill="#0B2342"/>
</g>
<g filter="url(#filter1_d_199_10816)">
<rect width="1440" height="72" transform="translate(20 124)" fill="white"/>
<g clip-path="url(#clip1_199_10816)">
<path d="M97.1308 167.947C97.1308 171.547 94.5609 173.546 89.0157 173.546C86.9264 173.546 83.9009 173.412 82.1321 173.412C80.3633 173.412 79.6156 173.493 78.893 173.493C78.0636 173.493 77.7148 173.04 77.7148 172.561C77.7148 171.36 79.2669 171.842 79.2669 169.921V157.815C79.2669 155.894 77.7148 156.376 77.7148 155.175C77.7148 154.696 78.0636 154.242 78.893 154.242C79.6156 154.242 80.2848 154.324 82.1321 154.324C83.9795 154.324 85.8268 154.111 88.1046 154.111C92.7104 154.111 95.7359 155.979 95.7359 159.257C95.7359 160.724 95.0384 162.191 93.1376 163.123C95.6008 163.924 97.1277 165.629 97.1277 167.95L97.1308 167.947ZM85.0005 161.415C85.0005 161.95 85.189 162.163 85.9902 162.163H86.873C88.2931 162.163 89.6315 161.443 89.6315 159.604C89.6315 157.765 88.3716 156.698 86.7128 156.698H86.5526C85.7231 156.698 85.0005 156.911 85.0005 157.896V161.415ZM90.8662 167.975C90.8662 165.76 89.3141 164.562 86.7945 164.562H85.9116C85.2425 164.562 85.0005 164.828 85.0005 165.523V169.148C85.0005 170.828 85.5346 171.016 87.2217 171.016H87.4888C89.4712 171.016 90.863 169.789 90.863 167.975H90.8662Z" fill="#00132D"/>
<path d="M113.837 169.893C113.837 170.133 113.755 170.346 113.595 170.64C112.791 172.001 110.221 174 106.312 174C101.813 174 98.7344 171.013 98.7344 166.827C98.7344 162.188 102.482 159.335 106.689 159.335C110.896 159.335 113.331 162.241 113.331 164.828C113.331 165.76 113.036 165.867 112.473 166.054L104.949 168.454C105.806 169.761 107.145 170.747 108.885 170.747C110.038 170.747 110.975 170.374 112.046 169.652C112.637 169.251 112.822 169.12 113.117 169.12C113.626 169.12 113.84 169.652 113.84 169.893H113.837ZM103.928 164.96C103.928 165.413 103.981 165.867 104.088 166.32L107.49 165.147C107.918 165.013 108.188 164.775 108.188 164.268C108.188 163.095 107.223 161.734 105.992 161.734C104.76 161.734 103.931 162.907 103.931 164.96H103.928Z" fill="#00132D"/>
<path d="M144.447 155.068C144.447 156.376 142.76 155.947 142.116 157.787L137.136 172.292C136.841 173.171 136.332 173.731 134.271 173.731C132.21 173.731 131.808 173.171 131.484 172.292L128.566 164.052L125.565 172.292C125.245 173.199 124.682 173.731 122.646 173.731C120.611 173.731 120.237 173.171 119.916 172.292L114.773 157.787C114.157 156.029 112.605 156.32 112.605 155.068C112.605 154.615 113.086 154.267 113.677 154.267C114.641 154.267 115.499 154.349 117.4 154.349C119.301 154.349 120.24 154.267 121.201 154.267C122.031 154.267 122.486 154.587 122.486 155.175C122.486 156.373 120.959 155.922 120.959 157.308C120.959 157.602 121.066 158.081 121.226 158.562L124.305 167.947L127.145 159.973L126.369 157.787C125.754 156.029 124.334 156.32 124.334 155.068C124.334 154.615 124.814 154.267 125.405 154.267C126.341 154.267 127.092 154.349 128.968 154.349C130.843 154.349 131.886 154.267 132.851 154.267C133.68 154.267 134.111 154.587 134.111 155.175C134.111 156.373 132.424 155.922 132.424 157.308C132.424 157.68 132.584 158.24 132.691 158.562L135.851 167.894L138.635 158.881C138.902 158.028 138.984 157.521 138.984 157.308C138.984 155.922 137.161 156.376 137.161 155.175C137.161 154.587 137.563 154.267 138.421 154.267C139.357 154.267 140.215 154.349 140.966 154.349C141.717 154.349 142.546 154.267 143.351 154.267C144.073 154.267 144.447 154.615 144.447 155.068Z" fill="#00132D"/>
<path d="M158.501 169.893C158.501 170.133 158.419 170.346 158.259 170.64C157.455 172.001 154.885 174 150.976 174C146.477 174 143.398 171.013 143.398 166.827C143.398 162.188 147.147 159.335 151.353 159.335C155.56 159.335 157.995 162.241 157.995 164.828C157.995 165.76 157.7 165.867 157.137 166.054L149.613 168.454C150.47 169.761 151.809 170.747 153.549 170.747C154.702 170.747 155.639 170.374 156.71 169.652C157.301 169.251 157.486 169.12 157.781 169.12C158.29 169.12 158.504 169.652 158.504 169.893H158.501ZM148.592 164.96C148.592 165.413 148.645 165.867 148.752 166.32L152.154 165.147C152.582 165.013 152.852 164.775 152.852 164.268C152.852 163.095 151.887 161.734 150.656 161.734C149.424 161.734 148.595 162.907 148.595 164.96H148.592Z" fill="#00132D"/>
<path d="M177.004 171.119C177.004 172.026 175.612 173.625 172.853 173.625C171.594 173.625 170.444 173.036 169.721 171.945C168.757 172.746 167.016 173.731 164.688 173.731C161.609 173.731 159.762 171.998 159.762 169.517C159.762 167.037 161.769 165.091 165.521 165.091C166.78 165.091 167.77 165.25 168.439 165.438L168.414 165.172C168.172 163.439 167.129 162.56 165.791 162.56C164.613 162.56 163.73 162.907 162.979 163.227C162.495 163.439 162.043 163.68 161.694 163.68C161.32 163.68 160.89 163.361 160.89 162.801C160.89 162.135 161.559 161.468 162.043 161.093C163.246 160.161 165.015 159.52 167.453 159.52C170.72 159.52 173.048 160.774 173.479 163.946L174.069 168.238C174.283 169.811 174.899 170.184 176.454 170.478C176.749 170.531 177.016 170.744 177.016 171.119H177.004ZM169.105 170.212L168.703 167.359C168.383 167.277 167.927 167.224 167.365 167.224C166.08 167.224 165.062 167.703 165.062 168.932C165.062 170.162 165.945 170.878 167.044 170.878C167.849 170.878 168.65 170.531 169.105 170.212Z" fill="#00132D"/>
<path d="M191.999 161.841C191.999 162.801 191.49 164.027 190.793 165.519C190.526 166.108 190.152 166.452 189.64 166.452C189.159 166.452 188.81 166.051 188.568 165.626C187.978 164.587 187.444 163.918 186.614 163.918C185.731 163.918 184.5 164.85 184.5 167.678V170.077C184.5 171.917 186.322 171.357 186.322 172.611C186.322 173.036 186.002 173.49 185.197 173.49C184.446 173.49 183.724 173.409 181.905 173.409C180.271 173.409 179.627 173.49 178.958 173.49C178.153 173.49 177.833 173.065 177.833 172.611C177.833 171.463 179.307 171.917 179.307 170.077V165.119C179.307 163.386 177.645 164.024 177.645 162.72C177.645 162.025 178.474 161.628 180.723 160.668C182.784 159.789 183.161 159.707 183.482 159.707C184.286 159.707 184.5 160.349 184.5 161.228V163.095C185.197 161.203 187.07 159.601 189.106 159.601C190.846 159.601 191.999 160.64 191.999 161.841Z" fill="#00132D"/>
<path d="M69.0711 172.902C68.3924 170.987 66.2938 165.842 62.5708 163.38L62.863 162.351C62.9635 161.997 62.6965 161.644 62.3257 161.644H56.9031C56.5795 162.451 56.2182 163.236 55.549 163.777C55.3448 163.946 55.1249 164.096 54.8924 164.231C54.6662 164.362 54.4243 164.478 54.1761 164.575C53.887 164.687 53.5823 164.775 53.2681 164.834C53.0325 164.878 52.7937 164.909 52.5486 164.919C52.3036 164.906 52.0648 164.878 51.8292 164.834C51.515 164.775 51.2134 164.687 50.9212 164.575C50.673 164.478 50.4342 164.362 50.2049 164.231C49.9756 164.096 49.7556 163.943 49.5483 163.777C48.8822 163.236 48.5178 162.451 48.1942 161.644H42.7778C42.4071 161.644 42.1401 161.994 42.2406 162.351L42.5328 163.38C38.8098 165.842 36.7111 170.991 36.0325 172.902C35.9037 173.262 36.1739 173.64 36.5572 173.64L52.5518 173.662L68.5464 173.64C68.9297 173.64 69.1999 173.262 69.0711 172.902Z" fill="#00132D"/>
<path d="M50.5529 160.189C50.4021 160.299 50.3298 160.486 50.3706 160.668C50.5026 161.256 50.9707 162.501 52.5604 162.548C54.1753 162.598 54.6151 161.256 54.7314 160.652C54.7659 160.48 54.6937 160.302 54.5523 160.195C54.1376 159.889 53.2233 159.273 52.5604 159.273C51.8975 159.273 50.977 159.883 50.5529 160.189Z" fill="#00132D"/>
<path d="M64.1936 152.653V158.731C64.1936 159.563 63.537 160.236 62.7264 160.236H57.3729C57.2346 160.236 57.1027 160.198 56.9833 160.13L55.8177 159.454L53.6813 158.215C53.1818 157.924 51.9282 157.924 51.4287 158.215L49.2923 159.454L48.1267 160.13C48.0073 160.198 47.8723 160.236 47.7372 160.236H42.3773C41.5668 160.236 40.9102 159.56 40.9102 158.731V152.653C40.9102 151.821 41.5668 151.149 42.3773 151.149H62.7233C63.5338 151.149 64.1905 151.821 64.1905 152.653H64.1936Z" fill="#00132D"/>
<path d="M60.2403 143.482C57.2807 142.887 56.0963 146.184 56.0963 146.184C55.1035 145.649 53.9913 145.446 52.9169 145.362C52.675 145.343 52.4299 145.343 52.188 145.362C51.1324 145.443 49.9982 145.649 49.0085 146.184C49.0085 146.184 47.8241 142.887 44.8646 143.482C44.8646 143.482 41.6851 144.013 41.7794 147.614C41.7794 147.614 41.7794 149.287 42.37 149.863H62.7348C63.3255 149.287 63.3255 147.614 63.3255 147.614C63.4197 144.013 60.2403 143.482 60.2403 143.482Z" fill="#00132D"/>
<path d="M52.552 168.51C53.2408 168.51 53.7992 167.957 53.7992 167.274C53.7992 166.592 53.2408 166.039 52.552 166.039C51.8631 166.039 51.3047 166.592 51.3047 167.274C51.3047 167.957 51.8631 168.51 52.552 168.51Z" fill="white"/>
<path d="M52.552 172.483C53.2408 172.483 53.7992 171.93 53.7992 171.247C53.7992 170.565 53.2408 170.012 52.552 170.012C51.8631 170.012 51.3047 170.565 51.3047 171.247C51.3047 171.93 51.8631 172.483 52.552 172.483Z" fill="white"/>
<path d="M61.8183 157.03C61.6706 157.28 61.3439 157.371 61.0894 157.221L60.0275 156.611L60.04 157.827C60.04 158.121 59.8013 158.359 59.5028 158.362C59.2075 158.362 58.9593 158.115 58.9656 157.827V156.611L57.9131 157.221C57.6555 157.374 57.3256 157.283 57.1842 157.03C57.0303 156.773 57.1214 156.445 57.3884 156.307L58.4315 155.694L57.3884 155.081C57.1214 154.94 57.0303 154.615 57.1842 154.358C57.3287 154.105 57.6555 154.014 57.9131 154.167L58.9593 154.777V153.561C58.9593 153.27 59.2075 153.026 59.5028 153.026C59.7981 153.026 60.04 153.267 60.0369 153.557L60.0306 154.777L61.0925 154.167C61.3502 154.014 61.6738 154.108 61.8214 154.358C61.9754 154.615 61.8811 154.937 61.6266 155.09L60.5836 155.697L61.6266 156.304C61.8811 156.454 61.9785 156.776 61.8214 157.036" fill="#347F74"/>
<path d="M45.8398 153.007L46.4022 153.708C46.4588 153.78 46.5467 153.82 46.6378 153.82H47.5395C47.7312 153.82 47.8757 153.999 47.8317 154.186L47.6306 155.062C47.6118 155.15 47.6306 155.244 47.6872 155.315L48.2495 156.016C48.3689 156.166 48.3187 156.388 48.1459 156.473L47.3322 156.864C47.2505 156.905 47.1908 156.98 47.1688 157.067L46.9677 157.943C46.9237 158.131 46.7195 158.231 46.5436 158.146L45.7299 157.755C45.6482 157.715 45.5508 157.715 45.4691 157.755L44.6554 158.146C44.4826 158.231 44.2752 158.131 44.2313 157.943L44.0302 157.067C44.0113 156.98 43.9485 156.905 43.8668 156.864L43.0531 156.473C42.8803 156.388 42.8269 156.166 42.9494 156.016L43.5118 155.315C43.5683 155.244 43.5903 155.15 43.5683 155.062L43.3673 154.186C43.3233 153.999 43.4678 153.82 43.6595 153.82H44.5611C44.6522 153.82 44.7402 153.78 44.7968 153.708L45.3591 153.007C45.4785 152.857 45.7079 152.857 45.8304 153.007H45.8398Z" fill="#F8B1B8"/>
</g>
<path d="M901.766 169H898.133V154.891H893.48V151.867H906.418V154.891H901.766V169ZM911.621 162.426C911.621 163.723 911.832 164.703 912.254 165.367C912.684 166.031 913.379 166.363 914.34 166.363C915.293 166.363 915.977 166.035 916.391 165.379C916.812 164.715 917.023 163.73 917.023 162.426C917.023 161.129 916.812 160.156 916.391 159.508C915.969 158.859 915.277 158.535 914.316 158.535C913.363 158.535 912.676 158.859 912.254 159.508C911.832 160.148 911.621 161.121 911.621 162.426ZM920.68 162.426C920.68 164.559 920.117 166.227 918.992 167.43C917.867 168.633 916.301 169.234 914.293 169.234C913.035 169.234 911.926 168.961 910.965 168.414C910.004 167.859 909.266 167.066 908.75 166.035C908.234 165.004 907.977 163.801 907.977 162.426C907.977 160.285 908.535 158.621 909.652 157.434C910.77 156.246 912.34 155.652 914.363 155.652C915.621 155.652 916.73 155.926 917.691 156.473C918.652 157.02 919.391 157.805 919.906 158.828C920.422 159.852 920.68 161.051 920.68 162.426ZM927.781 169.234C926.242 169.234 925.031 168.637 924.148 167.441C923.273 166.246 922.836 164.59 922.836 162.473C922.836 160.324 923.281 158.652 924.172 157.457C925.07 156.254 926.305 155.652 927.875 155.652C929.523 155.652 930.781 156.293 931.648 157.574H931.766C931.586 156.598 931.496 155.727 931.496 154.961V150.766H935.082V169H932.34L931.648 167.301H931.496C930.684 168.59 929.445 169.234 927.781 169.234ZM929.035 166.387C929.949 166.387 930.617 166.121 931.039 165.59C931.469 165.059 931.703 164.156 931.742 162.883V162.496C931.742 161.09 931.523 160.082 931.086 159.473C930.656 158.863 929.953 158.559 928.977 158.559C928.18 158.559 927.559 158.898 927.113 159.578C926.676 160.25 926.457 161.23 926.457 162.52C926.457 163.809 926.68 164.777 927.125 165.426C927.57 166.066 928.207 166.387 929.035 166.387ZM947.141 169L946.449 167.219H946.355C945.754 167.977 945.133 168.504 944.492 168.801C943.859 169.09 943.031 169.234 942.008 169.234C940.75 169.234 939.758 168.875 939.031 168.156C938.312 167.438 937.953 166.414 937.953 165.086C937.953 163.695 938.438 162.672 939.406 162.016C940.383 161.352 941.852 160.984 943.812 160.914L946.086 160.844V160.27C946.086 158.941 945.406 158.277 944.047 158.277C943 158.277 941.77 158.594 940.355 159.227L939.172 156.812C940.68 156.023 942.352 155.629 944.188 155.629C945.945 155.629 947.293 156.012 948.23 156.777C949.168 157.543 949.637 158.707 949.637 160.27V169H947.141ZM946.086 162.93L944.703 162.977C943.664 163.008 942.891 163.195 942.383 163.539C941.875 163.883 941.621 164.406 941.621 165.109C941.621 166.117 942.199 166.621 943.355 166.621C944.184 166.621 944.844 166.383 945.336 165.906C945.836 165.43 946.086 164.797 946.086 164.008V162.93ZM951.453 155.898H955.367L957.84 163.27C958.051 163.91 958.195 164.668 958.273 165.543H958.344C958.43 164.738 958.598 163.98 958.848 163.27L961.273 155.898H965.105L959.562 170.676C959.055 172.043 958.328 173.066 957.383 173.746C956.445 174.426 955.348 174.766 954.09 174.766C953.473 174.766 952.867 174.699 952.273 174.566V171.73C952.703 171.832 953.172 171.883 953.68 171.883C954.312 171.883 954.863 171.688 955.332 171.297C955.809 170.914 956.18 170.332 956.445 169.551L956.656 168.906L951.453 155.898Z" fill="#347F74"/>
<path d="M1010.77 169H1007.13V154.891H1002.48V151.867H1015.42V154.891H1010.77V169ZM1020.62 162.426C1020.62 163.723 1020.83 164.703 1021.25 165.367C1021.68 166.031 1022.38 166.363 1023.34 166.363C1024.29 166.363 1024.98 166.035 1025.39 165.379C1025.81 164.715 1026.02 163.73 1026.02 162.426C1026.02 161.129 1025.81 160.156 1025.39 159.508C1024.97 158.859 1024.28 158.535 1023.32 158.535C1022.36 158.535 1021.68 158.859 1021.25 159.508C1020.83 160.148 1020.62 161.121 1020.62 162.426ZM1029.68 162.426C1029.68 164.559 1029.12 166.227 1027.99 167.43C1026.87 168.633 1025.3 169.234 1023.29 169.234C1022.04 169.234 1020.93 168.961 1019.96 168.414C1019 167.859 1018.27 167.066 1017.75 166.035C1017.23 165.004 1016.98 163.801 1016.98 162.426C1016.98 160.285 1017.54 158.621 1018.65 157.434C1019.77 156.246 1021.34 155.652 1023.36 155.652C1024.62 155.652 1025.73 155.926 1026.69 156.473C1027.65 157.02 1028.39 157.805 1028.91 158.828C1029.42 159.852 1029.68 161.051 1029.68 162.426ZM1044.36 169H1040.79V161.348C1040.79 160.402 1040.63 159.695 1040.31 159.227C1040 158.75 1039.5 158.512 1038.82 158.512C1037.91 158.512 1037.24 158.848 1036.83 159.52C1036.41 160.191 1036.21 161.297 1036.21 162.836V169H1032.63V155.898H1035.36L1035.84 157.574H1036.04C1036.39 156.973 1036.9 156.504 1037.57 156.168C1038.23 155.824 1038.99 155.652 1039.85 155.652C1041.81 155.652 1043.14 156.293 1043.84 157.574H1044.15C1044.5 156.965 1045.02 156.492 1045.7 156.156C1046.39 155.82 1047.16 155.652 1048.02 155.652C1049.5 155.652 1050.62 156.035 1051.38 156.801C1052.15 157.559 1052.53 158.777 1052.53 160.457V169H1048.95V161.348C1048.95 160.402 1048.79 159.695 1048.46 159.227C1048.15 158.75 1047.66 158.512 1046.98 158.512C1046.1 158.512 1045.45 158.824 1045.01 159.449C1044.58 160.074 1044.36 161.066 1044.36 162.426V169ZM1059.06 162.426C1059.06 163.723 1059.27 164.703 1059.69 165.367C1060.12 166.031 1060.82 166.363 1061.78 166.363C1062.73 166.363 1063.41 166.035 1063.83 165.379C1064.25 164.715 1064.46 163.73 1064.46 162.426C1064.46 161.129 1064.25 160.156 1063.83 159.508C1063.41 158.859 1062.71 158.535 1061.75 158.535C1060.8 158.535 1060.11 158.859 1059.69 159.508C1059.27 160.148 1059.06 161.121 1059.06 162.426ZM1068.12 162.426C1068.12 164.559 1067.55 166.227 1066.43 167.43C1065.3 168.633 1063.74 169.234 1061.73 169.234C1060.47 169.234 1059.36 168.961 1058.4 168.414C1057.44 167.859 1056.7 167.066 1056.19 166.035C1055.67 165.004 1055.41 163.801 1055.41 162.426C1055.41 160.285 1055.97 158.621 1057.09 157.434C1058.21 156.246 1059.78 155.652 1061.8 155.652C1063.06 155.652 1064.17 155.926 1065.13 156.473C1066.09 157.02 1066.83 157.805 1067.34 158.828C1067.86 159.852 1068.12 161.051 1068.12 162.426ZM1078.38 155.652C1078.87 155.652 1079.27 155.688 1079.59 155.758L1079.32 159.109C1079.03 159.031 1078.68 158.992 1078.27 158.992C1077.12 158.992 1076.23 159.285 1075.59 159.871C1074.96 160.457 1074.64 161.277 1074.64 162.332V169H1071.07V155.898H1073.78L1074.3 158.102H1074.48C1074.89 157.367 1075.43 156.777 1076.12 156.332C1076.82 155.879 1077.57 155.652 1078.38 155.652ZM1089.28 155.652C1089.77 155.652 1090.17 155.688 1090.49 155.758L1090.22 159.109C1089.93 159.031 1089.58 158.992 1089.16 158.992C1088.02 158.992 1087.13 159.285 1086.49 159.871C1085.86 160.457 1085.54 161.277 1085.54 162.332V169H1081.97V155.898H1084.68L1085.2 158.102H1085.38C1085.79 157.367 1086.33 156.777 1087.02 156.332C1087.71 155.879 1088.47 155.652 1089.28 155.652ZM1095.71 162.426C1095.71 163.723 1095.93 164.703 1096.35 165.367C1096.78 166.031 1097.47 166.363 1098.43 166.363C1099.39 166.363 1100.07 166.035 1100.48 165.379C1100.91 164.715 1101.12 163.73 1101.12 162.426C1101.12 161.129 1100.91 160.156 1100.48 159.508C1100.06 158.859 1099.37 158.535 1098.41 158.535C1097.46 158.535 1096.77 158.859 1096.35 159.508C1095.93 160.148 1095.71 161.121 1095.71 162.426ZM1104.77 162.426C1104.77 164.559 1104.21 166.227 1103.09 167.43C1101.96 168.633 1100.39 169.234 1098.39 169.234C1097.13 169.234 1096.02 168.961 1095.06 168.414C1094.1 167.859 1093.36 167.066 1092.84 166.035C1092.33 165.004 1092.07 163.801 1092.07 162.426C1092.07 160.285 1092.63 158.621 1093.75 157.434C1094.86 156.246 1096.43 155.652 1098.46 155.652C1099.71 155.652 1100.82 155.926 1101.79 156.473C1102.75 157.02 1103.48 157.805 1104 158.828C1104.52 159.852 1104.77 161.051 1104.77 162.426ZM1118.5 169L1117.49 164.418L1116.13 158.629H1116.05L1113.66 169H1109.81L1106.09 155.898H1109.65L1111.16 161.699C1111.4 162.738 1111.65 164.172 1111.9 166H1111.97C1112 165.406 1112.14 164.465 1112.38 163.176L1112.57 162.18L1114.18 155.898H1118.12L1119.66 162.18C1119.69 162.352 1119.73 162.605 1119.8 162.941C1119.87 163.277 1119.93 163.637 1120 164.02C1120.06 164.395 1120.11 164.766 1120.16 165.133C1120.21 165.492 1120.25 165.781 1120.25 166H1120.32C1120.39 165.438 1120.52 164.668 1120.7 163.691C1120.88 162.707 1121.01 162.043 1121.09 161.699L1122.66 155.898H1126.16L1122.39 169H1118.5Z" fill="#00132D"/>
<path d="M1165.66 169L1172.09 154.938H1163.64V151.891H1175.94V154.164L1169.46 169H1165.66ZM1199.32 160.27C1199.32 163.09 1198.51 165.25 1196.9 166.75C1195.3 168.25 1192.98 169 1189.95 169H1185.1V151.867H1190.48C1193.28 151.867 1195.45 152.605 1197 154.082C1198.54 155.559 1199.32 157.621 1199.32 160.27ZM1195.54 160.363C1195.54 156.684 1193.92 154.844 1190.67 154.844H1188.73V166H1190.29C1193.79 166 1195.54 164.121 1195.54 160.363ZM1210.91 169L1210.21 167.219H1210.12C1209.52 167.977 1208.9 168.504 1208.26 168.801C1207.62 169.09 1206.8 169.234 1205.77 169.234C1204.52 169.234 1203.52 168.875 1202.8 168.156C1202.08 167.438 1201.72 166.414 1201.72 165.086C1201.72 163.695 1202.2 162.672 1203.17 162.016C1204.15 161.352 1205.62 160.984 1207.58 160.914L1209.85 160.844V160.27C1209.85 158.941 1209.17 158.277 1207.81 158.277C1206.77 158.277 1205.54 158.594 1204.12 159.227L1202.94 156.812C1204.45 156.023 1206.12 155.629 1207.95 155.629C1209.71 155.629 1211.06 156.012 1212 156.777C1212.93 157.543 1213.4 158.707 1213.4 160.27V169H1210.91ZM1209.85 162.93L1208.47 162.977C1207.43 163.008 1206.66 163.195 1206.15 163.539C1205.64 163.883 1205.39 164.406 1205.39 165.109C1205.39 166.117 1205.96 166.621 1207.12 166.621C1207.95 166.621 1208.61 166.383 1209.1 165.906C1209.6 165.43 1209.85 164.797 1209.85 164.008V162.93ZM1215.22 155.898H1219.13L1221.61 163.27C1221.82 163.91 1221.96 164.668 1222.04 165.543H1222.11C1222.2 164.738 1222.36 163.98 1222.61 163.27L1225.04 155.898H1228.87L1223.33 170.676C1222.82 172.043 1222.09 173.066 1221.15 173.746C1220.21 174.426 1219.11 174.766 1217.86 174.766C1217.24 174.766 1216.63 174.699 1216.04 174.566V171.73C1216.47 171.832 1216.94 171.883 1217.45 171.883C1218.08 171.883 1218.63 171.688 1219.1 171.297C1219.57 170.914 1219.95 170.332 1220.21 169.551L1220.42 168.906L1215.22 155.898ZM1239.9 165.109C1239.9 166.453 1239.43 167.477 1238.49 168.18C1237.56 168.883 1236.17 169.234 1234.31 169.234C1233.36 169.234 1232.54 169.168 1231.87 169.035C1231.2 168.91 1230.57 168.723 1229.98 168.473V165.52C1230.65 165.832 1231.39 166.094 1232.22 166.305C1233.06 166.516 1233.79 166.621 1234.43 166.621C1235.72 166.621 1236.37 166.246 1236.37 165.496C1236.37 165.215 1236.29 164.988 1236.11 164.816C1235.94 164.637 1235.64 164.438 1235.22 164.219C1234.8 163.992 1234.24 163.73 1233.54 163.434C1232.53 163.012 1231.79 162.621 1231.31 162.262C1230.84 161.902 1230.5 161.492 1230.28 161.031C1230.07 160.562 1229.96 159.988 1229.96 159.309C1229.96 158.145 1230.41 157.246 1231.31 156.613C1232.21 155.973 1233.5 155.652 1235.15 155.652C1236.73 155.652 1238.27 155.996 1239.76 156.684L1238.68 159.262C1238.02 158.98 1237.41 158.75 1236.84 158.57C1236.27 158.391 1235.69 158.301 1235.09 158.301C1234.04 158.301 1233.51 158.586 1233.51 159.156C1233.51 159.477 1233.68 159.754 1234.02 159.988C1234.36 160.223 1235.11 160.57 1236.25 161.031C1237.28 161.445 1238.03 161.832 1238.5 162.191C1238.98 162.551 1239.33 162.965 1239.56 163.434C1239.79 163.902 1239.9 164.461 1239.9 165.109ZM1252.78 169H1249.2V151.867H1259.02V154.844H1252.78V159.262H1258.59V162.227H1252.78V169ZM1264.94 162.426C1264.94 163.723 1265.15 164.703 1265.57 165.367C1266 166.031 1266.7 166.363 1267.66 166.363C1268.61 166.363 1269.3 166.035 1269.71 165.379C1270.13 164.715 1270.34 163.73 1270.34 162.426C1270.34 161.129 1270.13 160.156 1269.71 159.508C1269.29 158.859 1268.6 158.535 1267.64 158.535C1266.68 158.535 1266 158.859 1265.57 159.508C1265.15 160.148 1264.94 161.121 1264.94 162.426ZM1274 162.426C1274 164.559 1273.44 166.227 1272.31 167.43C1271.19 168.633 1269.62 169.234 1267.61 169.234C1266.36 169.234 1265.25 168.961 1264.29 168.414C1263.32 167.859 1262.59 167.066 1262.07 166.035C1261.55 165.004 1261.3 163.801 1261.3 162.426C1261.3 160.285 1261.86 158.621 1262.97 157.434C1264.09 156.246 1265.66 155.652 1267.68 155.652C1268.94 155.652 1270.05 155.926 1271.01 156.473C1271.97 157.02 1272.71 157.805 1273.23 158.828C1273.74 159.852 1274 161.051 1274 162.426ZM1284.27 155.652C1284.75 155.652 1285.15 155.688 1285.47 155.758L1285.2 159.109C1284.91 159.031 1284.56 158.992 1284.15 158.992C1283.01 158.992 1282.12 159.285 1281.48 159.871C1280.84 160.457 1280.53 161.277 1280.53 162.332V169H1276.95V155.898H1279.66L1280.19 158.102H1280.36C1280.77 157.367 1281.32 156.777 1282 156.332C1282.7 155.879 1283.45 155.652 1284.27 155.652ZM1293.28 158.195C1292.52 158.195 1291.93 158.438 1291.5 158.922C1291.07 159.398 1290.82 160.078 1290.76 160.961H1295.77C1295.76 160.078 1295.53 159.398 1295.08 158.922C1294.64 158.438 1294.04 158.195 1293.28 158.195ZM1293.78 169.234C1291.67 169.234 1290.02 168.652 1288.84 167.488C1287.65 166.324 1287.05 164.676 1287.05 162.543C1287.05 160.348 1287.6 158.652 1288.7 157.457C1289.8 156.254 1291.32 155.652 1293.25 155.652C1295.11 155.652 1296.55 156.18 1297.58 157.234C1298.61 158.289 1299.12 159.746 1299.12 161.605V163.34H1290.68C1290.71 164.355 1291.02 165.148 1291.58 165.719C1292.14 166.289 1292.93 166.574 1293.95 166.574C1294.73 166.574 1295.48 166.492 1296.18 166.328C1296.89 166.164 1297.62 165.902 1298.39 165.543V168.309C1297.76 168.621 1297.09 168.852 1296.38 169C1295.67 169.156 1294.8 169.234 1293.78 169.234ZM1307.35 169.234C1303.27 169.234 1301.23 166.996 1301.23 162.52C1301.23 160.293 1301.79 158.594 1302.9 157.422C1304.01 156.242 1305.6 155.652 1307.67 155.652C1309.18 155.652 1310.54 155.949 1311.75 156.543L1310.69 159.309C1310.13 159.082 1309.61 158.898 1309.12 158.758C1308.64 158.609 1308.15 158.535 1307.67 158.535C1305.81 158.535 1304.88 159.855 1304.88 162.496C1304.88 165.059 1305.81 166.34 1307.67 166.34C1308.36 166.34 1308.99 166.25 1309.58 166.07C1310.16 165.883 1310.75 165.594 1311.34 165.203V168.262C1310.76 168.629 1310.17 168.883 1309.58 169.023C1308.99 169.164 1308.25 169.234 1307.35 169.234ZM1322.7 169L1322.01 167.219H1321.92C1321.32 167.977 1320.7 168.504 1320.05 168.801C1319.42 169.09 1318.59 169.234 1317.57 169.234C1316.31 169.234 1315.32 168.875 1314.59 168.156C1313.88 167.438 1313.52 166.414 1313.52 165.086C1313.52 163.695 1314 162.672 1314.97 162.016C1315.95 161.352 1317.41 160.984 1319.38 160.914L1321.65 160.844V160.27C1321.65 158.941 1320.97 158.277 1319.61 158.277C1318.56 158.277 1317.33 158.594 1315.92 159.227L1314.73 156.812C1316.24 156.023 1317.91 155.629 1319.75 155.629C1321.51 155.629 1322.86 156.012 1323.79 156.777C1324.73 157.543 1325.2 158.707 1325.2 160.27V169H1322.7ZM1321.65 162.93L1320.27 162.977C1319.23 163.008 1318.45 163.195 1317.95 163.539C1317.44 163.883 1317.18 164.406 1317.18 165.109C1317.18 166.117 1317.76 166.621 1318.92 166.621C1319.75 166.621 1320.41 166.383 1320.9 165.906C1321.4 165.43 1321.65 164.797 1321.65 164.008V162.93ZM1338.03 165.109C1338.03 166.453 1337.56 167.477 1336.62 168.18C1335.7 168.883 1334.3 169.234 1332.44 169.234C1331.49 169.234 1330.68 169.168 1330 169.035C1329.33 168.91 1328.7 168.723 1328.12 168.473V165.52C1328.78 165.832 1329.53 166.094 1330.36 166.305C1331.19 166.516 1331.93 166.621 1332.56 166.621C1333.86 166.621 1334.5 166.246 1334.5 165.496C1334.5 165.215 1334.42 164.988 1334.25 164.816C1334.07 164.637 1333.78 164.438 1333.36 164.219C1332.93 163.992 1332.37 163.73 1331.67 163.434C1330.66 163.012 1329.92 162.621 1329.44 162.262C1328.97 161.902 1328.63 161.492 1328.41 161.031C1328.2 160.562 1328.09 159.988 1328.09 159.309C1328.09 158.145 1328.54 157.246 1329.44 156.613C1330.35 155.973 1331.63 155.652 1333.29 155.652C1334.86 155.652 1336.4 155.996 1337.89 156.684L1336.81 159.262C1336.16 158.98 1335.54 158.75 1334.97 158.57C1334.4 158.391 1333.82 158.301 1333.23 158.301C1332.17 158.301 1331.64 158.586 1331.64 159.156C1331.64 159.477 1331.81 159.754 1332.15 159.988C1332.49 160.223 1333.24 160.57 1334.39 161.031C1335.41 161.445 1336.16 161.832 1336.64 162.191C1337.11 162.551 1337.46 162.965 1337.69 163.434C1337.92 163.902 1338.03 164.461 1338.03 165.109ZM1346.34 166.387C1346.96 166.387 1347.71 166.25 1348.59 165.977V168.637C1347.7 169.035 1346.61 169.234 1345.31 169.234C1343.88 169.234 1342.84 168.875 1342.18 168.156C1341.53 167.43 1341.21 166.344 1341.21 164.898V158.582H1339.5V157.07L1341.46 155.875L1342.5 153.109H1344.78V155.898H1348.45V158.582H1344.78V164.898C1344.78 165.406 1344.92 165.781 1345.2 166.023C1345.49 166.266 1345.87 166.387 1346.34 166.387Z" fill="#00132D"/>
<circle cx="1424" cy="160" r="20" fill="#495057"/>
<path d="M1435.73 164.886C1435.09 163.449 1434.16 162.144 1433 161.044C1431.84 159.94 1430.47 159.06 1428.96 158.452C1428.94 158.446 1428.93 158.443 1428.92 158.436C1431.02 156.989 1432.4 154.633 1432.4 151.974C1432.4 147.569 1428.64 144 1424 144C1419.36 144 1415.61 147.569 1415.61 151.974C1415.61 154.633 1416.98 156.989 1419.09 158.439C1419.07 158.446 1419.06 158.449 1419.05 158.455C1417.53 159.063 1416.17 159.934 1415 161.047C1413.84 162.148 1412.91 163.453 1412.27 164.889C1411.64 166.295 1411.3 167.802 1411.27 169.329C1411.27 169.363 1411.28 169.398 1411.29 169.43C1411.31 169.461 1411.33 169.491 1411.35 169.515C1411.38 169.54 1411.41 169.559 1411.44 169.573C1411.47 169.586 1411.51 169.593 1411.54 169.593H1413.58C1413.72 169.593 1413.84 169.48 1413.85 169.342C1413.91 166.86 1414.96 164.535 1416.82 162.773C1418.74 160.95 1421.29 159.947 1424 159.947C1426.72 159.947 1429.26 160.95 1431.18 162.773C1433.04 164.535 1434.09 166.86 1434.16 169.342C1434.16 169.483 1434.28 169.593 1434.43 169.593H1436.46C1436.49 169.593 1436.53 169.586 1436.56 169.573C1436.6 169.559 1436.63 169.54 1436.65 169.515C1436.68 169.491 1436.7 169.461 1436.71 169.43C1436.72 169.398 1436.73 169.363 1436.73 169.329C1436.69 167.792 1436.36 166.297 1435.73 164.886ZM1424 157.504C1422.45 157.504 1420.98 156.928 1419.88 155.883C1418.78 154.838 1418.18 153.449 1418.18 151.974C1418.18 150.498 1418.78 149.109 1419.88 148.064C1420.98 147.019 1422.45 146.444 1424 146.444C1425.55 146.444 1427.02 147.019 1428.12 148.064C1429.22 149.109 1429.82 150.498 1429.82 151.974C1429.82 153.449 1429.22 154.838 1428.12 155.883C1427.02 156.928 1425.55 157.504 1424 157.504Z" fill="white"/>
</g>
<rect x="0.5" y="0.5" width="1479" height="271" rx="4.5" stroke="#9747FF" stroke-dasharray="10 5"/>
<defs>
<filter id="filter0_d_199_10816" x="16" y="20" width="1448" height="80" filterUnits="userSpaceOnUse" color-interpolation-filters="sRGB">
<feFlood flood-opacity="0" result="BackgroundImageFix"/>
<feColorMatrix in="SourceAlpha" type="matrix" values="0 0 0 0 0 0 0 0 0 0 0 0 0 0 0 0 0 0 127 0" result="hardAlpha"/>
<feOffset dy="4"/>
<feGaussianBlur stdDeviation="2"/>
<feComposite in2="hardAlpha" operator="out"/>
<feColorMatrix type="matrix" values="0 0 0 0 0.286275 0 0 0 0 0.313726 0 0 0 0 0.341176 0 0 0 0.1 0"/>
<feBlend mode="normal" in2="BackgroundImageFix" result="effect1_dropShadow_199_10816"/>
<feBlend mode="normal" in="SourceGraphic" in2="effect1_dropShadow_199_10816" result="shape"/>
</filter>
<filter id="filter1_d_199_10816" x="16" y="124" width="1448" height="80" filterUnits="userSpaceOnUse" color-interpolation-filters="sRGB">
<feFlood flood-opacity="0" result="BackgroundImageFix"/>
<feColorMatrix in="SourceAlpha" type="matrix" values="0 0 0 0 0 0 0 0 0 0 0 0 0 0 0 0 0 0 127 0" result="hardAlpha"/>
<feOffset dy="4"/>
<feGaussianBlur stdDeviation="2"/>
<feComposite in2="hardAlpha" operator="out"/>
<feColorMatrix type="matrix" values="0 0 0 0 0.286275 0 0 0 0 0.313726 0 0 0 0 0.341176 0 0 0 0.1 0"/>
<feBlend mode="normal" in2="BackgroundImageFix" result="effect1_dropShadow_199_10816"/>
<feBlend mode="normal" in="SourceGraphic" in2="effect1_dropShadow_199_10816" result="shape"/>
</filter>
<clipPath id="clip0_199_10816">
<rect width="156" height="34" fill="white" transform="translate(36 36)"/>
</clipPath>
<clipPath id="clip1_199_10816">
<rect width="156" height="34" fill="white" transform="translate(36 140)"/>
</clipPath>
</defs>
</svg>
