<svg width="628" height="662" viewBox="0 0 628 662" fill="none" xmlns="http://www.w3.org/2000/svg">
<g clip-path="url(#clip0_425_201)">
<path d="M106.674 562.339C106.674 582.255 92.5524 593.316 62.0939 593.316C50.6166 593.316 33.989 592.58 24.2833 592.58C14.5776 592.58 10.4523 593.024 6.47892 593.024C1.92343 593.024 0 590.513 0 587.862C0 581.227 8.52889 583.878 8.52889 573.261V506.296C8.52889 495.678 0 498.329 0 491.695C0 489.044 1.91078 486.532 6.47892 486.532C10.4523 486.532 14.1347 486.976 24.2833 486.976C34.4319 486.976 44.5932 485.796 57.0955 485.796C82.4038 485.796 99.0314 496.122 99.0314 514.262C99.0314 522.368 95.2098 530.486 84.7575 535.649C98.2974 540.076 106.674 549.514 106.674 562.339ZM40.0251 526.199C40.0251 529.154 41.0501 530.334 45.4664 530.334H50.3255C58.1205 530.334 65.4852 526.351 65.4852 516.177C65.4852 506.004 58.576 500.105 49.4524 500.105H48.5666C44.0111 500.105 40.0377 501.285 40.0377 506.74V526.211L40.0251 526.199ZM72.2425 562.478C72.2425 550.237 63.7136 543.603 49.8826 543.603H45.0235C41.3411 543.603 40.0251 545.074 40.0251 548.918V568.973C40.0251 578.272 42.9735 579.299 52.2363 579.299H53.7042C64.5868 579.299 72.2425 572.512 72.2425 562.491V562.478Z" fill="#0B2342"/>
<path d="M198.493 573.109C198.493 574.441 198.05 575.62 197.164 577.244C192.748 584.766 178.626 595.828 157.139 595.828C132.426 595.828 115.494 579.312 115.494 556.149C115.494 530.486 136.095 514.706 159.189 514.706C182.283 514.706 195.671 530.778 195.671 545.087C195.671 550.25 194.051 550.833 190.964 551.874L149.623 565.142C154.33 572.373 161.682 577.828 171.249 577.828C177.576 577.828 182.726 575.76 188.61 571.777C191.85 569.569 192.875 568.821 194.494 568.821C197.291 568.821 198.468 571.777 198.468 573.096L198.493 573.109ZM144.055 545.823C144.055 548.334 144.346 550.833 144.941 553.345L163.631 546.85C165.984 546.115 167.452 544.783 167.452 541.979C167.452 535.484 162.15 527.962 155.393 527.962C148.636 527.962 144.067 534.457 144.067 545.81L144.055 545.823Z" fill="#0B2342"/>
<path d="M366.667 491.099C366.667 498.329 357.404 495.97 353.861 506.144L326.49 586.377C324.87 591.248 322.073 594.344 310.748 594.344C299.422 594.344 297.208 591.248 295.449 586.377L279.416 540.799L262.941 586.377C261.182 591.388 258.081 594.344 246.908 594.344C235.734 594.344 233.671 591.248 231.9 586.377L203.656 506.144C200.277 496.414 191.736 498.038 191.736 491.099C191.736 488.587 194.38 486.672 197.62 486.672C202.922 486.672 207.629 487.116 218.069 487.116C228.509 487.116 233.671 486.672 238.961 486.672C243.516 486.672 246.022 488.448 246.022 491.682C246.022 498.317 237.632 495.818 237.632 503.48C237.632 505.103 238.214 507.755 239.1 510.406L256.019 562.326L271.621 518.22L267.357 506.131C263.978 496.401 256.171 498.025 256.171 491.086C256.171 488.575 258.815 486.659 262.055 486.659C267.205 486.659 271.33 487.103 281.618 487.103C291.906 487.103 297.651 486.659 302.953 486.659C307.508 486.659 309.862 488.435 309.862 491.67C309.862 498.304 300.587 495.805 300.587 503.467C300.587 505.535 301.472 508.63 302.054 510.393L319.416 562.022L334.715 512.169C336.183 507.45 336.626 504.647 336.626 503.467C336.626 495.792 326.616 498.304 326.616 491.67C326.616 488.422 328.818 486.659 333.525 486.659C338.676 486.659 343.383 487.103 347.508 487.103C351.633 487.103 356.189 486.659 360.605 486.659C364.579 486.659 366.641 488.575 366.641 491.086L366.667 491.099Z" fill="#0B2342"/>
<path d="M443.92 573.109C443.92 574.441 443.477 575.62 442.591 577.244C438.175 584.766 424.053 595.828 402.566 595.828C377.853 595.828 360.922 579.312 360.922 556.149C360.922 530.486 381.523 514.706 404.616 514.706C427.71 514.706 441.098 530.778 441.098 545.087C441.098 550.25 439.478 550.833 436.391 551.874L395.05 565.142C399.757 572.373 407.109 577.828 416.676 577.828C423.003 577.828 428.153 575.76 434.037 571.777C437.277 569.569 438.302 568.821 439.921 568.821C442.718 568.821 443.895 571.777 443.895 573.096L443.92 573.109ZM389.482 545.823C389.482 548.334 389.773 550.833 390.368 553.345L409.058 546.85C411.412 546.115 412.879 544.783 412.879 541.979C412.879 535.484 407.577 527.962 400.82 527.962C394.063 527.962 389.495 534.457 389.495 545.81L389.482 545.823Z" fill="#0B2342"/>
<path d="M545.596 579.883C545.596 584.893 537.94 593.747 522.793 593.747C515.884 593.747 509.557 590.5 505.584 584.462C500.282 588.889 490.728 594.344 477.922 594.344C461.003 594.344 450.855 584.754 450.855 571.041C450.855 557.328 461.889 546.559 482.49 546.559C489.399 546.559 494.853 547.447 498.523 548.474L498.371 547.003C497.042 537.413 491.31 532.554 483.958 532.554C477.479 532.554 472.632 534.47 468.507 536.245C465.862 537.425 463.357 538.757 461.446 538.757C459.383 538.757 457.03 536.981 457.03 533.886C457.03 530.195 460.712 526.516 463.357 524.448C469.975 519.285 479.693 515.746 493.081 515.746C511.038 515.746 523.831 522.672 526.185 540.229L529.424 563.975C530.601 572.677 533.98 574.745 542.521 576.369C544.141 576.66 545.609 577.84 545.609 579.908L545.596 579.883ZM502.192 574.872L499.991 559.092C498.219 558.648 495.726 558.356 492.639 558.356C485.578 558.356 479.984 561.007 479.984 567.794C479.984 574.58 484.844 578.563 490.867 578.563C495.283 578.563 499.7 576.648 502.192 574.872Z" fill="#0B2342"/>
<path d="M628 528.558C628 533.873 625.203 540.647 621.382 548.918C619.914 552.165 617.851 554.081 615.055 554.081C612.41 554.081 610.499 551.874 609.171 549.514C605.931 543.755 602.995 540.076 598.427 540.076C593.568 540.076 586.798 545.239 586.798 560.867V574.136C586.798 584.31 596.808 581.215 596.808 588.153C596.808 590.513 595.036 593.024 590.632 593.024C586.507 593.024 582.546 592.58 572.537 592.58C563.565 592.58 560.035 593.024 556.352 593.024C551.936 593.024 550.177 590.665 550.177 588.153C550.177 581.811 558.263 584.322 558.263 574.136V546.698C558.263 537.108 549.139 540.647 549.139 533.429C549.139 529.598 553.695 527.379 566.058 522.076C577.383 517.205 579.446 516.761 581.218 516.761C585.634 516.761 586.811 520.3 586.811 525.171V535.497C590.632 525.019 600.933 516.177 612.119 516.177C621.686 516.177 628.013 521.924 628.013 528.571L628 528.558Z" fill="#0B2342"/>
<path d="M560.161 442.832C550.063 414.1 518.757 336.86 463.243 299.908L467.596 284.47C469.102 279.155 465.116 273.878 459.599 273.878H378.739C373.917 285.992 368.514 297.751 358.568 305.882C355.506 308.394 352.241 310.677 348.799 312.694C345.408 314.686 341.839 316.424 338.131 317.87C333.816 319.57 329.286 320.889 324.617 321.777C321.124 322.449 317.543 322.881 313.899 323.058C310.254 322.881 306.673 322.449 303.181 321.777C298.511 320.889 293.981 319.57 289.666 317.87C285.958 316.424 282.39 314.673 278.999 312.694C275.557 310.677 272.292 308.394 269.23 305.882C259.283 297.751 253.88 285.992 249.059 273.878H168.199C162.682 273.878 158.708 279.155 160.201 284.47L164.555 299.908C109.041 336.86 77.7344 414.112 67.6364 442.832C65.7383 448.248 69.737 453.906 75.4693 453.919L313.924 454.261L552.379 453.919C558.098 453.919 562.11 448.248 560.212 442.832H560.161Z" fill="#0B2342"/>
<path d="M284.098 252.008C281.846 253.645 280.795 256.461 281.403 259.176C283.377 268.004 290.362 286.677 314.038 287.413C338.131 288.161 344.686 268.017 346.42 258.947C346.913 256.347 345.876 253.683 343.75 252.097C337.587 247.492 323.946 238.245 314.038 238.245C304.13 238.245 290.438 247.378 284.098 252.008Z" fill="#0B2342"/>
<path d="M487.438 138.869V230.088C487.438 242.571 477.643 252.681 465.559 252.681H385.724C383.686 252.681 381.687 252.135 379.903 251.095L362.541 240.96L330.691 222.388C323.225 218.037 304.56 218.037 297.094 222.388L265.244 240.96L247.882 251.095C246.111 252.135 244.099 252.681 242.061 252.681H162.226C150.141 252.681 140.335 242.558 140.335 230.076V138.869C140.335 126.387 150.129 116.277 162.214 116.277H465.571C477.656 116.277 487.45 126.387 487.45 138.869H487.438Z" fill="#0B2342"/>
<path d="M428.507 1.22213C384.37 -7.68287 366.705 41.8021 366.705 41.8021C351.912 33.7596 335.322 30.7406 319.302 29.4721C315.683 29.1803 312.051 29.1803 308.42 29.4721C292.678 30.7152 275.784 33.785 261.03 41.8147C261.03 41.8147 243.377 -7.67019 199.227 1.23482C199.227 1.23482 151.837 9.2138 153.229 63.24C153.229 63.24 153.229 88.344 162.062 96.9826H465.673C474.505 88.344 474.505 63.24 474.505 63.24C475.91 9.18843 428.507 1.22213 428.507 1.22213Z" fill="#022444"/>
<path d="M313.886 376.881C324.146 376.881 332.462 368.578 332.462 358.336C332.462 348.093 324.146 339.79 313.886 339.79C303.627 339.79 295.31 348.093 295.31 358.336C295.31 368.578 303.627 376.881 313.886 376.881Z" fill="white"/>
<path d="M313.886 436.527C324.146 436.527 332.462 428.224 332.462 417.981C332.462 407.739 324.146 399.436 313.886 399.436C303.627 399.436 295.31 407.739 295.31 417.981C295.31 428.224 303.627 436.527 313.886 436.527Z" fill="white"/>
<path d="M451.981 204.54C449.779 208.283 444.894 209.665 441.098 207.407L425.268 198.261L425.432 216.503C425.432 220.917 421.864 224.494 417.41 224.545C413.006 224.545 409.324 220.854 409.387 216.503L409.336 198.261L393.721 207.407C389.874 209.716 384.977 208.346 382.839 204.54C380.536 200.684 381.902 195.775 385.863 193.682L401.428 184.472L385.863 175.263C381.902 173.17 380.536 168.261 382.839 164.404C384.977 160.599 389.874 159.229 393.721 161.538L409.336 170.684L409.387 152.442C409.336 148.091 413.019 144.4 417.41 144.4C421.813 144.4 425.432 148.041 425.382 152.392L425.268 170.684L441.098 161.538C444.945 159.229 449.779 160.65 451.981 164.404C454.284 168.261 452.867 173.106 449.07 175.377L433.506 184.472L449.07 193.568C452.867 195.826 454.297 200.671 451.981 204.54Z" fill="#93DBD1"/>
<path d="M213.817 144.184L222.207 154.726C223.055 155.791 224.345 156.413 225.712 156.413H239.163C242.036 156.413 244.174 159.089 243.529 161.905L240.53 175.047C240.226 176.379 240.543 177.775 241.391 178.853L249.78 189.394C251.577 191.652 250.818 194.988 248.224 196.244L236.101 202.092C234.874 202.688 233.975 203.805 233.671 205.137L230.672 218.278C230.027 221.095 226.952 222.579 224.358 221.323L212.235 215.475C211.008 214.879 209.578 214.879 208.351 215.475L196.228 221.323C193.634 222.579 190.559 221.082 189.913 218.278L186.914 205.137C186.611 203.805 185.712 202.676 184.485 202.092L172.362 196.244C169.768 194.988 169.009 191.652 170.806 189.394L179.195 178.853C180.043 177.787 180.36 176.379 180.056 175.047L177.057 161.905C176.411 159.089 178.55 156.413 181.423 156.413H194.874C196.241 156.413 197.531 155.791 198.379 154.726L206.769 144.184C208.566 141.926 211.982 141.926 213.779 144.184H213.817Z" fill="#FF7385"/>
</g>
<defs>
<clipPath id="clip0_425_201">
<rect width="628" height="661" fill="white" transform="translate(0 0.14389)"/>
</clipPath>
</defs>
</svg>
