<svg width="173" height="159" viewBox="0 0 173 159" fill="none" xmlns="http://www.w3.org/2000/svg">
<g clip-path="url(#clip0_199_10866)">
<path d="M172.83 154.998C169.29 144.938 158.316 117.894 138.856 104.956L140.382 99.551C140.909 97.6901 139.512 95.8424 137.578 95.8424H109.233C107.543 100.084 105.649 104.201 102.162 107.048C101.088 107.928 99.9439 108.727 98.7374 109.433C97.5486 110.131 96.2976 110.739 94.9979 111.245C93.4853 111.841 91.8972 112.302 90.2604 112.613C89.0361 112.849 87.7807 113 86.5032 113.062C85.2256 113 83.9703 112.849 82.746 112.613C81.1091 112.302 79.5211 111.841 78.0084 111.245C76.7087 110.739 75.4578 110.126 74.269 109.433C73.0624 108.727 71.9179 107.928 70.8445 107.048C67.3578 104.201 65.4637 100.084 63.7736 95.8424H35.4283C33.4942 95.8424 32.1013 97.6901 32.6248 99.551L34.1507 104.956C14.6816 117.894 3.70715 144.938 0.167305 154.998C-0.498079 156.895 0.903664 158.876 2.91313 158.88L86.5032 159L170.093 158.88C172.098 158.88 173.504 156.895 172.839 154.998H172.83Z" fill="#0B2342"/>
<path d="M76.0591 88.1852C75.2695 88.7582 74.9013 89.7442 75.1142 90.6946C75.8062 93.7859 78.2548 100.324 86.5544 100.581C95.0003 100.843 97.2981 93.7903 97.9059 90.6147C98.0789 89.7042 97.7151 88.7715 96.9699 88.2163C94.8096 86.604 90.0277 83.3662 86.5544 83.3662C83.0811 83.3662 78.2815 86.5641 76.0591 88.1852Z" fill="#0B2342"/>
<path d="M147.337 48.5719V80.5104C147.337 84.8808 143.903 88.4207 139.667 88.4207H111.681C110.967 88.4207 110.266 88.2297 109.641 87.8655L103.555 84.3168L92.3894 77.8145C89.7722 76.291 83.2292 76.291 80.6121 77.8145L69.4469 84.3168L63.3609 87.8655C62.7398 88.2297 62.0345 88.4207 61.3203 88.4207H33.3343C29.098 88.4207 25.6602 84.8764 25.6602 80.506V48.5719C25.6602 44.2015 29.0935 40.6616 33.3298 40.6616H139.672C143.908 40.6616 147.341 44.2015 147.341 48.5719H147.337Z" fill="#0B2342"/>
<path d="M126.685 0.377646C111.212 -2.74026 105.02 14.5859 105.02 14.5859C99.8344 11.77 94.0189 10.7129 88.403 10.2688C87.1344 10.1666 85.8613 10.1666 84.5882 10.2688C79.0699 10.7041 73.148 11.7789 67.9757 14.5903C67.9757 14.5903 61.7877 -2.73582 46.3108 0.382087C46.3108 0.382087 29.6984 3.17577 30.1863 22.092C30.1863 22.092 30.1863 30.8816 33.2826 33.9063H139.713C142.809 30.8816 142.809 22.092 142.809 22.092C143.297 3.16689 126.685 0.377646 126.685 0.377646Z" fill="#022444"/>
<path d="M86.5002 131.907C90.0966 131.907 93.0121 129 93.0121 125.414C93.0121 121.827 90.0966 118.92 86.5002 118.92C82.9038 118.92 79.9883 121.827 79.9883 125.414C79.9883 129 82.9038 131.907 86.5002 131.907Z" fill="white"/>
<path d="M86.5002 152.791C90.0966 152.791 93.0121 149.884 93.0121 146.297C93.0121 142.711 90.0966 139.804 86.5002 139.804C82.9038 139.804 79.9883 142.711 79.9883 146.297C79.9883 149.884 82.9038 152.791 86.5002 152.791Z" fill="white"/>
<path d="M134.912 71.5653C134.14 72.8755 132.427 73.3596 131.097 72.5691L125.547 69.3668L125.605 75.7536C125.605 77.2992 124.354 78.5517 122.793 78.5695C121.249 78.5695 119.958 77.277 119.98 75.7536L119.963 69.3668L114.489 72.5691C113.14 73.3774 111.423 72.8977 110.674 71.5653C109.866 70.2151 110.346 68.4962 111.734 67.7634L117.19 64.5389L111.734 61.3144C110.346 60.5815 109.866 58.8627 110.674 57.5125C111.423 56.1801 113.14 55.7004 114.489 56.5087L119.963 59.711L119.98 53.3242C119.963 51.8008 121.253 50.5083 122.793 50.5083C124.336 50.5083 125.605 51.783 125.587 53.3064L125.547 59.711L131.097 56.5087C132.445 55.7004 134.14 56.1978 134.912 57.5125C135.719 58.8627 135.222 60.5593 133.891 61.3544L128.435 64.5389L133.891 67.7234C135.222 68.514 135.723 70.2106 134.912 71.5653Z" fill="#93DBD1"/>
<path d="M51.4216 50.4328L54.3626 54.1236C54.6598 54.4967 55.1123 54.7144 55.5913 54.7144H60.3067C61.3137 54.7144 62.0633 55.6515 61.8371 56.6375L60.7858 61.2389C60.6793 61.7052 60.7902 62.1938 61.0874 62.5713L64.0284 66.2622C64.6583 67.0527 64.3922 68.2208 63.4828 68.6605L59.2332 70.7081C58.8029 70.9168 58.488 71.3077 58.3815 71.774L57.3302 76.3754C57.104 77.3614 56.0261 77.881 55.1167 77.4413L50.8671 75.3938C50.4368 75.1851 49.9356 75.1851 49.5053 75.3938L45.2557 77.4413C44.3463 77.881 43.2684 77.3569 43.0422 76.3754L41.9909 71.774C41.8844 71.3077 41.5695 70.9124 41.1392 70.7081L36.8896 68.6605C35.9802 68.2208 35.7141 67.0527 36.344 66.2622L39.285 62.5713C39.5822 62.1982 39.6931 61.7052 39.5866 61.2389L38.5353 56.6375C38.3091 55.6515 39.0588 54.7144 40.0657 54.7144H44.7811C45.2601 54.7144 45.7126 54.4967 46.0098 54.1236L48.9508 50.4328C49.5807 49.6422 50.7784 49.6422 51.4083 50.4328H51.4216Z" fill="#FF7385"/>
</g>
<defs>
<clipPath id="clip0_199_10866">
<rect width="173" height="159" fill="white"/>
</clipPath>
</defs>
</svg>
