<svg width="133" height="182" viewBox="0 0 133 182" fill="none" xmlns="http://www.w3.org/2000/svg">
<g clip-path="url(#clip0_199_11025)">
<path opacity="0.3" d="M32.0078 107.19C32.2978 105.56 32.6278 103.98 32.9778 102.46C32.6078 103.88 32.2678 105.45 32.0078 107.19Z" fill="#0B2342"/>
<path d="M126.038 84.5C109.408 63.65 94.9382 62.38 94.9382 62.38L57.1482 63.53L41.6882 64L37.8982 64.12C37.8982 64.12 26.5382 64.2 17.2182 71.36C7.90818 78.53 1.93818 84.77 0.748181 91.6C-0.441819 98.43 -0.571819 112.36 3.07818 113.95C6.71818 115.54 13.0282 119.84 13.0282 119.84L23.2982 110.56L26.4182 107.74L27.1582 107.07C27.1582 107.07 27.5282 102.36 24.5582 100.87C21.5882 99.38 27.8482 94.42 29.2382 93.8C30.6282 93.18 38.7982 85.62 38.7982 85.62C38.7982 85.62 35.3082 92.66 32.9882 102.46C32.6282 103.98 32.2982 105.56 32.0182 107.19C30.9382 113.39 30.5082 120.3 31.6782 127.09C31.5882 126.03 31.5182 125.01 31.4582 124.01C31.5182 125 31.5882 126.03 31.6782 127.09C32.5282 132.04 36.9682 135.46 43.2082 137.63C62.3582 144.27 98.5482 139.02 100.848 129.41C103.898 116.66 99.2182 110.51 96.8082 97.81L94.3982 85.11C94.3982 85.11 103.548 88.33 105.148 95.42C107.178 104.37 109.188 105.63 109.188 105.63L121.188 118.55C121.188 118.55 142.658 105.36 126.038 84.51V84.5Z" fill="#FFB243"/>
<path d="M56.098 106.4C60.668 107.37 67.318 107.93 74.978 105.97C77.598 105.3 80.308 106.8 81.048 109.41C82.128 113.25 84.178 118.6 87.908 123.04C90.288 125.86 88.878 130.19 85.298 131.1C75.418 133.62 59.188 136.25 46.198 131.1C42.888 129.79 41.838 125.54 44.298 122.97C46.918 120.23 49.628 116.16 50.098 110.75C50.358 107.81 53.208 105.8 56.098 106.41V106.4Z" fill="#FFE5B7"/>
<path d="M63.1875 63.26C63.1875 63.26 71.6175 125.91 65.7675 140.59" stroke="#7F5722" stroke-miterlimit="10"/>
<path opacity="0.2" d="M41.6964 64.01C41.3164 63.99 41.2564 64.66 41.0264 64.99C37.8164 69.63 32.7364 75.36 26.8264 79.51C12.1664 89.81 17.0864 104.49 23.2964 110.55L26.4164 107.73C28.5364 105.52 23.1064 102.83 23.0964 99.54C23.0964 97.8 26.1764 95.82 29.2364 93.8C32.3964 91.72 38.7964 85.62 38.7964 85.62C37.0964 90.94 35.7864 94.86 34.6064 97.66C34.0164 99.05 33.4664 100.63 32.9864 102.46C32.6264 103.98 32.2964 105.56 32.0164 107.19C31.2364 112.2 30.9764 118.64 31.6764 127.09C32.5264 132.04 36.9664 135.46 43.2064 137.63C40.8364 130.54 41.0764 122.5 42.0864 116.88C44.3164 104.47 50.4064 96.65 51.2764 76.16C51.5364 70.08 53.1664 67.39 54.9664 65.49C55.5264 64.9 56.0964 64.39 56.6464 63.88C56.7864 63.75 57.3664 63.5 57.1464 63.53C53.7964 64 43.8764 64.12 41.6864 64L41.6964 64.01Z" fill="#7F5722"/>
<path d="M57.1489 63.54C57.1489 63.54 50.1289 65.8 51.2689 76.17C52.3989 86.54 49.6289 104.37 49.6289 104.37" stroke="#F14E5F" stroke-miterlimit="10"/>
<path d="M70.5781 63.54C70.5781 63.54 77.5981 65.8 76.4581 76.17C75.3181 86.54 78.0981 104.37 78.0981 104.37" stroke="#F14E5F" stroke-miterlimit="10"/>
<path d="M41.6978 64.01C41.6978 64.01 20.3878 62.37 23.3678 49.6C26.3478 36.83 39.5478 12.99 45.0778 7.02998C46.4578 5.53998 48.2878 4.29998 50.2378 3.26998C56.8878 -0.220019 68.0378 -1.08002 75.0878 1.48998C79.6478 3.15998 85.9278 7.56998 88.7278 10.83C95.1778 18.35 118.648 51.35 106.788 56.87C94.9278 62.39 92.1978 62.83 92.1978 62.83L76.8278 63.53C76.8278 63.53 90.3378 54.47 89.1378 47.13C87.9378 39.79 84.8378 29.72 84.8378 29.72C84.8378 29.72 83.6278 17.37 70.5578 15.28C57.4878 13.19 53.9078 14.59 50.5478 19.04C47.1878 23.49 39.2578 45.54 45.0078 52.84C50.7578 60.14 68.3978 63.53 68.3978 63.53C68.3978 63.53 47.4178 68.53 41.6778 64L41.6978 64.01Z" fill="#FFB243"/>
<path d="M31.1991 127.57C31.1991 127.57 67.0891 145.07 101.309 125C101.309 125 105.489 162.72 97.2691 169.96C88.2091 177.94 75.4491 169.5 75.4491 169.5C74.9891 166.14 75.0191 162.72 75.5491 159.37L75.9891 156.57C75.9891 156.57 64.5491 161.48 56.0891 155.72L56.7591 161.59C56.9691 163.48 56.9791 165.38 56.7591 167.27C56.7591 167.27 58.2091 174.47 36.5291 174.71C32.4391 174.75 30.5091 159.24 30.0491 147.39C29.6391 136.95 31.1991 127.57 31.1991 127.57Z" fill="#0B2342"/>
<path d="M41.3705 179.95C41.3705 179.95 52.3205 184.3 59.0405 179.91C65.7605 175.52 57.7805 172.33 57.7805 172.33V161.92H29.9805C29.9805 161.92 30.9205 172.47 33.3205 174.7C35.7205 176.93 41.3605 179.95 41.3605 179.95H41.3705Z" fill="#FFB243"/>
<path d="M89.8617 179.95C89.8617 179.95 78.9117 184.3 72.1917 179.91C65.4717 175.52 73.4517 172.33 73.4517 172.33V161.92H101.242C101.242 161.92 100.302 172.47 97.9017 174.7C95.5017 176.93 89.8617 179.95 89.8617 179.95Z" fill="#FFB243"/>
<path d="M113.961 143.56L115.391 110.99C115.591 106.35 111.881 102.47 107.241 102.47H105.371" stroke="#0B2342" stroke-width="4" stroke-linecap="round" stroke-linejoin="round"/>
<path d="M109.501 179.71L127.921 125.35C128.251 124.37 126.981 123.67 126.331 124.46L121.961 129.75C120.651 131.33 118.101 130.76 117.601 128.77L115.711 121.29C115.481 120.39 114.201 120.4 113.991 121.3L112.661 126.9C112.161 129.01 109.251 129.26 108.401 127.26L105.281 119.92C104.891 119 103.511 119.33 103.581 120.33L107.771 179.49C107.841 180.46 109.191 180.63 109.501 179.71Z" fill="#A71F30"/>
</g>
<defs>
<clipPath id="clip0_199_11025">
<rect width="132.36" height="181.87" fill="white"/>
</clipPath>
</defs>
</svg>
