<svg width="133" height="184" viewBox="0 0 133 184" fill="none" xmlns="http://www.w3.org/2000/svg">
<g clip-path="url(#clip0_199_11045)">
<path d="M31.203 128.74C31.203 128.74 67.093 146.24 101.313 126.17C101.313 126.17 105.493 163.89 97.273 171.13C88.213 179.11 75.453 170.67 75.453 170.67C74.993 167.31 75.023 163.89 75.553 160.54L75.993 157.74C75.993 157.74 64.553 162.65 56.093 156.89L56.763 162.76C56.973 164.65 56.983 166.55 56.763 168.44C56.763 168.44 58.213 175.64 36.533 175.88C32.443 175.92 30.513 160.41 30.053 148.56C29.643 138.12 31.203 128.74 31.203 128.74Z" fill="#0B2342"/>
<path d="M41.3705 181.12C41.3705 181.12 52.3205 185.47 59.0405 181.08C65.7605 176.69 57.7805 173.5 57.7805 173.5V163.09H29.9805C29.9805 163.09 30.9205 173.64 33.3205 175.87C35.7205 178.1 41.3605 181.12 41.3605 181.12H41.3705Z" fill="#F14E5F"/>
<path d="M89.8617 181.12C89.8617 181.12 78.9117 185.47 72.1917 181.08C65.4717 176.69 73.4517 173.5 73.4517 173.5V163.09H101.242C101.242 163.09 100.302 173.64 97.9017 175.87C95.5017 178.1 89.8617 181.12 89.8617 181.12Z" fill="#F14E5F"/>
<path d="M60.2915 169.42C60.2615 169.8 59.8415 170.01 59.5215 169.81L54.9715 166.85C54.7615 166.71 54.4815 166.75 54.3215 166.94L51.7615 169.93C51.5715 170.16 51.2215 170.16 51.0115 169.94L49.4215 168.23C49.1915 167.98 48.7815 168.03 48.6115 168.33L45.6815 173.77C45.5215 174.06 45.1215 174.12 44.8915 173.89L42.3715 171.38C41.6515 170.66 40.4215 171 40.1715 171.98C40.0615 172.4 39.5115 172.49 39.2715 172.13L38.2415 170.58C38.0415 170.28 37.6115 170.28 37.4115 170.58L35.6215 173.16C35.3615 173.53 34.7815 173.4 34.7115 172.95L34.2615 169.96C34.2115 169.62 33.8315 169.43 33.5315 169.59L28.8715 172.12C28.5215 172.31 28.0915 172.03 28.1315 171.63L28.5615 167.49C28.5815 167.32 29.2215 165.72 29.6415 164.5C29.9415 163.63 30.7015 163.01 31.6115 162.88L55.2415 161.91C56.4215 161.86 57.5015 162.56 57.9515 163.65L60.3015 169.44L60.2915 169.42Z" fill="#FFE5B7"/>
<path d="M71.3303 169.42C71.3603 169.8 71.7803 170.01 72.1003 169.81L76.6503 166.85C76.8603 166.71 77.1403 166.75 77.3003 166.94L79.8603 169.93C80.0503 170.16 80.4003 170.16 80.6103 169.94L82.2003 168.23C82.4303 167.98 82.8403 168.03 83.0103 168.33L85.9403 173.77C86.1003 174.06 86.5003 174.12 86.7303 173.89L89.2503 171.38C89.9703 170.66 91.2003 171 91.4503 171.98C91.5603 172.4 92.1103 172.49 92.3503 172.13L93.3803 170.58C93.5803 170.28 94.0103 170.28 94.2103 170.58L96.0003 173.16C96.2603 173.53 96.8403 173.4 96.9103 172.95L97.3603 169.96C97.4103 169.62 97.7903 169.43 98.0903 169.59L102.75 172.12C103.1 172.31 103.53 172.03 103.49 171.63L103.06 167.49C103.04 167.32 102.4 165.72 101.98 164.5C101.68 163.63 100.92 163.01 100.01 162.88L76.3803 161.91C75.2003 161.86 74.1203 162.56 73.6703 163.65L71.3203 169.44L71.3303 169.42Z" fill="#FFE5B7"/>
<path opacity="0.3" d="M32.0078 108.37C32.2978 106.74 32.6278 105.16 32.9778 103.64C32.6078 105.06 32.2678 106.63 32.0078 108.37Z" fill="#0B2342"/>
<path d="M126.038 85.68C109.408 64.83 94.9382 63.56 94.9382 63.56L57.1482 64.71L41.6882 65.18L37.8982 65.3C37.8982 65.3 26.5382 65.38 17.2182 72.54C7.90818 79.71 1.93818 85.95 0.748181 92.78C-0.441819 99.61 -0.571819 113.54 3.07818 115.13C6.71818 116.72 13.0282 121.02 13.0282 121.02L23.2982 111.74L26.4182 108.92L27.1582 108.25C27.1582 108.25 27.5282 103.54 24.5582 102.05C21.5882 100.56 27.8482 95.6 29.2382 94.98C30.6282 94.36 38.7982 86.8 38.7982 86.8C38.7982 86.8 35.3082 93.84 32.9882 103.64C32.6282 105.16 32.2982 106.74 32.0182 108.37C30.9382 114.57 27.2182 135.29 29.7382 140.05C32.2582 144.81 39.6182 146.55 45.8582 148.72C65.0082 155.36 100.078 151.37 102.378 141.76C105.428 129.01 99.0982 112.25 97.5482 99.42C96.1082 87.44 95.1582 86.9 95.1582 86.9C95.1582 86.9 103.188 90.05 105.148 96.59C107.788 105.38 107.488 109.53 107.488 109.53L120.878 121.63C120.878 121.63 142.668 106.52 126.038 85.68Z" fill="#A3DAD3"/>
<path d="M63.1875 64.43C63.1875 64.43 73.6875 137.32 67.8375 152" stroke="#0B2342" stroke-miterlimit="10"/>
<path opacity="0.3" d="M41.6964 65.19C41.3164 65.17 41.2564 65.84 41.0264 66.17C37.8164 70.81 32.7364 76.54 26.8264 80.69C12.1664 90.99 17.0864 105.67 23.2964 111.73L26.4164 108.91C28.5364 106.7 23.1064 104.01 23.0964 100.72C23.0964 98.98 26.1764 97 29.2364 94.98C32.3964 92.9 38.7964 86.8 38.7964 86.8C37.0964 92.12 35.7864 96.04 34.6064 98.84C34.0164 100.23 33.4664 101.81 32.9864 103.64C32.6264 105.16 32.2964 106.74 32.0164 108.37C31.2364 113.38 28.1864 126.52 28.8864 134.97C28.1064 144.33 39.6164 146.56 45.8564 148.72C43.4864 141.63 41.0764 123.67 42.0864 118.06C44.3164 105.65 50.4064 97.83 51.2764 77.34C51.5364 71.26 53.1664 68.57 54.9664 66.67C55.5264 66.08 56.0964 65.57 56.6464 65.06C56.7864 64.93 57.3664 64.68 57.1464 64.71C53.7964 65.18 43.8764 65.3 41.6864 65.18L41.6964 65.19Z" fill="#175082"/>
<path d="M57.1489 64.71C57.1489 64.71 50.1289 66.97 51.2689 77.34C52.3989 87.71 49.6289 105.54 49.6289 105.54" stroke="#F14E5F" stroke-miterlimit="10"/>
<path d="M70.5781 64.71C70.5781 64.71 77.5981 66.97 76.4581 77.34C75.3181 87.71 78.0981 105.54 78.0981 105.54" stroke="#F14E5F" stroke-miterlimit="10"/>
<path d="M41.6978 65.19C41.6978 65.19 20.3878 63.55 23.3678 50.78C26.3478 38.01 39.5478 14.17 45.0778 8.21005C46.4578 6.72005 48.2878 5.48005 50.2378 4.45005C56.8878 0.960047 68.0478 0.0900472 75.0978 2.67005C79.6578 4.34005 85.9378 8.75005 88.7378 12.01C95.1878 19.53 118.658 52.53 106.798 58.05C94.9378 63.57 92.2078 64.01 92.2078 64.01L76.8378 64.71C76.8378 64.71 90.3478 55.65 89.1478 48.31C87.9478 40.97 84.8478 30.9 84.8478 30.9C84.8478 30.9 83.6378 18.55 70.5678 16.46C57.4978 14.37 53.9178 15.77 50.5578 20.22C47.1978 24.67 39.2678 46.72 45.0178 54.02C50.7678 61.32 68.4078 64.71 68.4078 64.71C68.4078 64.71 47.4278 69.71 41.6878 65.18L41.6978 65.19Z" fill="#A3DAD3"/>
<path d="M34.96 44.54L30.44 41.08C30.17 40.87 30.14 40.47 30.37 40.22L33.78 36.65C33.93 36.5 33.98 36.27 33.91 36.07L31.73 29.46C31.61 29.09 31.89 28.7 32.28 28.7H34.4901C34.8101 28.7 35.07 28.44 35.07 28.12V19.9C35.07 19.58 35.3301 19.32 35.6501 19.32H38.69C38.93 19.32 39.15 19.17 39.23 18.94L41.42 13.02C41.5 12.79 41.72 12.64 41.96 12.64H45.3C45.54 12.64 45.75 12.49 45.84 12.27L46.69 10.09L47.46 8.13002C47.62 7.71002 48.19 7.63002 48.46 8.00002L50.01 10.08C50.3 10.47 50.92 10.34 51.03 9.87002L52.3 4.45002C52.4 4.02002 52.94 3.86002 53.26 4.16002L55.67 6.45002C55.95 6.72002 56.4101 6.64002 56.5801 6.29002L59.5 0.550024C59.71 0.140024 60.3001 0.130024 60.5201 0.540024L62.7901 4.74002C62.9401 5.01002 63.2701 5.12002 63.5401 4.99002L74 0.0600237C74.3801 -0.119976 74.82 0.160024 74.82 0.580024V5.66002C74.82 5.99002 75.09 6.25002 75.42 6.24002L81.1601 6.05002C81.4901 6.04002 81.7601 6.30002 81.7601 6.63002V10.47C81.7601 10.8 82.03 11.06 82.3601 11.05L91.52 10.73C91.96 10.71 92.2501 11.18 92.0501 11.57L89.2 17.14C89.07 17.4 89.15 17.71 89.39 17.88L93.1201 20.46C93.4001 20.66 93.4501 21.05 93.2301 21.31L91.46 23.34C91.2001 23.64 91.31 24.1 91.67 24.25L98.25 26.96C98.61 27.11 98.72 27.56 98.48 27.86L95.9 31.05C95.16 31.96 95.7 33.32 96.85 33.5C97.34 33.57 97.52 34.2 97.13 34.52L95.48 35.88C95.1701 36.14 95.21 36.63 95.57 36.83L98.74 38.57C99.2 38.82 99.11 39.5 98.61 39.63L95.24 40.5C94.85 40.6 94.68 41.05 94.91 41.38L98.36 46.42C98.62 46.8 98.35 47.32 97.88 47.32H93.09C92.77 47.32 92.5101 47.58 92.5101 47.9V52.8C92.5101 53.18 92.15 53.46 91.78 53.36L90.32 52.96C89.99 52.87 89.65 53.09 89.6 53.43L88.5801 60.32C88.5101 60.8 87.9101 60.98 87.5801 60.63L85.1201 57.95C84.8001 57.6 84.21 57.77 84.13 58.24L83.1601 63.96C83.0801 64.45 82.44 64.61 82.14 64.22L76.46 56.94L73.32 53.07C73.18 52.9 73.15 52.67 73.24 52.48L74.74 49.01C74.81 48.86 74.8 48.69 74.74 48.54L73.4801 45.81C73.3001 45.43 73.5801 44.99 74 44.99H78.6601C79.1101 44.99 79.3901 44.49 79.1501 44.11L78.2 42.61C77.95 42.22 78.25 41.71 78.71 41.73L82.0401 41.86C82.41 41.87 82.69 41.54 82.63 41.18L81.9001 37.1C81.84 36.75 82.1101 36.42 82.4701 36.42H85.34C85.98 36.42 86.1401 35.54 85.5501 35.31L81 33.5C80.16 33.16 80.2401 31.95 81.1201 31.72C82.1301 31.46 82.03 29.99 80.99 29.88L79.6501 29.74C79.1501 29.69 78.9501 29.06 79.3301 28.73L83.1 25.46C83.55 25.07 83.18 24.33 82.59 24.46L78.02 25.5C77.56 25.6 77.18 25.15 77.3601 24.71L80.6101 17.02C80.8301 16.5 80.25 16.01 79.77 16.3L75.57 18.9C75.23 19.11 74.78 18.92 74.7 18.52L74.14 15.67C73.9701 14.78 72.6901 14.83 72.5801 15.73C72.4901 16.46 71.5401 16.69 71.14 16.07L68.8601 12.6C68.59 12.19 67.96 12.29 67.82 12.76L66.4401 17.71C66.2901 18.24 65.56 18.28 65.35 17.77L64.0801 14.62C63.8501 14.06 63.0301 14.18 62.9701 14.78L62.66 18.08C62.6101 18.57 62.01 18.78 61.67 18.43L58.2401 14.85C57.8401 14.43 57.15 14.8 57.26 15.36L58.0401 19.25C58.1501 19.78 57.5301 20.15 57.1101 19.81L53.25 16.69C52.8601 16.37 52.2801 16.67 52.3101 17.17L52.9001 27C52.9301 27.46 52.4401 27.76 52.0401 27.54L47.87 25.16C47.34 24.86 46.77 25.47 47.1 25.98L51.25 32.19C51.48 32.54 51.28 33.01 50.87 33.08L42.26 34.54C41.71 34.63 41.6 35.37 42.1 35.62L48.18 38.67C48.6301 38.9 48.59 39.55 48.12 39.73L43.8101 41.31C43.2901 41.5 43.31 42.24 43.84 42.4L49.71 44.2C50.16 44.34 50.26 44.92 49.89 45.21L46.6101 47.74C46.17 48.08 46.41 48.77 46.96 48.77H54.8101C55.2701 48.77 55.5501 49.29 55.2901 49.67L52.76 53.36C52.44 53.82 52.91 54.42 53.44 54.23L57.1301 52.86C57.6601 52.66 58.13 53.27 57.8 53.73L52.98 60.58C52.71 60.97 52.11 60.88 51.96 60.43L50.98 57.51C50.87 57.19 50.52 57.03 50.21 57.16L41.4001 60.88C40.9001 61.09 40.41 60.56 40.67 60.08L44.03 53.73C44.24 53.32 43.92 52.84 43.46 52.89L34.0401 53.8C33.4701 53.85 33.18 53.14 33.62 52.78L37.5 49.6C37.89 49.28 37.71 48.65 37.21 48.58L30.27 47.62C29.63 47.53 29.6 46.61 30.23 46.48L34.76 45.56C35.25 45.46 35.39 44.84 35 44.54H34.96Z" fill="#E5CDA5"/>
<path d="M36.089 50.26L31.569 46.8C31.299 46.59 31.269 46.19 31.499 45.94L34.909 42.37C35.059 42.22 35.109 41.99 35.039 41.79L32.859 35.18C32.739 34.81 33.019 34.42 33.409 34.42H35.619C35.939 34.42 36.199 34.16 36.199 33.84V25.62C36.199 25.3 36.459 25.04 36.779 25.04H39.819C40.059 25.04 40.279 24.89 40.359 24.66L42.549 18.74C42.629 18.51 42.849 18.36 43.089 18.36H46.429C46.669 18.36 46.879 18.21 46.969 17.99L47.819 15.81L48.589 13.85C48.749 13.43 49.319 13.35 49.589 13.72L51.139 15.8C51.429 16.19 52.049 16.06 52.159 15.59L53.429 10.17C53.529 9.74005 54.069 9.58005 54.389 9.88005L56.799 12.17C57.079 12.44 57.539 12.36 57.709 12.01L60.629 6.27005C60.839 5.86005 61.429 5.85005 61.649 6.26005L63.919 10.46C64.069 10.73 64.399 10.84 64.669 10.71L75.129 5.77005C75.509 5.59005 75.949 5.87005 75.949 6.29005V11.37C75.949 11.7 76.219 11.96 76.549 11.95L82.289 11.76C82.619 11.75 82.889 12.01 82.889 12.34V16.18C82.889 16.51 83.159 16.77 83.489 16.76L92.649 16.44C93.089 16.42 93.379 16.89 93.179 17.28L90.329 22.85C90.199 23.11 90.2789 23.42 90.519 23.59L94.249 26.17C94.529 26.37 94.579 26.76 94.359 27.02L92.589 29.05C92.329 29.35 92.439 29.81 92.799 29.96L99.379 32.67C99.739 32.82 99.849 33.27 99.609 33.57L97.029 36.76C96.289 37.67 96.829 39.03 97.979 39.21C98.469 39.28 98.649 39.91 98.259 40.23L96.609 41.59C96.299 41.85 96.339 42.34 96.699 42.54L99.869 44.28C100.329 44.53 100.239 45.21 99.739 45.34L96.369 46.21C95.979 46.31 95.809 46.76 96.039 47.09L99.489 52.13C99.749 52.51 99.479 53.03 99.009 53.03H94.219C93.899 53.03 93.639 53.29 93.639 53.61V58.51C93.639 58.89 93.279 59.17 92.909 59.07L91.449 58.67C91.1189 58.58 90.779 58.8 90.729 59.14L89.709 66.03C89.639 66.51 89.039 66.69 88.709 66.34L86.249 63.66C85.929 63.31 85.339 63.48 85.259 63.95L84.289 69.67C84.209 70.16 83.569 70.32 83.269 69.93L77.589 62.65L74.449 58.78C74.309 58.61 74.279 58.38 74.369 58.19L75.869 54.72C75.939 54.57 75.929 54.4 75.869 54.25L74.609 51.52C74.429 51.14 74.709 50.7 75.129 50.7H79.789C80.239 50.7 80.519 50.2 80.279 49.82L79.329 48.32C79.079 47.93 79.379 47.42 79.839 47.44L83.169 47.57C83.539 47.58 83.819 47.25 83.759 46.89L83.029 42.81C82.969 42.46 83.239 42.13 83.599 42.13H86.469C87.109 42.13 87.269 41.25 86.679 41.02L82.129 39.21C81.289 38.87 81.369 37.66 82.249 37.43C83.259 37.17 83.159 35.7 82.119 35.59L80.779 35.45C80.279 35.4 80.079 34.77 80.459 34.44L84.229 31.17C84.679 30.78 84.309 30.04 83.719 30.17L79.149 31.21C78.689 31.31 78.309 30.86 78.489 30.42L81.739 22.73C81.959 22.21 81.379 21.72 80.899 22.01L76.699 24.61C76.359 24.82 75.909 24.63 75.829 24.23L75.269 21.38C75.099 20.49 73.819 20.54 73.709 21.44C73.619 22.17 72.669 22.4 72.269 21.78L69.989 18.31C69.719 17.9 69.089 18 68.949 18.47L67.569 23.42C67.419 23.95 66.689 23.99 66.479 23.48L65.209 20.33C64.979 19.77 64.159 19.89 64.099 20.49L63.789 23.79C63.739 24.28 63.139 24.49 62.799 24.14L59.369 20.56C58.969 20.14 58.279 20.51 58.389 21.07L59.169 24.96C59.279 25.49 58.659 25.86 58.239 25.52L54.379 22.4C53.989 22.08 53.409 22.38 53.439 22.88L54.029 32.71C54.059 33.17 53.569 33.47 53.169 33.25L48.999 30.87C48.469 30.57 47.899 31.18 48.229 31.69L52.379 37.9C52.609 38.25 52.409 38.72 51.999 38.79L43.389 40.25C42.839 40.34 42.729 41.08 43.229 41.33L49.309 44.38C49.759 44.61 49.719 45.26 49.249 45.44L44.939 47.02C44.419 47.21 44.439 47.95 44.969 48.11L50.839 49.91C51.289 50.05 51.389 50.63 51.019 50.92L47.739 53.45C47.299 53.79 47.539 54.48 48.089 54.48H55.939C56.399 54.48 56.679 55 56.419 55.38L53.889 59.07C53.569 59.53 54.039 60.13 54.569 59.94L58.259 58.57C58.789 58.37 59.259 58.98 58.929 59.44L54.109 66.29C53.839 66.68 53.239 66.59 53.089 66.14L52.109 63.22C51.999 62.9 51.649 62.74 51.339 62.87L42.529 66.59C42.029 66.8 41.539 66.27 41.799 65.79L45.159 59.44C45.369 59.03 45.049 58.55 44.589 58.6L35.169 59.51C34.599 59.56 34.309 58.85 34.749 58.49L38.629 55.31C39.019 54.99 38.839 54.36 38.339 54.29L31.399 53.33C30.759 53.24 30.729 52.32 31.359 52.19L35.889 51.27C36.379 51.17 36.519 50.55 36.129 50.25L36.089 50.26Z" fill="#FFE5B7"/>
<path d="M42.457 130.79C42.457 130.79 50.037 131.64 57.197 121.6" stroke="#739994" stroke-width="4" stroke-linecap="round" stroke-linejoin="round"/>
<path d="M89.9783 130.79C89.9783 130.79 82.3983 131.64 75.2383 121.6" stroke="#739994" stroke-width="4" stroke-linecap="round" stroke-linejoin="round"/>
<path d="M13.0312 121.01L26.4213 108.91C26.4213 108.91 35.9513 112.73 29.0013 121.01C22.0513 129.29 13.0312 121.01 13.0312 121.01Z" fill="#F14E5F"/>
<path d="M120.882 121.63L107.492 109.53C107.492 109.53 97.9625 113.35 104.913 121.63C111.863 129.91 120.882 121.63 120.882 121.63Z" fill="#F14E5F"/>
</g>
<defs>
<clipPath id="clip0_199_11045">
<rect width="132.3" height="183.04" fill="white"/>
</clipPath>
</defs>
</svg>
