<svg width="79" height="46" viewBox="0 0 79 46" fill="none" xmlns="http://www.w3.org/2000/svg">
<path d="M8.928 16L8.118 13.318H4.014L3.186 16H0.072L4.248 4.12H7.956L12.114 16H8.928ZM4.68 11.212H7.47L6.606 8.368L6.084 6.496H6.048L5.562 8.35L4.68 11.212ZM19.0576 6.82C21.3976 6.82 22.7656 8.53 22.7656 11.464C22.7656 14.452 21.3616 16.18 19.0576 16.18C17.7616 16.18 16.8436 15.514 16.3396 14.506V19.78H13.2796V7H15.9616L16.0516 8.908C16.5376 7.666 17.5816 6.82 19.0576 6.82ZM17.9956 13.93C19.0396 13.93 19.6876 13.192 19.6876 11.5C19.6876 9.808 19.0396 9.07 17.9956 9.07C16.9696 9.07 16.3396 9.862 16.3396 11.41V11.59C16.3396 13.084 16.9336 13.93 17.9956 13.93ZM33.3484 11.374C33.3484 11.68 33.3124 12.148 33.2584 12.382H27.1204C27.3184 13.552 27.9844 14.02 29.0104 14.02C29.9104 14.02 30.4684 13.66 30.6664 13.03L33.1504 13.822C32.6284 15.388 31.0984 16.18 29.0104 16.18C25.8604 16.18 24.1504 14.47 24.1504 11.5C24.1504 8.53 25.8424 6.82 28.8484 6.82C31.7824 6.82 33.3484 8.53 33.3484 11.374ZM28.8304 8.962C27.8584 8.962 27.2824 9.502 27.1204 10.726H30.5044C30.3424 9.574 29.7844 8.962 28.8304 8.962ZM40.6209 6.82C41.0709 6.82 41.3949 6.91 41.5929 7.018L41.2689 9.61C41.0349 9.466 40.6029 9.34 40.1349 9.34C39.0549 9.34 38.1189 10.042 38.1189 11.464V16H35.0589V7H37.7589L37.8849 8.926C38.3349 7.594 39.2169 6.82 40.6209 6.82ZM48.8104 13.606L49.1164 15.496C48.5224 15.91 47.5144 16.18 46.5784 16.18C44.5444 16.18 43.2844 15.388 43.2664 13.3V9.178H41.7184V7H43.2664V4.984L46.3264 4.138V7H49.0264V9.178H46.3264V12.796C46.3264 13.66 46.7584 14.002 47.5144 14.002C48.0724 14.002 48.4504 13.858 48.8104 13.606ZM56.3086 7H59.3686V16H56.6326L56.5426 14.326C55.9846 15.586 54.8866 16.18 53.4286 16.18C51.5926 16.18 50.3506 15.28 50.3506 13.012V7H53.4106V12.238C53.4106 13.462 53.8606 13.84 54.6526 13.84C55.6066 13.84 56.3086 13.21 56.3086 11.77V7ZM67.1288 6.82C67.5788 6.82 67.9028 6.91 68.1008 7.018L67.7768 9.61C67.5428 9.466 67.1108 9.34 66.6428 9.34C65.5628 9.34 64.6268 10.042 64.6268 11.464V16H61.5668V7H64.2668L64.3928 8.926C64.8428 7.594 65.7248 6.82 67.1288 6.82ZM77.8897 14.254C78.1057 14.254 78.2857 14.236 78.4477 14.182L78.2137 15.892C77.8537 16.09 77.4397 16.18 76.9897 16.18C75.7837 16.18 74.9377 15.766 74.6677 14.794C74.1637 15.658 73.1197 16.18 71.4637 16.18C69.6817 16.18 68.6737 15.388 68.6737 13.93C68.6737 12.436 69.6277 11.482 72.1837 10.978L74.2177 10.582V10.258C74.2177 9.448 73.7497 8.926 72.9397 8.926C72.0757 8.926 71.4457 9.268 71.2657 10.312L68.7817 9.592C69.0877 7.882 70.4917 6.82 72.9397 6.82C75.7117 6.82 77.2417 7.954 77.2417 10.276V13.552C77.2417 14.02 77.4577 14.254 77.8897 14.254ZM72.5797 14.2C73.3357 14.2 74.2177 13.75 74.2177 12.922V12.148L72.7597 12.49C72.0037 12.67 71.6977 12.922 71.6977 13.426C71.6977 13.93 72.0217 14.2 72.5797 14.2Z" fill="#4A5AE9"/>
<path d="M1.728 42V31.44H5.488C7.984 31.44 9.088 32.56 9.088 34.352C9.088 35.424 8.448 36.4 7.312 36.624V36.64C8.56 36.88 9.36 37.888 9.36 39.04C9.36 40.832 7.968 42 5.472 42H1.728ZM3.008 36.08H5.504C7.008 36.08 7.744 35.52 7.744 34.352C7.744 33.2 7.008 32.64 5.504 32.64H3.008V36.08ZM3.008 40.8H5.776C7.28 40.8 8.016 40.16 8.016 39.04C8.016 37.92 7.28 37.28 5.776 37.28H3.008V40.8ZM15.3171 33.84C17.7331 33.84 19.1891 35.408 19.1891 38C19.1891 40.592 17.7331 42.16 15.3171 42.16C12.9011 42.16 11.4451 40.592 11.4451 38C11.4451 35.408 12.9011 33.84 15.3171 33.84ZM15.3171 34.944C13.7011 34.944 12.7251 36.096 12.7251 38C12.7251 39.904 13.7011 41.056 15.3171 41.056C16.9331 41.056 17.9091 39.904 17.9091 38C17.9091 36.096 16.9331 34.944 15.3171 34.944ZM22.8915 30.32V39.856C22.8915 40.672 23.0995 40.928 23.7555 40.928C24.1875 40.928 24.4595 40.88 24.9235 40.704L24.7155 41.936C24.3795 42.08 23.9475 42.16 23.5315 42.16C22.2355 42.16 21.6115 41.472 21.6115 40.016V30.32H22.8915ZM32.3901 30.32H33.6701V42H32.5501L32.4701 40.608C32.0061 41.52 30.9981 42.16 29.7341 42.16C27.5101 42.16 26.0861 40.608 26.0861 38C26.0861 35.392 27.5101 33.84 29.7341 33.84C30.9341 33.84 31.8941 34.416 32.3901 35.248V30.32ZM29.8781 41.04C31.3981 41.04 32.3901 39.904 32.3901 38.096V37.904C32.3901 36.096 31.3981 34.96 29.8781 34.96C28.3101 34.96 27.3661 36.144 27.3661 38C27.3661 39.856 28.3101 41.04 29.8781 41.04Z" fill="#4A5AE9"/>
</svg>
