<svg width="723" height="225" viewBox="0 0 723 225" fill="none" xmlns="http://www.w3.org/2000/svg">
<path d="M64.5066 78.0017L48.9191 52.667C23.9791 63.4135 6.49512 88.2031 6.49512 117.068C6.49512 143.908 21.615 167.218 43.7752 178.977L64.1429 146.764C76.8467 126.672 98.4094 114.135 121.869 112.733C98.4094 111.046 76.9766 98.2487 64.5066 77.9758V78.0017Z" fill="#FFE500"/>
<path d="M203.936 71.6419C191.804 71.6419 180.789 76.444 172.632 84.2054L150.965 41.8684C141.612 23.5941 125.713 10.0702 106.177 3.76246C86.6405 -2.54526 65.8052 -0.88397 47.5419 8.4608L36.6826 13.9898C33.0715 15.8328 30.3956 18.9737 29.1486 22.8414C27.9016 26.7091 28.2394 30.8104 30.0839 34.4185C30.1618 34.5743 30.2397 34.73 30.3437 34.8598L39.6962 50.0451C16.0551 63.1018 0 88.2288 0 117.068C0 143.856 13.8469 167.426 34.7341 181.131L29.4344 189.49C29.3565 189.646 29.2525 189.775 29.1746 189.931C27.2781 193.513 26.8884 197.615 28.1095 201.482C29.3045 205.35 31.9544 208.517 35.5395 210.412L46.3209 216.096C57.5439 222.015 69.7541 225 82.0682 225C89.7061 225 97.3959 223.858 104.878 221.522C124.492 215.448 140.573 202.131 150.134 183.987L169.696 146.893C178.035 156.42 190.271 162.494 203.91 162.494C228.98 162.494 249.374 142.117 249.374 117.068C249.374 92.0187 228.98 71.6419 203.91 71.6419H203.936ZM41.5407 26.8389C41.6446 26.5274 41.9304 25.9303 42.6318 25.5669L53.4911 20.0379C68.6889 12.2766 85.991 10.9008 102.228 16.1443C118.465 21.3877 131.688 32.6274 139.43 47.8127L163.903 95.6527C162.214 98.8196 160.915 102.194 159.98 105.75L134.26 106.373L129.272 106.192C126.83 106.088 124.414 106.166 121.998 106.295C100.799 104.634 81.3148 92.9531 70.0398 74.653L41.5926 28.3963C41.3329 27.7474 41.4368 27.1763 41.5407 26.8908V26.8389ZM12.9896 117.068C12.9896 92.9012 26.5767 71.8755 46.5027 61.103L58.9727 81.376C65.3376 91.7072 73.8848 100.273 83.7828 106.659H35.2797C31.6946 106.659 28.7849 109.566 28.7849 113.148C28.7849 116.73 31.6946 119.638 35.2797 119.638H81.8084C72.6637 125.764 64.7141 133.733 58.661 143.285L41.6706 170.125C24.4204 158.73 12.9636 139.21 12.9636 117.042L12.9896 117.068ZM138.677 177.939C130.727 193.02 117.374 204.104 101.059 209.14C84.77 214.176 67.4679 212.566 52.374 204.623L41.5926 198.938C40.8912 198.575 40.6314 197.978 40.5275 197.641C40.4236 197.329 40.3197 196.758 40.6054 196.135L69.6501 150.242C80.3795 133.265 98.2272 122.182 117.841 119.664H143.379L158.655 120.235C158.992 125.089 160.084 129.761 161.824 134.096L138.677 177.965V177.939ZM203.936 149.515C186.037 149.515 171.462 134.953 171.462 117.068C171.462 99.183 186.037 84.6207 203.936 84.6207C221.836 84.6207 236.41 99.183 236.41 117.068C236.41 134.953 221.836 149.515 203.936 149.515Z" fill="#4A5AE9"/>
<path d="M305.775 73.7711H278.471V163.455H305.775C335.131 163.455 353.732 144.116 353.732 118.6C353.732 93.0836 335.131 73.7451 305.775 73.7451V73.7711ZM305.775 148.348H296.916V88.9044H305.775C324.376 88.9044 335.261 102.091 335.261 118.626C335.261 135.161 324.35 148.348 305.775 148.348Z" fill="#4A5AE9"/>
<path d="M409.042 103.362L408.393 103.751C404.288 100.428 398.78 98.1182 390.701 98.1182C372.619 98.1182 358.513 112.862 358.513 131.422C358.513 149.982 372.1 164.726 389.428 164.726C397.637 164.726 404.314 161.533 408.289 157.042L409.068 157.302V163.454H427.539V99.3901H409.068V103.362H409.042ZM409.042 140.896C405.717 147.308 399.56 149.618 393.013 149.618C384.154 149.618 376.984 141.935 376.984 131.422C376.984 120.909 384.154 113.226 393.013 113.226C399.56 113.226 405.067 114.887 409.042 117.586V140.896Z" fill="#4A5AE9"/>
<path d="M450.297 72.8613C443.36 72.8613 440.035 77.0924 440.035 81.1938C440.035 85.0355 443.36 89.3964 450.297 89.3964C457.597 89.3964 460.689 85.0355 460.689 81.1938C460.689 77.0924 457.623 72.8613 450.297 72.8613Z" fill="#4A5AE9"/>
<path d="M459.675 99.3911H441.204V163.455H459.675V99.3911Z" fill="#4A5AE9"/>
<path d="M490.668 139.495V69.9287H472.197V141.546C472.197 156.809 480.407 164.622 498.618 164.622L499.891 148.477C493.994 148.087 490.668 145.414 490.668 139.495Z" fill="#4A5AE9"/>
<path d="M532.209 143.208L531.43 143.078L530.391 137.445L517.323 99.3911H497.06L522.441 163.325L520.129 170.489C516.934 177.29 512.829 180.353 503.45 180.353L504.36 195.357C524.623 195.357 532.573 186.272 537.561 172.799L566.164 99.3911H545.77L532.183 143.208H532.209Z" fill="#4A5AE9"/>
<path d="M625.682 149.23C622.097 149.49 618.252 149.62 614.277 149.62C598.378 149.62 586.064 136.667 586.064 118.6C586.064 100.534 598.378 87.5806 614.277 87.5806C624.149 87.5806 629.787 89.1121 634.931 91.033L639.035 77.0677C631.346 73.3558 623.136 72.4473 614.277 72.4473C587.727 72.4473 567.593 92.3049 567.593 118.574C567.593 144.843 587.727 164.701 614.277 164.701C625.552 164.701 634.671 163.689 644.153 159.821V121.378H625.682V149.178V149.23Z" fill="#4A5AE9"/>
<path d="M687.486 98.1182C666.963 98.1182 651.973 112.862 651.973 131.422C651.973 149.982 666.989 164.726 687.486 164.726C707.984 164.726 723 149.982 723 131.422C723 112.862 707.88 98.1182 687.486 98.1182ZM687.486 149.618C677.484 149.618 670.444 142.065 670.444 131.422C670.444 120.779 677.484 113.226 687.486 113.226C697.488 113.226 704.529 120.909 704.529 131.422C704.529 141.935 697.358 149.618 687.486 149.618Z" fill="#4A5AE9"/>
</svg>
