<svg width="96" height="87" viewBox="0 0 96 87" fill="none" xmlns="http://www.w3.org/2000/svg">
<path d="M24.83 30.0495L18.83 20.2896C9.23 24.4296 2.5 33.9795 2.5 45.0995C2.5 55.4395 8.32 64.4195 16.85 68.9495L24.69 56.5396C29.58 48.7996 37.88 43.9696 46.91 43.4296C37.88 42.7796 29.63 37.8496 24.83 30.0396V30.0495Z" fill="#FFE500"/>
<path d="M78.5 27.5995C73.83 27.5995 69.59 29.4495 66.45 32.4395L58.11 16.1295C54.51 9.08946 48.39 3.87946 40.87 1.44946C33.35 -0.980543 25.33 -0.340543 18.3 3.25946L14.12 5.38946C12.73 6.09946 11.7 7.30946 11.22 8.79946C10.74 10.2895 10.87 11.8695 11.58 13.2595C11.61 13.3195 11.64 13.3795 11.68 13.4295L15.28 19.2795C6.18 24.3095 0 33.9895 0 45.0995C0 55.4195 5.33 64.4995 13.37 69.7795L11.33 72.9995C11.3 73.0595 11.26 73.1095 11.23 73.1695C10.5 74.5495 10.35 76.1295 10.82 77.6195C11.28 79.1095 12.3 80.3295 13.68 81.0595L17.83 83.2495C22.15 85.5295 26.85 86.6795 31.59 86.6795C34.53 86.6795 37.49 86.2395 40.37 85.3395C47.92 82.9995 54.11 77.8695 57.79 70.8795L65.32 56.5895C68.53 60.2595 73.24 62.5995 78.49 62.5995C88.14 62.5995 95.99 54.7495 95.99 45.0995C95.99 35.4495 88.14 27.5995 78.49 27.5995H78.5ZM15.99 10.3395C16.03 10.2195 16.14 9.98946 16.41 9.84946L20.59 7.71946C26.44 4.72946 33.1 4.19946 39.35 6.21946C45.6 8.23946 50.69 12.5695 53.67 18.4195L63.09 36.8495C62.44 38.0695 61.94 39.3695 61.58 40.7395L51.68 40.9795L49.76 40.9095C48.82 40.8695 47.89 40.8995 46.96 40.9495C38.8 40.3095 31.3 35.8095 26.96 28.7595L16.01 10.9395C15.91 10.6895 15.95 10.4695 15.99 10.3595V10.3395ZM5 45.0995C5 35.7895 10.23 27.6895 17.9 23.5395L22.7 31.3495C25.15 35.3295 28.44 38.6295 32.25 41.0895H13.58C12.2 41.0895 11.08 42.2095 11.08 43.5895C11.08 44.9695 12.2 46.0895 13.58 46.0895H31.49C27.97 48.4495 24.91 51.5195 22.58 55.1995L16.04 65.5395C9.4 61.1495 4.99 53.6295 4.99 45.0895L5 45.0995ZM53.38 68.5495C50.32 74.3595 45.18 78.6295 38.9 80.5695C32.63 82.5095 25.97 81.8895 20.16 78.8295L16.01 76.6395C15.74 76.4995 15.64 76.2695 15.6 76.1395C15.56 76.0195 15.52 75.7995 15.63 75.5595L26.81 57.8795C30.94 51.3395 37.81 47.0695 45.36 46.0995H55.19L61.07 46.3195C61.2 48.1895 61.62 49.9895 62.29 51.6595L53.38 68.5595V68.5495ZM78.5 57.5995C71.61 57.5995 66 51.9895 66 45.0995C66 38.2095 71.61 32.5995 78.5 32.5995C85.39 32.5995 91 38.2095 91 45.0995C91 51.9895 85.39 57.5995 78.5 57.5995Z" fill="#4A5AE9"/>
</svg>
