<svg width="95" height="73" viewBox="0 0 95 73" fill="none" xmlns="http://www.w3.org/2000/svg">
<path d="M8.46 10.24L7.074 16H3.6L0.18 4.12H3.51L5.472 13.57L7.614 4.12H10.422L12.6 13.552L14.562 4.12H17.766L14.328 16H10.962L9.558 10.24L9.018 7.342H8.982L8.46 10.24ZM22.416 6.82C25.422 6.82 27.168 8.548 27.168 11.5C27.168 14.452 25.422 16.18 22.416 16.18C19.41 16.18 17.664 14.452 17.664 11.5C17.664 8.548 19.41 6.82 22.416 6.82ZM22.416 8.998C21.282 8.998 20.724 9.736 20.724 11.5C20.724 13.264 21.282 14.002 22.416 14.002C23.55 14.002 24.108 13.264 24.108 11.5C24.108 9.736 23.55 8.998 22.416 8.998ZM34.4862 6.82C34.9362 6.82 35.2602 6.91 35.4582 7.018L35.1342 9.61C34.9002 9.466 34.4682 9.34 34.0002 9.34C32.9202 9.34 31.9842 10.042 31.9842 11.464V16H28.9242V7H31.6242L31.7502 8.926C32.2002 7.594 33.0822 6.82 34.4862 6.82ZM43.3545 16L41.1585 12.31L39.7185 13.93V16H36.6585V3.184H39.7185V10.78L43.1565 7H46.5405L43.2285 10.528L46.7385 16H43.3545ZM57.6025 3.94C59.8345 3.94 61.3465 4.552 62.7145 6.082L60.9685 8.098C60.1765 6.91 59.1685 6.352 57.6565 6.352C56.3785 6.352 55.7125 6.856 55.7125 7.54C55.7125 8.152 56.3605 8.476 58.0525 8.782C61.3465 9.376 62.6245 10.438 62.6245 12.526C62.6245 14.848 60.4645 16.18 57.6025 16.18C54.7945 16.18 53.3185 15.46 52.1485 14.164L53.7325 12.004C54.7045 13.354 55.8565 13.768 57.4405 13.768C58.7725 13.768 59.4205 13.372 59.4205 12.688C59.4205 12.13 58.7365 11.824 57.1165 11.518C54.3085 10.96 52.4905 10.132 52.4905 7.81C52.4905 5.578 54.3445 3.94 57.6025 3.94ZM72.9502 14.254C73.1662 14.254 73.3462 14.236 73.5082 14.182L73.2742 15.892C72.9142 16.09 72.5002 16.18 72.0502 16.18C70.8442 16.18 69.9982 15.766 69.7282 14.794C69.2242 15.658 68.1802 16.18 66.5242 16.18C64.7422 16.18 63.7342 15.388 63.7342 13.93C63.7342 12.436 64.6882 11.482 67.2442 10.978L69.2782 10.582V10.258C69.2782 9.448 68.8102 8.926 68.0002 8.926C67.1362 8.926 66.5062 9.268 66.3262 10.312L63.8422 9.592C64.1482 7.882 65.5522 6.82 68.0002 6.82C70.7722 6.82 72.3022 7.954 72.3022 10.276V13.552C72.3022 14.02 72.5182 14.254 72.9502 14.254ZM67.6402 14.2C68.3962 14.2 69.2782 13.75 69.2782 12.922V12.148L67.8202 12.49C67.0642 12.67 66.7582 12.922 66.7582 13.426C66.7582 13.93 67.0822 14.2 67.6402 14.2ZM80.6192 6.82C82.4732 6.82 83.7332 7.918 83.7332 10.006V16H80.6732V10.852C80.6732 9.574 80.1512 9.16 79.3952 9.16C78.5132 9.16 77.7752 9.754 77.7752 11.248V16H74.7152V7H77.4512L77.5412 8.746C78.0992 7.468 79.1972 6.82 80.6192 6.82ZM89.6033 16.18C87.6233 16.18 86.1293 15.712 85.2113 14.596L86.7953 12.868C87.3353 13.768 88.3073 14.146 89.4593 14.146C90.3053 14.146 90.8093 13.894 90.8093 13.516C90.8093 13.174 90.3773 12.958 89.1713 12.706C86.4353 12.166 85.4453 11.284 85.4453 9.808C85.4453 8.332 86.8493 6.82 89.7833 6.82C91.9433 6.82 93.1313 7.45 93.9053 8.512L92.3213 10.06C91.7453 9.214 90.9533 8.854 89.8733 8.854C88.9733 8.854 88.5053 9.178 88.5053 9.538C88.5053 9.898 88.9013 10.132 90.1613 10.366C92.8253 10.834 93.8873 11.68 93.8873 13.228C93.8873 14.884 92.5013 16.18 89.6033 16.18Z" fill="#4A5AE9"/>
<path d="M5.12 31.28C7.056 31.28 8.384 32.048 9.2 33.52L8.096 34.416C7.456 33.024 6.688 32.48 5.136 32.48C3.456 32.48 2.528 33.264 2.528 34.272C2.528 35.264 3.232 35.76 5.456 36.144C8.288 36.624 9.296 37.52 9.296 39.152C9.296 40.96 7.68 42.16 5.216 42.16C2.976 42.16 1.504 41.184 0.768 39.872L1.872 38.976C2.432 40.192 3.52 40.96 5.248 40.96C6.88 40.96 7.968 40.352 7.968 39.216C7.968 38.304 7.28 37.776 5.056 37.392C2.208 36.896 1.184 36.032 1.184 34.416C1.184 32.72 2.672 31.28 5.12 31.28ZM18.602 37.584C18.602 37.952 18.57 38.256 18.538 38.48H12.506C12.666 40.096 13.642 41.04 15.114 41.04C16.282 41.04 17.082 40.624 17.37 39.856L18.442 40.416C17.834 41.504 16.842 42.16 15.114 42.16C12.698 42.16 11.242 40.592 11.242 38C11.242 35.408 12.602 33.84 15.018 33.84C17.338 33.84 18.602 35.52 18.602 37.584ZM15.018 34.96C13.594 34.96 12.714 35.84 12.522 37.344H17.37C17.194 35.872 16.378 34.96 15.018 34.96ZM30.3309 33.84C31.8669 33.84 33.3869 34.768 33.3869 36.88V42H32.1069V37.008C32.1069 35.552 31.2749 34.96 30.2189 34.96C28.9709 34.96 27.8509 35.904 27.8509 37.616V42H26.5709V37.008C26.5709 35.552 25.7389 34.96 24.6829 34.96C23.6269 34.96 22.3149 35.744 22.3149 37.728V42H21.0349V34H22.1549L22.2349 35.248C22.8109 34.272 23.8029 33.84 24.7949 33.84C25.9149 33.84 27.0189 34.336 27.5469 35.408C28.0429 34.32 29.3229 33.84 30.3309 33.84ZM36.9249 32.464C36.3489 32.464 35.9649 32.08 35.9649 31.504C35.9649 30.928 36.3489 30.544 36.9249 30.544C37.5009 30.544 37.8849 30.928 37.8849 31.504C37.8849 32.08 37.5009 32.464 36.9249 32.464ZM37.5649 34V42H36.2849V34H37.5649ZM40.7749 42V31.44H44.5349C47.0309 31.44 48.1349 32.56 48.1349 34.352C48.1349 35.424 47.4949 36.4 46.3589 36.624V36.64C47.6069 36.88 48.4069 37.888 48.4069 39.04C48.4069 40.832 47.0149 42 44.5189 42H40.7749ZM42.0549 36.08H44.5509C46.0549 36.08 46.7909 35.52 46.7909 34.352C46.7909 33.2 46.0549 32.64 44.5509 32.64H42.0549V36.08ZM42.0549 40.8H44.8229C46.3269 40.8 47.0629 40.16 47.0629 39.04C47.0629 37.92 46.3269 37.28 44.8229 37.28H42.0549V40.8ZM54.364 33.84C56.78 33.84 58.236 35.408 58.236 38C58.236 40.592 56.78 42.16 54.364 42.16C51.948 42.16 50.492 40.592 50.492 38C50.492 35.408 51.948 33.84 54.364 33.84ZM54.364 34.944C52.748 34.944 51.772 36.096 51.772 38C51.772 39.904 52.748 41.056 54.364 41.056C55.98 41.056 56.956 39.904 56.956 38C56.956 36.096 55.98 34.944 54.364 34.944ZM61.9384 30.32V39.856C61.9384 40.672 62.1464 40.928 62.8024 40.928C63.2344 40.928 63.5064 40.88 63.9704 40.704L63.7624 41.936C63.4264 42.08 62.9944 42.16 62.5784 42.16C61.2824 42.16 60.6584 41.472 60.6584 40.016V30.32H61.9384ZM71.437 30.32H72.717V42H71.597L71.517 40.608C71.053 41.52 70.045 42.16 68.781 42.16C66.557 42.16 65.133 40.608 65.133 38C65.133 35.392 66.557 33.84 68.781 33.84C69.981 33.84 70.941 34.416 71.437 35.248V30.32ZM68.925 41.04C70.445 41.04 71.437 39.904 71.437 38.096V37.904C71.437 36.096 70.445 34.96 68.925 34.96C67.357 34.96 66.413 36.144 66.413 38C66.413 39.856 67.357 41.04 68.925 41.04Z" fill="#4A5AE9"/>
<path d="M8.416 69L5.536 64.616H3.008V69H1.728V58.44H5.728C7.872 58.44 9.296 59.624 9.296 61.528C9.296 63.032 8.4 64.088 6.96 64.472L9.936 69H8.416ZM3.008 59.64V63.416H5.712C7.216 63.416 7.952 62.792 7.952 61.528C7.952 60.264 7.216 59.64 5.712 59.64H3.008ZM18.727 64.584C18.727 64.952 18.695 65.256 18.663 65.48H12.631C12.791 67.096 13.767 68.04 15.239 68.04C16.407 68.04 17.207 67.624 17.495 66.856L18.567 67.416C17.959 68.504 16.967 69.16 15.239 69.16C12.823 69.16 11.367 67.592 11.367 65C11.367 62.408 12.727 60.84 15.143 60.84C17.463 60.84 18.727 62.52 18.727 64.584ZM15.143 61.96C13.719 61.96 12.839 62.84 12.647 64.344H17.495C17.319 62.872 16.503 61.96 15.143 61.96ZM25.6239 67.976C27.1439 67.976 28.0399 68.728 28.0399 69.88C28.0399 71.464 26.2479 72.44 24.0879 72.44C21.5599 72.44 20.4079 71.528 20.4079 70.328C20.4079 69.592 20.9359 69.016 21.8159 68.776C21.2079 68.488 20.7279 68.008 20.7279 67.304C20.7279 66.472 21.2239 65.976 21.9279 65.736C21.1599 65.256 20.7599 64.472 20.7599 63.544C20.7599 61.96 22.1199 60.84 24.0399 60.84C24.6479 60.84 25.1919 60.952 25.6719 61.16C25.9759 60.056 26.7279 59.528 27.9279 59.528L28.2159 60.648C27.1439 60.648 26.5359 60.952 26.3119 61.528C26.9519 62.008 27.3199 62.712 27.3199 63.544C27.3199 65.128 25.9599 66.248 24.0399 66.248C23.5759 66.248 23.1599 66.2 22.8079 66.104C22.1679 66.248 21.9119 66.568 21.9119 67.112C21.9119 67.672 22.3439 67.976 22.9679 67.976H25.6239ZM24.0399 61.88C22.9359 61.88 22.0879 62.552 22.0879 63.544C22.0879 64.536 22.9359 65.208 24.0399 65.208C25.1439 65.208 25.9919 64.536 25.9919 63.544C25.9919 62.552 25.1439 61.88 24.0399 61.88ZM24.2319 71.368C25.9279 71.368 26.8559 70.728 26.8559 70.024C26.8559 69.448 26.4719 69.08 25.2719 69.08H23.1279C22.1199 69.08 21.5919 69.464 21.5919 70.072C21.5919 70.856 22.4719 71.368 24.2319 71.368ZM35.5891 61H36.8691V69H35.7491L35.6691 67.784C35.1091 68.744 34.0851 69.16 32.8051 69.16C31.2211 69.16 29.8611 68.344 29.8611 66.232V61H31.1411V65.896C31.1411 67.544 31.8771 68.04 33.0291 68.04C34.3891 68.04 35.5891 67.24 35.5891 65.352V61ZM41.0634 57.32V66.856C41.0634 67.672 41.2714 67.928 41.9274 67.928C42.3594 67.928 42.6314 67.88 43.0954 67.704L42.8874 68.936C42.5514 69.08 42.1194 69.16 41.7034 69.16C40.4074 69.16 39.7834 68.472 39.7834 67.016V57.32H41.0634ZM51.298 68.072C51.506 68.072 51.746 68.04 51.938 67.992L51.858 69C51.634 69.08 51.298 69.16 50.898 69.16C50.114 69.16 49.602 68.872 49.458 67.976C48.946 68.728 47.906 69.16 46.882 69.16C45.378 69.16 44.162 68.456 44.162 67.016C44.162 65.816 45.218 64.872 47.282 64.52L49.41 64.168V63.72C49.41 62.664 48.738 61.96 47.538 61.96C46.482 61.96 45.682 62.472 45.25 63.48L44.306 62.792C44.722 61.608 45.986 60.84 47.538 60.84C49.362 60.84 50.69 61.704 50.69 63.56V67.496C50.69 67.88 50.85 68.072 51.298 68.072ZM46.946 68.04C48.226 68.04 49.41 67.368 49.41 66.312V65.208L47.618 65.544C46.21 65.8 45.49 66.264 45.49 67.016C45.49 67.688 46.034 68.04 46.946 68.04ZM57.5765 60.84C57.8485 60.84 58.2165 60.872 58.4565 61L58.2005 62.248C57.9605 62.12 57.6085 62.04 57.1925 62.04C56.2325 62.04 55.0805 62.888 55.0805 64.68V69H53.8005V61H54.8405L55.0165 62.312C55.4645 61.336 56.3285 60.84 57.5765 60.84Z" fill="#4A5AE9"/>
</svg>
