<?xml version="1.0" encoding="UTF-8"?><svg xmlns="http://www.w3.org/2000/svg" viewBox="0 0 612.01 612.01"><defs><style>.cls-1,.cls-2{fill:#2d2d2d;}.cls-3{fill:#231f20;font-family:RalewayRoman-Regular, Raleway;font-size:36px;font-variation-settings:'wght' 400;}.cls-4{letter-spacing:-.01em;}.cls-2{fill-rule:evenodd;}</style></defs><g id="clean_up_logo"><g id="logo"><path class="cls-1" d="m457.47,133.57v392.09c0,4.34-3.66,8-8,8H162.54c-4.34,0-8-3.66-8-8V141.57c0-4.34,3.66-8,8-8h294.92m12-12H162.54c-11,0-20,9-20,20v384.09c0,11,9,20,20,20h286.92c11,0,20-9,20-20V121.57h0Z"/><path class="cls-2" d="m382.18,545.66h-222.1c-9.64,0-17.54-7.89-17.54-17.54v-216.88l63.11,61.73,12.53,12.27,164,160.41Z"/><polygon class="cls-2" points="469.47 121.57 469.47 205.73 433.19 170.25 420.66 157.98 383.43 121.57 469.47 121.57"/><polygon class="cls-1" points="433.19 170.25 228.94 374.49 227.4 372.98 216.4 362.23 420.66 157.98 433.19 170.25"/></g></g><g id="Layer_2"><text class="cls-3" transform="translate(263.16 73.96)"><tspan class="cls-4" x="0" y="0">L</tspan><tspan x="20.59" y="0">ogo</tspan></text></g></svg>