<?xml version="1.0" encoding="UTF-8"?><svg id="Layer_2" xmlns="http://www.w3.org/2000/svg" viewBox="0 0 612.01 612.01"><defs><style>.cls-1{fill:#d8d8d8;}.cls-2,.cls-3,.cls-4{fill:#2d2d2d;}.cls-3,.cls-5{stroke:#d8d8d8;stroke-miterlimit:10;}.cls-5{fill:none;}.cls-4{fill-rule:evenodd;}</style></defs><g id="clean_up_logo"><g id="logo"><path class="cls-2" d="m494.01,118v368c0,4.34-3.66,8-8,8H217.66c-4.34,0-8-3.66-8-8V126c0-4.34,3.66-8,8-8h276.35m12-12H217.66c-11,0-20,9-20,20v360c0,11,9,20,20,20h268.35c11,0,20-9,20-20V106h0Z"/><path class="cls-4" d="m426.01,506h-208.35c-11,0-20-9-20-20v-208.35l228.35,228.35Z"/><polygon class="cls-4" points="506.01 106 506.01 188.67 423.42 106 506.01 106"/><polygon class="cls-2" points="471.79 151.91 276.86 346.85 265.16 335.15 459.97 140.34 471.79 151.91"/></g><line class="cls-5" x1="486.01" y1="466" x2="486.01" y2="506"/><line class="cls-5" x1="506.01" y1="486" x2="466.02" y2="486"/><path class="cls-1" d="m486.01,467c10.48,0,19,8.52,19,19s-8.52,19-19,19-19-8.52-19-19,8.52-19,19-19m0-1c-11.05,0-20,8.95-20,20s8.95,20,20,20,20-8.95,20-20-8.95-20-20-20h0Z"/><line class="cls-5" x1="217.66" y1="466" x2="217.66" y2="506"/><line class="cls-5" x1="237.66" y1="486" x2="197.67" y2="486"/><path class="cls-1" d="m217.66,467c10.48,0,19,8.52,19,19s-8.52,19-19,19-19-8.52-19-19,8.52-19,19-19m0-1c-11.05,0-20,8.95-20,20s8.95,20,20,20,20-8.95,20-20-8.95-20-20-20h0Z"/><line class="cls-5" x1="217.66" y1="106" x2="217.66" y2="146"/><line class="cls-5" x1="237.66" y1="126" x2="197.67" y2="126"/><path class="cls-1" d="m217.66,107c10.48,0,19,8.52,19,19s-8.52,19-19,19-19-8.52-19-19,8.52-19,19-19m0-1c-11.05,0-20,8.95-20,20s8.95,20,20,20,20-8.95,20-20-8.95-20-20-20h0Z"/><line class="cls-5" x1="176.01" y1="612.01" x2="176.01"/><polyline class="cls-5" points="106.01 0 106.01 494.3 106.01 506 106.01 517.7 106.01 612.01"/><line class="cls-5" x1="286.01" y1="612.01" x2="286.01"/><line class="cls-5" x1="216.01" y1="612.01" x2="216.01"/><line class="cls-5" x1="396.01" y1="612.01" x2="396.01"/><line class="cls-5" x1="326.01" y1="612.01" x2="326.01"/><line class="cls-5" x1="506.01" y1="612.01" x2="506.01"/><line class="cls-5" x1="436.01" y1="612.01" x2="436.01"/><line class="cls-5" x1="612.01" y1="436" x2="0" y2="436"/><polyline class="cls-5" points="0 506 94.31 506 106.01 506 117.71 506 612.01 506"/><line class="cls-5" x1="612.01" y1="326" x2="0" y2="326"/><line class="cls-5" x1="612.01" y1="396" x2="0" y2="396"/><line class="cls-5" x1="612.01" y1="216" x2="0" y2="216"/><line class="cls-5" x1="612.01" y1="286" x2="0" y2="286"/><line class="cls-5" x1="612.01" y1="106" x2="0" y2="106"/><line class="cls-5" x1="612.01" y1="176" x2="0" y2="176"/><circle class="cls-5" cx="306.01" cy="306" r="90"/><circle class="cls-5" cx="306.01" cy="306" r="130"/><circle class="cls-5" cx="306.01" cy="306" r="200"/><line class="cls-3" x1="106.01" y1="176" x2="436.01" y2="506"/><line class="cls-3" x1="106.01" y1="185.89" x2="426.13" y2="506"/><line class="cls-5" x1="106.01" y1="506" x2="506.01" y2="106"/><line class="cls-3" x1="423.42" y1="106" x2="506.01" y2="188.67"/></g></svg>