<svg width="103" height="101" viewBox="0 0 103 101" fill="none" xmlns="http://www.w3.org/2000/svg">
<g clip-path="url(#clip0_199_13579)">
<path d="M18.336 0.175789H84.4818C86.8642 0.173541 89.2236 0.64179 91.4251 1.55374C93.6266 2.46569 95.6269 3.80343 97.3115 5.49042C98.9961 7.1774 100.332 9.1805 101.243 11.3851C102.153 13.5897 102.621 15.9524 102.619 18.3382V82.0134C102.621 84.3991 102.153 86.7619 101.243 88.9665C100.332 91.1711 98.9961 93.1742 97.3115 94.8612C95.6269 96.5481 93.6266 97.8859 91.4251 98.7978C89.2236 99.7098 86.8642 100.178 84.4818 100.176H18.336C15.9536 100.178 13.5942 99.7098 11.3927 98.7978C9.19123 97.8859 7.19095 96.5481 5.50635 94.8612C3.82175 93.1742 2.48589 91.1711 1.57523 88.9665C0.66457 86.7619 0.196981 84.3991 0.199227 82.0134V18.3382C0.196981 15.9524 0.66457 13.5897 1.57523 11.3851C2.48589 9.1805 3.82175 7.1774 5.50635 5.49042C7.19095 3.80343 9.19123 2.46569 11.3927 1.55374C13.5942 0.64179 15.9536 0.173541 18.336 0.175789Z" fill="#470137"/>
<path d="M54.0547 26.4581L41.2522 47.6119L54.9082 70.0478C54.998 70.2026 55.0284 70.385 54.9935 70.5606C54.9508 70.7316 54.7801 70.6034 54.5241 70.6461H44.7516C44.0688 70.6461 43.5994 70.6034 43.3006 70.176C42.4045 68.3811 41.4656 66.629 40.5695 64.8341C39.6733 63.0393 38.6918 61.2871 37.6676 59.4495C36.6434 57.6119 35.6192 55.7743 34.595 53.894H34.5096C33.6135 55.7316 32.632 57.5692 31.6504 59.4068C30.6689 61.2444 29.6874 63.082 28.7486 64.8769C27.8097 66.6717 26.7855 68.5093 25.804 70.2615C25.6333 70.6888 25.2919 70.7316 24.8225 70.7316H15.434C15.2633 70.7316 15.1353 70.817 15.1353 70.6034C15.1163 70.5234 15.114 70.4403 15.1287 70.3594C15.1434 70.2784 15.1747 70.2015 15.2207 70.1333L28.4925 48.3384L15.5621 26.4153C15.434 26.2444 15.3914 26.0735 15.4767 25.988C15.5287 25.9271 15.5947 25.8797 15.6691 25.8499C15.7434 25.8201 15.8238 25.8089 15.9035 25.817H25.5906C25.7925 25.8214 25.9931 25.8501 26.1881 25.9025C26.359 25.9946 26.5054 26.1265 26.6148 26.2871C27.4256 28.1247 28.3645 29.9623 29.346 31.7999C30.3275 33.6376 31.3517 35.4324 32.4186 37.2273C33.4854 39.0222 34.3816 40.817 35.2778 42.6547H35.3631C36.2593 40.7743 37.1981 38.9367 38.137 37.1418C39.0758 35.347 40.0574 33.5521 41.0389 31.7572C42.0204 29.9623 42.9592 28.1247 43.8981 26.3726C43.9304 26.2044 44.0211 26.053 44.1541 25.9452C44.3231 25.8519 44.5197 25.8216 44.7089 25.8598H53.7133C53.7637 25.8484 53.8159 25.8472 53.8668 25.8561C53.9177 25.865 53.9664 25.8839 54.01 25.9117C54.0537 25.9395 54.0914 25.9756 54.121 26.0181C54.1506 26.0605 54.1716 26.1084 54.1827 26.1589C54.2254 26.2017 54.14 26.3726 54.0547 26.4581Z" fill="#FF61F6"/>
<path d="M73.7704 71.5436C70.6072 71.5956 67.4723 70.9385 64.5954 69.6205C61.9187 68.3671 59.6754 66.3438 58.1515 63.8086C56.5725 61.2017 55.8044 57.9539 55.8044 54.065C55.7611 50.9024 56.5721 47.7869 58.1515 45.0479C59.771 42.2641 62.1166 39.9743 64.9368 38.424C67.924 36.7573 71.5087 35.9453 75.7335 35.9453C76.0328 35.9419 76.332 35.9562 76.6297 35.9881C77.0137 36.0308 77.4405 36.0308 77.9526 36.0735V22.5693C77.9526 22.2701 78.0806 22.0992 78.3793 22.0992H87.0423C87.1379 22.0862 87.235 22.1098 87.314 22.1652C87.3931 22.2207 87.4485 22.3039 87.469 22.3983V63.1676C87.469 63.9368 87.5117 64.7915 87.5544 65.7317C87.5971 66.6718 87.6824 67.4838 87.7251 68.2103C87.7342 68.3546 87.6979 68.4982 87.6214 68.6208C87.5448 68.7434 87.4319 68.839 87.2983 68.8941C85.0631 69.8348 82.73 70.5228 80.3424 70.9453C78.1734 71.337 75.9743 71.5372 73.7704 71.5436ZM77.9526 62.9966V44.1932C77.5726 44.1014 77.188 44.03 76.8003 43.9795C76.3309 43.9368 75.8615 43.8941 75.3921 43.8941C73.7193 43.8752 72.0662 44.2561 70.5698 45.0052C69.1116 45.7328 67.863 46.8213 66.9425 48.1676C66.0036 49.5351 65.5342 51.3727 65.5342 53.5949C65.497 55.0948 65.7432 56.5882 66.2597 57.9966C66.6724 59.1355 67.3277 60.1709 68.18 61.0308C69.0028 61.8171 69.996 62.4021 71.0819 62.7402C72.225 63.1151 73.4211 63.3027 74.6239 63.2958C75.2641 63.2958 75.8615 63.253 76.4163 63.2103C76.9377 63.2475 77.461 63.1747 77.9526 62.9966Z" fill="#FF61F6"/>
</g>
<defs>
<clipPath id="clip0_199_13579">
<rect width="102.419" height="100" fill="white" transform="translate(0.199219 0.175781)"/>
</clipPath>
</defs>
</svg>
