<svg width="84" height="76" viewBox="0 0 84 76" fill="none" xmlns="http://www.w3.org/2000/svg">
<path d="M48.227 15.7919C48.227 15.7919 41.806 13.3011 34.0894 14.6591C22.7255 16.6586 19.3359 21.5196 19.3359 28.5598V37.4038C25.0818 37.4038 28.9959 33.2343 31.5644 28.4324C35.369 21.3194 46.4022 17.6708 48.4072 17.0589C48.8976 16.9088 49.0573 16.2605 48.6581 15.942C48.5441 15.851 48.3981 15.7942 48.227 15.7942V15.7919Z" fill="#FFDAAC"/>
<path d="M47.9214 58.5949C45.9483 57.9807 35.1022 54.3344 31.3591 47.2214C28.834 42.4195 24.986 38.25 19.3359 38.25V47.094C19.3359 54.1342 22.6685 58.9953 33.8431 60.9947C41.4319 62.3527 47.7434 59.8619 47.7434 59.8619C47.91 59.8619 48.0559 59.8051 48.1677 59.7141C48.56 59.3956 48.4027 58.745 47.9214 58.5972V58.5949Z" fill="#FFDAAC"/>
<path d="M36.3172 41.4511C37.9071 41.8401 39.5083 42.4065 41.1552 42.2609C43.6278 41.9424 45.3728 39.6859 45.0511 37.2202C44.7318 34.7544 42.4691 33.0142 39.9965 33.335C38.7647 33.4942 37.5239 33.8127 36.3149 34.1448C34.221 34.7612 32.1749 35.4391 30.1813 36.3808C29.0066 36.9199 28.9975 38.6691 30.1813 39.2173C32.1772 40.1568 34.221 40.8369 36.3149 41.4534L36.3172 41.4511Z" fill="#FFDAAC"/>
<path d="M83.5096 37.7493C83.1903 35.2836 80.9275 33.5434 78.4549 33.8641C77.506 33.987 76.5526 34.2053 75.6105 34.4487C74.8236 25.9345 71.1717 17.6364 64.6503 11.1331C57.4675 3.97004 47.9147 0.0234375 37.7528 0.0234375C27.591 0.0234375 18.0405 3.97004 10.8576 11.1331C-3.97338 25.9232 -3.97338 49.9895 10.8576 64.7796C18.0428 71.9449 27.5933 75.8892 37.7551 75.8892C47.917 75.8892 57.4675 71.9426 64.6526 64.7796C70.9915 58.4582 74.6206 50.4399 75.5398 42.1759C76.8787 42.5307 78.2314 42.9106 79.6159 42.7901C82.0885 42.4716 83.8335 40.2151 83.5119 37.7493H83.5096ZM58.649 58.7948C53.0674 64.361 45.6474 67.4251 37.7551 67.4251C29.8629 67.4251 22.4405 64.3588 16.8589 58.7948C5.33764 47.3053 5.33764 28.6096 16.8589 17.1201C22.4405 11.5539 29.8606 8.48987 37.7551 8.48987C45.6497 8.48987 53.0697 11.5562 58.649 17.1201C70.1703 28.6096 70.1703 47.3053 58.649 58.7948Z" fill="#FFDAAC"/>
</svg>
