<svg width="99" height="92" viewBox="0 0 99 92" fill="none" xmlns="http://www.w3.org/2000/svg">
<path d="M57.0723 19.0021C57.0723 19.0021 49.5154 16 40.4337 17.6368C27.0595 20.0467 23.0703 25.9055 23.0703 34.3909V45.0503C29.8326 45.0503 34.4392 40.0249 37.462 34.2373C41.9397 25.6643 54.9247 21.2667 57.2843 20.5292C57.8615 20.3483 58.0494 19.5669 57.5796 19.1831C57.4454 19.0734 57.2736 19.0049 57.0723 19.0049V19.0021Z" fill="#10494C"/>
<path d="M56.7125 70.5953C54.3904 69.855 41.6256 65.4602 37.2203 56.8872C34.2486 51.0996 29.7198 46.0742 23.0703 46.0742V56.7336C23.0703 65.219 26.9924 71.0778 40.1438 73.4877C49.0751 75.1245 56.5031 72.1224 56.5031 72.1224C56.6991 72.1224 56.8709 72.0538 57.0025 71.9442C57.4642 71.5603 57.279 70.7762 56.7125 70.598V70.5953Z" fill="#10494C"/>
<path d="M43.0513 49.9335C44.9224 50.4023 46.8069 51.085 48.7451 50.9095C51.6551 50.5257 53.7088 47.806 53.3303 44.8341C52.9544 41.8622 50.2914 39.7648 47.3814 40.1514C45.9318 40.3433 44.4714 40.7271 43.0486 41.1274C40.5842 41.8704 38.1762 42.6874 35.83 43.8224C34.4475 44.4722 34.4367 46.5805 35.83 47.2412C38.1789 48.3735 40.5842 49.1933 43.0486 49.9362L43.0513 49.9335Z" fill="#10494C"/>
<path d="M98.5952 45.4698C98.2194 42.4979 95.5563 40.4006 92.6463 40.7871C91.5296 40.9352 90.4074 41.1984 89.2987 41.4917C88.3726 31.2298 84.0747 21.2284 76.3997 13.3901C67.9462 4.75672 56.7035 0 44.744 0C32.7845 0 21.5445 4.75672 13.091 13.3901C-4.36366 31.2161 -4.36366 60.2225 13.091 78.0485C21.5472 86.6846 32.7872 91.4386 44.7467 91.4386C56.7062 91.4386 67.9462 86.6819 76.4024 78.0485C83.8626 70.4295 88.1337 60.7653 89.2155 50.805C90.7913 51.2327 92.3832 51.6906 94.0127 51.5452C96.9227 51.1614 98.9764 48.4417 98.5979 45.4698H98.5952ZM69.3368 70.8353C62.7678 77.5441 54.0351 81.237 44.7467 81.237C35.4583 81.237 26.7229 77.5413 20.1539 70.8353C6.59449 56.9874 6.59449 34.454 20.1539 20.606C26.7229 13.8973 35.4556 10.2043 44.7467 10.2043C54.0378 10.2043 62.7705 13.9 69.3368 20.606C82.8962 34.454 82.8962 56.9874 69.3368 70.8353Z" fill="#10494C"/>
</svg>
