<svg width="1060" height="265" viewBox="0 0 1060 265" fill="none" xmlns="http://www.w3.org/2000/svg">
<path d="M202.443 60.7111C202.443 60.7111 182.77 52.8956 159.127 57.1566C124.309 63.4304 113.924 78.6832 113.924 100.774V128.524C131.529 128.524 143.521 115.441 151.391 100.374C163.048 78.0551 196.852 66.6066 202.996 64.6866C204.498 64.2156 204.987 62.1814 203.764 61.1822C203.415 60.8967 202.968 60.7182 202.443 60.7182V60.7111Z" fill="#10494C"/>
<path d="M201.503 195.022C195.458 193.095 162.226 181.653 150.758 159.335C143.021 144.268 131.231 131.185 113.92 131.185V158.935C113.92 181.025 124.13 196.278 158.368 202.552C181.62 206.813 200.958 198.997 200.958 198.997C201.468 198.997 201.915 198.819 202.258 198.534C203.46 197.534 202.978 195.493 201.503 195.029V195.022Z" fill="#10494C"/>
<path d="M165.951 141.229C170.822 142.45 175.728 144.227 180.774 143.77C188.35 142.771 193.696 135.69 192.711 127.953C191.733 120.216 184.8 114.756 177.224 115.763C173.45 116.262 169.648 117.261 165.944 118.304C159.528 120.238 153.259 122.365 147.151 125.32C143.552 127.011 143.524 132.5 147.151 134.22C153.266 137.168 159.528 139.302 165.944 141.236L165.951 141.229Z" fill="#10494C"/>
<path d="M310.541 129.61C309.562 121.873 302.63 116.413 295.054 117.42C292.146 117.805 289.225 118.49 286.339 119.254C283.928 92.5385 272.739 66.5011 252.758 46.0951C230.75 23.6193 201.481 11.2358 170.346 11.2358C139.211 11.2358 109.95 23.6193 87.942 46.0951C42.5011 92.5029 42.5011 168.017 87.942 214.425C109.957 236.908 139.218 249.284 170.353 249.284C201.488 249.284 230.75 236.901 252.765 214.425C272.187 194.59 283.306 169.43 286.122 143.5C290.225 144.613 294.369 145.805 298.611 145.427C306.187 144.428 311.533 137.347 310.548 129.61H310.541ZM234.37 195.646C217.269 213.111 194.534 222.726 170.353 222.726C146.172 222.726 123.431 213.104 106.329 195.646C71.0292 159.595 71.0292 100.932 106.329 64.8809C123.431 47.4156 146.165 37.8014 170.353 37.8014C194.541 37.8014 217.276 47.4227 234.37 64.8809C269.671 100.932 269.671 159.595 234.37 195.646Z" fill="#10494C"/>
<path d="M407.631 101.394H367.648V128.145H404.626V145.382H367.648V173.404H407.631V190.641H347.248V84.1641H407.631V101.401V101.394Z" fill="#10494C"/>
<path d="M474.924 190.634L473.82 182.919C470.64 186.116 467.132 188.464 463.295 189.963C459.451 191.462 455.307 192.212 450.862 192.212C446.417 192.212 441.944 191.312 438.058 189.514C434.173 187.715 430.832 185.195 428.043 181.948C425.255 178.7 423.102 174.782 421.586 170.185C420.069 165.589 419.314 160.521 419.314 154.975C419.314 148.58 420.356 142.763 422.431 137.517C424.507 132.271 427.568 127.803 431.601 124.106C435.633 120.409 440.602 117.561 446.494 115.562C452.385 113.564 459.15 112.565 466.782 112.565H470.668V78.6975L490.257 76.4492V190.641H474.924V190.634ZM470.668 129.495H465.021C460.618 129.495 456.802 130.094 453.573 131.293C450.345 132.492 447.654 134.17 445.501 136.311C443.349 138.459 441.762 141.043 440.735 144.069C439.708 147.089 439.197 150.45 439.197 154.147C439.197 157.395 439.575 160.357 440.337 163.026C441.091 165.703 442.196 167.973 443.635 169.843C445.075 171.713 446.829 173.162 448.884 174.189C450.939 175.217 453.259 175.724 455.852 175.724C458.738 175.724 461.436 175.089 463.959 173.811C466.475 172.541 468.718 170.799 470.675 168.601V129.488L470.668 129.495Z" fill="#10494C"/>
<path d="M510.134 171.009C513.314 172.908 516.452 174.342 519.562 175.32C522.665 176.298 525.838 176.783 529.059 176.783C530.772 176.783 532.302 176.619 533.644 176.298C534.986 175.977 536.111 175.513 537.02 174.913C537.921 174.314 538.634 173.6 539.144 172.779C539.654 171.958 539.913 171.045 539.913 170.045C539.913 168.447 539.41 167.083 538.41 165.963C537.404 164.835 536.097 163.843 534.483 162.965C532.868 162.094 531.023 161.266 528.941 160.496C526.858 159.725 524.747 158.875 522.595 157.948C520.442 157.027 518.325 155.978 516.249 154.8C514.166 153.629 512.321 152.18 510.707 150.453C509.092 148.733 507.793 146.67 506.821 144.272C505.843 141.874 505.354 139.026 505.354 135.729C505.354 132.231 506.024 129.062 507.373 126.214C508.715 123.367 510.665 120.954 513.209 118.984C515.753 117.014 518.8 115.473 522.343 114.373C525.886 113.274 529.884 112.725 534.336 112.725C538.25 112.725 542.03 113.174 545.672 114.074C549.313 114.973 552.632 116.293 555.617 118.042L551.584 133.181C549.138 131.582 546.475 130.347 543.589 129.469C540.703 128.598 537.844 128.156 535.007 128.156C533.392 128.156 531.925 128.306 530.604 128.605C529.283 128.905 528.186 129.319 527.305 129.84C526.425 130.361 525.768 131.004 525.327 131.753C524.887 132.502 524.663 133.373 524.663 134.372C524.663 135.921 525.153 137.22 526.131 138.27C527.109 139.319 528.416 140.254 530.059 141.082C531.694 141.903 533.553 142.695 535.636 143.444C537.711 144.194 539.829 145.014 541.982 145.914C544.134 146.813 546.238 147.862 548.292 149.061C550.347 150.26 552.206 151.745 553.869 153.522C555.533 155.292 556.854 157.405 557.832 159.853C558.81 162.301 559.3 165.199 559.3 168.547C559.3 172.194 558.594 175.477 557.175 178.403C555.756 181.323 553.751 183.814 551.158 185.862C548.565 187.911 545.434 189.488 541.765 190.58C538.096 191.672 534.063 192.229 529.66 192.229C527.459 192.229 525.292 192.1 523.168 191.858C521.043 191.608 518.996 191.229 517.039 190.737C515.082 190.237 513.202 189.616 511.392 188.867C509.582 188.118 507.918 187.268 506.402 186.319L510.141 171.03L510.134 171.009Z" fill="#10494C"/>
<path d="M573.592 114.129H588.981L590.008 121.845C593.23 118.697 596.76 116.363 600.596 114.836C604.433 113.315 608.55 112.552 612.945 112.552C617.586 112.552 621.849 113.437 625.735 115.214C629.621 116.991 632.954 119.511 635.743 122.78C638.524 126.049 640.677 129.974 642.193 134.542C643.71 139.11 644.465 144.199 644.465 149.788C644.465 156.183 643.437 161.993 641.39 167.21C639.335 172.428 636.295 176.889 632.269 180.586C628.237 184.283 623.282 187.131 617.397 189.129C611.513 191.128 604.762 192.149 597.137 192.199H593.181V224.717L573.592 226.815V114.122V114.129ZM593.181 175.269H598.821C603.21 175.269 607.033 174.683 610.276 173.506C613.519 172.335 616.195 170.658 618.292 168.488C620.389 166.318 621.961 163.72 623.016 160.694C624.065 157.675 624.589 154.284 624.589 150.537C624.589 147.29 624.211 144.342 623.457 141.694C622.702 139.046 621.605 136.783 620.165 134.913C618.725 133.043 616.978 131.58 614.93 130.531C612.883 129.482 610.562 128.961 607.976 128.961C605.097 128.961 602.399 129.596 599.89 130.874C597.375 132.144 595.145 133.907 593.195 136.155V175.269H593.181Z" fill="#10494C"/>
<path d="M659.352 114.138H674.741L676.139 123.581C677.453 121.782 678.788 120.198 680.129 118.82C681.471 117.45 682.848 116.286 684.267 115.337C685.679 114.388 687.153 113.688 688.691 113.239C690.228 112.789 691.85 112.568 693.555 112.568C694.967 112.568 696.273 112.703 697.469 112.982C698.664 113.26 699.796 113.667 700.872 114.217L699.335 131.825C698.258 131.275 697.175 130.861 696.078 130.59C694.981 130.319 693.869 130.176 692.751 130.176C691.633 130.176 690.508 130.34 689.39 130.661C688.271 130.99 687.132 131.511 685.986 132.239C684.84 132.967 683.68 133.916 682.513 135.087C681.346 136.264 680.15 137.749 678.927 139.547V190.652H659.338V114.145L659.352 114.138Z" fill="#10494C"/>
<path d="M774.126 184.033C770.114 186.681 765.74 188.701 760.994 190.1C756.249 191.499 751.14 192.199 745.661 192.199C739.595 192.199 734.164 191.314 729.37 189.536C724.576 187.766 720.501 185.19 717.154 181.821C713.806 178.452 711.234 174.326 709.452 169.459C707.663 164.591 706.775 159.109 706.775 153.014C706.775 146.919 707.621 141.251 709.305 136.305C710.997 131.359 713.38 127.112 716.462 123.565C719.544 120.018 723.248 117.298 727.581 115.4C731.907 113.501 736.666 112.552 741.852 112.552C746.597 112.552 750.902 113.365 754.767 114.986C758.632 116.606 761.924 118.983 764.635 122.102C767.347 125.228 769.444 129.032 770.911 133.529C772.379 138.025 773.113 143.171 773.113 148.967C773.113 150.416 773.078 151.779 773.001 153.05C772.931 154.32 772.791 155.612 772.596 156.911H726.372V157.061C726.665 160.009 727.357 162.642 728.462 164.969C729.559 167.289 731.012 169.252 732.822 170.85C734.626 172.449 736.813 173.684 739.378 174.562C741.943 175.44 744.857 175.875 748.135 175.875C752.335 175.875 756.228 175.254 759.82 174.005C763.412 172.756 766.865 170.936 770.184 168.538L774.14 184.048L774.126 184.033ZM754.243 143.121C754.194 140.823 753.866 138.753 753.258 136.905C752.65 135.056 751.797 133.472 750.7 132.144C749.602 130.824 748.261 129.81 746.674 129.111C745.088 128.411 743.32 128.061 741.37 128.061C739.42 128.061 737.722 128.39 736.135 129.032C734.549 129.682 733.137 130.652 731.893 131.951C730.649 133.25 729.587 134.835 728.713 136.712C727.833 138.582 727.176 140.723 726.735 143.121H754.25H754.243Z" fill="#10494C"/>
<path d="M790.341 171.009C793.521 172.908 796.659 174.342 799.769 175.32C802.872 176.298 806.045 176.783 809.266 176.783C810.979 176.783 812.509 176.619 813.851 176.298C815.193 175.977 816.318 175.513 817.227 174.913C818.128 174.314 818.841 173.6 819.351 172.779C819.861 171.958 820.12 171.045 820.12 170.045C820.12 168.447 819.617 167.083 818.617 165.963C817.611 164.835 816.304 163.843 814.69 162.965C813.075 162.094 811.23 161.266 809.148 160.496C807.065 159.725 804.954 158.875 802.802 157.948C800.649 157.027 798.532 155.978 796.456 154.8C794.373 153.629 792.528 152.18 790.914 150.453C789.3 148.733 788 146.67 787.028 144.272C786.05 141.874 785.561 139.026 785.561 135.729C785.561 132.231 786.231 129.062 787.58 126.214C788.922 123.367 790.872 120.954 793.416 118.984C795.96 117.014 799.007 115.473 802.55 114.373C806.094 113.274 810.091 112.725 814.543 112.725C818.457 112.725 822.238 113.174 825.879 114.074C829.52 114.973 832.839 116.293 835.824 118.042L831.791 133.181C829.345 131.582 826.682 130.347 823.796 129.469C820.91 128.598 818.051 128.156 815.214 128.156C813.599 128.156 812.132 128.306 810.811 128.605C809.49 128.905 808.393 129.319 807.512 129.84C806.632 130.361 805.975 131.004 805.534 131.753C805.094 132.502 804.87 133.373 804.87 134.372C804.87 135.921 805.36 137.22 806.338 138.27C807.317 139.319 808.623 140.254 810.266 141.082C811.901 141.903 813.76 142.695 815.843 143.444C817.919 144.194 820.036 145.014 822.189 145.914C824.341 146.813 826.445 147.862 828.499 149.061C830.554 150.26 832.413 151.745 834.077 153.522C835.74 155.292 837.061 157.405 838.039 159.853C839.018 162.301 839.507 165.199 839.507 168.547C839.507 172.194 838.801 175.477 837.382 178.403C835.963 181.323 833.958 183.814 831.365 185.862C828.772 187.911 825.641 189.488 821.972 190.58C818.303 191.672 814.27 192.229 809.867 192.229C807.666 192.229 805.499 192.1 803.375 191.858C801.25 191.608 799.203 191.229 797.246 190.737C795.289 190.237 793.409 189.616 791.599 188.867C789.789 188.118 788.125 187.268 786.609 186.319L790.348 171.03L790.341 171.009Z" fill="#10494C"/>
<path d="M853.798 171.009C856.978 172.908 860.116 174.342 863.226 175.32C866.329 176.298 869.502 176.783 872.723 176.783C874.436 176.783 875.966 176.619 877.308 176.298C878.65 175.977 879.775 175.513 880.684 174.913C881.585 174.314 882.298 173.6 882.808 172.779C883.318 171.958 883.577 171.045 883.577 170.045C883.577 168.447 883.074 167.083 882.074 165.963C881.068 164.835 879.761 163.843 878.147 162.965C876.532 162.094 874.687 161.266 872.605 160.496C870.522 159.725 868.411 158.875 866.259 157.948C864.106 157.027 861.989 155.978 859.913 154.8C857.83 153.629 855.985 152.18 854.371 150.453C852.757 148.733 851.457 146.67 850.485 144.272C849.507 141.874 849.018 139.026 849.018 135.729C849.018 132.231 849.689 129.062 851.037 126.214C852.379 123.367 854.329 120.954 856.873 118.984C859.417 117.014 862.464 115.473 866.007 114.373C869.55 113.274 873.548 112.725 878 112.725C881.914 112.725 885.695 113.174 889.336 114.074C892.977 114.973 896.296 116.293 899.281 118.042L895.248 133.181C892.802 131.582 890.139 130.347 887.253 129.469C884.367 128.598 881.508 128.156 878.671 128.156C877.056 128.156 875.589 128.306 874.268 128.605C872.947 128.905 871.85 129.319 870.969 129.84C870.089 130.361 869.432 131.004 868.991 131.753C868.551 132.502 868.328 133.373 868.328 134.372C868.328 135.921 868.817 137.22 869.795 138.27C870.774 139.319 872.08 140.254 873.723 141.082C875.358 141.903 877.217 142.695 879.3 143.444C881.375 144.194 883.493 145.014 885.646 145.914C887.798 146.813 889.902 147.862 891.956 149.061C894.011 150.26 895.87 151.745 897.533 153.522C899.197 155.292 900.518 157.405 901.496 159.853C902.475 162.301 902.964 165.199 902.964 168.547C902.964 172.194 902.258 175.477 900.839 178.403C899.42 181.323 897.415 183.814 894.822 185.862C892.229 187.911 889.098 189.488 885.429 190.58C881.76 191.672 877.727 192.229 873.324 192.229C871.123 192.229 868.956 192.1 866.832 191.858C864.707 191.608 862.66 191.229 860.703 190.737C858.746 190.237 856.866 189.616 855.056 188.867C853.246 188.118 851.582 187.268 850.066 186.319L853.805 171.03L853.798 171.009Z" fill="#10494C"/>
<path d="M952.753 112.551C958.036 112.551 963.012 113.436 967.681 115.213C972.349 116.991 976.445 119.56 979.967 122.929C983.489 126.298 986.278 130.409 988.332 135.255C990.387 140.102 991.414 145.597 991.414 151.743C991.414 157.888 990.387 163.841 988.332 168.866C986.278 173.883 983.468 178.123 979.897 181.563C976.326 185.01 972.132 187.644 967.317 189.471C962.502 191.291 957.274 192.205 951.655 192.205C946.372 192.205 941.375 191.306 936.651 189.507C931.933 187.708 927.81 185.139 924.287 181.791C920.765 178.444 917.977 174.347 915.922 169.501C913.867 164.654 912.84 159.159 912.84 153.013C912.84 146.868 913.867 140.915 915.922 135.891C917.977 130.873 920.8 126.626 924.392 123.15C927.984 119.681 932.22 117.041 937.084 115.242C941.948 113.443 947.169 112.544 952.746 112.544L952.753 112.551ZM951.872 129.338C949.328 129.338 946.91 129.852 944.611 130.873C942.311 131.901 940.285 133.385 938.524 135.334C936.762 137.282 935.358 139.666 934.302 142.493C933.247 145.319 932.723 148.502 932.723 152.05C932.723 155.897 933.261 159.266 934.337 162.164C935.414 165.061 936.846 167.481 938.628 169.429C940.41 171.378 942.493 172.841 944.862 173.812C947.232 174.79 949.768 175.275 952.459 175.275C954.954 175.275 957.365 174.761 959.685 173.74C962.006 172.72 964.039 171.242 965.773 169.322C967.506 167.402 968.89 165.026 969.917 162.206C970.944 159.387 971.455 156.197 971.455 152.649C971.455 148.802 970.937 145.433 969.917 142.536C968.89 139.638 967.485 137.218 965.696 135.27C963.907 133.321 961.817 131.851 959.42 130.852C957.023 129.852 954.507 129.353 951.865 129.353L951.872 129.338Z" fill="#10494C"/>
</svg>
