<svg width="1060" height="318" viewBox="0 0 1060 318" fill="none" xmlns="http://www.w3.org/2000/svg">
<rect width="1060" height="318" rx="16" fill="#10494C"/>
<path d="M202.441 87.7086C202.441 87.7086 182.768 79.8931 159.125 84.1542C124.307 90.428 113.922 105.681 113.922 127.771V155.522C131.527 155.522 143.519 142.439 151.389 127.371C163.046 105.053 196.85 93.6042 202.994 91.6842C204.496 91.2131 204.985 89.179 203.762 88.1797C203.413 87.8942 202.966 87.7158 202.441 87.7158V87.7086Z" fill="#FFF0DE"/>
<path d="M201.505 222.021C195.46 220.094 162.228 208.653 150.76 186.334C143.023 171.267 131.233 158.184 113.922 158.184V185.934C113.922 208.024 124.132 223.277 158.37 229.551C181.622 233.812 200.96 225.997 200.96 225.997C201.47 225.997 201.917 225.818 202.26 225.533C203.462 224.533 202.98 222.492 201.505 222.028V222.021Z" fill="#FFF0DE"/>
<path d="M165.947 168.227C170.818 169.447 175.724 171.224 180.77 170.767C188.346 169.768 193.692 162.688 192.707 154.951C191.729 147.214 184.796 141.754 177.22 142.76C173.446 143.26 169.644 144.259 165.94 145.301C159.524 147.235 153.256 149.362 147.147 152.317C143.548 154.009 143.52 159.497 147.147 161.218C153.263 164.165 159.524 166.299 165.94 168.234L165.947 168.227Z" fill="#FFF0DE"/>
<path d="M310.539 156.609C309.56 148.872 302.628 143.412 295.052 144.418C292.144 144.804 289.223 145.489 286.337 146.253C283.926 119.537 272.737 93.4997 252.756 73.0937C230.748 50.6179 201.479 38.2344 170.344 38.2344C139.21 38.2344 109.948 50.6179 87.94 73.0937C42.4992 119.501 42.4992 195.016 87.94 241.423C109.955 263.906 139.217 276.283 170.351 276.283C201.486 276.283 230.748 263.899 252.763 241.423C272.185 221.588 283.304 196.429 286.12 170.498C290.223 171.612 294.367 172.804 298.609 172.426C306.185 171.426 311.531 164.346 310.546 156.609H310.539ZM234.368 222.645C217.267 240.11 194.533 249.724 170.351 249.724C146.17 249.724 123.429 240.103 106.327 222.645C71.0273 186.593 71.0273 127.931 106.327 91.8795C123.429 74.4141 146.163 64.8 170.351 64.8C194.54 64.8 217.274 74.4213 234.368 91.8795C269.669 127.931 269.669 186.593 234.368 222.645Z" fill="#FFF0DE"/>
<path d="M407.633 128.394H367.65V155.145H404.628V172.382H367.65V200.404H407.633V217.641H347.25V111.164H407.633V128.401V128.394Z" fill="#FFF0DE"/>
<path d="M474.922 217.634L473.818 209.919C470.638 213.116 467.13 215.464 463.293 216.963C459.449 218.462 455.305 219.212 450.86 219.212C446.415 219.212 441.942 218.312 438.056 216.514C434.171 214.715 430.83 212.195 428.041 208.948C425.253 205.7 423.1 201.782 421.584 197.185C420.067 192.589 419.312 187.521 419.312 181.975C419.312 175.58 420.354 169.763 422.429 164.517C424.505 159.271 427.566 154.803 431.599 151.106C435.631 147.409 440.6 144.561 446.492 142.562C452.383 140.564 459.148 139.565 466.78 139.565H470.666V105.698L490.255 103.449V217.641H474.922V217.634ZM470.666 156.495H465.019C460.616 156.495 456.8 157.094 453.571 158.293C450.343 159.492 447.652 161.17 445.499 163.311C443.347 165.459 441.76 168.043 440.733 171.069C439.706 174.089 439.196 177.45 439.196 181.147C439.196 184.395 439.573 187.357 440.335 190.026C441.089 192.703 442.194 194.973 443.633 196.843C445.073 198.713 446.827 200.162 448.882 201.189C450.937 202.217 453.257 202.724 455.85 202.724C458.736 202.724 461.434 202.089 463.957 200.811C466.473 199.541 468.716 197.799 470.673 195.601V156.488L470.666 156.495Z" fill="#FFF0DE"/>
<path d="M510.14 198.007C513.32 199.906 516.457 201.34 519.567 202.318C522.67 203.296 525.843 203.781 529.065 203.781C530.777 203.781 532.308 203.617 533.65 203.296C534.992 202.975 536.117 202.511 537.025 201.911C537.927 201.312 538.64 200.598 539.15 199.777C539.66 198.956 539.919 198.043 539.919 197.044C539.919 195.445 539.416 194.081 538.416 192.961C537.41 191.833 536.103 190.841 534.488 189.963C532.874 189.092 531.029 188.264 528.946 187.494C526.864 186.723 524.753 185.873 522.601 184.946C520.448 184.025 518.33 182.976 516.255 181.798C514.172 180.627 512.327 179.178 510.713 177.451C509.098 175.731 507.798 173.668 506.827 171.27C505.849 168.872 505.359 166.024 505.359 162.727C505.359 159.229 506.03 156.06 507.379 153.212C508.721 150.365 510.671 147.952 513.215 145.982C515.759 144.012 518.806 142.471 522.349 141.371C525.892 140.272 529.89 139.723 534.342 139.723C538.255 139.723 542.036 140.172 545.677 141.072C549.319 141.971 552.638 143.291 555.622 145.04L551.59 160.179C549.144 158.58 546.481 157.345 543.595 156.467C540.708 155.596 537.85 155.154 535.013 155.154C533.398 155.154 531.931 155.304 530.61 155.603C529.289 155.903 528.192 156.317 527.311 156.838C526.43 157.359 525.773 158.002 525.333 158.751C524.893 159.501 524.669 160.371 524.669 161.371C524.669 162.919 525.159 164.218 526.137 165.268C527.115 166.317 528.422 167.252 530.065 168.08C531.7 168.901 533.559 169.693 535.642 170.442C537.717 171.192 539.835 172.012 541.987 172.912C544.14 173.811 546.244 174.86 548.298 176.059C550.353 177.259 552.212 178.743 553.875 180.52C555.539 182.29 556.859 184.403 557.838 186.851C558.816 189.299 559.306 192.197 559.306 195.545C559.306 199.192 558.6 202.475 557.181 205.401C555.762 208.321 553.756 210.812 551.164 212.86C548.571 214.909 545.44 216.486 541.771 217.578C538.102 218.67 534.069 219.227 529.666 219.227C527.465 219.227 525.298 219.098 523.174 218.856C521.049 218.606 519.001 218.227 517.045 217.735C515.088 217.235 513.208 216.614 511.398 215.865C509.588 215.116 507.924 214.266 506.408 213.317L510.147 198.028L510.14 198.007Z" fill="#FFF0DE"/>
<path d="M573.594 141.128H588.983L590.01 148.844C593.232 145.696 596.761 143.362 600.598 141.835C604.435 140.314 608.551 139.551 612.947 139.551C617.588 139.551 621.851 140.436 625.737 142.213C629.623 143.99 632.956 146.51 635.745 149.779C638.526 153.048 640.679 156.973 642.195 161.541C643.712 166.109 644.467 171.198 644.467 176.787C644.467 183.182 643.439 188.992 641.392 194.209C639.337 199.427 636.297 203.888 632.271 207.585C628.239 211.282 623.284 214.13 617.399 216.128C611.515 218.127 604.764 219.148 597.139 219.198H593.183V251.716L573.594 253.814V141.121V141.128ZM593.183 202.268H598.823C603.212 202.268 607.035 201.682 610.278 200.505C613.521 199.334 616.197 197.657 618.294 195.487C620.39 193.317 621.963 190.719 623.018 187.693C624.067 184.674 624.591 181.283 624.591 177.536C624.591 174.289 624.213 171.341 623.459 168.693C622.704 166.045 621.607 163.782 620.167 161.912C618.727 160.042 616.98 158.579 614.932 157.53C612.885 156.481 610.564 155.96 607.978 155.96C605.099 155.96 602.401 156.595 599.892 157.873C597.376 159.143 595.147 160.906 593.197 163.154V202.268H593.183Z" fill="#FFF0DE"/>
<path d="M659.35 141.137H674.739L676.137 150.579C677.451 148.781 678.786 147.196 680.127 145.819C681.469 144.448 682.846 143.285 684.265 142.336C685.677 141.386 687.151 140.687 688.689 140.237C690.226 139.788 691.848 139.566 693.553 139.566C694.965 139.566 696.272 139.702 697.467 139.98C698.662 140.259 699.794 140.666 700.87 141.215L699.333 158.823C698.256 158.274 697.173 157.86 696.076 157.588C694.979 157.317 693.867 157.174 692.749 157.174C691.631 157.174 690.506 157.339 689.388 157.66C688.269 157.988 687.13 158.509 685.984 159.237C684.838 159.965 683.678 160.915 682.511 162.085C681.344 163.263 680.148 164.747 678.925 166.546V217.65H659.336V141.144L659.35 141.137Z" fill="#FFF0DE"/>
<path d="M774.132 211.032C770.12 213.68 765.745 215.7 761 217.099C756.255 218.498 751.146 219.198 745.667 219.198C739.6 219.198 734.17 218.313 729.376 216.535C724.582 214.765 720.507 212.189 717.16 208.82C713.812 205.451 711.24 201.325 709.458 196.458C707.669 191.59 706.781 186.108 706.781 180.013C706.781 173.918 707.627 168.25 709.311 163.304C711.002 158.358 713.386 154.111 716.468 150.564C719.55 147.017 723.254 144.297 727.587 142.399C731.913 140.5 736.672 139.551 741.858 139.551C746.603 139.551 750.908 140.364 754.773 141.985C758.638 143.605 761.93 145.982 764.641 149.101C767.353 152.227 769.449 156.031 770.917 160.528C772.385 165.024 773.119 170.17 773.119 175.966C773.119 177.415 773.084 178.778 773.007 180.049C772.937 181.319 772.797 182.611 772.601 183.91H726.378V184.06C726.671 187.008 727.363 189.641 728.467 191.968C729.565 194.288 731.018 196.251 732.828 197.849C734.631 199.448 736.819 200.683 739.384 201.561C741.949 202.439 744.863 202.874 748.141 202.874C752.341 202.874 756.234 202.253 759.826 201.004C763.418 199.755 766.871 197.935 770.19 195.537L774.146 211.047L774.132 211.032ZM754.249 170.12C754.2 167.822 753.871 165.752 753.263 163.904C752.655 162.055 751.803 160.471 750.706 159.143C749.608 157.823 748.267 156.809 746.68 156.11C745.094 155.41 743.325 155.06 741.376 155.06C739.426 155.06 737.727 155.389 736.141 156.031C734.555 156.681 733.143 157.651 731.899 158.95C730.655 160.249 729.593 161.834 728.719 163.711C727.838 165.581 727.181 167.722 726.741 170.12H754.256H754.249Z" fill="#FFF0DE"/>
<path d="M790.343 198.007C793.523 199.906 796.661 201.34 799.771 202.318C802.874 203.296 806.047 203.781 809.268 203.781C810.981 203.781 812.511 203.617 813.853 203.296C815.195 202.975 816.32 202.511 817.229 201.911C818.13 201.312 818.843 200.598 819.353 199.777C819.863 198.956 820.122 198.043 820.122 197.044C820.122 195.445 819.619 194.081 818.619 192.961C817.613 191.833 816.306 190.841 814.692 189.963C813.077 189.092 811.232 188.264 809.15 187.494C807.067 186.723 804.956 185.873 802.804 184.946C800.651 184.025 798.534 182.976 796.458 181.798C794.375 180.627 792.53 179.178 790.916 177.451C789.302 175.731 788.002 173.668 787.03 171.27C786.052 168.872 785.562 166.024 785.562 162.727C785.562 159.229 786.233 156.06 787.582 153.212C788.924 150.365 790.874 147.952 793.418 145.982C795.962 144.012 799.009 142.471 802.552 141.371C806.095 140.272 810.093 139.723 814.545 139.723C818.459 139.723 822.24 140.172 825.881 141.072C829.522 141.971 832.841 143.291 835.826 145.04L831.793 160.179C829.347 158.58 826.684 157.345 823.798 156.467C820.912 155.596 818.053 155.154 815.216 155.154C813.601 155.154 812.134 155.304 810.813 155.603C809.492 155.903 808.395 156.317 807.514 156.838C806.634 157.359 805.977 158.002 805.536 158.751C805.096 159.501 804.872 160.371 804.872 161.371C804.872 162.919 805.362 164.218 806.34 165.268C807.318 166.317 808.625 167.252 810.268 168.08C811.903 168.901 813.762 169.693 815.845 170.442C817.92 171.192 820.038 172.012 822.191 172.912C824.343 173.811 826.447 174.86 828.501 176.059C830.556 177.259 832.415 178.743 834.078 180.52C835.742 182.29 837.063 184.403 838.041 186.851C839.02 189.299 839.509 192.197 839.509 195.545C839.509 199.192 838.803 202.475 837.384 205.401C835.965 208.321 833.96 210.812 831.367 212.86C828.774 214.909 825.643 216.486 821.974 217.578C818.305 218.67 814.272 219.227 809.869 219.227C807.668 219.227 805.501 219.098 803.377 218.856C801.252 218.606 799.205 218.227 797.248 217.735C795.291 217.235 793.411 216.614 791.601 215.865C789.791 215.116 788.127 214.266 786.611 213.317L790.35 198.028L790.343 198.007Z" fill="#FFF0DE"/>
<path d="M853.804 198.007C856.984 199.906 860.122 201.34 863.232 202.318C866.335 203.296 869.507 203.781 872.729 203.781C874.441 203.781 875.972 203.617 877.314 203.296C878.656 202.975 879.781 202.511 880.689 201.911C881.591 201.312 882.304 200.598 882.814 199.777C883.324 198.956 883.583 198.043 883.583 197.044C883.583 195.445 883.08 194.081 882.08 192.961C881.074 191.833 879.767 190.841 878.153 189.963C876.538 189.092 874.693 188.264 872.61 187.494C870.528 186.723 868.417 185.873 866.265 184.946C864.112 184.025 861.995 182.976 859.919 181.798C857.836 180.627 855.991 179.178 854.377 177.451C852.762 175.731 851.462 173.668 850.491 171.27C849.513 168.872 849.023 166.024 849.023 162.727C849.023 159.229 849.694 156.06 851.043 153.212C852.385 150.365 854.335 147.952 856.879 145.982C859.423 144.012 862.47 142.471 866.013 141.371C869.556 140.272 873.554 139.723 878.006 139.723C881.919 139.723 885.7 140.172 889.342 141.072C892.983 141.971 896.302 143.291 899.287 145.04L895.254 160.179C892.808 158.58 890.145 157.345 887.259 156.467C884.373 155.596 881.514 155.154 878.677 155.154C877.062 155.154 875.595 155.304 874.274 155.603C872.953 155.903 871.856 156.317 870.975 156.838C870.095 157.359 869.438 158.002 868.997 158.751C868.557 159.501 868.333 160.371 868.333 161.371C868.333 162.919 868.823 164.218 869.801 165.268C870.779 166.317 872.086 167.252 873.729 168.08C875.364 168.901 877.223 169.693 879.306 170.442C881.381 171.192 883.499 172.012 885.652 172.912C887.804 173.811 889.908 174.86 891.962 176.059C894.017 177.259 895.876 178.743 897.539 180.52C899.203 182.29 900.524 184.403 901.502 186.851C902.48 189.299 902.97 192.197 902.97 195.545C902.97 199.192 902.264 202.475 900.845 205.401C899.426 208.321 897.421 210.812 894.828 212.86C892.235 214.909 889.104 216.486 885.435 217.578C881.766 218.67 877.733 219.227 873.33 219.227C871.129 219.227 868.962 219.098 866.838 218.856C864.713 218.606 862.665 218.227 860.709 217.735C858.752 217.235 856.872 216.614 855.062 215.865C853.252 215.116 851.588 214.266 850.072 213.317L853.811 198.028L853.804 198.007Z" fill="#FFF0DE"/>
<path d="M952.757 139.55C958.04 139.55 963.016 140.435 967.685 142.212C972.353 143.99 976.448 146.559 979.971 149.928C983.493 153.297 986.282 157.408 988.336 162.254C990.391 167.101 991.418 172.597 991.418 178.742C991.418 184.887 990.391 190.84 988.336 195.865C986.282 200.882 983.472 205.122 979.901 208.562C976.33 212.01 972.136 214.643 967.321 216.47C962.506 218.29 957.278 219.204 951.659 219.204C946.376 219.204 941.379 218.305 936.654 216.506C931.937 214.707 927.814 212.138 924.291 208.791C920.769 205.443 917.981 201.346 915.926 196.5C913.871 191.654 912.844 186.158 912.844 180.012C912.844 173.867 913.871 167.914 915.926 162.89C917.981 157.872 920.804 153.625 924.396 150.149C927.988 146.68 932.224 144.04 937.088 142.241C941.952 140.442 947.172 139.543 952.75 139.543L952.757 139.55ZM951.876 156.337C949.332 156.337 946.914 156.851 944.615 157.872C942.315 158.9 940.289 160.384 938.527 162.333C936.766 164.281 935.362 166.665 934.306 169.492C933.251 172.318 932.727 175.501 932.727 179.049C932.727 182.896 933.265 186.265 934.341 189.163C935.417 192.06 936.85 194.48 938.632 196.428C940.414 198.377 942.497 199.84 944.866 200.811C947.235 201.789 949.772 202.274 952.463 202.274C954.958 202.274 957.369 201.76 959.689 200.739C962.01 199.719 964.043 198.241 965.777 196.321C967.51 194.401 968.894 192.025 969.921 189.205C970.948 186.386 971.458 183.196 971.458 179.648C971.458 175.801 970.941 172.432 969.921 169.535C968.894 166.637 967.489 164.217 965.7 162.269C963.911 160.32 961.821 158.85 959.424 157.851C957.027 156.851 954.511 156.352 951.869 156.352L951.876 156.337Z" fill="#FFF0DE"/>
</svg>
