<svg width="100" height="107" viewBox="0 0 100 107" fill="none" xmlns="http://www.w3.org/2000/svg">
<path d="M88.8889 0H11.1111C4.97461 0 0 5.00384 0 11.1764V94.9994C0 101.172 4.97461 106.176 11.1111 106.176H88.8889C95.0254 106.176 100 101.172 100 94.9994V11.1764C100 5.00384 95.0254 0 88.8889 0Z" fill="#007AF4"/>
<path d="M48.3353 29.0576C52.9377 29.0576 56.6686 25.3047 56.6686 20.6753C56.6686 16.0459 52.9377 12.293 48.3353 12.293C43.7329 12.293 40.002 16.0459 40.002 20.6753C40.002 25.3047 43.7329 29.0576 48.3353 29.0576Z" fill="white"/>
<path d="M48.3353 99.4687C52.9377 99.4687 56.6686 95.7158 56.6686 91.0864C56.6686 86.457 52.9377 82.7041 48.3353 82.7041C43.7329 82.7041 40.002 86.457 40.002 91.0864C40.002 95.7158 43.7329 99.4687 48.3353 99.4687Z" fill="white"/>
<path d="M48.8826 27.9434C47.217 41.355 63.8837 38.0021 63.8837 47.5021C63.8837 53.0903 57.3526 54.6158 48.8826 55.3255C42.2159 55.8844 33.3281 55.8844 33.3281 64.8255C33.3281 73.7666 51.1059 70.9725 48.8826 83.8254M37.9192 37.279C37.9192 54.3666 63.6415 57.7195 63.6415 73.7364" stroke="white" stroke-width="6"/>
</svg>
