<svg width="468" height="238" viewBox="0 0 468 238" fill="none" xmlns="http://www.w3.org/2000/svg">
<path d="M41.4906 25.27L41.0007 25.7012L23.9798 41.125L7.63243 25.0152L7.16303 24.5841C2.91801 20.3704 3.08128 13.707 7.53039 9.68938L8.4896 8.80746C12.9387 4.77022 19.9593 4.927 24.2247 9.12103L24.6941 9.59139L25.184 9.16023C29.6331 5.14258 36.6537 5.29937 40.8987 9.4738L41.8171 10.3949C46.0825 14.6085 45.9193 21.2524 41.4906 25.2896V25.27Z" fill="#10494C"/>
<path d="M149.917 11.6142L125.784 35.3858L121.925 39.1666L118.108 35.3858L109.083 26.508L112.942 22.7271L121.946 31.6049L146.078 7.83331L149.917 11.6142Z" fill="#10494C"/>
<path d="M234.5 28.6504C237.59 28.6504 240.094 26.3445 240.094 23.5C240.094 20.6555 237.59 18.3496 234.5 18.3496C231.41 18.3496 228.906 20.6555 228.906 23.5C228.906 26.3445 231.41 28.6504 234.5 28.6504Z" fill="#10494C"/>
<path d="M234.5 11.75C223.23 11.75 214.083 23.5 214.083 23.5C214.083 23.5 223.23 35.25 234.5 35.25C245.77 35.25 254.917 23.5 254.917 23.5C254.917 23.5 245.77 11.75 234.5 11.75ZM234.5 31.725C229.58 31.725 225.558 28.0433 225.558 23.5C225.558 18.9567 229.559 15.275 234.5 15.275C239.441 15.275 243.443 18.9567 243.443 23.5C243.443 28.0433 239.441 31.725 234.5 31.725Z" fill="#10494C"/>
<path d="M234.5 28.6504C237.59 28.6504 240.094 26.3445 240.094 23.5C240.094 20.6555 237.59 18.3496 234.5 18.3496C231.41 18.3496 228.906 20.6555 228.906 23.5C228.906 26.3445 231.41 28.6504 234.5 28.6504Z" fill="#10494C"/>
<path d="M355 8.75377V43.0834L344.712 37.6784L339 34.6821L333.288 37.6784L323 43.0834V8.75377C323 6.09044 325.4 3.91669 328.328 3.91669H349.656C352.584 3.91669 354.984 6.09044 354.984 8.75377H355Z" fill="#10494C"/>
<path d="M449.627 38.1875C449.627 40.8704 446.87 43.0834 443.502 43.0834C440.133 43.0834 437.377 40.8704 437.377 38.1875H449.627Z" fill="#10494C"/>
<path d="M463.102 37.2084H423.902C423.126 37.2084 422.779 36.3271 423.412 35.8963L430.047 31.4704L431.252 30.315V14.8638C431.252 10.105 435.07 6.22752 439.949 5.8946C440.664 4.7196 441.991 3.91669 443.502 3.91669C445.012 3.91669 446.34 4.7196 447.054 5.8946C451.934 6.22752 455.752 10.105 455.752 14.8638V30.6479L456.466 31.3334C456.63 31.3334 456.813 31.3921 456.956 31.4704L463.592 35.8963C464.225 36.3271 463.877 37.2084 463.102 37.2084Z" fill="#10494C"/>
<path d="M24 99C12.96 99 4 107.96 4 119C4 130.04 12.96 139 24 139C35.04 139 44 130.04 44 119C44 107.96 35.04 99 24 99ZM33.88 126.08L31.08 128.88L24 121.8L16.92 128.88L14.12 126.08L21.2 119L14.12 111.92L16.92 109.12L24 116.2L31.08 109.12L33.88 111.92L26.8 119L33.88 126.08Z" fill="#10494C"/>
<path d="M122.683 119L139.25 135.48L135.725 139L119.216 122.46L115.75 119L119.275 115.54L135.725 99L139.25 102.46L122.683 119Z" fill="#10494C"/>
<path d="M235.92 119L219 135.48L222.6 139L239.46 122.46L243 119L239.4 115.54L222.6 99L219 102.46L235.92 119Z" fill="#10494C"/>
<path d="M335 114.08L351.48 131L355 127.4L338.46 110.54L335 107L331.54 110.6L315 127.4L318.46 131L335 114.08Z" fill="#10494C"/>
<path d="M439.5 123.92L456.323 107L459.917 110.6L443.032 127.46L439.5 131L435.968 127.4L419.083 110.6L422.615 107L439.5 123.92Z" fill="#10494C"/>
<path d="M25.6112 216.184L39.1844 229.462C35.8861 232.34 31.5482 234.083 26.7706 234.083C16.3958 234.083 8 225.858 8 215.695C8 205.531 15.7761 197.933 25.6112 197.345V216.184Z" fill="#10494C"/>
<path d="M48 214.069H27.95V194.917C38.5647 195.543 47.1004 203.729 48 214.069Z" fill="#10494C"/>
<path d="M47.4003 216.36C47.2604 221.276 45.3013 225.741 42.1829 229.188L29.1294 216.36H47.4003Z" fill="#10494C"/>
<path d="M130.286 195.974V233.692C124.137 231.616 118.066 231.792 111.917 234.083V199.186C111.917 196.836 113.483 194.917 115.383 194.917H128.014C128.876 194.917 129.659 195.308 130.266 195.974H130.286Z" fill="#10494C"/>
<path d="M151.083 199.186V234.083C144.934 231.792 138.863 231.616 132.714 233.692V195.974C133.321 195.308 134.105 194.917 134.966 194.917H147.597C149.497 194.917 151.064 196.836 151.064 199.186H151.083Z" fill="#10494C"/>
<path d="M234.64 221.164C237.479 221.164 239.78 218.573 239.78 215.377C239.78 212.182 237.479 209.591 234.64 209.591C231.801 209.591 229.5 212.182 229.5 215.377C229.5 218.573 231.801 221.164 234.64 221.164Z" fill="#10494C"/>
<path d="M246.08 228.558C246.08 229.456 245.42 230.167 244.62 230.167H224.66C223.86 230.167 223.24 229.456 223.24 228.558C223.24 226.344 224.04 224.318 225.32 222.856C226.6 221.393 228.38 220.495 230.38 220.495H230.6C231.68 221.498 233.12 222.104 234.66 222.104C236.2 222.104 237.6 221.498 238.72 220.495H238.92C242.9 220.495 246.1 224.109 246.1 228.537L246.08 228.558Z" fill="#10494C"/>
<path d="M224.98 208.985C227.465 208.985 229.48 206.713 229.48 203.909C229.48 201.106 227.465 198.833 224.98 198.833C222.495 198.833 220.48 201.106 220.48 203.909C220.48 206.713 222.495 208.985 224.98 208.985Z" fill="#10494C"/>
<path d="M228.22 215.377C228.22 216.025 228.3 216.672 228.44 217.278H216.26C215.54 217.278 215 216.672 215 215.858C215 213.936 215.68 212.16 216.82 210.865C217.94 209.612 219.48 208.839 221.24 208.839H221.44C222.38 209.716 223.64 210.218 224.98 210.218C226.32 210.218 227.56 209.696 228.52 208.839H228.7C229.52 208.839 230.32 209.006 231.04 209.361C229.32 210.677 228.22 212.871 228.22 215.377Z" fill="#10494C"/>
<path d="M244.98 208.985C247.465 208.985 249.48 206.713 249.48 203.909C249.48 201.106 247.465 198.833 244.98 198.833C242.495 198.833 240.48 201.106 240.48 203.909C240.48 206.713 242.495 208.985 244.98 208.985Z" fill="#10494C"/>
<path d="M255 215.879C255 216.693 254.42 217.299 253.72 217.299H240.86C241 216.693 241.08 216.046 241.08 215.398C241.08 213.017 240.06 210.886 238.48 209.57C239.3 209.111 240.26 208.86 241.26 208.86H241.46C242.4 209.737 243.66 210.239 245 210.239C246.34 210.239 247.58 209.716 248.54 208.86H248.72C252.2 208.86 255 211.993 255 215.879Z" fill="#10494C"/>
<path d="M339 194.917L345.18 207.803L359 209.878L349 219.905L351.36 234.083L339 227.386L326.64 234.083L329 219.905L319 209.878L332.82 207.803L339 194.917Z" fill="#10494C"/>
<path d="M424.351 226.861C421.227 220.201 423.963 210.446 431.619 203.12C439.827 195.265 450.892 192.777 457.814 196.851C455.997 202.513 451.954 210.27 443.318 213.149C434.886 215.931 428.536 221.866 424.351 226.881V226.861Z" fill="#10494C"/>
<path d="M455.364 225.882C446.176 234.697 433.436 236.715 426.882 230.427C426.658 230.211 426.413 229.957 426.229 229.702C430.108 224.844 436.294 218.771 444.379 216.088C453.771 212.993 458.365 205.196 460.57 199.045C466.552 205.49 464.327 217.302 455.364 225.882Z" fill="#10494C"/>
</svg>
