<svg width="381" height="381" viewBox="0 0 381 381" fill="none" xmlns="http://www.w3.org/2000/svg">
<g clip-path="url(#clip0_131_2)">
<g opacity="0.1">
<path d="M380.753 0.247559H0.248047V380.752H380.753V0.247559Z" fill="#F7941D"/>
</g>
<path d="M381 381H0V0H381V381ZM0.495449 380.505H380.505V0.495449H0.495449V380.505Z" fill="#F7941D"/>
<path d="M361.925 317.583H19.0749C17.3012 317.583 15.8545 316.136 15.8545 314.362V66.6379C15.8545 64.8642 17.3012 63.4175 19.0749 63.4175H361.915C363.689 63.4175 365.136 64.8642 365.136 66.6379V314.352C365.136 316.126 363.689 317.573 361.915 317.573L361.925 317.583ZM19.0749 63.9129C17.5687 63.9129 16.3499 65.1416 16.3499 66.6379V314.352C16.3499 315.858 17.5787 317.077 19.0749 317.077H361.915C363.422 317.077 364.64 315.849 364.64 314.352V66.6379C364.64 65.1317 363.412 63.9129 361.915 63.9129H19.0749Z" fill="#F7941D"/>
<path d="M314.362 365.146H66.6374C64.8637 365.146 63.417 363.699 63.417 361.925V19.0749C63.417 17.3012 64.8637 15.8545 66.6374 15.8545H314.352C316.126 15.8545 317.572 17.3012 317.572 19.0749V361.915C317.572 363.689 316.126 365.136 314.352 365.136L314.362 365.146ZM66.6374 16.3499C65.1312 16.3499 63.9124 17.5787 63.9124 19.0749V361.915C63.9124 363.422 65.1412 364.64 66.6374 364.64H314.352C315.858 364.64 317.077 363.412 317.077 361.915V19.0749C317.077 17.5687 315.848 16.3499 314.352 16.3499H66.6374Z" fill="#F7941D"/>
<path d="M338.144 341.364H42.8562C41.0825 341.364 39.6357 339.917 39.6357 338.144V42.8562C39.6357 41.0825 41.0825 39.6357 42.8562 39.6357H338.134C339.907 39.6357 341.354 41.0825 341.354 42.8562V338.134C341.354 339.907 339.907 341.354 338.134 341.354L338.144 341.364ZM42.8562 40.1312C41.35 40.1312 40.1312 41.3599 40.1312 42.8562V338.134C40.1312 339.64 41.3599 340.859 42.8562 340.859H338.134C339.64 340.859 340.859 339.63 340.859 338.134V42.8562C340.859 41.35 339.63 40.1312 338.134 40.1312H42.8562Z" fill="#F7941D"/>
<path d="M190.5 365.146C143.849 365.146 99.9916 346.983 67.0046 313.996C34.0176 281.009 15.8545 237.152 15.8545 190.5C15.8545 143.849 34.0176 99.9916 67.0046 67.0046C99.9916 34.0176 143.849 15.8545 190.5 15.8545C237.152 15.8545 281.009 34.0176 313.996 67.0046C346.983 99.9916 365.146 143.849 365.146 190.5C365.146 237.152 346.983 281.009 313.996 313.996C281.009 346.983 237.152 365.146 190.5 365.146ZM190.5 16.3499C143.987 16.3499 100.249 34.4635 67.3613 67.3613C34.4735 100.249 16.3499 143.987 16.3499 190.5C16.3499 237.013 34.4635 280.751 67.3613 313.639C100.259 346.527 143.987 364.65 190.5 364.65C237.013 364.65 280.751 346.537 313.639 313.639C346.527 280.751 364.65 237.013 364.65 190.5C364.65 143.987 346.537 100.249 313.639 67.3613C280.741 34.4735 237.013 16.3499 190.5 16.3499Z" fill="#F7941D"/>
<path d="M190.5 270.019C146.653 270.019 110.98 234.347 110.98 190.5C110.98 146.653 146.653 110.98 190.5 110.98C234.347 110.98 270.019 146.653 270.019 190.5C270.019 234.347 234.347 270.019 190.5 270.019ZM190.5 111.476C146.93 111.476 111.476 146.93 111.476 190.5C111.476 234.07 146.93 269.524 190.5 269.524C234.07 269.524 269.524 234.07 269.524 190.5C269.524 146.93 234.07 111.476 190.5 111.476Z" fill="#F7941D"/>
<g opacity="0.3">
<path d="M0.664197 380.792L0.317383 380.445L0.485835 380.267L380.406 0.277344L380.753 0.634067L380.574 0.802519L0.664197 380.792Z" fill="#F7941D"/>
</g>
<g opacity="0.3">
<path d="M380.237 380.574L380.059 380.405L0.267578 0.663709L0.614392 0.316895L0.792754 0.495256L380.584 380.227L380.237 380.574Z" fill="#F7941D"/>
</g>
<g opacity="0.3">
<path d="M135.257 0H134.762V381H135.257V0Z" fill="#F7941D"/>
</g>
<g opacity="0.3">
<path d="M190.747 0H190.252V381H190.747V0Z" fill="#F7941D"/>
</g>
<g opacity="0.3">
<path d="M246.318 0H245.822V381H246.318V0Z" fill="#F7941D"/>
</g>
<g opacity="0.3">
<path d="M380.584 134.911H0.148438V135.109H380.584V134.911Z" fill="#F7941D"/>
</g>
<g opacity="0.3">
<path d="M380.584 190.401H0.148438V190.599H380.584V190.401Z" fill="#F7941D"/>
</g>
<g opacity="0.3">
<path d="M380.732 245.743H0V246.238H380.732V245.743Z" fill="#F7941D"/>
</g>
<path d="M98.3857 189.073V152.043C98.3857 122.564 112.536 102.221 159.99 93.8474C192.214 88.1597 219.027 98.5839 219.027 98.5839C219.741 98.5839 220.355 98.8217 220.831 99.2082C222.496 100.546 221.832 103.261 219.781 103.885C211.398 106.452 165.341 121.721 149.447 151.508C138.715 171.613 122.375 189.073 98.3857 189.073Z" fill="#11494C"/>
<path d="M98.3857 192.61V229.64C98.3857 259.119 112.298 279.463 158.949 287.836C190.628 293.523 216.996 283.099 216.996 283.099C217.69 283.099 218.294 282.861 218.77 282.475C220.415 281.137 219.751 278.422 217.739 277.798C209.495 275.231 164.211 259.962 148.585 230.175C138.041 210.07 121.969 192.61 98.3857 192.61Z" fill="#11494C"/>
<path d="M175.279 350.222C132.859 350.222 92.9753 333.704 62.9709 303.7C1.04972 241.778 1.04972 141.014 62.9808 79.0929C92.9753 49.0985 132.859 32.5703 175.289 32.5703C217.719 32.5703 257.593 49.0886 287.597 79.0929C349.519 141.014 349.519 241.778 287.597 303.7C257.603 333.694 217.719 350.222 175.289 350.222H175.279ZM175.279 68.0147C142.322 68.0147 111.337 80.8468 88.0307 104.153C39.9226 152.261 39.9226 230.532 88.0307 278.64C111.337 301.946 142.322 314.778 175.279 314.778C208.236 314.778 239.222 301.946 262.518 278.64C310.626 230.532 310.626 152.261 262.518 104.153C239.212 80.8468 208.227 68.0147 175.279 68.0147Z" fill="#11494C"/>
<path d="M143.68 184.792C152.013 180.858 160.545 178.014 169.295 175.438C174.338 174.051 179.521 172.713 184.663 172.049C194.989 170.711 204.432 177.994 205.77 188.32C207.107 198.645 199.824 208.088 189.499 209.426C182.612 210.03 175.934 207.662 169.295 206.037C160.545 203.46 152.013 200.617 143.68 196.683C138.735 194.394 138.775 187.071 143.68 184.812V184.792Z" fill="#11494C"/>
<path d="M304.244 187.001C312.578 183.068 321.109 180.224 329.859 177.647C334.903 176.26 340.085 174.922 345.228 174.258C355.553 172.921 364.996 180.204 366.334 190.529C367.672 200.854 360.389 210.297 350.063 211.635C343.177 212.24 336.498 209.871 329.859 208.246C321.109 205.67 312.578 202.826 304.244 198.892C299.3 196.593 299.339 189.28 304.244 187.021V187.001Z" fill="#11494C"/>
</g>
<defs>
<clipPath id="clip0_131_2">
<rect width="381" height="381" fill="white"/>
</clipPath>
</defs>
</svg>
