<svg width="718" height="235" viewBox="0 0 718 235" fill="none" xmlns="http://www.w3.org/2000/svg">
<g filter="url(#filter0_d_199_13898)">
<path d="M137.545 45.7079C137.545 45.7079 124.1 40.3815 107.942 43.2855C84.1464 47.5612 77.0488 57.9562 77.0488 73.0113V91.9238C89.0803 91.9238 97.2764 83.0075 102.654 72.7389C110.621 57.5282 133.724 49.7258 137.923 48.4173C138.949 48.0963 139.284 46.7099 138.448 46.0289C138.209 45.8344 137.903 45.7128 137.545 45.7128V45.7079Z" fill="#FFDAAC"/>
<path d="M136.905 137.254C132.774 135.94 110.062 128.143 102.225 112.932C96.9373 102.664 88.8797 93.7474 77.0488 93.7474V112.66C77.0488 127.715 84.027 138.11 107.426 142.386C123.317 145.29 136.533 139.963 136.533 139.963C136.881 139.963 137.187 139.842 137.421 139.647C138.243 138.966 137.913 137.575 136.905 137.259V137.254Z" fill="#FFDAAC"/>
<path d="M112.593 100.591C115.922 101.423 119.275 102.634 122.723 102.323C127.901 101.642 131.555 96.8161 130.881 91.5432C130.212 86.2703 125.474 82.5491 120.297 83.235C117.718 83.5755 115.119 84.2565 112.588 84.9666C108.203 86.2849 103.919 87.7344 99.7446 89.7483C97.2848 90.9011 97.2657 94.6418 99.7446 95.8141C103.924 97.823 108.203 99.2775 112.588 100.596L112.593 100.591Z" fill="#FFDAAC"/>
<path d="M211.421 92.6747C210.752 87.4018 206.014 83.6806 200.837 84.3664C198.85 84.6291 196.853 85.0961 194.881 85.6166C193.233 67.4094 185.586 49.6644 171.931 35.7573C156.89 20.4396 136.887 12 115.609 12C94.3303 12 74.332 20.4396 59.2915 35.7573C28.2362 67.3851 28.2362 118.85 59.2915 150.477C74.3368 165.8 94.3351 174.235 115.613 174.235C136.892 174.235 156.89 165.795 171.935 150.477C185.209 136.959 192.808 119.813 194.733 102.141C197.536 102.899 200.369 103.712 203.268 103.454C208.445 102.773 212.099 97.9476 211.426 92.6747H211.421ZM159.364 137.679C147.677 149.582 132.139 156.135 115.613 156.135C99.0875 156.135 83.5455 149.577 71.8579 137.679C47.7329 113.11 47.7329 73.1299 71.8579 48.5602C83.5455 36.6572 99.0827 30.105 115.613 30.105C132.144 30.105 147.681 36.6621 159.364 48.5602C183.489 73.1299 183.489 113.11 159.364 137.679Z" fill="#FFDAAC"/>
<path d="M283.037 73.4476H255.711V91.679H280.983V103.426H255.711V122.524H283.037V134.271H241.77V61.7051H283.037V73.4524V73.4476Z" fill="#FFDAAC"/>
<path d="M329.007 134.271L328.252 129.013C326.079 131.192 323.681 132.793 321.059 133.814C318.432 134.836 315.6 135.346 312.562 135.346C309.524 135.346 306.468 134.734 303.812 133.508C301.156 132.282 298.873 130.565 296.968 128.352C295.062 126.138 293.591 123.468 292.554 120.335C291.518 117.203 291.002 113.749 291.002 109.969C291.002 105.611 291.714 101.646 293.132 98.0712C294.551 94.4959 296.643 91.4509 299.399 88.9311C302.155 86.4114 305.551 84.4706 309.577 83.1086C313.603 81.7465 318.227 81.0655 323.442 81.0655H326.098V57.9844L339.486 56.4521V134.276H329.007V134.271ZM326.098 92.6037H322.239C319.23 92.6037 316.622 93.0123 314.415 93.8295C312.209 94.6467 310.37 95.7898 308.899 97.2491C307.428 98.7133 306.343 100.474 305.641 102.537C304.939 104.594 304.59 106.885 304.59 109.405C304.59 111.618 304.848 113.637 305.369 115.456C305.885 117.28 306.639 118.827 307.623 120.102C308.607 121.376 309.806 122.364 311.21 123.064C312.615 123.765 314.2 124.11 315.972 124.11C317.945 124.11 319.789 123.677 321.513 122.806C323.232 121.94 324.765 120.753 326.103 119.255V92.5988L326.098 92.6037Z" fill="#FFDAAC"/>
<path d="M353.072 120.897C355.245 122.191 357.389 123.169 359.515 123.835C361.636 124.501 363.804 124.832 366.006 124.832C367.176 124.832 368.222 124.72 369.139 124.501C370.056 124.282 370.825 123.966 371.446 123.558C372.062 123.149 372.549 122.663 372.898 122.103C373.247 121.544 373.423 120.921 373.423 120.24C373.423 119.151 373.08 118.221 372.396 117.458C371.709 116.689 370.816 116.013 369.712 115.415C368.609 114.821 367.348 114.257 365.925 113.732C364.501 113.206 363.059 112.628 361.588 111.995C360.117 111.368 358.669 110.653 357.251 109.85C355.828 109.052 354.567 108.065 353.463 106.888C352.36 105.715 351.472 104.31 350.808 102.675C350.139 101.041 349.805 99.0999 349.805 96.8526C349.805 94.469 350.263 92.3093 351.185 90.3684C352.102 88.4276 353.435 86.7834 355.173 85.4409C356.912 84.0983 358.994 83.0476 361.416 82.2985C363.837 81.5494 366.569 81.1749 369.612 81.1749C372.287 81.1749 374.871 81.4813 377.359 82.0942C379.847 82.7071 382.116 83.607 384.156 84.7988L381.4 95.116C379.728 94.0264 377.908 93.1849 375.936 92.5866C373.963 91.9931 372.01 91.6915 370.07 91.6915C368.967 91.6915 367.964 91.7937 367.061 91.998C366.159 92.2023 365.409 92.4844 364.807 92.8395C364.205 93.1946 363.756 93.6324 363.455 94.1431C363.154 94.6539 363.002 95.2473 363.002 95.9283C363.002 96.9839 363.336 97.8692 364.005 98.5843C364.673 99.2993 365.566 99.9365 366.689 100.501C367.806 101.06 369.077 101.6 370.5 102.111C371.919 102.622 373.366 103.181 374.837 103.794C376.308 104.407 377.746 105.122 379.15 105.939C380.554 106.756 381.825 107.768 382.962 108.979C384.098 110.186 385.001 111.625 385.67 113.294C386.338 114.962 386.673 116.937 386.673 119.219C386.673 121.704 386.19 123.942 385.221 125.936C384.251 127.926 382.88 129.623 381.108 131.02C379.336 132.416 377.197 133.491 374.689 134.235C372.182 134.979 369.426 135.358 366.417 135.358C364.912 135.358 363.431 135.271 361.979 135.106C360.527 134.935 359.128 134.677 357.791 134.342C356.453 134.001 355.168 133.578 353.931 133.067C352.694 132.557 351.558 131.978 350.521 131.331L353.076 120.911L353.072 120.897Z" fill="#FFDAAC"/>
<path d="M396.443 82.14H406.961L407.663 87.3983C409.865 85.2531 412.277 83.6625 414.899 82.6216C417.521 81.5855 420.334 81.065 423.339 81.065C426.51 81.065 429.424 81.6681 432.079 82.8794C434.735 84.0906 437.013 85.8077 438.919 88.0355C440.82 90.2634 442.291 92.9388 443.327 96.0519C444.364 99.1651 444.88 102.633 444.88 106.442C444.88 110.801 444.178 114.76 442.778 118.316C441.374 121.872 439.296 124.912 436.545 127.432C433.789 129.951 430.403 131.892 426.381 133.254C422.359 134.616 417.746 135.312 412.535 135.346H409.831V157.508L396.443 158.938V82.1351V82.14ZM409.831 123.808H413.686C416.685 123.808 419.298 123.409 421.514 122.606C423.73 121.808 425.56 120.665 426.992 119.187C428.425 117.708 429.5 115.937 430.221 113.875C430.938 111.817 431.296 109.507 431.296 106.953C431.296 104.74 431.038 102.731 430.522 100.926C430.006 99.1213 429.256 97.5793 428.273 96.3049C427.289 95.0304 426.095 94.0332 424.695 93.3182C423.296 92.6031 421.71 92.248 419.943 92.248C417.975 92.248 416.131 92.681 414.417 93.5517C412.697 94.4175 411.173 95.619 409.841 97.1513V123.808H409.831Z" fill="#FFDAAC"/>
<path d="M455.078 82.1351H465.595L466.551 88.5706C467.448 87.3448 468.361 86.2649 469.278 85.3261C470.195 84.3922 471.136 83.5993 472.105 82.9523C473.07 82.3054 474.078 81.8287 475.129 81.5222C476.18 81.2158 477.288 81.065 478.453 81.065C479.418 81.065 480.311 81.1574 481.128 81.3471C481.944 81.5368 482.718 81.8141 483.454 82.1886L482.403 94.1889C481.667 93.8143 480.927 93.5322 480.177 93.3474C479.427 93.1625 478.668 93.0652 477.904 93.0652C477.14 93.0652 476.371 93.1771 475.606 93.396C474.842 93.6198 474.064 93.9749 473.28 94.471C472.497 94.9672 471.704 95.6142 470.907 96.4119C470.109 97.2145 469.292 98.2263 468.456 99.4521V134.281H455.068V82.14L455.078 82.1351Z" fill="#FFDAAC"/>
<path d="M533.525 129.781C530.784 131.586 527.794 132.962 524.55 133.916C521.307 134.869 517.816 135.346 514.071 135.346C509.926 135.346 506.214 134.743 502.938 133.531C499.661 132.325 496.877 130.569 494.589 128.273C492.301 125.977 490.543 123.166 489.325 119.848C488.103 116.531 487.496 112.795 487.496 108.641C487.496 104.487 488.074 100.624 489.225 97.2534C490.381 93.8825 492.01 90.9882 494.116 88.5706C496.222 86.153 498.754 84.2997 501.715 83.0058C504.672 81.7119 507.924 81.065 511.468 81.065C514.711 81.065 517.654 81.6195 520.295 82.7237C522.936 83.8279 525.186 85.4477 527.039 87.5734C528.892 89.704 530.325 92.2967 531.328 95.3612C532.331 98.4257 532.833 101.933 532.833 105.883C532.833 106.87 532.809 107.799 532.756 108.665C532.708 109.531 532.613 110.411 532.479 111.297H500.889V111.399C501.089 113.408 501.562 115.203 502.317 116.789C503.067 118.369 504.06 119.707 505.297 120.797C506.53 121.886 508.025 122.728 509.777 123.326C511.53 123.924 513.522 124.221 515.762 124.221C518.633 124.221 521.293 123.798 523.748 122.947C526.203 122.095 528.563 120.855 530.831 119.221L533.535 129.791L533.525 129.781ZM519.937 101.899C519.903 100.333 519.679 98.9219 519.263 97.662C518.848 96.4022 518.265 95.3223 517.515 94.4175C516.765 93.5176 515.848 92.8269 514.764 92.3502C513.68 91.8735 512.471 91.6351 511.139 91.6351C509.806 91.6351 508.645 91.8589 507.561 92.2967C506.477 92.7393 505.512 93.4009 504.662 94.2862C503.812 95.1715 503.086 96.2514 502.489 97.5307C501.887 98.8051 501.438 100.264 501.137 101.899H519.941H519.937Z" fill="#FFDAAC"/>
<path d="M544.589 120.897C546.762 122.191 548.907 123.169 551.032 123.835C553.153 124.501 555.322 124.832 557.523 124.832C558.694 124.832 559.74 124.72 560.657 124.501C561.574 124.282 562.343 123.966 562.964 123.558C563.58 123.149 564.067 122.663 564.416 122.103C564.764 121.544 564.941 120.921 564.941 120.24C564.941 119.151 564.597 118.221 563.914 117.458C563.226 116.689 562.333 116.013 561.23 115.415C560.127 114.821 558.866 114.257 557.442 113.732C556.019 113.206 554.576 112.628 553.105 111.995C551.634 111.368 550.187 110.653 548.769 109.85C547.345 109.052 546.084 108.065 544.981 106.888C543.878 105.715 542.989 104.31 542.325 102.675C541.657 101.041 541.322 99.0999 541.322 96.8526C541.322 94.469 541.781 92.3093 542.703 90.3684C543.62 88.4276 544.952 86.7834 546.691 85.4409C548.429 84.0983 550.512 83.0476 552.933 82.2985C555.355 81.5494 558.087 81.1749 561.129 81.1749C563.804 81.1749 566.388 81.4813 568.877 82.0942C571.365 82.7071 573.634 83.607 575.673 84.7988L572.917 95.116C571.246 94.0264 569.426 93.1849 567.453 92.5866C565.481 91.9931 563.527 91.6915 561.588 91.6915C560.485 91.6915 559.482 91.7937 558.579 91.998C557.676 92.2023 556.926 92.4844 556.325 92.8395C555.723 93.1946 555.274 93.6324 554.973 94.1431C554.672 94.6539 554.519 95.2473 554.519 95.9283C554.519 96.9839 554.853 97.8692 555.522 98.5843C556.191 99.2993 557.084 99.9365 558.206 100.501C559.324 101.06 560.595 101.6 562.018 102.111C563.436 102.622 564.884 103.181 566.355 103.794C567.826 104.407 569.264 105.122 570.668 105.939C572.072 106.756 573.342 107.768 574.479 108.979C575.616 110.186 576.519 111.625 577.187 113.294C577.856 114.962 578.19 116.937 578.19 119.219C578.19 121.704 577.708 123.942 576.738 125.936C575.769 127.926 574.398 129.623 572.626 131.02C570.854 132.416 568.714 133.491 566.207 134.235C563.699 134.979 560.943 135.358 557.934 135.358C556.43 135.358 554.949 135.271 553.497 135.106C552.045 134.935 550.646 134.677 549.308 134.342C547.971 134.001 546.686 133.578 545.449 133.067C544.212 132.557 543.075 131.978 542.039 131.331L544.594 120.911L544.589 120.897Z" fill="#FFDAAC"/>
<path d="M587.954 120.897C590.128 122.191 592.272 123.169 594.398 123.835C596.518 124.501 598.687 124.832 600.889 124.832C602.059 124.832 603.105 124.72 604.022 124.501C604.939 124.282 605.708 123.966 606.329 123.558C606.945 123.149 607.432 122.663 607.781 122.103C608.129 121.544 608.306 120.921 608.306 120.24C608.306 119.151 607.962 118.221 607.279 117.458C606.591 116.689 605.698 116.013 604.595 115.415C603.492 114.821 602.231 114.257 600.807 113.732C599.384 113.206 597.942 112.628 596.471 111.995C594.999 111.368 593.552 110.653 592.134 109.85C590.71 109.052 589.449 108.065 588.346 106.888C587.243 105.715 586.354 104.31 585.691 102.675C585.022 101.041 584.688 99.0999 584.688 96.8526C584.688 94.469 585.146 92.3093 586.068 90.3684C586.985 88.4276 588.317 86.7834 590.056 85.4409C591.795 84.0983 593.877 83.0476 596.299 82.2985C598.72 81.5494 601.452 81.1749 604.495 81.1749C607.169 81.1749 609.753 81.4813 612.242 82.0942C614.73 82.7071 616.999 83.607 619.038 84.7988L616.283 95.116C614.611 94.0264 612.791 93.1849 610.819 92.5866C608.846 91.9931 606.892 91.6915 604.953 91.6915C603.85 91.6915 602.847 91.7937 601.944 91.998C601.041 92.2023 600.292 92.4844 599.69 92.8395C599.088 93.1946 598.639 93.6324 598.338 94.1431C598.037 94.6539 597.884 95.2473 597.884 95.9283C597.884 96.9839 598.219 97.8692 598.887 98.5843C599.556 99.2993 600.449 99.9365 601.572 100.501C602.689 101.06 603.96 101.6 605.383 102.111C606.802 102.622 608.249 103.181 609.72 103.794C611.191 104.407 612.629 105.122 614.033 105.939C615.437 106.756 616.708 107.768 617.844 108.979C618.981 110.186 619.884 111.625 620.553 113.294C621.221 114.962 621.556 116.937 621.556 119.219C621.556 121.704 621.073 123.942 620.104 125.936C619.134 127.926 617.763 129.623 615.991 131.02C614.219 132.416 612.079 133.491 609.572 134.235C607.064 134.979 604.308 135.358 601.299 135.358C599.795 135.358 598.314 135.271 596.862 135.106C595.41 134.935 594.011 134.677 592.673 134.342C591.336 134.001 590.051 133.578 588.814 133.067C587.577 132.557 586.44 131.978 585.404 131.331L587.959 120.911L587.954 120.897Z" fill="#FFDAAC"/>
<path d="M655.578 81.0625C659.189 81.0625 662.59 81.6657 665.78 82.8769C668.971 84.0881 671.77 85.8393 674.177 88.1352C676.584 90.4312 678.49 93.233 679.894 96.5359C681.298 99.8388 682.001 103.584 682.001 107.772C682.001 111.961 681.298 116.017 679.894 119.442C678.49 122.862 676.57 125.751 674.129 128.096C671.689 130.445 668.823 132.24 665.532 133.485C662.241 134.726 658.668 135.348 654.828 135.348C651.217 135.348 647.802 134.735 644.574 133.51C641.35 132.284 638.532 130.533 636.124 128.251C633.717 125.97 631.811 123.178 630.407 119.875C629.003 116.572 628.301 112.826 628.301 108.638C628.301 104.45 629.003 100.393 630.407 96.9688C631.811 93.5492 633.741 90.6549 636.196 88.286C638.651 85.922 641.545 84.1222 644.87 82.8964C648.194 81.6706 651.762 81.0576 655.573 81.0576L655.578 81.0625ZM654.976 92.5034C653.238 92.5034 651.585 92.8536 650.014 93.5492C648.442 94.2497 647.057 95.2615 645.854 96.5894C644.65 97.9174 643.69 99.5421 642.969 101.468C642.248 103.395 641.889 105.564 641.889 107.982C641.889 110.604 642.257 112.899 642.993 114.874C643.728 116.849 644.707 118.498 645.925 119.826C647.143 121.154 648.567 122.151 650.186 122.813C651.805 123.479 653.539 123.81 655.378 123.81C657.083 123.81 658.73 123.46 660.316 122.764C661.902 122.069 663.292 121.062 664.476 119.753C665.661 118.445 666.607 116.825 667.309 114.904C668.011 112.982 668.359 110.808 668.359 108.39C668.359 105.768 668.006 103.472 667.309 101.498C666.607 99.5226 665.647 97.8736 664.424 96.5456C663.201 95.2177 661.773 94.2156 660.135 93.5346C658.496 92.8536 656.777 92.5131 654.972 92.5131L654.976 92.5034Z" fill="#FFDAAC"/>
</g>
<defs>
<filter id="filter0_d_199_13898" x="0" y="0" width="718" height="234.235" filterUnits="userSpaceOnUse" color-interpolation-filters="sRGB">
<feFlood flood-opacity="0" result="BackgroundImageFix"/>
<feColorMatrix in="SourceAlpha" type="matrix" values="0 0 0 0 0 0 0 0 0 0 0 0 0 0 0 0 0 0 127 0" result="hardAlpha"/>
<feMorphology radius="12" operator="erode" in="SourceAlpha" result="effect1_dropShadow_199_13898"/>
<feOffset dy="24"/>
<feGaussianBlur stdDeviation="24"/>
<feColorMatrix type="matrix" values="0 0 0 0 0.0625882 0 0 0 0 0.0926346 0 0 0 0 0.15702 0 0 0 0.25 0"/>
<feBlend mode="normal" in2="BackgroundImageFix" result="effect1_dropShadow_199_13898"/>
<feBlend mode="normal" in="SourceGraphic" in2="effect1_dropShadow_199_13898" result="shape"/>
</filter>
</defs>
</svg>
