<svg width="290" height="345" viewBox="0 0 290 345" fill="none" xmlns="http://www.w3.org/2000/svg">
<path d="M28.7051 160H22.4385V146.434H9.83789V160H3.59375V128.083H9.83789V141.2H22.4385V128.083H28.7051V160ZM55.0518 158.023C53.8239 158.817 52.4837 159.424 51.0312 159.843C49.5788 160.262 48.014 160.472 46.3369 160.472C44.4801 160.472 42.818 160.21 41.3506 159.686C39.8831 159.146 38.6328 158.375 37.5996 157.372C36.5814 156.354 35.7952 155.118 35.2412 153.666C34.7021 152.199 34.4326 150.551 34.4326 148.725C34.4326 146.868 34.6872 145.198 35.1963 143.716C35.7204 142.233 36.4541 140.961 37.3975 139.897C38.3408 138.834 39.4714 138.018 40.7891 137.449C42.1217 136.88 43.5817 136.596 45.1689 136.596C46.6214 136.596 47.9391 136.843 49.1221 137.337C50.305 137.816 51.3083 138.527 52.1318 139.471C52.9704 140.399 53.6143 141.537 54.0635 142.885C54.5127 144.232 54.7373 145.775 54.7373 147.512C54.7373 147.946 54.7223 148.358 54.6924 148.747C54.6774 149.121 54.64 149.503 54.5801 149.893H40.4072V149.938C40.4971 150.821 40.7067 151.615 41.0361 152.318C41.3805 153.007 41.8298 153.591 42.3838 154.07C42.9378 154.549 43.6042 154.924 44.3828 155.193C45.1764 155.448 46.0749 155.575 47.0781 155.575C48.3659 155.575 49.5563 155.388 50.6494 155.014C51.7575 154.639 52.8206 154.093 53.8389 153.374L55.0518 158.023ZM48.9648 145.76C48.9499 145.071 48.8451 144.45 48.6504 143.896C48.4707 143.341 48.2087 142.87 47.8643 142.48C47.5348 142.076 47.123 141.769 46.6289 141.56C46.1497 141.35 45.6107 141.245 45.0117 141.245C44.4277 141.245 43.8887 141.342 43.3945 141.537C42.9154 141.732 42.4811 142.024 42.0918 142.413C41.7174 142.802 41.3955 143.282 41.126 143.851C40.8564 144.405 40.6543 145.041 40.5195 145.76H48.9648ZM59.6338 139.605C60.9515 138.662 62.4189 137.936 64.0361 137.427C65.6533 136.903 67.3978 136.641 69.2695 136.641C70.8118 136.641 72.1895 136.828 73.4023 137.202C74.6152 137.562 75.6335 138.123 76.457 138.887C77.2956 139.635 77.932 140.586 78.3662 141.739C78.8005 142.877 79.0176 144.247 79.0176 145.85V153.554C79.0176 154.812 79.5417 155.44 80.5898 155.44C80.9193 155.44 81.2113 155.388 81.4658 155.283C81.7354 155.163 82.0049 154.999 82.2744 154.789L82.8359 159.349C82.3268 159.663 81.7578 159.91 81.1289 160.09C80.5 160.27 79.7738 160.359 78.9502 160.359C77.7223 160.359 76.7041 160.127 75.8955 159.663C75.1019 159.199 74.5029 158.607 74.0986 157.889C73.7243 158.233 73.305 158.57 72.8408 158.899C72.3766 159.214 71.8525 159.491 71.2686 159.73C70.6995 159.955 70.0781 160.135 69.4043 160.27C68.7305 160.404 68.0117 160.472 67.248 160.472C66.0501 160.472 64.972 160.307 64.0137 159.978C63.0703 159.648 62.2617 159.191 61.5879 158.607C60.9141 158.023 60.3975 157.335 60.0381 156.541C59.6937 155.732 59.5215 154.856 59.5215 153.913C59.5215 152.79 59.7536 151.794 60.2178 150.926C60.6969 150.057 61.3783 149.324 62.2617 148.725C63.1452 148.111 64.2233 147.654 65.4961 147.354C66.7689 147.04 68.1989 146.883 69.7861 146.883C70.4001 146.883 70.9691 146.905 71.4932 146.95C72.0322 146.995 72.5413 147.062 73.0205 147.152V146.164C73.0205 145.326 72.9157 144.622 72.7061 144.053C72.4964 143.469 72.182 142.99 71.7627 142.615C71.3584 142.241 70.8568 141.979 70.2578 141.829C69.6738 141.664 69 141.582 68.2363 141.582C66.8138 141.582 65.5036 141.822 64.3057 142.301C63.1227 142.765 61.9847 143.394 60.8916 144.188L59.6338 139.605ZM73.0205 151.33C72.5563 151.225 72.0846 151.15 71.6055 151.105C71.1413 151.061 70.6471 151.038 70.123 151.038C69.3594 151.038 68.6855 151.098 68.1016 151.218C67.5176 151.323 67.0309 151.487 66.6416 151.712C66.2523 151.922 65.9603 152.184 65.7656 152.498C65.571 152.812 65.4736 153.172 65.4736 153.576C65.4736 153.951 65.541 154.28 65.6758 154.564C65.8255 154.849 66.0277 155.096 66.2822 155.306C66.5518 155.5 66.8737 155.65 67.248 155.755C67.6224 155.845 68.0492 155.89 68.5283 155.89C69.5166 155.89 70.3851 155.71 71.1338 155.351C71.8975 154.976 72.5264 154.497 73.0205 153.913V151.33ZM102.265 160L101.928 157.687C100.954 158.645 99.8763 159.349 98.6934 159.798C97.5254 160.247 96.2601 160.472 94.8975 160.472C93.4749 160.472 92.1647 160.202 90.9668 159.663C89.7839 159.124 88.7656 158.368 87.9121 157.395C87.0586 156.421 86.3997 155.246 85.9355 153.868C85.4714 152.491 85.2393 150.971 85.2393 149.309C85.2393 147.392 85.5537 145.647 86.1826 144.075C86.8265 142.503 87.7624 141.163 88.9902 140.055C90.2331 138.947 91.7529 138.093 93.5498 137.494C95.3617 136.895 97.4355 136.596 99.7715 136.596C99.9811 136.596 100.176 136.596 100.355 136.596C100.55 136.596 100.752 136.596 100.962 136.596V126.443L106.959 125.77V160H102.265ZM100.962 141.672C100.662 141.672 100.37 141.672 100.086 141.672C99.8164 141.672 99.5319 141.672 99.2324 141.672C97.8848 141.672 96.7168 141.852 95.7285 142.211C94.7402 142.57 93.9167 143.072 93.2578 143.716C92.599 144.36 92.1123 145.138 91.7979 146.052C91.4834 146.95 91.3262 147.953 91.3262 149.062C91.3262 150.035 91.4385 150.926 91.6631 151.734C91.9027 152.528 92.2396 153.209 92.6738 153.778C93.123 154.332 93.6621 154.767 94.291 155.081C94.9199 155.381 95.6312 155.53 96.4248 155.53C97.3083 155.53 98.1318 155.343 98.8955 154.969C99.6742 154.579 100.363 154.055 100.962 153.396V141.672ZM113.518 137.067H119.492V160H113.518V137.067ZM116.505 125.77C117.074 125.77 117.598 125.874 118.077 126.084C118.556 126.279 118.976 126.556 119.335 126.915C119.694 127.259 119.971 127.679 120.166 128.173C120.376 128.652 120.48 129.169 120.48 129.723C120.48 130.292 120.376 130.816 120.166 131.295C119.971 131.774 119.694 132.193 119.335 132.553C118.976 132.897 118.556 133.174 118.077 133.384C117.598 133.578 117.074 133.676 116.505 133.676C115.936 133.676 115.412 133.578 114.933 133.384C114.453 133.174 114.034 132.897 113.675 132.553C113.315 132.193 113.031 131.774 112.821 131.295C112.627 130.816 112.529 130.292 112.529 129.723C112.529 129.169 112.627 128.652 112.821 128.173C113.031 127.679 113.315 127.259 113.675 126.915C114.034 126.556 114.453 126.279 114.933 126.084C115.412 125.874 115.936 125.77 116.505 125.77ZM126.051 137.067H130.745L131.06 139.269C131.928 138.445 132.924 137.794 134.047 137.314C135.17 136.835 136.428 136.596 137.82 136.596C139.048 136.596 140.194 136.79 141.257 137.18C142.335 137.569 143.271 138.16 144.064 138.954C144.873 139.733 145.509 140.721 145.974 141.919C146.438 143.117 146.67 144.524 146.67 146.142V160H140.673V146.838C140.673 145.865 140.553 145.041 140.313 144.367C140.089 143.693 139.774 143.147 139.37 142.728C138.966 142.308 138.502 142.001 137.978 141.807C137.453 141.612 136.907 141.515 136.338 141.515C135.544 141.515 134.773 141.702 134.024 142.076C133.291 142.436 132.624 142.952 132.025 143.626V160H126.051V137.067ZM170.703 141.762C170.583 141.762 170.479 141.762 170.389 141.762C170.299 141.747 170.201 141.739 170.097 141.739C170.261 142.174 170.396 142.623 170.501 143.087C170.606 143.551 170.658 144.038 170.658 144.547C170.658 145.835 170.411 146.988 169.917 148.006C169.438 149.024 168.771 149.885 167.918 150.589C167.079 151.278 166.076 151.809 164.908 152.184C163.755 152.558 162.505 152.753 161.157 152.768C160.978 152.768 160.805 152.768 160.641 152.768C160.491 152.768 160.334 152.753 160.169 152.723C159.944 152.992 159.772 153.269 159.652 153.554C159.533 153.838 159.473 154.153 159.473 154.497C159.473 154.752 159.525 154.991 159.63 155.216C159.735 155.44 159.884 155.643 160.079 155.822C160.289 155.987 160.528 156.122 160.798 156.227C161.082 156.316 161.397 156.361 161.741 156.361H164.032C165.41 156.361 166.638 156.519 167.716 156.833C168.809 157.132 169.73 157.582 170.479 158.181C171.242 158.78 171.826 159.506 172.23 160.359C172.65 161.228 172.859 162.209 172.859 163.302C172.859 164.515 172.597 165.615 172.073 166.604C171.549 167.607 170.793 168.453 169.805 169.142C168.831 169.83 167.633 170.354 166.211 170.714C164.803 171.088 163.201 171.275 161.404 171.275C159.742 171.275 158.245 171.103 156.912 170.759C155.579 170.429 154.441 169.943 153.498 169.299C152.57 168.67 151.858 167.899 151.364 166.985C150.87 166.087 150.623 165.069 150.623 163.931C150.623 163.167 150.728 162.441 150.938 161.752C151.162 161.078 151.477 160.464 151.881 159.91C152.3 159.356 152.809 158.877 153.408 158.473C154.007 158.053 154.674 157.716 155.407 157.462C154.958 157.147 154.614 156.743 154.374 156.249C154.134 155.755 154.015 155.186 154.015 154.542C154.015 153.928 154.127 153.352 154.352 152.812C154.591 152.258 154.928 151.757 155.362 151.308C154.269 150.634 153.401 149.758 152.757 148.68C152.128 147.602 151.813 146.321 151.813 144.839C151.813 143.521 152.061 142.353 152.555 141.335C153.064 140.302 153.745 139.433 154.599 138.729C155.467 138.026 156.485 137.494 157.653 137.135C158.821 136.775 160.079 136.596 161.427 136.596C162.041 136.596 162.632 136.633 163.201 136.708C163.77 136.768 164.317 136.888 164.841 137.067H172.904V141.762H170.703ZM160.371 160.921C159.038 160.921 158.02 161.168 157.316 161.662C156.613 162.156 156.261 162.823 156.261 163.661C156.261 164.11 156.388 164.522 156.643 164.896C156.897 165.271 157.249 165.593 157.698 165.862C158.162 166.132 158.731 166.341 159.405 166.491C160.079 166.641 160.828 166.716 161.651 166.716C162.49 166.716 163.239 166.633 163.897 166.469C164.571 166.319 165.14 166.102 165.604 165.817C166.084 165.548 166.451 165.218 166.705 164.829C166.96 164.455 167.087 164.035 167.087 163.571C167.087 162.763 166.75 162.119 166.076 161.64C165.402 161.16 164.489 160.921 163.336 160.921H160.371ZM161.202 141.155C160.693 141.155 160.206 141.238 159.742 141.402C159.278 141.567 158.874 141.807 158.529 142.121C158.2 142.436 157.93 142.81 157.721 143.244C157.511 143.678 157.406 144.165 157.406 144.704C157.406 145.243 157.511 145.73 157.721 146.164C157.93 146.598 158.207 146.98 158.552 147.31C158.896 147.624 159.3 147.871 159.765 148.051C160.244 148.215 160.753 148.298 161.292 148.298C161.786 148.298 162.258 148.215 162.707 148.051C163.156 147.871 163.553 147.624 163.897 147.31C164.242 146.995 164.511 146.628 164.706 146.209C164.916 145.775 165.021 145.296 165.021 144.771C165.021 144.232 164.916 143.738 164.706 143.289C164.511 142.84 164.234 142.458 163.875 142.144C163.531 141.814 163.126 141.567 162.662 141.402C162.213 141.238 161.726 141.155 161.202 141.155ZM193.793 134.664C192.88 135.203 191.974 135.727 191.075 136.236C190.177 136.73 189.293 137.202 188.425 137.651L186.336 133.361C187.085 132.942 187.803 132.53 188.492 132.126C189.181 131.707 189.855 131.287 190.514 130.868C191.188 130.449 191.861 130.015 192.535 129.565C193.209 129.101 193.913 128.607 194.646 128.083H199.88V160H193.793V134.664Z" fill="#4E4F54"/>
<path d="M23.7129 226H18.5361V214.793H8.12695V226H2.96875V199.634H8.12695V210.47H18.5361V199.634H23.7129V226ZM45.4775 224.367C44.4632 225.023 43.3561 225.524 42.1562 225.87C40.9564 226.216 39.6637 226.39 38.2783 226.39C36.7445 226.39 35.3714 226.173 34.1592 225.74C32.9469 225.295 31.9141 224.658 31.0605 223.829C30.2194 222.988 29.57 221.967 29.1123 220.768C28.667 219.555 28.4443 218.195 28.4443 216.686C28.4443 215.152 28.6546 213.772 29.0752 212.548C29.5081 211.323 30.1143 210.272 30.8936 209.394C31.6729 208.515 32.6068 207.841 33.6953 207.371C34.7962 206.901 36.0023 206.666 37.3135 206.666C38.5133 206.666 39.6019 206.87 40.5791 207.278C41.5563 207.674 42.3851 208.262 43.0654 209.041C43.7581 209.808 44.29 210.748 44.6611 211.861C45.0322 212.975 45.2178 214.249 45.2178 215.684C45.2178 216.042 45.2054 216.382 45.1807 216.704C45.1683 217.013 45.1374 217.329 45.0879 217.65H33.3799V217.688C33.4541 218.417 33.6273 219.073 33.8994 219.654C34.1839 220.223 34.555 220.706 35.0127 221.102C35.4704 221.497 36.0208 221.807 36.6641 222.029C37.3197 222.24 38.0618 222.345 38.8906 222.345C39.9544 222.345 40.9378 222.19 41.8408 221.881C42.7562 221.572 43.6344 221.12 44.4756 220.526L45.4775 224.367ZM40.4492 214.236C40.4368 213.667 40.3503 213.154 40.1895 212.696C40.041 212.239 39.8245 211.849 39.54 211.527C39.2679 211.193 38.9277 210.94 38.5195 210.767C38.1237 210.593 37.6784 210.507 37.1836 210.507C36.7012 210.507 36.2559 210.587 35.8477 210.748C35.4518 210.909 35.0931 211.15 34.7715 211.472C34.4622 211.793 34.1963 212.189 33.9736 212.659C33.751 213.117 33.584 213.643 33.4727 214.236H40.4492ZM49.2627 209.152C50.3512 208.373 51.5635 207.773 52.8994 207.353C54.2354 206.92 55.6764 206.703 57.2227 206.703C58.4967 206.703 59.6348 206.858 60.6367 207.167C61.6387 207.464 62.4798 207.928 63.1602 208.559C63.8529 209.177 64.3786 209.963 64.7373 210.915C65.096 211.855 65.2754 212.987 65.2754 214.311V220.675C65.2754 221.714 65.7083 222.233 66.5742 222.233C66.8464 222.233 67.0876 222.19 67.2979 222.104C67.5205 222.005 67.7432 221.868 67.9658 221.695L68.4297 225.462C68.0091 225.722 67.5391 225.926 67.0195 226.074C66.5 226.223 65.9001 226.297 65.2197 226.297C64.2054 226.297 63.3643 226.105 62.6963 225.722C62.0407 225.338 61.5459 224.85 61.2119 224.256C60.9027 224.54 60.5563 224.819 60.1729 225.091C59.7894 225.351 59.3564 225.579 58.874 225.777C58.404 225.963 57.8906 226.111 57.334 226.223C56.7773 226.334 56.1836 226.39 55.5527 226.39C54.5632 226.39 53.6725 226.254 52.8809 225.981C52.1016 225.709 51.4336 225.332 50.877 224.85C50.3203 224.367 49.8936 223.798 49.5967 223.143C49.3122 222.475 49.1699 221.751 49.1699 220.972C49.1699 220.044 49.3617 219.221 49.7451 218.504C50.141 217.786 50.7038 217.18 51.4336 216.686C52.1634 216.178 53.054 215.801 54.1055 215.554C55.1569 215.294 56.3382 215.164 57.6494 215.164C58.1566 215.164 58.6266 215.183 59.0596 215.22C59.5049 215.257 59.9255 215.312 60.3213 215.387V214.57C60.3213 213.878 60.2347 213.296 60.0615 212.826C59.8883 212.344 59.6286 211.948 59.2822 211.639C58.9482 211.329 58.5339 211.113 58.0391 210.989C57.5566 210.853 57 210.785 56.3691 210.785C55.194 210.785 54.1117 210.983 53.1221 211.379C52.1449 211.762 51.2048 212.282 50.3018 212.938L49.2627 209.152ZM60.3213 218.838C59.9378 218.751 59.5482 218.689 59.1523 218.652C58.7689 218.615 58.3607 218.597 57.9277 218.597C57.2969 218.597 56.7402 218.646 56.2578 218.745C55.7754 218.832 55.3734 218.968 55.0518 219.153C54.7301 219.326 54.4889 219.543 54.3281 219.803C54.1673 220.062 54.0869 220.359 54.0869 220.693C54.0869 221.003 54.1426 221.275 54.2539 221.51C54.3776 221.745 54.5446 221.949 54.7549 222.122C54.9775 222.283 55.2435 222.407 55.5527 222.493C55.862 222.567 56.2145 222.604 56.6104 222.604C57.4268 222.604 58.1442 222.456 58.7627 222.159C59.3936 221.85 59.9131 221.454 60.3213 220.972V218.838ZM84.4795 226L84.2012 224.089C83.3971 224.881 82.5065 225.462 81.5293 225.833C80.5645 226.204 79.5192 226.39 78.3936 226.39C77.2184 226.39 76.1361 226.167 75.1465 225.722C74.1693 225.276 73.3281 224.652 72.623 223.848C71.918 223.044 71.3737 222.073 70.9902 220.935C70.6068 219.797 70.415 218.541 70.415 217.168C70.415 215.585 70.6748 214.144 71.1943 212.845C71.7262 211.546 72.4993 210.439 73.5137 209.523C74.5404 208.608 75.7959 207.903 77.2803 207.408C78.777 206.913 80.4902 206.666 82.4199 206.666C82.5931 206.666 82.7539 206.666 82.9023 206.666C83.0632 206.666 83.2301 206.666 83.4033 206.666V198.279L88.3574 197.723V226H84.4795ZM83.4033 210.859C83.1559 210.859 82.9147 210.859 82.6797 210.859C82.457 210.859 82.222 210.859 81.9746 210.859C80.8613 210.859 79.8965 211.008 79.0801 211.305C78.2637 211.602 77.5833 212.016 77.0391 212.548C76.4948 213.08 76.0928 213.723 75.833 214.478C75.5732 215.22 75.4434 216.049 75.4434 216.964C75.4434 217.768 75.5361 218.504 75.7217 219.172C75.9196 219.827 76.1979 220.39 76.5566 220.86C76.9277 221.318 77.373 221.677 77.8926 221.937C78.4121 222.184 78.9997 222.308 79.6553 222.308C80.3851 222.308 81.0654 222.153 81.6963 221.844C82.3395 221.522 82.9085 221.089 83.4033 220.545V210.859ZM93.7754 207.056H98.7109V226H93.7754V207.056ZM96.2432 197.723C96.7132 197.723 97.1462 197.809 97.542 197.982C97.9378 198.143 98.2842 198.372 98.5811 198.669C98.8779 198.953 99.1068 199.3 99.2676 199.708C99.4408 200.104 99.5273 200.531 99.5273 200.988C99.5273 201.458 99.4408 201.891 99.2676 202.287C99.1068 202.683 98.8779 203.029 98.5811 203.326C98.2842 203.611 97.9378 203.84 97.542 204.013C97.1462 204.174 96.7132 204.254 96.2432 204.254C95.7731 204.254 95.3402 204.174 94.9443 204.013C94.5485 203.84 94.2021 203.611 93.9053 203.326C93.6084 203.029 93.3734 202.683 93.2002 202.287C93.0394 201.891 92.959 201.458 92.959 200.988C92.959 200.531 93.0394 200.104 93.2002 199.708C93.3734 199.3 93.6084 198.953 93.9053 198.669C94.2021 198.372 94.5485 198.143 94.9443 197.982C95.3402 197.809 95.7731 197.723 96.2432 197.723ZM104.129 207.056H108.007L108.267 208.874C108.984 208.194 109.807 207.656 110.734 207.26C111.662 206.864 112.701 206.666 113.852 206.666C114.866 206.666 115.812 206.827 116.69 207.148C117.581 207.47 118.354 207.959 119.01 208.614C119.678 209.257 120.203 210.074 120.587 211.063C120.97 212.053 121.162 213.216 121.162 214.552V226H116.208V215.127C116.208 214.323 116.109 213.643 115.911 213.086C115.726 212.529 115.466 212.078 115.132 211.731C114.798 211.385 114.414 211.132 113.981 210.971C113.549 210.81 113.097 210.729 112.627 210.729C111.971 210.729 111.334 210.884 110.716 211.193C110.11 211.49 109.559 211.917 109.064 212.474V226H104.129V207.056ZM141.016 210.934C140.917 210.934 140.83 210.934 140.756 210.934C140.682 210.921 140.601 210.915 140.515 210.915C140.651 211.274 140.762 211.645 140.849 212.028C140.935 212.412 140.979 212.814 140.979 213.234C140.979 214.298 140.774 215.251 140.366 216.092C139.97 216.933 139.42 217.644 138.715 218.226C138.022 218.795 137.193 219.234 136.229 219.543C135.276 219.852 134.243 220.013 133.13 220.025C132.981 220.025 132.839 220.025 132.703 220.025C132.579 220.025 132.45 220.013 132.313 219.988C132.128 220.211 131.986 220.44 131.887 220.675C131.788 220.91 131.738 221.17 131.738 221.454C131.738 221.664 131.782 221.862 131.868 222.048C131.955 222.233 132.078 222.4 132.239 222.549C132.412 222.685 132.61 222.796 132.833 222.883C133.068 222.957 133.328 222.994 133.612 222.994H135.505C136.643 222.994 137.657 223.124 138.548 223.384C139.451 223.631 140.212 224.002 140.83 224.497C141.461 224.992 141.943 225.592 142.277 226.297C142.624 227.014 142.797 227.825 142.797 228.728C142.797 229.729 142.58 230.639 142.147 231.455C141.715 232.284 141.09 232.983 140.273 233.552C139.469 234.121 138.48 234.554 137.305 234.851C136.142 235.16 134.818 235.314 133.334 235.314C131.961 235.314 130.724 235.172 129.623 234.888C128.522 234.616 127.582 234.214 126.803 233.682C126.036 233.162 125.448 232.525 125.04 231.771C124.632 231.028 124.428 230.187 124.428 229.247C124.428 228.616 124.514 228.016 124.688 227.447C124.873 226.891 125.133 226.383 125.467 225.926C125.813 225.468 126.234 225.072 126.729 224.738C127.223 224.392 127.774 224.114 128.38 223.903C128.009 223.644 127.724 223.31 127.526 222.901C127.328 222.493 127.229 222.023 127.229 221.491C127.229 220.984 127.322 220.508 127.508 220.062C127.706 219.605 127.984 219.19 128.343 218.819C127.44 218.263 126.722 217.539 126.19 216.648C125.671 215.758 125.411 214.7 125.411 213.476C125.411 212.387 125.615 211.422 126.023 210.581C126.444 209.728 127.007 209.01 127.712 208.429C128.429 207.847 129.271 207.408 130.235 207.111C131.2 206.814 132.239 206.666 133.353 206.666C133.86 206.666 134.348 206.697 134.818 206.759C135.288 206.808 135.74 206.907 136.173 207.056H142.834V210.934H141.016ZM132.48 226.761C131.38 226.761 130.538 226.965 129.957 227.373C129.376 227.781 129.085 228.332 129.085 229.024C129.085 229.396 129.19 229.736 129.4 230.045C129.611 230.354 129.901 230.62 130.272 230.843C130.656 231.065 131.126 231.239 131.683 231.362C132.239 231.486 132.858 231.548 133.538 231.548C134.231 231.548 134.849 231.48 135.394 231.344C135.95 231.22 136.42 231.041 136.804 230.806C137.2 230.583 137.503 230.311 137.713 229.989C137.923 229.68 138.028 229.334 138.028 228.95C138.028 228.282 137.75 227.75 137.193 227.354C136.637 226.959 135.882 226.761 134.93 226.761H132.48ZM133.167 210.433C132.746 210.433 132.344 210.501 131.961 210.637C131.577 210.773 131.243 210.971 130.959 211.23C130.687 211.49 130.464 211.799 130.291 212.158C130.118 212.517 130.031 212.919 130.031 213.364C130.031 213.81 130.118 214.212 130.291 214.57C130.464 214.929 130.693 215.244 130.978 215.517C131.262 215.776 131.596 215.98 131.979 216.129C132.375 216.265 132.796 216.333 133.241 216.333C133.649 216.333 134.039 216.265 134.41 216.129C134.781 215.98 135.109 215.776 135.394 215.517C135.678 215.257 135.901 214.954 136.062 214.607C136.235 214.249 136.321 213.853 136.321 213.42C136.321 212.975 136.235 212.566 136.062 212.195C135.901 211.824 135.672 211.509 135.375 211.249C135.09 210.977 134.757 210.773 134.373 210.637C134.002 210.501 133.6 210.433 133.167 210.433ZM171.037 226H154.598C154.561 225.666 154.53 225.338 154.505 225.017C154.493 224.683 154.486 224.355 154.486 224.033C154.486 222.92 154.647 221.899 154.969 220.972C155.303 220.044 155.736 219.19 156.268 218.411C156.799 217.632 157.406 216.908 158.086 216.24C158.766 215.56 159.459 214.923 160.164 214.329C160.882 213.723 161.58 213.135 162.261 212.566C162.953 211.997 163.566 211.428 164.098 210.859C164.63 210.278 165.056 209.684 165.378 209.078C165.712 208.46 165.879 207.804 165.879 207.111C165.879 206.555 165.78 206.054 165.582 205.608C165.384 205.163 165.1 204.786 164.729 204.477C164.37 204.155 163.924 203.914 163.393 203.753C162.873 203.58 162.298 203.493 161.667 203.493C160.616 203.493 159.62 203.666 158.68 204.013C157.74 204.359 156.83 204.872 155.952 205.553L154.913 201.675C155.915 200.908 157.059 200.314 158.346 199.894C159.632 199.461 161.055 199.244 162.613 199.244C163.9 199.244 165.062 199.411 166.102 199.745C167.153 200.079 168.037 200.562 168.755 201.192C169.485 201.811 170.048 202.565 170.443 203.456C170.839 204.334 171.037 205.33 171.037 206.443C171.037 207.433 170.901 208.336 170.629 209.152C170.357 209.956 169.998 210.705 169.553 211.397C169.107 212.09 168.588 212.74 167.994 213.346C167.4 213.939 166.782 214.508 166.139 215.053C165.508 215.585 164.871 216.11 164.228 216.63C163.597 217.149 163.003 217.675 162.446 218.207C161.89 218.739 161.395 219.296 160.962 219.877C160.541 220.446 160.226 221.058 160.016 221.714H171.037V226Z" fill="#4E4F54"/>
<path d="M18.7207 285H14.6338V276.152H6.41602V285H2.34375V264.185H6.41602V272.739H14.6338V264.185H18.7207V285ZM35.9033 283.711C35.1025 284.229 34.2285 284.624 33.2812 284.897C32.334 285.171 31.3135 285.308 30.2197 285.308C29.0088 285.308 27.9248 285.137 26.9678 284.795C26.0107 284.443 25.1953 283.94 24.5215 283.286C23.8574 282.622 23.3447 281.816 22.9834 280.869C22.6318 279.912 22.4561 278.838 22.4561 277.646C22.4561 276.436 22.6221 275.347 22.9541 274.38C23.2959 273.413 23.7744 272.583 24.3896 271.89C25.0049 271.196 25.7422 270.664 26.6016 270.293C27.4707 269.922 28.4229 269.736 29.458 269.736C30.4053 269.736 31.2646 269.897 32.0361 270.22C32.8076 270.532 33.4619 270.996 33.999 271.611C34.5459 272.217 34.9658 272.959 35.2588 273.838C35.5518 274.717 35.6982 275.723 35.6982 276.855C35.6982 277.139 35.6885 277.407 35.6689 277.661C35.6592 277.905 35.6348 278.154 35.5957 278.408H26.3525V278.438C26.4111 279.014 26.5479 279.531 26.7627 279.99C26.9873 280.439 27.2803 280.82 27.6416 281.133C28.0029 281.445 28.4375 281.689 28.9453 281.865C29.4629 282.031 30.0488 282.114 30.7031 282.114C31.543 282.114 32.3193 281.992 33.0322 281.748C33.7549 281.504 34.4482 281.147 35.1123 280.679L35.9033 283.711ZM31.9336 275.713C31.9238 275.264 31.8555 274.858 31.7285 274.497C31.6113 274.136 31.4404 273.828 31.2158 273.574C31.001 273.311 30.7324 273.11 30.4102 272.974C30.0977 272.837 29.7461 272.769 29.3555 272.769C28.9746 272.769 28.623 272.832 28.3008 272.959C27.9883 273.086 27.7051 273.276 27.4512 273.53C27.207 273.784 26.9971 274.097 26.8213 274.468C26.6455 274.829 26.5137 275.244 26.4258 275.713H31.9336ZM38.8916 271.699C39.751 271.084 40.708 270.61 41.7627 270.278C42.8174 269.937 43.9551 269.766 45.1758 269.766C46.1816 269.766 47.0801 269.888 47.8711 270.132C48.6621 270.366 49.3262 270.732 49.8633 271.23C50.4102 271.719 50.8252 272.339 51.1084 273.091C51.3916 273.833 51.5332 274.727 51.5332 275.771V280.796C51.5332 281.616 51.875 282.026 52.5586 282.026C52.7734 282.026 52.9639 281.992 53.1299 281.924C53.3057 281.846 53.4814 281.738 53.6572 281.602L54.0234 284.575C53.6914 284.78 53.3203 284.941 52.9102 285.059C52.5 285.176 52.0264 285.234 51.4893 285.234C50.6885 285.234 50.0244 285.083 49.4971 284.78C48.9795 284.478 48.5889 284.092 48.3252 283.623C48.0811 283.848 47.8076 284.067 47.5049 284.282C47.2021 284.487 46.8604 284.668 46.4795 284.824C46.1084 284.971 45.7031 285.088 45.2637 285.176C44.8242 285.264 44.3555 285.308 43.8574 285.308C43.0762 285.308 42.373 285.2 41.748 284.985C41.1328 284.771 40.6055 284.473 40.166 284.092C39.7266 283.711 39.3896 283.262 39.1553 282.744C38.9307 282.217 38.8184 281.646 38.8184 281.03C38.8184 280.298 38.9697 279.648 39.2725 279.082C39.585 278.516 40.0293 278.037 40.6055 277.646C41.1816 277.246 41.8848 276.948 42.7148 276.753C43.5449 276.548 44.4775 276.445 45.5127 276.445C45.9131 276.445 46.2842 276.46 46.626 276.489C46.9775 276.519 47.3096 276.562 47.6221 276.621V275.977C47.6221 275.43 47.5537 274.971 47.417 274.6C47.2803 274.219 47.0752 273.906 46.8018 273.662C46.5381 273.418 46.2109 273.247 45.8203 273.149C45.4395 273.042 45 272.988 44.502 272.988C43.5742 272.988 42.7197 273.145 41.9385 273.457C41.167 273.76 40.4248 274.17 39.7119 274.688L38.8916 271.699ZM47.6221 279.346C47.3193 279.277 47.0117 279.229 46.6992 279.199C46.3965 279.17 46.0742 279.155 45.7324 279.155C45.2344 279.155 44.7949 279.194 44.4141 279.272C44.0332 279.341 43.7158 279.448 43.4619 279.595C43.208 279.731 43.0176 279.902 42.8906 280.107C42.7637 280.312 42.7002 280.547 42.7002 280.811C42.7002 281.055 42.7441 281.27 42.832 281.455C42.9297 281.641 43.0615 281.802 43.2275 281.938C43.4033 282.065 43.6133 282.163 43.8574 282.231C44.1016 282.29 44.3799 282.319 44.6924 282.319C45.3369 282.319 45.9033 282.202 46.3916 281.968C46.8896 281.724 47.2998 281.411 47.6221 281.03V279.346ZM66.6943 285L66.4746 283.491C65.8398 284.116 65.1367 284.575 64.3652 284.868C63.6035 285.161 62.7783 285.308 61.8896 285.308C60.9619 285.308 60.1074 285.132 59.3262 284.78C58.5547 284.429 57.8906 283.936 57.334 283.301C56.7773 282.666 56.3477 281.899 56.0449 281.001C55.7422 280.103 55.5908 279.111 55.5908 278.027C55.5908 276.777 55.7959 275.64 56.2061 274.614C56.626 273.589 57.2363 272.715 58.0371 271.992C58.8477 271.27 59.8389 270.713 61.0107 270.322C62.1924 269.932 63.5449 269.736 65.0684 269.736C65.2051 269.736 65.332 269.736 65.4492 269.736C65.5762 269.736 65.708 269.736 65.8447 269.736V263.115L69.7559 262.676V285H66.6943ZM65.8447 273.047C65.6494 273.047 65.459 273.047 65.2734 273.047C65.0977 273.047 64.9121 273.047 64.7168 273.047C63.8379 273.047 63.0762 273.164 62.4316 273.398C61.7871 273.633 61.25 273.96 60.8203 274.38C60.3906 274.8 60.0732 275.308 59.8682 275.903C59.6631 276.489 59.5605 277.144 59.5605 277.866C59.5605 278.501 59.6338 279.082 59.7803 279.609C59.9365 280.127 60.1562 280.571 60.4395 280.942C60.7324 281.304 61.084 281.587 61.4941 281.792C61.9043 281.987 62.3682 282.085 62.8857 282.085C63.4619 282.085 63.999 281.963 64.4971 281.719C65.0049 281.465 65.4541 281.123 65.8447 280.693V273.047ZM74.0332 270.044H77.9297V285H74.0332V270.044ZM75.9814 262.676C76.3525 262.676 76.6943 262.744 77.0068 262.881C77.3193 263.008 77.5928 263.188 77.8271 263.423C78.0615 263.647 78.2422 263.921 78.3691 264.243C78.5059 264.556 78.5742 264.893 78.5742 265.254C78.5742 265.625 78.5059 265.967 78.3691 266.279C78.2422 266.592 78.0615 266.865 77.8271 267.1C77.5928 267.324 77.3193 267.505 77.0068 267.642C76.6943 267.769 76.3525 267.832 75.9814 267.832C75.6104 267.832 75.2686 267.769 74.9561 267.642C74.6436 267.505 74.3701 267.324 74.1357 267.1C73.9014 266.865 73.7158 266.592 73.5791 266.279C73.4521 265.967 73.3887 265.625 73.3887 265.254C73.3887 264.893 73.4521 264.556 73.5791 264.243C73.7158 263.921 73.9014 263.647 74.1357 263.423C74.3701 263.188 74.6436 263.008 74.9561 262.881C75.2686 262.744 75.6104 262.676 75.9814 262.676ZM82.207 270.044H85.2686L85.4736 271.479C86.04 270.942 86.6895 270.518 87.4219 270.205C88.1543 269.893 88.9746 269.736 89.8828 269.736C90.6836 269.736 91.4307 269.863 92.124 270.117C92.8271 270.371 93.4375 270.757 93.9551 271.274C94.4824 271.782 94.8975 272.427 95.2002 273.208C95.5029 273.989 95.6543 274.907 95.6543 275.962V285H91.7432V276.416C91.7432 275.781 91.665 275.244 91.5088 274.805C91.3623 274.365 91.1572 274.009 90.8936 273.735C90.6299 273.462 90.3271 273.262 89.9854 273.135C89.6436 273.008 89.2871 272.944 88.916 272.944C88.3984 272.944 87.8955 273.066 87.4072 273.311C86.9287 273.545 86.4941 273.882 86.1035 274.321V285H82.207V270.044ZM111.328 273.105C111.25 273.105 111.182 273.105 111.123 273.105C111.064 273.096 111.001 273.091 110.933 273.091C111.04 273.374 111.128 273.667 111.196 273.97C111.265 274.272 111.299 274.59 111.299 274.922C111.299 275.762 111.138 276.514 110.815 277.178C110.503 277.842 110.068 278.403 109.512 278.862C108.965 279.312 108.311 279.658 107.549 279.902C106.797 280.146 105.981 280.273 105.103 280.283C104.985 280.283 104.873 280.283 104.766 280.283C104.668 280.283 104.565 280.273 104.458 280.254C104.312 280.43 104.199 280.61 104.121 280.796C104.043 280.981 104.004 281.187 104.004 281.411C104.004 281.577 104.038 281.733 104.106 281.88C104.175 282.026 104.272 282.158 104.399 282.275C104.536 282.383 104.692 282.471 104.868 282.539C105.054 282.598 105.259 282.627 105.483 282.627H106.978C107.876 282.627 108.677 282.729 109.38 282.935C110.093 283.13 110.693 283.423 111.182 283.813C111.68 284.204 112.061 284.678 112.324 285.234C112.598 285.801 112.734 286.44 112.734 287.153C112.734 287.944 112.563 288.662 112.222 289.307C111.88 289.961 111.387 290.513 110.742 290.962C110.107 291.411 109.326 291.753 108.398 291.987C107.48 292.231 106.436 292.354 105.264 292.354C104.18 292.354 103.203 292.241 102.334 292.017C101.465 291.802 100.723 291.484 100.107 291.064C99.502 290.654 99.0381 290.151 98.7158 289.556C98.3936 288.97 98.2324 288.306 98.2324 287.563C98.2324 287.065 98.3008 286.592 98.4375 286.143C98.584 285.703 98.7891 285.303 99.0527 284.941C99.3262 284.58 99.6582 284.268 100.049 284.004C100.439 283.73 100.874 283.511 101.353 283.345C101.06 283.14 100.835 282.876 100.679 282.554C100.522 282.231 100.444 281.86 100.444 281.44C100.444 281.04 100.518 280.664 100.664 280.312C100.82 279.951 101.04 279.624 101.323 279.331C100.61 278.892 100.044 278.32 99.624 277.617C99.2139 276.914 99.0088 276.079 99.0088 275.112C99.0088 274.253 99.1699 273.491 99.4922 272.827C99.8242 272.153 100.269 271.587 100.825 271.128C101.392 270.669 102.056 270.322 102.817 270.088C103.579 269.854 104.399 269.736 105.278 269.736C105.679 269.736 106.064 269.761 106.436 269.81C106.807 269.849 107.163 269.927 107.505 270.044H112.764V273.105H111.328ZM104.59 285.601C103.721 285.601 103.057 285.762 102.598 286.084C102.139 286.406 101.909 286.841 101.909 287.388C101.909 287.681 101.992 287.949 102.158 288.193C102.324 288.438 102.554 288.647 102.847 288.823C103.149 288.999 103.521 289.136 103.96 289.233C104.399 289.331 104.888 289.38 105.425 289.38C105.972 289.38 106.46 289.326 106.89 289.219C107.329 289.121 107.7 288.979 108.003 288.794C108.315 288.618 108.555 288.403 108.721 288.149C108.887 287.905 108.97 287.632 108.97 287.329C108.97 286.802 108.75 286.382 108.311 286.069C107.871 285.757 107.275 285.601 106.523 285.601H104.59ZM105.132 272.71C104.8 272.71 104.482 272.764 104.18 272.871C103.877 272.979 103.613 273.135 103.389 273.34C103.174 273.545 102.998 273.789 102.861 274.072C102.725 274.355 102.656 274.673 102.656 275.024C102.656 275.376 102.725 275.693 102.861 275.977C102.998 276.26 103.179 276.509 103.403 276.724C103.628 276.929 103.892 277.09 104.194 277.207C104.507 277.314 104.839 277.368 105.19 277.368C105.513 277.368 105.82 277.314 106.113 277.207C106.406 277.09 106.665 276.929 106.89 276.724C107.114 276.519 107.29 276.279 107.417 276.006C107.554 275.723 107.622 275.41 107.622 275.068C107.622 274.717 107.554 274.395 107.417 274.102C107.29 273.809 107.109 273.56 106.875 273.354C106.65 273.14 106.387 272.979 106.084 272.871C105.791 272.764 105.474 272.71 105.132 272.71ZM124.307 272.915H126.313C126.997 272.915 127.612 272.842 128.159 272.695C128.706 272.539 129.17 272.324 129.551 272.051C129.932 271.777 130.225 271.45 130.43 271.069C130.635 270.688 130.737 270.273 130.737 269.824C130.737 269.404 130.664 269.028 130.518 268.696C130.381 268.364 130.176 268.086 129.902 267.861C129.639 267.627 129.312 267.451 128.921 267.334C128.53 267.217 128.091 267.158 127.603 267.158C126.831 267.158 126.074 267.29 125.332 267.554C124.59 267.808 123.901 268.188 123.267 268.696L122.476 265.737C123.286 265.142 124.17 264.683 125.127 264.36C126.094 264.038 127.139 263.877 128.262 263.877C129.287 263.877 130.2 264.004 131.001 264.258C131.812 264.512 132.495 264.878 133.052 265.356C133.618 265.835 134.048 266.416 134.341 267.1C134.644 267.773 134.795 268.525 134.795 269.355C134.795 269.902 134.717 270.41 134.561 270.879C134.414 271.338 134.199 271.763 133.916 272.153C133.643 272.534 133.311 272.876 132.92 273.179C132.539 273.481 132.124 273.745 131.675 273.97C132.944 274.438 133.906 275.098 134.561 275.947C135.215 276.797 135.542 277.832 135.542 279.053C135.542 280.02 135.352 280.889 134.971 281.66C134.6 282.432 134.072 283.086 133.389 283.623C132.715 284.16 131.904 284.575 130.957 284.868C130.02 285.161 128.984 285.308 127.852 285.308C126.748 285.308 125.698 285.186 124.702 284.941C123.706 284.697 122.812 284.341 122.021 283.872L122.856 280.767C123.56 281.177 124.316 281.494 125.127 281.719C125.938 281.943 126.802 282.056 127.72 282.056C128.286 282.056 128.799 281.987 129.258 281.851C129.727 281.704 130.122 281.504 130.444 281.25C130.776 280.986 131.03 280.674 131.206 280.312C131.382 279.941 131.47 279.536 131.47 279.097C131.47 278.618 131.372 278.188 131.177 277.808C130.981 277.427 130.684 277.104 130.283 276.841C129.893 276.577 129.39 276.377 128.774 276.24C128.169 276.104 127.456 276.035 126.636 276.035H124.307V272.915Z" fill="#4E4F54"/>
<path d="M14.9766 339H11.707V331.922H5.13281V339H1.875V322.348H5.13281V329.191H11.707V322.348H14.9766V339ZM28.7227 337.969C28.082 338.383 27.3828 338.699 26.625 338.918C25.8672 339.137 25.0508 339.246 24.1758 339.246C23.207 339.246 22.3398 339.109 21.5742 338.836C20.8086 338.555 20.1562 338.152 19.6172 337.629C19.0859 337.098 18.6758 336.453 18.3867 335.695C18.1055 334.93 17.9648 334.07 17.9648 333.117C17.9648 332.148 18.0977 331.277 18.3633 330.504C18.6367 329.73 19.0195 329.066 19.5117 328.512C20.0039 327.957 20.5938 327.531 21.2812 327.234C21.9766 326.938 22.7383 326.789 23.5664 326.789C24.3242 326.789 25.0117 326.918 25.6289 327.176C26.2461 327.426 26.7695 327.797 27.1992 328.289C27.6367 328.773 27.9727 329.367 28.207 330.07C28.4414 330.773 28.5586 331.578 28.5586 332.484C28.5586 332.711 28.5508 332.926 28.5352 333.129C28.5273 333.324 28.5078 333.523 28.4766 333.727H21.082V333.75C21.1289 334.211 21.2383 334.625 21.4102 334.992C21.5898 335.352 21.8242 335.656 22.1133 335.906C22.4023 336.156 22.75 336.352 23.1562 336.492C23.5703 336.625 24.0391 336.691 24.5625 336.691C25.2344 336.691 25.8555 336.594 26.4258 336.398C27.0039 336.203 27.5586 335.918 28.0898 335.543L28.7227 337.969ZM25.5469 331.57C25.5391 331.211 25.4844 330.887 25.3828 330.598C25.2891 330.309 25.1523 330.062 24.9727 329.859C24.8008 329.648 24.5859 329.488 24.3281 329.379C24.0781 329.27 23.7969 329.215 23.4844 329.215C23.1797 329.215 22.8984 329.266 22.6406 329.367C22.3906 329.469 22.1641 329.621 21.9609 329.824C21.7656 330.027 21.5977 330.277 21.457 330.574C21.3164 330.863 21.2109 331.195 21.1406 331.57H25.5469ZM31.1133 328.359C31.8008 327.867 32.5664 327.488 33.4102 327.223C34.2539 326.949 35.1641 326.812 36.1406 326.812C36.9453 326.812 37.6641 326.91 38.2969 327.105C38.9297 327.293 39.4609 327.586 39.8906 327.984C40.3281 328.375 40.6602 328.871 40.8867 329.473C41.1133 330.066 41.2266 330.781 41.2266 331.617V335.637C41.2266 336.293 41.5 336.621 42.0469 336.621C42.2188 336.621 42.3711 336.594 42.5039 336.539C42.6445 336.477 42.7852 336.391 42.9258 336.281L43.2188 338.66C42.9531 338.824 42.6562 338.953 42.3281 339.047C42 339.141 41.6211 339.188 41.1914 339.188C40.5508 339.188 40.0195 339.066 39.5977 338.824C39.1836 338.582 38.8711 338.273 38.6602 337.898C38.4648 338.078 38.2461 338.254 38.0039 338.426C37.7617 338.59 37.4883 338.734 37.1836 338.859C36.8867 338.977 36.5625 339.07 36.2109 339.141C35.8594 339.211 35.4844 339.246 35.0859 339.246C34.4609 339.246 33.8984 339.16 33.3984 338.988C32.9062 338.816 32.4844 338.578 32.1328 338.273C31.7812 337.969 31.5117 337.609 31.3242 337.195C31.1445 336.773 31.0547 336.316 31.0547 335.824C31.0547 335.238 31.1758 334.719 31.418 334.266C31.668 333.812 32.0234 333.43 32.4844 333.117C32.9453 332.797 33.5078 332.559 34.1719 332.402C34.8359 332.238 35.582 332.156 36.4102 332.156C36.7305 332.156 37.0273 332.168 37.3008 332.191C37.582 332.215 37.8477 332.25 38.0977 332.297V331.781C38.0977 331.344 38.043 330.977 37.9336 330.68C37.8242 330.375 37.6602 330.125 37.4414 329.93C37.2305 329.734 36.9688 329.598 36.6562 329.52C36.3516 329.434 36 329.391 35.6016 329.391C34.8594 329.391 34.1758 329.516 33.5508 329.766C32.9336 330.008 32.3398 330.336 31.7695 330.75L31.1133 328.359ZM38.0977 334.477C37.8555 334.422 37.6094 334.383 37.3594 334.359C37.1172 334.336 36.8594 334.324 36.5859 334.324C36.1875 334.324 35.8359 334.355 35.5312 334.418C35.2266 334.473 34.9727 334.559 34.7695 334.676C34.5664 334.785 34.4141 334.922 34.3125 335.086C34.2109 335.25 34.1602 335.438 34.1602 335.648C34.1602 335.844 34.1953 336.016 34.2656 336.164C34.3438 336.312 34.4492 336.441 34.582 336.551C34.7227 336.652 34.8906 336.73 35.0859 336.785C35.2812 336.832 35.5039 336.855 35.7539 336.855C36.2695 336.855 36.7227 336.762 37.1133 336.574C37.5117 336.379 37.8398 336.129 38.0977 335.824V334.477ZM53.3555 339L53.1797 337.793C52.6719 338.293 52.1094 338.66 51.4922 338.895C50.8828 339.129 50.2227 339.246 49.5117 339.246C48.7695 339.246 48.0859 339.105 47.4609 338.824C46.8438 338.543 46.3125 338.148 45.8672 337.641C45.4219 337.133 45.0781 336.52 44.8359 335.801C44.5938 335.082 44.4727 334.289 44.4727 333.422C44.4727 332.422 44.6367 331.512 44.9648 330.691C45.3008 329.871 45.7891 329.172 46.4297 328.594C47.0781 328.016 47.8711 327.57 48.8086 327.258C49.7539 326.945 50.8359 326.789 52.0547 326.789C52.1641 326.789 52.2656 326.789 52.3594 326.789C52.4609 326.789 52.5664 326.789 52.6758 326.789V321.492L55.8047 321.141V339H53.3555ZM52.6758 329.438C52.5195 329.438 52.3672 329.438 52.2188 329.438C52.0781 329.438 51.9297 329.438 51.7734 329.438C51.0703 329.438 50.4609 329.531 49.9453 329.719C49.4297 329.906 49 330.168 48.6562 330.504C48.3125 330.84 48.0586 331.246 47.8945 331.723C47.7305 332.191 47.6484 332.715 47.6484 333.293C47.6484 333.801 47.707 334.266 47.8242 334.688C47.9492 335.102 48.125 335.457 48.3516 335.754C48.5859 336.043 48.8672 336.27 49.1953 336.434C49.5234 336.59 49.8945 336.668 50.3086 336.668C50.7695 336.668 51.1992 336.57 51.5977 336.375C52.0039 336.172 52.3633 335.898 52.6758 335.555V329.438ZM59.2266 327.035H62.3438V339H59.2266V327.035ZM60.7852 321.141C61.082 321.141 61.3555 321.195 61.6055 321.305C61.8555 321.406 62.0742 321.551 62.2617 321.738C62.4492 321.918 62.5938 322.137 62.6953 322.395C62.8047 322.645 62.8594 322.914 62.8594 323.203C62.8594 323.5 62.8047 323.773 62.6953 324.023C62.5938 324.273 62.4492 324.492 62.2617 324.68C62.0742 324.859 61.8555 325.004 61.6055 325.113C61.3555 325.215 61.082 325.266 60.7852 325.266C60.4883 325.266 60.2148 325.215 59.9648 325.113C59.7148 325.004 59.4961 324.859 59.3086 324.68C59.1211 324.492 58.9727 324.273 58.8633 324.023C58.7617 323.773 58.7109 323.5 58.7109 323.203C58.7109 322.914 58.7617 322.645 58.8633 322.395C58.9727 322.137 59.1211 321.918 59.3086 321.738C59.4961 321.551 59.7148 321.406 59.9648 321.305C60.2148 321.195 60.4883 321.141 60.7852 321.141ZM65.7656 327.035H68.2148L68.3789 328.184C68.832 327.754 69.3516 327.414 69.9375 327.164C70.5234 326.914 71.1797 326.789 71.9062 326.789C72.5469 326.789 73.1445 326.891 73.6992 327.094C74.2617 327.297 74.75 327.605 75.1641 328.02C75.5859 328.426 75.918 328.941 76.1602 329.566C76.4023 330.191 76.5234 330.926 76.5234 331.77V339H73.3945V332.133C73.3945 331.625 73.332 331.195 73.207 330.844C73.0898 330.492 72.9258 330.207 72.7148 329.988C72.5039 329.77 72.2617 329.609 71.9883 329.508C71.7148 329.406 71.4297 329.355 71.1328 329.355C70.7188 329.355 70.3164 329.453 69.9258 329.648C69.543 329.836 69.1953 330.105 68.8828 330.457V339H65.7656V327.035ZM89.0625 329.484C89 329.484 88.9453 329.484 88.8984 329.484C88.8516 329.477 88.8008 329.473 88.7461 329.473C88.832 329.699 88.9023 329.934 88.957 330.176C89.0117 330.418 89.0391 330.672 89.0391 330.938C89.0391 331.609 88.9102 332.211 88.6523 332.742C88.4023 333.273 88.0547 333.723 87.6094 334.09C87.1719 334.449 86.6484 334.727 86.0391 334.922C85.4375 335.117 84.7852 335.219 84.082 335.227C83.9883 335.227 83.8984 335.227 83.8125 335.227C83.7344 335.227 83.6523 335.219 83.5664 335.203C83.4492 335.344 83.3594 335.488 83.2969 335.637C83.2344 335.785 83.2031 335.949 83.2031 336.129C83.2031 336.262 83.2305 336.387 83.2852 336.504C83.3398 336.621 83.418 336.727 83.5195 336.82C83.6289 336.906 83.7539 336.977 83.8945 337.031C84.043 337.078 84.207 337.102 84.3867 337.102H85.582C86.3008 337.102 86.9414 337.184 87.5039 337.348C88.0742 337.504 88.5547 337.738 88.9453 338.051C89.3438 338.363 89.6484 338.742 89.8594 339.188C90.0781 339.641 90.1875 340.152 90.1875 340.723C90.1875 341.355 90.0508 341.93 89.7773 342.445C89.5039 342.969 89.1094 343.41 88.5938 343.77C88.0859 344.129 87.4609 344.402 86.7188 344.59C85.9844 344.785 85.1484 344.883 84.2109 344.883C83.3438 344.883 82.5625 344.793 81.8672 344.613C81.1719 344.441 80.5781 344.188 80.0859 343.852C79.6016 343.523 79.2305 343.121 78.9727 342.645C78.7148 342.176 78.5859 341.645 78.5859 341.051C78.5859 340.652 78.6406 340.273 78.75 339.914C78.8672 339.562 79.0312 339.242 79.2422 338.953C79.4609 338.664 79.7266 338.414 80.0391 338.203C80.3516 337.984 80.6992 337.809 81.082 337.676C80.8477 337.512 80.668 337.301 80.543 337.043C80.418 336.785 80.3555 336.488 80.3555 336.152C80.3555 335.832 80.4141 335.531 80.5312 335.25C80.6562 334.961 80.832 334.699 81.0586 334.465C80.4883 334.113 80.0352 333.656 79.6992 333.094C79.3711 332.531 79.207 331.863 79.207 331.09C79.207 330.402 79.3359 329.793 79.5938 329.262C79.8594 328.723 80.2148 328.27 80.6602 327.902C81.1133 327.535 81.6445 327.258 82.2539 327.07C82.8633 326.883 83.5195 326.789 84.2227 326.789C84.543 326.789 84.8516 326.809 85.1484 326.848C85.4453 326.879 85.7305 326.941 86.0039 327.035H90.2109V329.484H89.0625ZM83.6719 339.48C82.9766 339.48 82.4453 339.609 82.0781 339.867C81.7109 340.125 81.5273 340.473 81.5273 340.91C81.5273 341.145 81.5938 341.359 81.7266 341.555C81.8594 341.75 82.043 341.918 82.2773 342.059C82.5195 342.199 82.8164 342.309 83.168 342.387C83.5195 342.465 83.9102 342.504 84.3398 342.504C84.7773 342.504 85.168 342.461 85.5117 342.375C85.8633 342.297 86.1602 342.184 86.4023 342.035C86.6523 341.895 86.8438 341.723 86.9766 341.52C87.1094 341.324 87.1758 341.105 87.1758 340.863C87.1758 340.441 87 340.105 86.6484 339.855C86.2969 339.605 85.8203 339.48 85.2188 339.48H83.6719ZM84.1055 329.168C83.8398 329.168 83.5859 329.211 83.3438 329.297C83.1016 329.383 82.8906 329.508 82.7109 329.672C82.5391 329.836 82.3984 330.031 82.2891 330.258C82.1797 330.484 82.125 330.738 82.125 331.02C82.125 331.301 82.1797 331.555 82.2891 331.781C82.3984 332.008 82.543 332.207 82.7227 332.379C82.9023 332.543 83.1133 332.672 83.3555 332.766C83.6055 332.852 83.8711 332.895 84.1523 332.895C84.4102 332.895 84.6562 332.852 84.8906 332.766C85.125 332.672 85.332 332.543 85.5117 332.379C85.6914 332.215 85.832 332.023 85.9336 331.805C86.043 331.578 86.0977 331.328 86.0977 331.055C86.0977 330.773 86.043 330.516 85.9336 330.281C85.832 330.047 85.6875 329.848 85.5 329.684C85.3203 329.512 85.1094 329.383 84.8672 329.297C84.6328 329.211 84.3789 329.168 84.1055 329.168ZM108.562 333H110.402V335.695H108.562V339H105.434V335.695H97.5938V333.082C98.5469 331.285 99.582 329.496 100.699 327.715C101.816 325.934 103.027 324.145 104.332 322.348H108.562V333ZM105.457 325.371C104.582 326.598 103.746 327.848 102.949 329.121C102.16 330.387 101.41 331.68 100.699 333H105.457V325.371Z" fill="#4E4F54"/>
<path d="M7.5 0.390625H20.5312V29.5469C22.8438 27.6094 25.0625 25.5469 27.1875 23.3594C29.3438 21.1719 31.4219 18.875 33.4219 16.4688C35.4219 14.0312 37.375 11.4844 39.2812 8.82812C41.1875 6.14063 43.0312 3.32813 44.8125 0.390625H58.2188C54.9062 6.26562 51.5781 11.6406 48.2344 16.5156C44.8906 21.3906 41.4531 25.7344 37.9219 29.5469C41.8594 35.3906 45.6094 41.4688 49.1719 47.7812C52.7656 54.0938 56.1719 60.5 59.3906 67H44.9531C43.6719 64.5312 42.3594 62.0938 41.0156 59.6875C39.6719 57.2812 38.2812 54.8906 36.8438 52.5156C35.4062 50.1094 33.9375 47.7031 32.4375 45.2969C30.9375 42.8594 29.375 40.4219 27.75 37.9844C26.5 38.9844 25.2969 39.9531 24.1406 40.8906C22.9844 41.8281 21.7812 42.7188 20.5312 43.5625V67H7.5V0.390625ZM87.6094 18.1562C90.9844 18.1562 94.1562 18.7188 97.125 19.8438C100.125 20.9375 102.75 22.5469 105 24.6719C107.25 26.7656 109.031 29.3281 110.344 32.3594C111.656 35.3906 112.312 38.8281 112.312 42.6719C112.312 46.6719 111.656 50.25 110.344 53.4062C109.031 56.5312 107.234 59.1719 104.953 61.3281C102.672 63.4844 99.9844 65.1406 96.8906 66.2969C93.8281 67.4219 90.5 67.9844 86.9062 67.9844C83.5312 67.9844 80.3281 67.4219 77.2969 66.2969C74.2969 65.1719 71.6719 63.5625 69.4219 61.4688C67.1719 59.375 65.3906 56.8125 64.0781 53.7812C62.7656 50.75 62.1094 47.3125 62.1094 43.4688C62.1094 39.4688 62.7656 35.9062 64.0781 32.7812C65.3906 29.625 67.1875 26.9688 69.4688 24.8125C71.7812 22.625 74.4844 20.9688 77.5781 19.8438C80.7031 18.7188 84.0469 18.1562 87.6094 18.1562ZM87.0469 28.6562C85.4219 28.6562 83.875 28.9844 82.4062 29.6406C80.9375 30.2656 79.6406 31.1875 78.5156 32.4062C77.3906 33.625 76.4844 35.125 75.7969 36.9062C75.1406 38.6562 74.8125 40.6406 74.8125 42.8594C74.8125 45.2656 75.1562 47.375 75.8438 49.1875C76.5312 51 77.4375 52.5156 78.5625 53.7344C79.7188 54.9531 81.0469 55.875 82.5469 56.5C84.0781 57.0938 85.7031 57.3906 87.4219 57.3906C89.0156 57.3906 90.5469 57.0781 92.0156 56.4531C93.5156 55.7969 94.8125 54.875 95.9062 53.6875C97.0312 52.4688 97.9219 50.9844 98.5781 49.2344C99.2344 47.4531 99.5625 45.4531 99.5625 43.2344C99.5625 40.8281 99.2344 38.7188 98.5781 36.9062C97.9219 35.0938 97.0156 33.5781 95.8594 32.3594C94.7344 31.1406 93.4062 30.2188 91.875 29.5938C90.3438 28.9688 88.7344 28.6562 87.0469 28.6562ZM123.562 19.1406H133.359L134.016 23.7344C135.734 21.9844 137.672 20.625 139.828 19.6562C142.016 18.6563 144.469 18.1562 147.188 18.1562C148.625 18.1562 150 18.2969 151.312 18.5781C152.656 18.8594 153.922 19.2812 155.109 19.8438C156.297 20.375 157.391 21.0625 158.391 21.9062C159.422 22.75 160.359 23.7344 161.203 24.8594C162.047 23.8594 163 22.9531 164.062 22.1406C165.125 21.2969 166.281 20.5781 167.531 19.9844C168.781 19.3906 170.109 18.9375 171.516 18.625C172.953 18.3125 174.469 18.1562 176.062 18.1562C178.469 18.1562 180.75 18.5625 182.906 19.375C185.062 20.1875 186.938 21.4219 188.531 23.0781C190.125 24.7031 191.375 26.7656 192.281 29.2656C193.219 31.7656 193.688 34.7031 193.688 38.0781V67H181.125V39.5312C181.125 37.5 180.891 35.7812 180.422 34.375C179.984 32.9688 179.375 31.8281 178.594 30.9531C177.844 30.0781 176.969 29.4375 175.969 29.0312C175 28.625 173.984 28.4219 172.922 28.4219C172.109 28.4219 171.328 28.5469 170.578 28.7969C169.828 29.0156 169.094 29.3438 168.375 29.7812C167.656 30.2188 166.969 30.75 166.312 31.375C165.688 31.9688 165.094 32.6406 164.531 33.3906C164.656 34.1406 164.734 34.9219 164.766 35.7344C164.828 36.5156 164.859 37.3438 164.859 38.2188V67H152.344V39.5312C152.344 37.5 152.109 35.7812 151.641 34.375C151.203 32.9688 150.594 31.8281 149.812 30.9531C149.062 30.0781 148.188 29.4375 147.188 29.0312C146.219 28.625 145.203 28.4219 144.141 28.4219C142.641 28.4219 141.203 28.8125 139.828 29.5938C138.453 30.3438 137.188 31.4219 136.031 32.8281V67H123.562V19.1406ZM247.453 62.875C244.891 64.5312 242.094 65.7969 239.062 66.6719C236.031 67.5469 232.766 67.9844 229.266 67.9844C225.391 67.9844 221.922 67.4375 218.859 66.3438C215.797 65.2188 213.188 63.6094 211.031 61.5156C208.906 59.3906 207.266 56.8125 206.109 53.7812C204.984 50.7188 204.422 47.2812 204.422 43.4688C204.422 39.5938 204.953 36.1094 206.016 33.0156C207.109 29.9219 208.641 27.2656 210.609 25.0469C212.578 22.8281 214.938 21.125 217.688 19.9375C220.469 18.75 223.516 18.1562 226.828 18.1562C229.859 18.1562 232.609 18.6719 235.078 19.7031C237.547 20.7031 239.641 22.1875 241.359 24.1562C243.109 26.0938 244.453 28.4688 245.391 31.2812C246.328 34.0938 246.797 37.3125 246.797 40.9375C246.797 41.8438 246.766 42.7031 246.703 43.5156C246.672 44.2969 246.594 45.0938 246.469 45.9062H216.891V46C217.078 47.8438 217.516 49.5 218.203 50.9688C218.922 52.4062 219.859 53.625 221.016 54.625C222.172 55.625 223.562 56.4062 225.188 56.9688C226.844 57.5 228.719 57.7656 230.812 57.7656C233.5 57.7656 235.984 57.375 238.266 56.5938C240.578 55.8125 242.797 54.6719 244.922 53.1719L247.453 62.875ZM234.75 37.2812C234.719 35.8438 234.5 34.5469 234.094 33.3906C233.719 32.2344 233.172 31.25 232.453 30.4375C231.766 29.5938 230.906 28.9531 229.875 28.5156C228.875 28.0781 227.75 27.8594 226.5 27.8594C225.281 27.8594 224.156 28.0625 223.125 28.4688C222.125 28.875 221.219 29.4844 220.406 30.2969C219.625 31.1094 218.953 32.1094 218.391 33.2969C217.828 34.4531 217.406 35.7812 217.125 37.2812H234.75ZM254.156 28.9844V19.1406H260.906V7.70312L273.375 6.48438V19.1406H286.734V28.9844H273.375V50.3594C273.375 52.7031 273.906 54.4531 274.969 55.6094C276.031 56.7344 277.594 57.2969 279.656 57.2969C281 57.2969 282.266 57.0781 283.453 56.6406C284.672 56.2031 285.859 55.5312 287.016 54.625L288.609 64.6562C286.922 65.7812 285.031 66.6094 282.938 67.1406C280.844 67.7031 278.719 67.9844 276.562 67.9844C271.5 67.9844 267.625 66.625 264.938 63.9062C262.25 61.1875 260.906 57.0469 260.906 51.4844V28.9844H254.156Z" fill="#4E4F54"/>
</svg>
