<svg width="452" height="314" viewBox="0 0 452 314" fill="none" xmlns="http://www.w3.org/2000/svg">
<path d="M312.772 132V108.528H320.8C322.432 108.528 323.896 108.708 325.192 109.068C326.488 109.404 327.52 109.992 328.288 110.832C329.056 111.672 329.44 112.848 329.44 114.36C329.44 115.392 329.164 116.412 328.612 117.42C328.084 118.404 327.34 119.076 326.38 119.436V119.58C327.58 119.892 328.576 120.504 329.368 121.416C330.184 122.304 330.592 123.528 330.592 125.088C330.592 126.696 330.184 128.004 329.368 129.012C328.552 130.02 327.46 130.776 326.092 131.28C324.724 131.76 323.188 132 321.484 132H312.772ZM318.064 117.924H320.548C321.844 117.924 322.78 117.672 323.356 117.168C323.956 116.664 324.256 115.992 324.256 115.152C324.256 114.24 323.956 113.592 323.356 113.208C322.756 112.824 321.832 112.632 320.584 112.632H318.064V117.924ZM318.064 127.896H321.052C323.956 127.896 325.408 126.84 325.408 124.728C325.408 123.696 325.048 122.964 324.328 122.532C323.608 122.076 322.516 121.848 321.052 121.848H318.064V127.896ZM339.501 132.432C337.557 132.432 336.141 131.796 335.253 130.524C334.389 129.228 333.957 127.464 333.957 125.232V114.144H339.249V124.548C339.249 125.82 339.429 126.708 339.789 127.212C340.149 127.692 340.713 127.932 341.481 127.932C342.153 127.932 342.717 127.776 343.173 127.464C343.629 127.152 344.121 126.648 344.649 125.952V114.144H349.941V132H345.621L345.225 129.516H345.117C344.373 130.404 343.557 131.112 342.669 131.64C341.781 132.168 340.725 132.432 339.501 132.432ZM361.474 132.432C359.266 132.432 357.682 131.796 356.722 130.524C355.786 129.252 355.318 127.584 355.318 125.52V118.284H352.87V114.36L355.606 114.144L356.218 109.392H360.61V114.144H364.894V118.284H360.61V125.448C360.61 126.456 360.814 127.188 361.222 127.644C361.654 128.076 362.218 128.292 362.914 128.292C363.202 128.292 363.49 128.256 363.778 128.184C364.09 128.112 364.366 128.028 364.606 127.932L365.434 131.784C364.978 131.928 364.414 132.072 363.742 132.216C363.094 132.36 362.338 132.432 361.474 132.432ZM374.552 132.432C372.344 132.432 370.76 131.796 369.8 130.524C368.864 129.252 368.396 127.584 368.396 125.52V118.284H365.948V114.36L368.684 114.144L369.296 109.392H373.688V114.144H377.972V118.284H373.688V125.448C373.688 126.456 373.892 127.188 374.3 127.644C374.732 128.076 375.296 128.292 375.992 128.292C376.28 128.292 376.568 128.256 376.856 128.184C377.168 128.112 377.444 128.028 377.684 127.932L378.512 131.784C378.056 131.928 377.492 132.072 376.82 132.216C376.172 132.36 375.416 132.432 374.552 132.432ZM388.492 132.432C386.98 132.432 385.552 132.072 384.208 131.352C382.888 130.608 381.82 129.54 381.004 128.148C380.188 126.732 379.78 125.04 379.78 123.072C379.78 121.08 380.188 119.388 381.004 117.996C381.82 116.604 382.888 115.548 384.208 114.828C385.552 114.084 386.98 113.712 388.492 113.712C390.004 113.712 391.42 114.084 392.74 114.828C394.06 115.548 395.128 116.604 395.944 117.996C396.76 119.388 397.168 121.08 397.168 123.072C397.168 125.04 396.76 126.732 395.944 128.148C395.128 129.54 394.06 130.608 392.74 131.352C391.42 132.072 390.004 132.432 388.492 132.432ZM388.492 128.148C389.572 128.148 390.388 127.692 390.94 126.78C391.492 125.844 391.768 124.608 391.768 123.072C391.768 121.512 391.492 120.276 390.94 119.364C390.388 118.452 389.572 117.996 388.492 117.996C387.388 117.996 386.56 118.452 386.008 119.364C385.48 120.276 385.216 121.512 385.216 123.072C385.216 124.608 385.48 125.844 386.008 126.78C386.56 127.692 387.388 128.148 388.492 128.148ZM400.793 132V114.144H405.113L405.473 116.412H405.617C406.385 115.692 407.225 115.068 408.137 114.54C409.073 113.988 410.141 113.712 411.341 113.712C413.285 113.712 414.689 114.36 415.553 115.656C416.441 116.928 416.885 118.68 416.885 120.912V132H411.593V121.596C411.593 120.3 411.413 119.412 411.053 118.932C410.717 118.452 410.165 118.212 409.397 118.212C408.725 118.212 408.149 118.368 407.669 118.68C407.189 118.968 406.661 119.388 406.085 119.94V132H400.793Z" fill="#4E4F54"/>
<path d="M320.816 188.384C319.067 188.384 317.499 187.957 316.112 187.104C314.747 186.229 313.659 184.981 312.848 183.36C312.059 181.739 311.664 179.787 311.664 177.504C311.664 175.243 312.069 173.301 312.88 171.68C313.691 170.059 314.8 168.811 316.208 167.936C317.616 167.061 319.205 166.624 320.976 166.624C322.256 166.624 323.387 166.891 324.368 167.424C325.349 167.936 326.139 168.533 326.736 169.216L325.296 170.944C324.741 170.347 324.112 169.867 323.408 169.504C322.704 169.141 321.904 168.96 321.008 168.96C319.685 168.96 318.523 169.312 317.52 170.016C316.539 170.699 315.771 171.669 315.216 172.928C314.683 174.187 314.416 175.691 314.416 177.44C314.416 179.189 314.683 180.715 315.216 182.016C315.749 183.296 316.496 184.288 317.456 184.992C318.437 185.696 319.589 186.048 320.912 186.048C321.915 186.048 322.811 185.835 323.6 185.408C324.389 184.981 325.115 184.405 325.776 183.68L327.248 185.344C326.416 186.304 325.477 187.051 324.432 187.584C323.387 188.117 322.181 188.384 320.816 188.384ZM334.489 188.384C333.188 188.384 332.1 188 331.225 187.232C330.372 186.443 329.945 185.355 329.945 183.968C329.945 182.261 330.703 180.96 332.217 180.064C333.753 179.147 336.175 178.507 339.481 178.144C339.481 177.483 339.385 176.853 339.193 176.256C339.023 175.659 338.703 175.179 338.233 174.816C337.785 174.432 337.135 174.24 336.281 174.24C335.385 174.24 334.543 174.411 333.753 174.752C332.964 175.093 332.26 175.477 331.641 175.904L330.617 174.08C331.343 173.611 332.228 173.163 333.273 172.736C334.34 172.288 335.492 172.064 336.729 172.064C338.628 172.064 340.004 172.651 340.857 173.824C341.711 174.976 342.137 176.523 342.137 178.464V188H339.961L339.737 186.144H339.641C338.916 186.741 338.116 187.264 337.241 187.712C336.388 188.16 335.471 188.384 334.489 188.384ZM335.257 186.272C336.004 186.272 336.708 186.091 337.369 185.728C338.031 185.365 338.735 184.853 339.481 184.192V179.872C336.9 180.192 335.087 180.672 334.041 181.312C333.017 181.952 332.505 182.773 332.505 183.776C332.505 184.651 332.772 185.291 333.305 185.696C333.839 186.08 334.489 186.272 335.257 186.272ZM347.03 194.56V172.448H349.206L349.43 174.24H349.526C350.23 173.643 350.998 173.131 351.83 172.704C352.684 172.277 353.569 172.064 354.486 172.064C356.492 172.064 358.017 172.789 359.062 174.24C360.108 175.669 360.63 177.589 360.63 180C360.63 181.749 360.31 183.253 359.67 184.512C359.052 185.771 358.23 186.731 357.206 187.392C356.204 188.053 355.105 188.384 353.91 188.384C353.185 188.384 352.46 188.224 351.734 187.904C351.03 187.584 350.316 187.147 349.59 186.592L349.654 189.312V194.56H347.03ZM353.462 186.176C354.742 186.176 355.798 185.632 356.63 184.544C357.484 183.435 357.91 181.92 357.91 180C357.91 178.293 357.59 176.917 356.95 175.872C356.332 174.805 355.286 174.272 353.814 174.272C353.153 174.272 352.481 174.453 351.798 174.816C351.137 175.179 350.422 175.701 349.654 176.384V184.544C350.358 185.141 351.041 185.568 351.702 185.824C352.364 186.059 352.95 186.176 353.462 186.176ZM369.145 188.384C367.481 188.384 366.318 187.904 365.657 186.944C365.017 185.984 364.697 184.736 364.697 183.2V174.592H362.393V172.608L364.825 172.448L365.145 168.096H367.353V172.448H371.545V174.592H367.353V183.232C367.353 184.192 367.524 184.939 367.865 185.472C368.228 185.984 368.857 186.24 369.753 186.24C370.03 186.24 370.329 186.197 370.649 186.112C370.969 186.005 371.257 185.909 371.513 185.824L372.025 187.808C371.598 187.957 371.129 188.085 370.617 188.192C370.126 188.32 369.636 188.384 369.145 188.384ZM375.062 188V172.448H377.686V188H375.062ZM376.406 169.248C375.894 169.248 375.467 169.099 375.126 168.8C374.806 168.48 374.646 168.053 374.646 167.52C374.646 167.008 374.806 166.592 375.126 166.272C375.467 165.952 375.894 165.792 376.406 165.792C376.918 165.792 377.334 165.952 377.654 166.272C377.995 166.592 378.166 167.008 378.166 167.52C378.166 168.053 377.995 168.48 377.654 168.8C377.334 169.099 376.918 169.248 376.406 169.248ZM388.985 188.384C387.726 188.384 386.542 188.064 385.433 187.424C384.345 186.784 383.459 185.856 382.777 184.64C382.115 183.424 381.785 181.963 381.785 180.256C381.785 178.507 382.115 177.024 382.777 175.808C383.459 174.592 384.345 173.664 385.433 173.024C386.542 172.384 387.726 172.064 388.985 172.064C390.265 172.064 391.449 172.384 392.537 173.024C393.625 173.664 394.499 174.592 395.161 175.808C395.843 177.024 396.185 178.507 396.185 180.256C396.185 181.963 395.843 183.424 395.161 184.64C394.499 185.856 393.625 186.784 392.537 187.424C391.449 188.064 390.265 188.384 388.985 188.384ZM388.985 186.208C390.329 186.208 391.406 185.664 392.217 184.576C393.049 183.467 393.465 182.027 393.465 180.256C393.465 178.464 393.049 177.013 392.217 175.904C391.406 174.795 390.329 174.24 388.985 174.24C387.662 174.24 386.585 174.795 385.753 175.904C384.921 177.013 384.505 178.464 384.505 180.256C384.505 182.027 384.921 183.467 385.753 184.576C386.585 185.664 387.662 186.208 388.985 186.208ZM400.28 188V172.448H402.456L402.68 174.688H402.776C403.523 173.941 404.312 173.323 405.144 172.832C405.976 172.32 406.926 172.064 407.992 172.064C409.635 172.064 410.83 172.587 411.576 173.632C412.344 174.656 412.728 176.16 412.728 178.144V188H410.104V178.496C410.104 177.045 409.87 175.989 409.4 175.328C408.931 174.667 408.184 174.336 407.16 174.336C406.371 174.336 405.656 174.539 405.016 174.944C404.398 175.349 403.694 175.947 402.904 176.736V188H400.28Z" fill="#4E4F54"/>
<path d="M13.152 137.576C11.04 137.576 8.992 137.176 7.008 136.376C5.056 135.576 3.328 134.44 1.824 132.968L5.088 129.176C6.208 130.232 7.488 131.096 8.928 131.768C10.368 132.408 11.808 132.728 13.248 132.728C15.04 132.728 16.4 132.36 17.328 131.624C18.256 130.888 18.72 129.912 18.72 128.696C18.72 127.384 18.256 126.44 17.328 125.864C16.432 125.288 15.28 124.696 13.872 124.088L9.552 122.216C8.528 121.768 7.52 121.192 6.528 120.488C5.568 119.784 4.768 118.888 4.128 117.8C3.52 116.712 3.216 115.4 3.216 113.864C3.216 112.2 3.664 110.712 4.56 109.4C5.488 108.056 6.736 107 8.304 106.232C9.904 105.432 11.728 105.032 13.776 105.032C15.6 105.032 17.36 105.4 19.056 106.136C20.752 106.84 22.208 107.8 23.424 109.016L20.592 112.568C19.6 111.736 18.544 111.08 17.424 110.6C16.336 110.12 15.12 109.88 13.776 109.88C12.304 109.88 11.104 110.216 10.176 110.888C9.28 111.528 8.832 112.424 8.832 113.576C8.832 114.376 9.056 115.048 9.504 115.592C9.984 116.104 10.608 116.552 11.376 116.936C12.144 117.288 12.96 117.64 13.824 117.992L18.096 119.768C19.952 120.568 21.472 121.624 22.656 122.936C23.84 124.216 24.432 125.992 24.432 128.264C24.432 129.96 23.984 131.512 23.088 132.92C22.192 134.328 20.896 135.464 19.2 136.328C17.536 137.16 15.52 137.576 13.152 137.576ZM36.6683 137.576C34.1403 137.576 32.3003 136.76 31.1483 135.128C29.9963 133.496 29.4203 131.192 29.4203 128.216V113.432H34.9403V127.496C34.9403 129.448 35.2283 130.824 35.8043 131.624C36.3803 132.424 37.3083 132.824 38.5883 132.824C39.6123 132.824 40.5083 132.568 41.2763 132.056C42.0763 131.544 42.9243 130.712 43.8203 129.56V113.432H49.3403V137H44.8283L44.3963 133.544H44.2523C43.2283 134.76 42.1083 135.736 40.8923 136.472C39.6763 137.208 38.2683 137.576 36.6683 137.576ZM67.7561 137.576C65.5161 137.576 63.3721 136.552 61.3241 134.504H61.1801L60.7001 137H56.3321V103.112H61.8521V111.848L61.7081 115.784C62.7001 114.92 63.7881 114.216 64.9721 113.672C66.1561 113.128 67.3401 112.856 68.5241 112.856C71.4681 112.856 73.7561 113.944 75.3881 116.12C77.0201 118.296 77.8361 121.192 77.8361 124.808C77.8361 127.496 77.3561 129.8 76.3961 131.72C75.4361 133.608 74.1881 135.064 72.6521 136.088C71.1481 137.08 69.5161 137.576 67.7561 137.576ZM66.6041 133.016C68.1721 133.016 69.4841 132.328 70.5401 130.952C71.5961 129.576 72.1241 127.56 72.1241 124.904C72.1241 122.536 71.7241 120.696 70.9241 119.384C70.1241 118.072 68.8281 117.416 67.0361 117.416C65.3721 117.416 63.6441 118.296 61.8521 120.056V131.048C62.6841 131.752 63.5001 132.264 64.3001 132.584C65.1321 132.872 65.9001 133.016 66.6041 133.016ZM90.6049 137.576C87.8849 137.576 85.9489 136.792 84.7969 135.224C83.6769 133.624 83.1169 131.56 83.1169 129.032V117.8H79.7569V113.672L83.4049 113.432L84.0769 107H88.6849V113.432H94.6849V117.8H88.6849V129.032C88.6849 131.784 89.7889 133.16 91.9969 133.16C92.4129 133.16 92.8449 133.112 93.2929 133.016C93.7409 132.888 94.1249 132.76 94.4449 132.632L95.4049 136.712C94.7649 136.936 94.0289 137.128 93.1969 137.288C92.3969 137.48 91.5329 137.576 90.6049 137.576ZM99.6446 137V113.432H105.165V137H99.6446ZM102.429 109.304C101.437 109.304 100.637 109.016 100.029 108.44C99.4206 107.864 99.1166 107.096 99.1166 106.136C99.1166 105.208 99.4206 104.456 100.029 103.88C100.637 103.304 101.437 103.016 102.429 103.016C103.421 103.016 104.221 103.304 104.829 103.88C105.437 104.456 105.741 105.208 105.741 106.136C105.741 107.096 105.437 107.864 104.829 108.44C104.221 109.016 103.421 109.304 102.429 109.304ZM120.511 137.576C117.791 137.576 115.855 136.792 114.703 135.224C113.583 133.624 113.023 131.56 113.023 129.032V117.8H109.663V113.672L113.311 113.432L113.983 107H118.591V113.432H124.591V117.8H118.591V129.032C118.591 131.784 119.695 133.16 121.903 133.16C122.319 133.16 122.751 133.112 123.199 133.016C123.647 132.888 124.031 132.76 124.351 132.632L125.311 136.712C124.671 136.936 123.935 137.128 123.103 137.288C122.303 137.48 121.439 137.576 120.511 137.576ZM134.927 137.576C132.975 137.576 131.583 136.984 130.751 135.8C129.951 134.616 129.551 133 129.551 130.952V103.112H135.071V131.24C135.071 131.912 135.199 132.392 135.455 132.68C135.711 132.936 135.983 133.064 136.271 133.064C136.399 133.064 136.511 133.064 136.607 133.064C136.735 133.032 136.911 133 137.135 132.968L137.855 137.096C137.535 137.224 137.119 137.336 136.607 137.432C136.127 137.528 135.567 137.576 134.927 137.576ZM152.662 137.576C150.486 137.576 148.518 137.096 146.758 136.136C144.998 135.144 143.606 133.736 142.582 131.912C141.558 130.056 141.046 127.832 141.046 125.24C141.046 122.68 141.558 120.472 142.582 118.616C143.638 116.76 144.998 115.336 146.662 114.344C148.326 113.352 150.07 112.856 151.894 112.856C154.038 112.856 155.83 113.336 157.27 114.296C158.71 115.224 159.798 116.536 160.534 118.232C161.27 119.896 161.638 121.832 161.638 124.04C161.638 125.192 161.558 126.088 161.398 126.728H146.422C146.678 128.808 147.43 130.424 148.678 131.576C149.926 132.728 151.494 133.304 153.382 133.304C154.406 133.304 155.35 133.16 156.214 132.872C157.11 132.552 157.99 132.12 158.854 131.576L160.726 135.032C159.606 135.768 158.358 136.376 156.982 136.856C155.606 137.336 154.166 137.576 152.662 137.576ZM146.374 122.984H156.838C156.838 121.16 156.438 119.736 155.638 118.712C154.838 117.656 153.638 117.128 152.038 117.128C150.662 117.128 149.43 117.64 148.342 118.664C147.286 119.656 146.63 121.096 146.374 122.984ZM176.568 137V132.488H183.384V112.424H177.768V108.968C179.272 108.68 180.584 108.344 181.704 107.96C182.824 107.544 183.864 107.048 184.824 106.472H188.952V132.488H194.952V137H176.568Z" fill="#4E4F54"/>
<path d="M10.96 193.48C9.2 193.48 7.49333 193.147 5.84 192.48C4.21333 191.813 2.77333 190.867 1.52 189.64L4.24 186.48C5.17333 187.36 6.24 188.08 7.44 188.64C8.64 189.173 9.84 189.44 11.04 189.44C12.5333 189.44 13.6667 189.133 14.44 188.52C15.2133 187.907 15.6 187.093 15.6 186.08C15.6 184.987 15.2133 184.2 14.44 183.72C13.6933 183.24 12.7333 182.747 11.56 182.24L7.96 180.68C7.10667 180.307 6.26667 179.827 5.44 179.24C4.64 178.653 3.97333 177.907 3.44 177C2.93333 176.093 2.68 175 2.68 173.72C2.68 172.333 3.05333 171.093 3.8 170C4.57333 168.88 5.61333 168 6.92 167.36C8.25333 166.693 9.77333 166.36 11.48 166.36C13 166.36 14.4667 166.667 15.88 167.28C17.2933 167.867 18.5067 168.667 19.52 169.68L17.16 172.64C16.3333 171.947 15.4533 171.4 14.52 171C13.6133 170.6 12.6 170.4 11.48 170.4C10.2533 170.4 9.25333 170.68 8.48 171.24C7.73333 171.773 7.36 172.52 7.36 173.48C7.36 174.147 7.54667 174.707 7.92 175.16C8.32 175.587 8.84 175.96 9.48 176.28C10.12 176.573 10.8 176.867 11.52 177.16L15.08 178.64C16.6267 179.307 17.8933 180.187 18.88 181.28C19.8667 182.347 20.36 183.827 20.36 185.72C20.36 187.133 19.9867 188.427 19.24 189.6C18.4933 190.773 17.4133 191.72 16 192.44C14.6133 193.133 12.9333 193.48 10.96 193.48ZM30.5569 193.48C28.4502 193.48 26.9169 192.8 25.9569 191.44C24.9969 190.08 24.5169 188.16 24.5169 185.68V173.36H29.1169V185.08C29.1169 186.707 29.3569 187.853 29.8369 188.52C30.3169 189.187 31.0902 189.52 32.1569 189.52C33.0102 189.52 33.7569 189.307 34.3969 188.88C35.0635 188.453 35.7702 187.76 36.5169 186.8V173.36H41.1169V193H37.3569L36.9969 190.12H36.8769C36.0235 191.133 35.0902 191.947 34.0769 192.56C33.0635 193.173 31.8902 193.48 30.5569 193.48ZM56.4634 193.48C54.5968 193.48 52.8101 192.627 51.1034 190.92H50.9834L50.5834 193H46.9434V164.76H51.5434V172.04L51.4234 175.32C52.2501 174.6 53.1568 174.013 54.1434 173.56C55.1301 173.107 56.1168 172.88 57.1034 172.88C59.5568 172.88 61.4634 173.787 62.8234 175.6C64.1834 177.413 64.8634 179.827 64.8634 182.84C64.8634 185.08 64.4634 187 63.6634 188.6C62.8634 190.173 61.8234 191.387 60.5434 192.24C59.2901 193.067 57.9301 193.48 56.4634 193.48ZM55.5034 189.68C56.8101 189.68 57.9034 189.107 58.7834 187.96C59.6634 186.813 60.1034 185.133 60.1034 182.92C60.1034 180.947 59.7701 179.413 59.1034 178.32C58.4368 177.227 57.3568 176.68 55.8634 176.68C54.4768 176.68 53.0368 177.413 51.5434 178.88V188.04C52.2368 188.627 52.9168 189.053 53.5834 189.32C54.2768 189.56 54.9168 189.68 55.5034 189.68ZM75.5041 193.48C73.2374 193.48 71.6241 192.827 70.6641 191.52C69.7307 190.187 69.2641 188.467 69.2641 186.36V177H66.4641V173.56L69.5041 173.36L70.0641 168H73.9041V173.36H78.9041V177H73.9041V186.36C73.9041 188.653 74.8241 189.8 76.6641 189.8C77.0107 189.8 77.3707 189.76 77.7441 189.68C78.1174 189.573 78.4374 189.467 78.7041 189.36L79.5041 192.76C78.9707 192.947 78.3574 193.107 77.6641 193.24C76.9974 193.4 76.2774 193.48 75.5041 193.48ZM83.0372 193V173.36H87.6372V193H83.0372ZM85.3572 169.92C84.5305 169.92 83.8639 169.68 83.3572 169.2C82.8505 168.72 82.5972 168.08 82.5972 167.28C82.5972 166.507 82.8505 165.88 83.3572 165.4C83.8639 164.92 84.5305 164.68 85.3572 164.68C86.1839 164.68 86.8505 164.92 87.3572 165.4C87.8639 165.88 88.1172 166.507 88.1172 167.28C88.1172 168.08 87.8639 168.72 87.3572 169.2C86.8505 169.68 86.1839 169.92 85.3572 169.92ZM100.426 193.48C98.1593 193.48 96.5459 192.827 95.5859 191.52C94.6526 190.187 94.1859 188.467 94.1859 186.36V177H91.3859V173.56L94.4259 173.36L94.9859 168H98.8259V173.36H103.826V177H98.8259V186.36C98.8259 188.653 99.7459 189.8 101.586 189.8C101.933 189.8 102.293 189.76 102.666 189.68C103.039 189.573 103.359 189.467 103.626 189.36L104.426 192.76C103.893 192.947 103.279 193.107 102.586 193.24C101.919 193.4 101.199 193.48 100.426 193.48ZM112.439 193.48C110.812 193.48 109.652 192.987 108.959 192C108.292 191.013 107.959 189.667 107.959 187.96V164.76H112.559V188.2C112.559 188.76 112.666 189.16 112.879 189.4C113.092 189.613 113.319 189.72 113.559 189.72C113.666 189.72 113.759 189.72 113.839 189.72C113.946 189.693 114.092 189.667 114.279 189.64L114.879 193.08C114.612 193.187 114.266 193.28 113.839 193.36C113.439 193.44 112.972 193.48 112.439 193.48ZM127.218 193.48C125.405 193.48 123.765 193.08 122.298 192.28C120.832 191.453 119.672 190.28 118.818 188.76C117.965 187.213 117.538 185.36 117.538 183.2C117.538 181.067 117.965 179.227 118.818 177.68C119.698 176.133 120.832 174.947 122.218 174.12C123.605 173.293 125.058 172.88 126.578 172.88C128.365 172.88 129.858 173.28 131.058 174.08C132.258 174.853 133.165 175.947 133.778 177.36C134.392 178.747 134.698 180.36 134.698 182.2C134.698 183.16 134.632 183.907 134.498 184.44H122.018C122.232 186.173 122.858 187.52 123.898 188.48C124.938 189.44 126.245 189.92 127.818 189.92C128.672 189.92 129.458 189.8 130.178 189.56C130.925 189.293 131.658 188.933 132.378 188.48L133.938 191.36C133.005 191.973 131.965 192.48 130.818 192.88C129.672 193.28 128.472 193.48 127.218 193.48ZM121.978 181.32H130.698C130.698 179.8 130.365 178.613 129.698 177.76C129.032 176.88 128.032 176.44 126.698 176.44C125.552 176.44 124.525 176.867 123.618 177.72C122.738 178.547 122.192 179.747 121.978 181.32ZM145.7 193V190.32C148.073 188.027 150.113 185.987 151.82 184.2C153.553 182.387 154.886 180.747 155.82 179.28C156.753 177.787 157.22 176.4 157.22 175.12C157.22 173.787 156.86 172.72 156.14 171.92C155.42 171.12 154.38 170.72 153.02 170.72C152.033 170.72 151.126 171 150.3 171.56C149.5 172.12 148.753 172.787 148.06 173.56L145.5 171C146.673 169.747 147.886 168.787 149.14 168.12C150.393 167.427 151.886 167.08 153.62 167.08C156.073 167.08 158.02 167.787 159.46 169.2C160.926 170.613 161.66 172.507 161.66 174.88C161.66 176.373 161.233 177.907 160.38 179.48C159.553 181.027 158.433 182.613 157.02 184.24C155.633 185.867 154.1 187.573 152.42 189.36C153.086 189.307 153.806 189.253 154.58 189.2C155.353 189.12 156.046 189.08 156.66 189.08H162.9V193H145.7Z" fill="#4E4F54"/>
<path d="M3.24 250V226.384H10.26C11.868 226.384 13.272 226.576 14.472 226.96C15.696 227.344 16.644 227.956 17.316 228.796C18.012 229.636 18.36 230.752 18.36 232.144C18.36 233.32 18.06 234.388 17.46 235.348C16.884 236.284 16.032 236.932 14.904 237.292V237.436C16.32 237.7 17.472 238.3 18.36 239.236C19.272 240.172 19.728 241.456 19.728 243.088C19.728 244.624 19.344 245.908 18.576 246.94C17.832 247.972 16.788 248.74 15.444 249.244C14.1 249.748 12.54 250 10.764 250H3.24ZM6.228 236.428H9.72C11.736 236.428 13.188 236.08 14.076 235.384C14.964 234.688 15.408 233.74 15.408 232.54C15.408 231.172 14.94 230.2 14.004 229.624C13.092 229.048 11.712 228.76 9.864 228.76H6.228V236.428ZM6.228 247.624H10.332C12.372 247.624 13.956 247.252 15.084 246.508C16.212 245.74 16.776 244.564 16.776 242.98C16.776 241.516 16.212 240.448 15.084 239.776C13.98 239.08 12.396 238.732 10.332 238.732H6.228V247.624ZM30.9201 250.432C29.5041 250.432 28.1721 250.072 26.9241 249.352C25.7001 248.632 24.7041 247.588 23.9361 246.22C23.1921 244.852 22.8201 243.208 22.8201 241.288C22.8201 239.32 23.1921 237.652 23.9361 236.284C24.7041 234.916 25.7001 233.872 26.9241 233.152C28.1721 232.432 29.5041 232.072 30.9201 232.072C32.3601 232.072 33.6921 232.432 34.9161 233.152C36.1401 233.872 37.1241 234.916 37.8681 236.284C38.6361 237.652 39.0201 239.32 39.0201 241.288C39.0201 243.208 38.6361 244.852 37.8681 246.22C37.1241 247.588 36.1401 248.632 34.9161 249.352C33.6921 250.072 32.3601 250.432 30.9201 250.432ZM30.9201 247.984C32.4321 247.984 33.6441 247.372 34.5561 246.148C35.4921 244.9 35.9601 243.28 35.9601 241.288C35.9601 239.272 35.4921 237.64 34.5561 236.392C33.6441 235.144 32.4321 234.52 30.9201 234.52C29.4321 234.52 28.2201 235.144 27.2841 236.392C26.3481 237.64 25.8801 239.272 25.8801 241.288C25.8801 243.28 26.3481 244.9 27.2841 246.148C28.2201 247.372 29.4321 247.984 30.9201 247.984ZM49.6038 250.432C47.4198 250.432 45.6678 249.64 44.3478 248.056C43.0278 246.448 42.3678 244.192 42.3678 241.288C42.3678 239.392 42.7158 237.76 43.4118 236.392C44.1318 235 45.0678 233.932 46.2198 233.188C47.3958 232.444 48.6438 232.072 49.9638 232.072C50.9718 232.072 51.8478 232.252 52.5918 232.612C53.3358 232.972 54.0918 233.464 54.8598 234.088L54.7158 231.1V224.368H57.7038V250H55.2558L55.0038 247.948H54.8958C54.2238 248.62 53.4318 249.208 52.5198 249.712C51.6078 250.192 50.6358 250.432 49.6038 250.432ZM50.2518 247.948C51.7878 247.948 53.2758 247.144 54.7158 245.536V236.392C53.9718 235.72 53.2518 235.252 52.5558 234.988C51.8838 234.7 51.1878 234.556 50.4678 234.556C49.5318 234.556 48.6798 234.844 47.9118 235.42C47.1678 235.972 46.5678 236.752 46.1118 237.76C45.6558 238.744 45.4278 239.908 45.4278 241.252C45.4278 243.34 45.8478 244.984 46.6878 246.184C47.5278 247.36 48.7158 247.948 50.2518 247.948ZM63.8845 257.524C63.5005 257.524 63.1285 257.488 62.7685 257.416C62.4325 257.344 62.1205 257.26 61.8325 257.164L62.4085 254.824C62.6005 254.872 62.8165 254.92 63.0565 254.968C63.2965 255.04 63.5245 255.076 63.7405 255.076C64.7245 255.076 65.5405 254.716 66.1885 253.996C66.8365 253.3 67.3405 252.412 67.7005 251.332L68.0965 250.036L61.0765 232.504H64.1365L67.7005 242.188C67.9645 242.932 68.2405 243.736 68.5285 244.6C68.8405 245.464 69.1285 246.304 69.3925 247.12H69.5365C69.8005 246.328 70.0525 245.5 70.2925 244.636C70.5325 243.772 70.7725 242.956 71.0125 242.188L74.1445 232.504H77.0245L70.4365 251.44C70.0285 252.592 69.5365 253.624 68.9605 254.536C68.4085 255.448 67.7125 256.168 66.8725 256.696C66.0565 257.248 65.0605 257.524 63.8845 257.524ZM87.5003 250V247.552H92.7563V230.632H88.5803V228.724C89.6363 228.532 90.5483 228.304 91.3163 228.04C92.1083 227.752 92.8163 227.416 93.4403 227.032H95.7083V247.552H100.46V250H87.5003Z" fill="#4E4F54"/>
<path d="M2.88 307V286.008H9.12C10.5493 286.008 11.7973 286.179 12.864 286.52C13.952 286.861 14.7947 287.405 15.392 288.152C16.0107 288.899 16.32 289.891 16.32 291.128C16.32 292.173 16.0533 293.123 15.52 293.976C15.008 294.808 14.2507 295.384 13.248 295.704V295.832C14.5067 296.067 15.5307 296.6 16.32 297.432C17.1307 298.264 17.536 299.405 17.536 300.856C17.536 302.221 17.1947 303.363 16.512 304.28C15.8507 305.197 14.9227 305.88 13.728 306.328C12.5333 306.776 11.1467 307 9.568 307H2.88ZM5.536 294.936H8.64C10.432 294.936 11.7227 294.627 12.512 294.008C13.3013 293.389 13.696 292.547 13.696 291.48C13.696 290.264 13.28 289.4 12.448 288.888C11.6373 288.376 10.4107 288.12 8.768 288.12H5.536V294.936ZM5.536 304.888H9.184C10.9973 304.888 12.4053 304.557 13.408 303.896C14.4107 303.213 14.912 302.168 14.912 300.76C14.912 299.459 14.4107 298.509 13.408 297.912C12.4267 297.293 11.0187 296.984 9.184 296.984H5.536V304.888ZM27.4845 307.384C26.2258 307.384 25.0418 307.064 23.9325 306.424C22.8445 305.784 21.9592 304.856 21.2765 303.64C20.6152 302.424 20.2845 300.963 20.2845 299.256C20.2845 297.507 20.6152 296.024 21.2765 294.808C21.9592 293.592 22.8445 292.664 23.9325 292.024C25.0418 291.384 26.2258 291.064 27.4845 291.064C28.7645 291.064 29.9485 291.384 31.0365 292.024C32.1245 292.664 32.9992 293.592 33.6605 294.808C34.3432 296.024 34.6845 297.507 34.6845 299.256C34.6845 300.963 34.3432 302.424 33.6605 303.64C32.9992 304.856 32.1245 305.784 31.0365 306.424C29.9485 307.064 28.7645 307.384 27.4845 307.384ZM27.4845 305.208C28.8285 305.208 29.9058 304.664 30.7165 303.576C31.5485 302.467 31.9645 301.027 31.9645 299.256C31.9645 297.464 31.5485 296.013 30.7165 294.904C29.9058 293.795 28.8285 293.24 27.4845 293.24C26.1618 293.24 25.0845 293.795 24.2525 294.904C23.4205 296.013 23.0045 297.464 23.0045 299.256C23.0045 301.027 23.4205 302.467 24.2525 303.576C25.0845 304.664 26.1618 305.208 27.4845 305.208ZM44.0923 307.384C42.1509 307.384 40.5936 306.68 39.4203 305.272C38.2469 303.843 37.6603 301.837 37.6603 299.256C37.6603 297.571 37.9696 296.12 38.5883 294.904C39.2283 293.667 40.0603 292.717 41.0843 292.056C42.1296 291.395 43.2389 291.064 44.4123 291.064C45.3083 291.064 46.0869 291.224 46.7483 291.544C47.4096 291.864 48.0816 292.301 48.7643 292.856L48.6363 290.2V284.216H51.2923V307H49.1163L48.8923 305.176H48.7963C48.1989 305.773 47.4949 306.296 46.6843 306.744C45.8736 307.171 45.0096 307.384 44.0923 307.384ZM44.6683 305.176C46.0336 305.176 47.3563 304.461 48.6363 303.032V294.904C47.9749 294.307 47.3349 293.891 46.7163 293.656C46.1189 293.4 45.5003 293.272 44.8603 293.272C44.0283 293.272 43.2709 293.528 42.5883 294.04C41.9269 294.531 41.3936 295.224 40.9883 296.12C40.5829 296.995 40.3802 298.029 40.3802 299.224C40.3802 301.08 40.7536 302.541 41.5003 303.608C42.2469 304.653 43.3029 305.176 44.6683 305.176ZM56.7863 313.688C56.4449 313.688 56.1143 313.656 55.7943 313.592C55.4956 313.528 55.2183 313.453 54.9622 313.368L55.4743 311.288C55.6449 311.331 55.8369 311.373 56.0503 311.416C56.2636 311.48 56.4663 311.512 56.6583 311.512C57.5329 311.512 58.2583 311.192 58.8343 310.552C59.4103 309.933 59.8583 309.144 60.1783 308.184L60.5303 307.032L54.2903 291.448H57.0103L60.1783 300.056C60.4129 300.717 60.6583 301.432 60.9143 302.2C61.1916 302.968 61.4476 303.715 61.6823 304.44H61.8103C62.0449 303.736 62.2689 303 62.4823 302.232C62.6956 301.464 62.9089 300.739 63.1223 300.056L65.9063 291.448H68.4663L62.6103 308.28C62.2476 309.304 61.8103 310.221 61.2983 311.032C60.8076 311.843 60.1889 312.483 59.4423 312.952C58.7169 313.443 57.8316 313.688 56.7863 313.688ZM76.53 307V305.432C78.578 303.384 80.3167 301.592 81.746 300.056C83.1753 298.499 84.2633 297.101 85.01 295.864C85.7567 294.605 86.13 293.432 86.13 292.344C86.13 291.171 85.81 290.211 85.17 289.464C84.53 288.717 83.5593 288.344 82.258 288.344C81.4047 288.344 80.6153 288.589 79.89 289.08C79.1647 289.549 78.5033 290.125 77.906 290.808L76.402 289.304C77.2553 288.365 78.162 287.619 79.122 287.064C80.1033 286.488 81.2553 286.2 82.578 286.2C84.4767 286.2 85.97 286.755 87.058 287.864C88.146 288.952 88.69 290.403 88.69 292.216C88.69 293.496 88.3273 294.797 87.602 296.12C86.898 297.421 85.9167 298.797 84.658 300.248C83.4207 301.677 81.9913 303.235 80.37 304.92C80.9247 304.877 81.5007 304.835 82.098 304.792C82.6953 304.749 83.2607 304.728 83.794 304.728H89.714V307H76.53Z" fill="#4E4F54"/>
<path d="M17.664 43.768C14.9333 43.768 12.2027 43.256 9.472 42.232C6.784 41.208 4.37333 39.7147 2.24 37.752L7.616 31.288C9.10933 32.568 10.7733 33.6133 12.608 34.424C14.4427 35.2347 16.2133 35.64 17.92 35.64C19.8827 35.64 21.3333 35.2773 22.272 34.552C23.2533 33.8267 23.744 32.8453 23.744 31.608C23.744 30.2853 23.1893 29.3253 22.08 28.728C21.0133 28.088 19.5627 27.384 17.728 26.616L12.288 24.312C10.88 23.7147 9.536 22.9253 8.256 21.944C6.976 20.92 5.93067 19.6613 5.12 18.168C4.30933 16.6747 3.904 14.9253 3.904 12.92C3.904 10.616 4.52267 8.52533 5.76 6.648C7.04 4.77066 8.78933 3.27733 11.008 2.168C13.2693 1.05866 15.8507 0.503998 18.752 0.503998C21.1413 0.503998 23.5307 0.973331 25.92 1.912C28.3093 2.85067 30.4 4.216 32.192 6.008L27.392 11.96C26.0267 10.8933 24.6613 10.0827 23.296 9.528C21.9307 8.93067 20.416 8.632 18.752 8.632C17.1307 8.632 15.8293 8.97333 14.848 9.656C13.9093 10.296 13.44 11.2133 13.44 12.408C13.44 13.688 14.0373 14.648 15.232 15.288C16.4693 15.928 17.984 16.6107 19.776 17.336L25.152 19.512C27.6693 20.536 29.6747 21.944 31.168 23.736C32.6613 25.528 33.408 27.896 33.408 30.84C33.408 33.144 32.7893 35.2773 31.552 37.24C30.3147 39.2027 28.5227 40.7813 26.176 41.976C23.8293 43.1707 20.992 43.768 17.664 43.768ZM53.3545 43.768C50.6665 43.768 48.1278 43.128 45.7385 41.848C43.3918 40.5253 41.4932 38.6267 40.0425 36.152C38.5918 33.6347 37.8665 30.6267 37.8665 27.128C37.8665 23.5867 38.5918 20.5787 40.0425 18.104C41.4932 15.6293 43.3918 13.752 45.7385 12.472C48.1278 11.1493 50.6665 10.488 53.3545 10.488C56.0425 10.488 58.5598 11.1493 60.9065 12.472C63.2532 13.752 65.1518 15.6293 66.6025 18.104C68.0532 20.5787 68.7785 23.5867 68.7785 27.128C68.7785 30.6267 68.0532 33.6347 66.6025 36.152C65.1518 38.6267 63.2532 40.5253 60.9065 41.848C58.5598 43.128 56.0425 43.768 53.3545 43.768ZM53.3545 36.152C55.2745 36.152 56.7252 35.3413 57.7065 33.72C58.6878 32.056 59.1785 29.8587 59.1785 27.128C59.1785 24.3547 58.6878 22.1573 57.7065 20.536C56.7252 18.9147 55.2745 18.104 53.3545 18.104C51.3918 18.104 49.9198 18.9147 48.9385 20.536C47.9998 22.1573 47.5305 24.3547 47.5305 27.128C47.5305 29.8587 47.9998 32.056 48.9385 33.72C49.9198 35.3413 51.3918 36.152 53.3545 36.152ZM84.7585 43.768C81.3025 43.768 78.7852 42.6373 77.2065 40.376C75.6705 38.072 74.9025 34.936 74.9025 30.968V11.256H84.3105V29.752C84.3105 32.0133 84.6305 33.592 85.2705 34.488C85.9105 35.3413 86.9132 35.768 88.2785 35.768C89.4732 35.768 90.4758 35.4907 91.2865 34.936C92.0972 34.3813 92.9718 33.4853 93.9105 32.248V11.256H103.319V43H95.6385L94.9345 38.584H94.7425C93.4198 40.1627 91.9692 41.4213 90.3905 42.36C88.8118 43.2987 86.9345 43.768 84.7585 43.768ZM111.598 43V11.256H119.278L119.918 16.824H120.174C121.326 14.6907 122.712 13.112 124.333 12.088C125.955 11.0213 127.576 10.488 129.198 10.488C130.094 10.488 130.84 10.552 131.438 10.68C132.035 10.7653 132.547 10.9147 132.974 11.128L131.438 19.256C130.883 19.0853 130.328 18.9573 129.774 18.872C129.262 18.7867 128.664 18.744 127.982 18.744C126.787 18.744 125.528 19.192 124.206 20.088C122.926 20.9413 121.859 22.4347 121.006 24.568V43H111.598ZM150.297 43.768C147.353 43.768 144.686 43.128 142.297 41.848C139.95 40.5253 138.073 38.6267 136.665 36.152C135.299 33.6347 134.617 30.6267 134.617 27.128C134.617 23.5867 135.385 20.5787 136.921 18.104C138.457 15.6293 140.483 13.752 143.001 12.472C145.518 11.1493 148.227 10.488 151.128 10.488C153.091 10.488 154.819 10.808 156.313 11.448C157.849 12.088 159.214 12.8987 160.409 13.88L155.993 19.96C154.499 18.7227 153.07 18.104 151.705 18.104C149.443 18.104 147.63 18.9147 146.265 20.536C144.942 22.1573 144.281 24.3547 144.281 27.128C144.281 29.8587 144.942 32.056 146.265 33.72C147.63 35.3413 149.337 36.152 151.385 36.152C152.409 36.152 153.411 35.9387 154.393 35.512C155.374 35.0427 156.27 34.488 157.081 33.848L160.793 39.992C159.214 41.3573 157.507 42.3387 155.673 42.936C153.838 43.4907 152.046 43.768 150.297 43.768ZM178.743 43.768C175.714 43.768 172.983 43.1067 170.551 41.784C168.119 40.4613 166.199 38.5627 164.791 36.088C163.383 33.6133 162.679 30.6267 162.679 27.128C162.679 23.672 163.383 20.7067 164.791 18.232C166.242 15.7573 168.119 13.8587 170.423 12.536C172.727 11.1707 175.138 10.488 177.655 10.488C180.684 10.488 183.18 11.1707 185.143 12.536C187.148 13.8587 188.642 15.672 189.623 17.976C190.647 20.2373 191.159 22.8187 191.159 25.72C191.159 26.5307 191.116 27.3413 191.031 28.152C190.946 28.92 190.86 29.496 190.775 29.88H171.767C172.194 32.184 173.154 33.8907 174.647 35C176.14 36.0667 177.932 36.6 180.023 36.6C182.284 36.6 184.567 35.896 186.871 34.488L190.007 40.184C188.386 41.2933 186.572 42.168 184.567 42.808C182.562 43.448 180.62 43.768 178.743 43.768ZM171.703 23.672H183.159C183.159 21.9227 182.732 20.4933 181.879 19.384C181.068 18.232 179.724 17.656 177.847 17.656C176.396 17.656 175.095 18.168 173.943 19.192C172.791 20.1733 172.044 21.6667 171.703 23.672ZM223.977 43.768C221.246 43.768 218.515 43.256 215.785 42.232C213.097 41.208 210.686 39.7147 208.553 37.752L213.929 31.288C215.422 32.568 217.086 33.6133 218.921 34.424C220.755 35.2347 222.526 35.64 224.233 35.64C226.195 35.64 227.646 35.2773 228.585 34.552C229.566 33.8267 230.057 32.8453 230.057 31.608C230.057 30.2853 229.502 29.3253 228.393 28.728C227.326 28.088 225.875 27.384 224.041 26.616L218.601 24.312C217.193 23.7147 215.849 22.9253 214.569 21.944C213.289 20.92 212.243 19.6613 211.433 18.168C210.622 16.6747 210.217 14.9253 210.217 12.92C210.217 10.616 210.835 8.52533 212.073 6.648C213.353 4.77066 215.102 3.27733 217.321 2.168C219.582 1.05866 222.163 0.503998 225.065 0.503998C227.454 0.503998 229.843 0.973331 232.233 1.912C234.622 2.85067 236.713 4.216 238.505 6.008L233.705 11.96C232.339 10.8933 230.974 10.0827 229.609 9.528C228.243 8.93067 226.729 8.632 225.065 8.632C223.443 8.632 222.142 8.97333 221.161 9.656C220.222 10.296 219.753 11.2133 219.753 12.408C219.753 13.688 220.35 14.648 221.545 15.288C222.782 15.928 224.297 16.6107 226.089 17.336L231.465 19.512C233.982 20.536 235.987 21.944 237.481 23.736C238.974 25.528 239.721 27.896 239.721 30.84C239.721 33.144 239.102 35.2773 237.865 37.24C236.627 39.2027 234.835 40.7813 232.489 41.976C230.142 43.1707 227.305 43.768 223.977 43.768ZM254.035 43.768C251.134 43.768 248.83 42.8507 247.123 41.016C245.416 39.1387 244.563 36.856 244.563 34.168C244.563 30.84 245.971 28.2373 248.787 26.36C251.603 24.4827 256.147 23.224 262.419 22.584C262.334 21.176 261.907 20.0667 261.139 19.256C260.414 18.4027 259.176 17.976 257.427 17.976C256.104 17.976 254.76 18.232 253.395 18.744C252.03 19.256 250.579 19.96 249.043 20.856L245.651 14.648C247.656 13.4107 249.79 12.408 252.051 11.64C254.355 10.872 256.744 10.488 259.219 10.488C263.272 10.488 266.387 11.6613 268.563 14.008C270.739 16.3547 271.827 19.96 271.827 24.824V43H264.147L263.507 39.736H263.251C261.928 40.9307 260.499 41.912 258.963 42.68C257.47 43.4053 255.827 43.768 254.035 43.768ZM257.235 36.472C258.302 36.472 259.219 36.2373 259.987 35.768C260.798 35.256 261.608 34.5947 262.419 33.784V28.216C259.091 28.6427 256.787 29.3253 255.507 30.264C254.227 31.16 253.587 32.2267 253.587 33.464C253.587 34.488 253.907 35.256 254.547 35.768C255.23 36.2373 256.126 36.472 257.235 36.472ZM279.785 43V11.256H287.465L288.105 15.288H288.361C289.726 14.008 291.22 12.8987 292.841 11.96C294.505 10.9787 296.404 10.488 298.537 10.488C301.993 10.488 304.489 11.64 306.025 13.944C307.604 16.2053 308.393 19.32 308.393 23.288V43H298.985V24.504C298.985 22.2 298.665 20.6213 298.025 19.768C297.428 18.9147 296.446 18.488 295.081 18.488C293.886 18.488 292.862 18.7653 292.009 19.32C291.156 19.832 290.217 20.5787 289.193 21.56V43H279.785ZM325.754 43.768C323.663 43.768 321.509 43.3627 319.29 42.552C317.114 41.7413 315.215 40.6747 313.594 39.352L317.818 33.464C319.269 34.5307 320.655 35.3627 321.978 35.96C323.343 36.5147 324.687 36.792 326.01 36.792C327.418 36.792 328.442 36.5573 329.082 36.088C329.722 35.576 330.042 34.9147 330.042 34.104C330.042 33.3787 329.722 32.7813 329.082 32.312C328.485 31.8427 327.695 31.416 326.714 31.032C325.733 30.6053 324.687 30.1787 323.578 29.752C322.298 29.24 321.018 28.6 319.738 27.832C318.501 27.064 317.455 26.0827 316.602 24.888C315.749 23.6507 315.322 22.1573 315.322 20.408C315.322 17.464 316.431 15.0747 318.65 13.24C320.911 11.4053 323.855 10.488 327.482 10.488C329.914 10.488 332.047 10.9147 333.882 11.768C335.759 12.5787 337.359 13.496 338.682 14.52L334.458 20.152C333.349 19.2987 332.239 18.6373 331.13 18.168C330.021 17.6987 328.911 17.464 327.802 17.464C325.37 17.464 324.154 18.296 324.154 19.96C324.154 20.984 324.751 21.7733 325.946 22.328C327.183 22.84 328.613 23.3947 330.234 23.992C331.599 24.4613 332.922 25.08 334.202 25.848C335.525 26.5733 336.613 27.5547 337.466 28.792C338.362 29.9867 338.81 31.5653 338.81 33.528C338.81 36.3867 337.701 38.8187 335.482 40.824C333.263 42.7867 330.021 43.768 325.754 43.768ZM358.366 43V1.272H372.702C375.774 1.272 378.547 1.69867 381.022 2.552C383.539 3.36266 385.544 4.74933 387.038 6.712C388.531 8.67466 389.278 11.3413 389.278 14.712C389.278 17.9547 388.531 20.6213 387.038 22.712C385.544 24.8027 383.56 26.36 381.086 27.384C378.611 28.3653 375.902 28.856 372.958 28.856H367.774V43H358.366ZM367.774 21.368H372.382C377.502 21.368 380.062 19.1493 380.062 14.712C380.062 12.536 379.379 11 378.014 10.104C376.648 9.208 374.686 8.76 372.126 8.76H367.774V21.368ZM395.723 43V11.256H403.403L404.043 16.824H404.299C405.451 14.6907 406.837 13.112 408.458 12.088C410.08 11.0213 411.701 10.488 413.323 10.488C414.219 10.488 414.965 10.552 415.563 10.68C416.16 10.7653 416.672 10.9147 417.099 11.128L415.563 19.256C415.008 19.0853 414.453 18.9573 413.899 18.872C413.387 18.7867 412.789 18.744 412.107 18.744C410.912 18.744 409.653 19.192 408.331 20.088C407.051 20.9413 405.984 22.4347 405.131 24.568V43H395.723ZM434.23 43.768C431.542 43.768 429.003 43.128 426.614 41.848C424.267 40.5253 422.368 38.6267 420.918 36.152C419.467 33.6347 418.742 30.6267 418.742 27.128C418.742 23.5867 419.467 20.5787 420.918 18.104C422.368 15.6293 424.267 13.752 426.614 12.472C429.003 11.1493 431.542 10.488 434.23 10.488C436.918 10.488 439.435 11.1493 441.782 12.472C444.128 13.752 446.027 15.6293 447.478 18.104C448.928 20.5787 449.654 23.5867 449.654 27.128C449.654 30.6267 448.928 33.6347 447.478 36.152C446.027 38.6267 444.128 40.5253 441.782 41.848C439.435 43.128 436.918 43.768 434.23 43.768ZM434.23 36.152C436.15 36.152 437.6 35.3413 438.582 33.72C439.563 32.056 440.054 29.8587 440.054 27.128C440.054 24.3547 439.563 22.1573 438.582 20.536C437.6 18.9147 436.15 18.104 434.23 18.104C432.267 18.104 430.795 18.9147 429.814 20.536C428.875 22.1573 428.406 24.3547 428.406 27.128C428.406 29.8587 428.875 32.056 429.814 33.72C430.795 35.3413 432.267 36.152 434.23 36.152Z" fill="#4E4F54"/>
</svg>
