<svg width="432" height="84" viewBox="0 0 432 84" fill="none" xmlns="http://www.w3.org/2000/svg">
<g filter="url(#filter0_d_5_681)">
<rect width="428" height="80" transform="translate(2)" fill="white"/>
<path fill-rule="evenodd" clip-rule="evenodd" d="M31.96 20.3332C31.6533 17.5532 29.4466 15.3465 26.6666 15.0398V13.6665H25.3333V15.0398C22.5533 15.3465 20.3466 17.5532 20.04 20.3332H18.6666V21.6665H20.04C20.3466 24.4465 22.5533 26.6532 25.3333 26.9598V28.3332H26.6666V26.9598C29.4466 26.6532 31.6533 24.4465 31.96 21.6665H33.3333V20.3332H31.96ZM26 18.3332C24.5266 18.3332 23.3333 19.5265 23.3333 20.9998C23.3333 22.4732 24.5266 23.6665 26 23.6665C27.4733 23.6665 28.6666 22.4732 28.6666 20.9998C28.6666 19.5265 27.4733 18.3332 26 18.3332ZM21.3333 20.9998C21.3333 23.5798 23.42 25.6665 26 25.6665C28.58 25.6665 30.6666 23.5798 30.6666 20.9998C30.6666 18.4198 28.58 16.3332 26 16.3332C23.42 16.3332 21.3333 18.4198 21.3333 20.9998Z" fill="#2B2F39"/>
<path d="M43.2578 25V15.8193H44.4199V24.0088H48.4395V25H43.2578ZM49.6221 23.2363C49.6221 22.498 49.9548 21.9284 50.6201 21.5273C51.2855 21.1263 52.3473 20.846 53.8057 20.6865C53.8057 20.4541 53.7829 20.2422 53.7373 20.0508C53.6963 19.8594 53.6257 19.6794 53.5254 19.5107C53.4251 19.3421 53.2793 19.2122 53.0879 19.1211C52.8965 19.0254 52.6686 18.9775 52.4043 18.9775C51.7663 18.9775 51.0895 19.2214 50.374 19.709L49.916 18.9092C50.832 18.3213 51.723 18.0273 52.5889 18.0273C53.3955 18.0273 53.9902 18.2734 54.373 18.7656C54.7604 19.2578 54.9541 19.946 54.9541 20.8301V25H54.0039L53.9014 24.1865H53.874C53.0674 24.8428 52.3177 25.1709 51.625 25.1709C51.0371 25.1709 50.5563 24.9977 50.1826 24.6514C49.8089 24.305 49.6221 23.8333 49.6221 23.2363ZM50.7568 23.1543C50.7568 23.5234 50.8662 23.7969 51.085 23.9746C51.3037 24.1523 51.5908 24.2412 51.9463 24.2412C52.2607 24.2412 52.5615 24.1683 52.8486 24.0225C53.1403 23.8721 53.4593 23.6419 53.8057 23.332V21.4453C52.7028 21.582 51.9189 21.7894 51.4541 22.0674C50.9893 22.3408 50.7568 22.7031 50.7568 23.1543ZM57.1211 25V18.1982H58.0713L58.1738 19.1758H58.2148C58.5794 18.8112 58.9417 18.5286 59.3018 18.3281C59.6663 18.1276 60.0651 18.0273 60.498 18.0273C61.8789 18.0273 62.5693 18.9137 62.5693 20.6865V25H61.4209V20.8438C61.4209 20.2103 61.3161 19.75 61.1064 19.4629C60.9014 19.1712 60.5755 19.0254 60.1289 19.0254C59.8008 19.0254 59.5023 19.1074 59.2334 19.2715C58.9645 19.431 58.6432 19.6976 58.2695 20.0713V25H57.1211ZM64.2578 26.2988C64.2578 26.0163 64.3444 25.7428 64.5176 25.4785C64.6953 25.2142 64.9414 24.9749 65.2559 24.7607V24.7061C64.8548 24.4508 64.6543 24.0817 64.6543 23.5986C64.6543 23.3343 64.7249 23.0951 64.8662 22.8809C65.012 22.6621 65.1875 22.4821 65.3926 22.3408V22.2861C65.1419 22.0856 64.9323 21.8236 64.7637 21.5C64.5951 21.1764 64.5107 20.8255 64.5107 20.4473C64.5107 19.7272 64.7591 19.1439 65.2559 18.6973C65.7526 18.2507 66.3587 18.0273 67.0742 18.0273C67.416 18.0273 67.7373 18.0843 68.0381 18.1982H70.4033V19.0801H69.002C69.1706 19.2396 69.305 19.4424 69.4053 19.6885C69.5101 19.9346 69.5625 20.1966 69.5625 20.4746C69.5625 21.1855 69.3255 21.7598 68.8516 22.1973C68.3776 22.6302 67.7852 22.8467 67.0742 22.8467C66.7005 22.8467 66.3587 22.7669 66.0488 22.6074C65.7617 22.8626 65.6182 23.1338 65.6182 23.4209C65.6182 23.9131 66.0192 24.1592 66.8213 24.1592H68.1338C68.9359 24.1592 69.5329 24.2913 69.9248 24.5557C70.3213 24.8154 70.5195 25.2256 70.5195 25.7861C70.5195 26.4378 70.2005 26.9915 69.5625 27.4473C68.929 27.9076 68.0996 28.1377 67.0742 28.1377C66.222 28.1377 65.5384 27.9759 65.0234 27.6523C64.513 27.3288 64.2578 26.8776 64.2578 26.2988ZM65.2695 26.1484C65.2695 26.513 65.445 26.8024 65.7959 27.0166C66.1468 27.2308 66.6276 27.3379 67.2383 27.3379C67.8672 27.3379 68.3844 27.1989 68.79 26.9209C69.1956 26.6429 69.3984 26.3193 69.3984 25.9502C69.3984 25.6449 69.2845 25.4284 69.0566 25.3008C68.8288 25.1732 68.4847 25.1094 68.0244 25.1094H66.8486C66.5205 25.1094 66.2266 25.0729 65.9668 25C65.502 25.3281 65.2695 25.7109 65.2695 26.1484ZM66.042 19.2988C65.7686 19.5814 65.6318 19.9642 65.6318 20.4473C65.6318 20.9303 65.7708 21.3223 66.0488 21.623C66.3268 21.9238 66.6686 22.0742 67.0742 22.0742C67.4798 22.0742 67.8216 21.9238 68.0996 21.623C68.3776 21.3223 68.5166 20.9303 68.5166 20.4473C68.5166 19.9642 68.3799 19.5814 68.1064 19.2988C67.833 19.0117 67.4889 18.8682 67.0742 18.8682C66.6595 18.8682 66.3154 19.0117 66.042 19.2988ZM71.2646 23.2363C71.2646 22.498 71.5973 21.9284 72.2627 21.5273C72.9281 21.1263 73.9899 20.846 75.4482 20.6865C75.4482 20.4541 75.4255 20.2422 75.3799 20.0508C75.3389 19.8594 75.2682 19.6794 75.168 19.5107C75.0677 19.3421 74.9219 19.2122 74.7305 19.1211C74.5391 19.0254 74.3112 18.9775 74.0469 18.9775C73.4089 18.9775 72.7321 19.2214 72.0166 19.709L71.5586 18.9092C72.4746 18.3213 73.3656 18.0273 74.2314 18.0273C75.0381 18.0273 75.6328 18.2734 76.0156 18.7656C76.403 19.2578 76.5967 19.946 76.5967 20.8301V25H75.6465L75.5439 24.1865H75.5166C74.71 24.8428 73.9603 25.1709 73.2676 25.1709C72.6797 25.1709 72.1989 24.9977 71.8252 24.6514C71.4515 24.305 71.2646 23.8333 71.2646 23.2363ZM72.3994 23.1543C72.3994 23.5234 72.5088 23.7969 72.7275 23.9746C72.9463 24.1523 73.2334 24.2412 73.5889 24.2412C73.9033 24.2412 74.2041 24.1683 74.4912 24.0225C74.7829 23.8721 75.1019 23.6419 75.4482 23.332V21.4453C74.3454 21.582 73.5615 21.7894 73.0967 22.0674C72.6318 22.3408 72.3994 22.7031 72.3994 23.1543ZM78.7637 25V18.1982H79.7139L79.8164 19.4287H79.8574C80.0944 18.9912 80.3792 18.6494 80.7119 18.4033C81.0492 18.1527 81.4069 18.0273 81.7852 18.0273C82.0495 18.0273 82.2933 18.0752 82.5166 18.1709L82.291 19.1758C82.0495 19.1029 81.8307 19.0664 81.6348 19.0664C81.3203 19.0664 81.0081 19.194 80.6982 19.4492C80.3929 19.6999 80.1309 20.0941 79.9121 20.6318V25H78.7637ZM82.9268 23.2363C82.9268 22.498 83.2594 21.9284 83.9248 21.5273C84.5902 21.1263 85.652 20.846 87.1104 20.6865C87.1104 20.4541 87.0876 20.2422 87.042 20.0508C87.001 19.8594 86.9303 19.6794 86.8301 19.5107C86.7298 19.3421 86.584 19.2122 86.3926 19.1211C86.2012 19.0254 85.9733 18.9775 85.709 18.9775C85.071 18.9775 84.3942 19.2214 83.6787 19.709L83.2207 18.9092C84.1367 18.3213 85.0277 18.0273 85.8936 18.0273C86.7002 18.0273 87.2949 18.2734 87.6777 18.7656C88.0651 19.2578 88.2588 19.946 88.2588 20.8301V25H87.3086L87.2061 24.1865H87.1787C86.3721 24.8428 85.6224 25.1709 84.9297 25.1709C84.3418 25.1709 83.861 24.9977 83.4873 24.6514C83.1136 24.305 82.9268 23.8333 82.9268 23.2363ZM84.0615 23.1543C84.0615 23.5234 84.1709 23.7969 84.3896 23.9746C84.6084 24.1523 84.8955 24.2412 85.251 24.2412C85.5654 24.2412 85.8662 24.1683 86.1533 24.0225C86.445 23.8721 86.764 23.6419 87.1104 23.332V21.4453C86.0075 21.582 85.2236 21.7894 84.7588 22.0674C84.2939 22.3408 84.0615 22.7031 84.0615 23.1543ZM92.832 20.4062C92.832 18.957 93.2148 17.8018 93.9805 16.9404C94.7461 16.0791 95.7282 15.6484 96.9268 15.6484C97.4463 15.6484 97.918 15.7555 98.3418 15.9697C98.7702 16.1794 99.1325 16.4505 99.4287 16.7832L98.7725 17.5215C98.2484 16.9518 97.6377 16.667 96.9404 16.667C96.0609 16.667 95.3568 17.002 94.8281 17.6719C94.304 18.3418 94.042 19.2441 94.042 20.3789C94.042 21.5319 94.2972 22.4479 94.8076 23.127C95.318 23.806 96.0085 24.1455 96.8789 24.1455C97.6855 24.1455 98.3919 23.806 98.998 23.127L99.6543 23.8379C98.8887 24.7266 97.9544 25.1709 96.8516 25.1709C96.2728 25.1709 95.7373 25.0615 95.2451 24.8428C94.7575 24.624 94.3337 24.3141 93.9736 23.9131C93.6182 23.512 93.3379 23.0107 93.1328 22.4092C92.9323 21.8076 92.832 21.14 92.832 20.4062ZM100.748 21.6094C100.748 21.0534 100.832 20.5475 101.001 20.0918C101.174 19.6315 101.407 19.2533 101.698 18.957C101.99 18.6608 102.325 18.4329 102.703 18.2734C103.081 18.1094 103.48 18.0273 103.899 18.0273C104.319 18.0273 104.717 18.1094 105.096 18.2734C105.474 18.4329 105.809 18.6608 106.101 18.957C106.392 19.2533 106.622 19.6315 106.791 20.0918C106.964 20.5475 107.051 21.0534 107.051 21.6094C107.051 22.1562 106.964 22.6576 106.791 23.1133C106.622 23.569 106.392 23.945 106.101 24.2412C105.809 24.5374 105.474 24.7676 105.096 24.9316C104.717 25.0911 104.319 25.1709 103.899 25.1709C103.48 25.1709 103.081 25.0911 102.703 24.9316C102.325 24.7676 101.99 24.5374 101.698 24.2412C101.407 23.945 101.174 23.569 101.001 23.1133C100.832 22.6576 100.748 22.1562 100.748 21.6094ZM101.938 21.6094C101.938 22.3841 102.118 23.013 102.478 23.4961C102.842 23.9746 103.316 24.2139 103.899 24.2139C104.487 24.2139 104.961 23.9746 105.321 23.4961C105.681 23.013 105.861 22.3841 105.861 21.6094C105.861 20.8255 105.681 20.1921 105.321 19.709C104.961 19.2214 104.487 18.9775 103.899 18.9775C103.316 18.9775 102.842 19.2214 102.478 19.709C102.118 20.1921 101.938 20.8255 101.938 21.6094ZM108.842 23.626V15.0332H109.99V23.7148C109.99 23.8835 110.02 24.0088 110.079 24.0908C110.138 24.1729 110.216 24.2139 110.312 24.2139C110.398 24.2139 110.482 24.2048 110.564 24.1865L110.715 25.0547C110.537 25.1322 110.318 25.1709 110.059 25.1709C109.635 25.1709 109.325 25.041 109.129 24.7812C108.938 24.5215 108.842 24.1364 108.842 23.626ZM112.41 23.626V15.0332H113.559V23.7148C113.559 23.8835 113.588 24.0088 113.647 24.0908C113.707 24.1729 113.784 24.2139 113.88 24.2139C113.966 24.2139 114.051 24.2048 114.133 24.1865L114.283 25.0547C114.105 25.1322 113.887 25.1709 113.627 25.1709C113.203 25.1709 112.893 25.041 112.697 24.7812C112.506 24.5215 112.41 24.1364 112.41 23.626ZM115.473 21.6094C115.473 21.0716 115.559 20.5749 115.732 20.1191C115.906 19.6589 116.133 19.2783 116.416 18.9775C116.703 18.6768 117.029 18.4443 117.394 18.2803C117.758 18.1117 118.136 18.0273 118.528 18.0273C119.385 18.0273 120.05 18.3145 120.524 18.8887C121.003 19.4583 121.242 20.2354 121.242 21.2197C121.242 21.4704 121.229 21.68 121.201 21.8486H116.607C116.648 22.5824 116.874 23.1657 117.284 23.5986C117.694 24.027 118.225 24.2412 118.877 24.2412C119.456 24.2412 120.021 24.0658 120.572 23.7148L120.976 24.4668C120.242 24.9362 119.494 25.1709 118.733 25.1709C117.799 25.1709 117.022 24.8496 116.402 24.207C115.783 23.5599 115.473 22.694 115.473 21.6094ZM116.594 21.0967H120.237C120.237 20.404 120.089 19.8708 119.793 19.4971C119.501 19.1234 119.089 18.9365 118.556 18.9365C118.059 18.9365 117.624 19.1302 117.25 19.5176C116.881 19.9049 116.662 20.4313 116.594 21.0967ZM122.268 26.2988C122.268 26.0163 122.354 25.7428 122.527 25.4785C122.705 25.2142 122.951 24.9749 123.266 24.7607V24.7061C122.865 24.4508 122.664 24.0817 122.664 23.5986C122.664 23.3343 122.735 23.0951 122.876 22.8809C123.022 22.6621 123.197 22.4821 123.402 22.3408V22.2861C123.152 22.0856 122.942 21.8236 122.773 21.5C122.605 21.1764 122.521 20.8255 122.521 20.4473C122.521 19.7272 122.769 19.1439 123.266 18.6973C123.762 18.2507 124.368 18.0273 125.084 18.0273C125.426 18.0273 125.747 18.0843 126.048 18.1982H128.413V19.0801H127.012C127.18 19.2396 127.315 19.4424 127.415 19.6885C127.52 19.9346 127.572 20.1966 127.572 20.4746C127.572 21.1855 127.335 21.7598 126.861 22.1973C126.387 22.6302 125.795 22.8467 125.084 22.8467C124.71 22.8467 124.368 22.7669 124.059 22.6074C123.771 22.8626 123.628 23.1338 123.628 23.4209C123.628 23.9131 124.029 24.1592 124.831 24.1592H126.144C126.946 24.1592 127.543 24.2913 127.935 24.5557C128.331 24.8154 128.529 25.2256 128.529 25.7861C128.529 26.4378 128.21 26.9915 127.572 27.4473C126.939 27.9076 126.109 28.1377 125.084 28.1377C124.232 28.1377 123.548 27.9759 123.033 27.6523C122.523 27.3288 122.268 26.8776 122.268 26.2988ZM123.279 26.1484C123.279 26.513 123.455 26.8024 123.806 27.0166C124.157 27.2308 124.637 27.3379 125.248 27.3379C125.877 27.3379 126.394 27.1989 126.8 26.9209C127.205 26.6429 127.408 26.3193 127.408 25.9502C127.408 25.6449 127.294 25.4284 127.066 25.3008C126.839 25.1732 126.494 25.1094 126.034 25.1094H124.858C124.53 25.1094 124.236 25.0729 123.977 25C123.512 25.3281 123.279 25.7109 123.279 26.1484ZM124.052 19.2988C123.778 19.5814 123.642 19.9642 123.642 20.4473C123.642 20.9303 123.781 21.3223 124.059 21.623C124.337 21.9238 124.678 22.0742 125.084 22.0742C125.49 22.0742 125.831 21.9238 126.109 21.623C126.387 21.3223 126.526 20.9303 126.526 20.4473C126.526 19.9642 126.39 19.5814 126.116 19.2988C125.843 19.0117 125.499 18.8682 125.084 18.8682C124.669 18.8682 124.325 19.0117 124.052 19.2988ZM129.131 21.6094C129.131 21.0716 129.217 20.5749 129.391 20.1191C129.564 19.6589 129.792 19.2783 130.074 18.9775C130.361 18.6768 130.687 18.4443 131.052 18.2803C131.416 18.1117 131.795 18.0273 132.187 18.0273C133.043 18.0273 133.709 18.3145 134.183 18.8887C134.661 19.4583 134.9 20.2354 134.9 21.2197C134.9 21.4704 134.887 21.68 134.859 21.8486H130.266C130.307 22.5824 130.532 23.1657 130.942 23.5986C131.353 24.027 131.883 24.2412 132.535 24.2412C133.114 24.2412 133.679 24.0658 134.23 23.7148L134.634 24.4668C133.9 24.9362 133.153 25.1709 132.392 25.1709C131.457 25.1709 130.68 24.8496 130.061 24.207C129.441 23.5599 129.131 22.694 129.131 21.6094ZM130.252 21.0967H133.896C133.896 20.404 133.747 19.8708 133.451 19.4971C133.16 19.1234 132.747 18.9365 132.214 18.9365C131.717 18.9365 131.282 19.1302 130.908 19.5176C130.539 19.9049 130.32 20.4313 130.252 21.0967Z" fill="#2B2F39"/>
<path d="M306.725 20.4062C306.725 18.957 307.107 17.8018 307.873 16.9404C308.639 16.0791 309.621 15.6484 310.819 15.6484C311.339 15.6484 311.811 15.7555 312.234 15.9697C312.663 16.1794 313.025 16.4505 313.321 16.7832L312.665 17.5215C312.141 16.9518 311.53 16.667 310.833 16.667C309.953 16.667 309.249 17.002 308.721 17.6719C308.197 18.3418 307.935 19.2441 307.935 20.3789C307.935 21.5319 308.19 22.4479 308.7 23.127C309.211 23.806 309.901 24.1455 310.771 24.1455C311.578 24.1455 312.285 23.806 312.891 23.127L313.547 23.8379C312.781 24.7266 311.847 25.1709 310.744 25.1709C310.165 25.1709 309.63 25.0615 309.138 24.8428C308.65 24.624 308.226 24.3141 307.866 23.9131C307.511 23.512 307.23 23.0107 307.025 22.4092C306.825 21.8076 306.725 21.14 306.725 20.4062ZM315.146 25V15.0332H316.295V17.7471L316.254 19.1484C316.628 18.793 316.992 18.5173 317.348 18.3213C317.703 18.1253 318.095 18.0273 318.523 18.0273C319.904 18.0273 320.595 18.9137 320.595 20.6865V25H319.446V20.8438C319.446 20.2103 319.341 19.75 319.132 19.4629C318.927 19.1712 318.601 19.0254 318.154 19.0254C317.826 19.0254 317.528 19.1074 317.259 19.2715C316.99 19.431 316.669 19.6976 316.295 20.0713V25H315.146ZM322.427 23.2363C322.427 22.498 322.759 21.9284 323.425 21.5273C324.09 21.1263 325.152 20.846 326.61 20.6865C326.61 20.4541 326.588 20.2422 326.542 20.0508C326.501 19.8594 326.43 19.6794 326.33 19.5107C326.23 19.3421 326.084 19.2122 325.893 19.1211C325.701 19.0254 325.473 18.9775 325.209 18.9775C324.571 18.9775 323.894 19.2214 323.179 19.709L322.721 18.9092C323.637 18.3213 324.528 18.0273 325.394 18.0273C326.2 18.0273 326.795 18.2734 327.178 18.7656C327.565 19.2578 327.759 19.946 327.759 20.8301V25H326.809L326.706 24.1865H326.679C325.872 24.8428 325.122 25.1709 324.43 25.1709C323.842 25.1709 323.361 24.9977 322.987 24.6514C322.614 24.305 322.427 23.8333 322.427 23.2363ZM323.562 23.1543C323.562 23.5234 323.671 23.7969 323.89 23.9746C324.108 24.1523 324.396 24.2412 324.751 24.2412C325.065 24.2412 325.366 24.1683 325.653 24.0225C325.945 23.8721 326.264 23.6419 326.61 23.332V21.4453C325.507 21.582 324.724 21.7894 324.259 22.0674C323.794 22.3408 323.562 22.7031 323.562 23.1543ZM329.926 25V18.1982H330.876L330.979 19.1758H331.02C331.384 18.8112 331.746 18.5286 332.106 18.3281C332.471 18.1276 332.87 18.0273 333.303 18.0273C334.684 18.0273 335.374 18.9137 335.374 20.6865V25H334.226V20.8438C334.226 20.2103 334.121 19.75 333.911 19.4629C333.706 19.1712 333.38 19.0254 332.934 19.0254C332.605 19.0254 332.307 19.1074 332.038 19.2715C331.769 19.431 331.448 19.6976 331.074 20.0713V25H329.926ZM337.062 26.2988C337.062 26.0163 337.149 25.7428 337.322 25.4785C337.5 25.2142 337.746 24.9749 338.061 24.7607V24.7061C337.66 24.4508 337.459 24.0817 337.459 23.5986C337.459 23.3343 337.53 23.0951 337.671 22.8809C337.817 22.6621 337.992 22.4821 338.197 22.3408V22.2861C337.947 22.0856 337.737 21.8236 337.568 21.5C337.4 21.1764 337.315 20.8255 337.315 20.4473C337.315 19.7272 337.564 19.1439 338.061 18.6973C338.557 18.2507 339.163 18.0273 339.879 18.0273C340.221 18.0273 340.542 18.0843 340.843 18.1982H343.208V19.0801H341.807C341.975 19.2396 342.11 19.4424 342.21 19.6885C342.315 19.9346 342.367 20.1966 342.367 20.4746C342.367 21.1855 342.13 21.7598 341.656 22.1973C341.182 22.6302 340.59 22.8467 339.879 22.8467C339.505 22.8467 339.163 22.7669 338.854 22.6074C338.566 22.8626 338.423 23.1338 338.423 23.4209C338.423 23.9131 338.824 24.1592 339.626 24.1592H340.938C341.741 24.1592 342.338 24.2913 342.729 24.5557C343.126 24.8154 343.324 25.2256 343.324 25.7861C343.324 26.4378 343.005 26.9915 342.367 27.4473C341.734 27.9076 340.904 28.1377 339.879 28.1377C339.027 28.1377 338.343 27.9759 337.828 27.6523C337.318 27.3288 337.062 26.8776 337.062 26.2988ZM338.074 26.1484C338.074 26.513 338.25 26.8024 338.601 27.0166C338.951 27.2308 339.432 27.3379 340.043 27.3379C340.672 27.3379 341.189 27.1989 341.595 26.9209C342 26.6429 342.203 26.3193 342.203 25.9502C342.203 25.6449 342.089 25.4284 341.861 25.3008C341.633 25.1732 341.289 25.1094 340.829 25.1094H339.653C339.325 25.1094 339.031 25.0729 338.771 25C338.307 25.3281 338.074 25.7109 338.074 26.1484ZM338.847 19.2988C338.573 19.5814 338.437 19.9642 338.437 20.4473C338.437 20.9303 338.576 21.3223 338.854 21.623C339.132 21.9238 339.473 22.0742 339.879 22.0742C340.285 22.0742 340.626 21.9238 340.904 21.623C341.182 21.3223 341.321 20.9303 341.321 20.4473C341.321 19.9642 341.185 19.5814 340.911 19.2988C340.638 19.0117 340.294 18.8682 339.879 18.8682C339.464 18.8682 339.12 19.0117 338.847 19.2988ZM343.926 21.6094C343.926 21.0716 344.012 20.5749 344.186 20.1191C344.359 19.6589 344.587 19.2783 344.869 18.9775C345.156 18.6768 345.482 18.4443 345.847 18.2803C346.211 18.1117 346.59 18.0273 346.981 18.0273C347.838 18.0273 348.504 18.3145 348.978 18.8887C349.456 19.4583 349.695 20.2354 349.695 21.2197C349.695 21.4704 349.682 21.68 349.654 21.8486H345.061C345.102 22.5824 345.327 23.1657 345.737 23.5986C346.147 24.027 346.678 24.2412 347.33 24.2412C347.909 24.2412 348.474 24.0658 349.025 23.7148L349.429 24.4668C348.695 24.9362 347.948 25.1709 347.187 25.1709C346.252 25.1709 345.475 24.8496 344.855 24.207C344.236 23.5599 343.926 22.694 343.926 21.6094ZM345.047 21.0967H348.69C348.69 20.404 348.542 19.8708 348.246 19.4971C347.954 19.1234 347.542 18.9365 347.009 18.9365C346.512 18.9365 346.077 19.1302 345.703 19.5176C345.334 19.9049 345.115 20.4313 345.047 21.0967ZM354.207 23.626V15.0332H355.355V23.7148C355.355 23.8835 355.385 24.0088 355.444 24.0908C355.504 24.1729 355.581 24.2139 355.677 24.2139C355.763 24.2139 355.848 24.2048 355.93 24.1865L356.08 25.0547C355.902 25.1322 355.684 25.1709 355.424 25.1709C355 25.1709 354.69 25.041 354.494 24.7812C354.303 24.5215 354.207 24.1364 354.207 23.626ZM357.27 21.6094C357.27 21.0534 357.354 20.5475 357.522 20.0918C357.696 19.6315 357.928 19.2533 358.22 18.957C358.511 18.6608 358.846 18.4329 359.225 18.2734C359.603 18.1094 360.002 18.0273 360.421 18.0273C360.84 18.0273 361.239 18.1094 361.617 18.2734C361.995 18.4329 362.33 18.6608 362.622 18.957C362.914 19.2533 363.144 19.6315 363.312 20.0918C363.486 20.5475 363.572 21.0534 363.572 21.6094C363.572 22.1562 363.486 22.6576 363.312 23.1133C363.144 23.569 362.914 23.945 362.622 24.2412C362.33 24.5374 361.995 24.7676 361.617 24.9316C361.239 25.0911 360.84 25.1709 360.421 25.1709C360.002 25.1709 359.603 25.0911 359.225 24.9316C358.846 24.7676 358.511 24.5374 358.22 24.2412C357.928 23.945 357.696 23.569 357.522 23.1133C357.354 22.6576 357.27 22.1562 357.27 21.6094ZM358.459 21.6094C358.459 22.3841 358.639 23.013 358.999 23.4961C359.364 23.9746 359.838 24.2139 360.421 24.2139C361.009 24.2139 361.483 23.9746 361.843 23.4961C362.203 23.013 362.383 22.3841 362.383 21.6094C362.383 20.8255 362.203 20.1921 361.843 19.709C361.483 19.2214 361.009 18.9775 360.421 18.9775C359.838 18.9775 359.364 19.2214 358.999 19.709C358.639 20.1921 358.459 20.8255 358.459 21.6094ZM364.857 21.6094C364.857 21.0534 364.944 20.5475 365.117 20.0918C365.295 19.6315 365.534 19.2533 365.835 18.957C366.14 18.6608 366.489 18.4329 366.881 18.2734C367.273 18.1094 367.69 18.0273 368.132 18.0273C368.875 18.0273 369.538 18.2985 370.121 18.8408L369.547 19.5791C369.082 19.1781 368.626 18.9775 368.18 18.9775C367.56 18.9775 367.049 19.2214 366.648 19.709C366.247 20.1966 366.047 20.8301 366.047 21.6094C366.047 22.3841 366.241 23.013 366.628 23.4961C367.015 23.9746 367.521 24.2139 368.146 24.2139C368.706 24.2139 369.239 23.986 369.745 23.5303L370.265 24.2891C369.604 24.877 368.866 25.1709 368.05 25.1709C367.12 25.1709 366.354 24.8519 365.753 24.2139C365.156 23.5758 364.857 22.7077 364.857 21.6094ZM371.276 23.2363C371.276 22.498 371.609 21.9284 372.274 21.5273C372.94 21.1263 374.002 20.846 375.46 20.6865C375.46 20.4541 375.437 20.2422 375.392 20.0508C375.351 19.8594 375.28 19.6794 375.18 19.5107C375.079 19.3421 374.934 19.2122 374.742 19.1211C374.551 19.0254 374.323 18.9775 374.059 18.9775C373.421 18.9775 372.744 19.2214 372.028 19.709L371.57 18.9092C372.486 18.3213 373.377 18.0273 374.243 18.0273C375.05 18.0273 375.645 18.2734 376.027 18.7656C376.415 19.2578 376.608 19.946 376.608 20.8301V25H375.658L375.556 24.1865H375.528C374.722 24.8428 373.972 25.1709 373.279 25.1709C372.691 25.1709 372.211 24.9977 371.837 24.6514C371.463 24.305 371.276 23.8333 371.276 23.2363ZM372.411 23.1543C372.411 23.5234 372.521 23.7969 372.739 23.9746C372.958 24.1523 373.245 24.2412 373.601 24.2412C373.915 24.2412 374.216 24.1683 374.503 24.0225C374.795 23.8721 375.114 23.6419 375.46 23.332V21.4453C374.357 21.582 373.573 21.7894 373.108 22.0674C372.644 22.3408 372.411 22.7031 372.411 23.1543ZM377.962 19.1348V18.2666L379.028 18.1982L379.165 16.291H380.136V18.1982H381.968V19.1348H380.136V22.915C380.136 23.3571 380.215 23.6875 380.375 23.9062C380.535 24.1204 380.803 24.2275 381.182 24.2275C381.373 24.2275 381.631 24.1683 381.954 24.0498L382.18 24.918C381.665 25.0866 381.243 25.1709 380.915 25.1709C380.222 25.1709 379.726 24.9727 379.425 24.5762C379.124 24.1797 378.974 23.6214 378.974 22.9014V19.1348H377.962ZM383.294 16.0518C383.294 15.8285 383.369 15.6507 383.52 15.5186C383.674 15.3818 383.866 15.3135 384.094 15.3135C384.322 15.3135 384.511 15.3818 384.661 15.5186C384.816 15.6507 384.894 15.8285 384.894 16.0518C384.894 16.266 384.816 16.4437 384.661 16.585C384.511 16.7262 384.322 16.7969 384.094 16.7969C383.866 16.7969 383.674 16.7262 383.52 16.585C383.369 16.4437 383.294 16.266 383.294 16.0518ZM383.506 25V18.1982H384.654V25H383.506ZM386.445 21.6094C386.445 21.0534 386.53 20.5475 386.698 20.0918C386.871 19.6315 387.104 19.2533 387.396 18.957C387.687 18.6608 388.022 18.4329 388.4 18.2734C388.779 18.1094 389.177 18.0273 389.597 18.0273C390.016 18.0273 390.415 18.1094 390.793 18.2734C391.171 18.4329 391.506 18.6608 391.798 18.957C392.09 19.2533 392.32 19.6315 392.488 20.0918C392.661 20.5475 392.748 21.0534 392.748 21.6094C392.748 22.1562 392.661 22.6576 392.488 23.1133C392.32 23.569 392.09 23.945 391.798 24.2412C391.506 24.5374 391.171 24.7676 390.793 24.9316C390.415 25.0911 390.016 25.1709 389.597 25.1709C389.177 25.1709 388.779 25.0911 388.4 24.9316C388.022 24.7676 387.687 24.5374 387.396 24.2412C387.104 23.945 386.871 23.569 386.698 23.1133C386.53 22.6576 386.445 22.1562 386.445 21.6094ZM387.635 21.6094C387.635 22.3841 387.815 23.013 388.175 23.4961C388.539 23.9746 389.013 24.2139 389.597 24.2139C390.185 24.2139 390.659 23.9746 391.019 23.4961C391.379 23.013 391.559 22.3841 391.559 21.6094C391.559 20.8255 391.379 20.1921 391.019 19.709C390.659 19.2214 390.185 18.9775 389.597 18.9775C389.013 18.9775 388.539 19.2214 388.175 19.709C387.815 20.1921 387.635 20.8255 387.635 21.6094ZM394.539 25V18.1982H395.489L395.592 19.1758H395.633C395.997 18.8112 396.36 18.5286 396.72 18.3281C397.084 18.1276 397.483 18.0273 397.916 18.0273C399.297 18.0273 399.987 18.9137 399.987 20.6865V25H398.839V20.8438C398.839 20.2103 398.734 19.75 398.524 19.4629C398.319 19.1712 397.993 19.0254 397.547 19.0254C397.219 19.0254 396.92 19.1074 396.651 19.2715C396.382 19.431 396.061 19.6976 395.688 20.0713V25H394.539Z" fill="#189E97"/>
<path fill-rule="evenodd" clip-rule="evenodd" d="M35.3532 57.9092H35.8469L38.9657 61.0342L38.0344 61.9654L34.9094 58.8467V58.3529L34.7407 58.1779C34.0282 58.7904 33.1032 59.1592 32.0969 59.1592C29.8532 59.1592 28.0344 57.3404 28.0344 55.0967C28.0344 52.8529 29.8532 51.0342 32.0969 51.0342C34.3407 51.0342 36.1594 52.8529 36.1594 55.0967C36.1594 56.1029 35.7907 57.0279 35.1782 57.7404L35.3532 57.9092ZM29.2844 55.0967C29.2844 56.6529 30.5407 57.9092 32.0969 57.9092C33.6532 57.9092 34.9094 56.6529 34.9094 55.0967C34.9094 53.5404 33.6532 52.2842 32.0969 52.2842C30.5407 52.2842 29.2844 53.5404 29.2844 55.0967Z" fill="black"/>
<path d="M48.288 61.144C47.76 61.144 47.248 61.044 46.752 60.844C46.264 60.644 45.832 60.36 45.456 59.992L46.272 59.044C46.552 59.308 46.872 59.524 47.232 59.692C47.592 59.852 47.952 59.932 48.312 59.932C48.76 59.932 49.1 59.84 49.332 59.656C49.564 59.472 49.68 59.228 49.68 58.924C49.68 58.596 49.564 58.36 49.332 58.216C49.108 58.072 48.82 57.924 48.468 57.772L47.388 57.304C47.132 57.192 46.88 57.048 46.632 56.872C46.392 56.696 46.192 56.472 46.032 56.2C45.88 55.928 45.804 55.6 45.804 55.216C45.804 54.8 45.916 54.428 46.14 54.1C46.372 53.764 46.684 53.5 47.076 53.308C47.476 53.108 47.932 53.008 48.444 53.008C48.9 53.008 49.34 53.1 49.764 53.284C50.188 53.46 50.552 53.7 50.856 54.004L50.148 54.892C49.9 54.684 49.636 54.52 49.356 54.4C49.084 54.28 48.78 54.22 48.444 54.22C48.076 54.22 47.776 54.304 47.544 54.472C47.32 54.632 47.208 54.856 47.208 55.144C47.208 55.344 47.264 55.512 47.376 55.648C47.496 55.776 47.652 55.888 47.844 55.984C48.036 56.072 48.24 56.16 48.456 56.248L49.524 56.692C49.988 56.892 50.368 57.156 50.664 57.484C50.96 57.804 51.108 58.248 51.108 58.816C51.108 59.24 50.996 59.628 50.772 59.98C50.548 60.332 50.224 60.616 49.8 60.832C49.384 61.04 48.88 61.144 48.288 61.144ZM54.9351 61.144C54.3911 61.144 53.8991 61.024 53.4591 60.784C53.0191 60.536 52.6711 60.184 52.4151 59.728C52.1591 59.264 52.0311 58.708 52.0311 58.06C52.0311 57.42 52.1591 56.868 52.4151 56.404C52.6791 55.94 53.0191 55.584 53.4351 55.336C53.8511 55.088 54.2871 54.964 54.7431 54.964C55.2791 54.964 55.7271 55.084 56.0871 55.324C56.4471 55.556 56.7191 55.884 56.9031 56.308C57.0871 56.724 57.1791 57.208 57.1791 57.76C57.1791 58.048 57.1591 58.272 57.1191 58.432H53.3751C53.4391 58.952 53.6271 59.356 53.9391 59.644C54.2511 59.932 54.6431 60.076 55.1151 60.076C55.3711 60.076 55.6071 60.04 55.8231 59.968C56.0471 59.888 56.2671 59.78 56.4831 59.644L56.9511 60.508C56.6711 60.692 56.3591 60.844 56.0151 60.964C55.6711 61.084 55.3111 61.144 54.9351 61.144ZM53.3631 57.496H55.9791C55.9791 57.04 55.8791 56.684 55.6791 56.428C55.4791 56.164 55.1791 56.032 54.7791 56.032C54.4351 56.032 54.1271 56.16 53.8551 56.416C53.5911 56.664 53.4271 57.024 53.3631 57.496ZM59.7845 61.144C59.2725 61.144 58.8525 60.984 58.5245 60.664C58.2045 60.344 58.0445 59.928 58.0445 59.416C58.0445 58.784 58.3205 58.296 58.8725 57.952C59.4245 57.6 60.3045 57.36 61.5125 57.232C61.5045 56.92 61.4205 56.652 61.2605 56.428C61.1085 56.196 60.8325 56.08 60.4325 56.08C60.1445 56.08 59.8605 56.136 59.5805 56.248C59.3085 56.36 59.0405 56.496 58.7765 56.656L58.2725 55.732C58.6005 55.524 58.9685 55.344 59.3765 55.192C59.7925 55.04 60.2325 54.964 60.6965 54.964C61.4325 54.964 61.9805 55.184 62.3405 55.624C62.7085 56.056 62.8925 56.684 62.8925 57.508V61H61.7525L61.6565 60.352H61.6085C61.3445 60.576 61.0605 60.764 60.7565 60.916C60.4605 61.068 60.1365 61.144 59.7845 61.144ZM60.2285 60.064C60.4685 60.064 60.6845 60.008 60.8765 59.896C61.0765 59.776 61.2885 59.616 61.5125 59.416V58.096C60.7125 58.2 60.1565 58.356 59.8445 58.564C59.5325 58.764 59.3765 59.012 59.3765 59.308C59.3765 59.572 59.4565 59.764 59.6165 59.884C59.7765 60.004 59.9805 60.064 60.2285 60.064ZM64.544 61V55.108H65.684L65.78 56.152H65.828C66.036 55.768 66.288 55.476 66.584 55.276C66.88 55.068 67.184 54.964 67.496 54.964C67.776 54.964 68 55.004 68.168 55.084L67.928 56.284C67.824 56.252 67.728 56.228 67.64 56.212C67.552 56.196 67.444 56.188 67.316 56.188C67.084 56.188 66.84 56.28 66.584 56.464C66.328 56.64 66.108 56.952 65.924 57.4V61H64.544ZM71.3633 61.144C70.8273 61.144 70.3433 61.024 69.9113 60.784C69.4873 60.536 69.1473 60.184 68.8913 59.728C68.6433 59.264 68.5193 58.708 68.5193 58.06C68.5193 57.404 68.6553 56.848 68.9273 56.392C69.1993 55.928 69.5593 55.576 70.0073 55.336C70.4633 55.088 70.9513 54.964 71.4713 54.964C71.8473 54.964 72.1753 55.028 72.4553 55.156C72.7353 55.284 72.9833 55.44 73.1993 55.624L72.5273 56.524C72.3753 56.388 72.2193 56.284 72.0593 56.212C71.8993 56.132 71.7273 56.092 71.5433 56.092C71.0713 56.092 70.6833 56.272 70.3793 56.632C70.0833 56.992 69.9353 57.468 69.9353 58.06C69.9353 58.644 70.0793 59.116 70.3673 59.476C70.6633 59.836 71.0433 60.016 71.5073 60.016C71.7393 60.016 71.9553 59.968 72.1553 59.872C72.3633 59.768 72.5513 59.648 72.7193 59.512L73.2833 60.424C73.0113 60.664 72.7073 60.844 72.3713 60.964C72.0353 61.084 71.6993 61.144 71.3633 61.144ZM74.4463 61V52.528H75.8263V54.712L75.7783 55.852C76.0263 55.62 76.3023 55.416 76.6063 55.24C76.9103 55.056 77.2623 54.964 77.6623 54.964C78.2943 54.964 78.7543 55.168 79.0423 55.576C79.3303 55.984 79.4743 56.56 79.4743 57.304V61H78.0943V57.484C78.0943 56.996 78.0223 56.652 77.8783 56.452C77.7343 56.252 77.4983 56.152 77.1703 56.152C76.9143 56.152 76.6863 56.216 76.4863 56.344C76.2943 56.464 76.0743 56.644 75.8263 56.884V61H74.4463ZM83.7801 61V56.2H82.9881V55.168L83.7801 55.108V54.496C83.7801 53.88 83.9321 53.376 84.2361 52.984C84.5401 52.584 85.0401 52.384 85.7361 52.384C85.9441 52.384 86.1441 52.404 86.3361 52.444C86.5281 52.484 86.6881 52.532 86.8161 52.588L86.5521 53.62C86.3361 53.524 86.1201 53.476 85.9041 53.476C85.4081 53.476 85.1601 53.808 85.1601 54.472V55.108H86.3121V56.2H85.1601V61H83.7801ZM89.6435 61.144C89.1555 61.144 88.6995 61.024 88.2755 60.784C87.8515 60.536 87.5075 60.184 87.2435 59.728C86.9795 59.264 86.8475 58.708 86.8475 58.06C86.8475 57.404 86.9795 56.848 87.2435 56.392C87.5075 55.928 87.8515 55.576 88.2755 55.336C88.6995 55.088 89.1555 54.964 89.6435 54.964C90.1395 54.964 90.5995 55.088 91.0235 55.336C91.4475 55.576 91.7915 55.928 92.0555 56.392C92.3195 56.848 92.4515 57.404 92.4515 58.06C92.4515 58.708 92.3195 59.264 92.0555 59.728C91.7915 60.184 91.4475 60.536 91.0235 60.784C90.5995 61.024 90.1395 61.144 89.6435 61.144ZM89.6435 60.016C90.0755 60.016 90.4155 59.836 90.6635 59.476C90.9115 59.116 91.0355 58.644 91.0355 58.06C91.0355 57.468 90.9115 56.992 90.6635 56.632C90.4155 56.272 90.0755 56.092 89.6435 56.092C89.2115 56.092 88.8715 56.272 88.6235 56.632C88.3835 56.992 88.2635 57.468 88.2635 58.06C88.2635 58.644 88.3835 59.116 88.6235 59.476C88.8715 59.836 89.2115 60.016 89.6435 60.016ZM96.2294 61.144C95.7414 61.144 95.2854 61.024 94.8614 60.784C94.4374 60.536 94.0934 60.184 93.8294 59.728C93.5654 59.264 93.4334 58.708 93.4334 58.06C93.4334 57.404 93.5654 56.848 93.8294 56.392C94.0934 55.928 94.4374 55.576 94.8614 55.336C95.2854 55.088 95.7414 54.964 96.2294 54.964C96.7254 54.964 97.1854 55.088 97.6094 55.336C98.0334 55.576 98.3774 55.928 98.6414 56.392C98.9054 56.848 99.0374 57.404 99.0374 58.06C99.0374 58.708 98.9054 59.264 98.6414 59.728C98.3774 60.184 98.0334 60.536 97.6094 60.784C97.1854 61.024 96.7254 61.144 96.2294 61.144ZM96.2294 60.016C96.6614 60.016 97.0014 59.836 97.2494 59.476C97.4974 59.116 97.6214 58.644 97.6214 58.06C97.6214 57.468 97.4974 56.992 97.2494 56.632C97.0014 56.272 96.6614 56.092 96.2294 56.092C95.7974 56.092 95.4574 56.272 95.2094 56.632C94.9694 56.992 94.8494 57.468 94.8494 58.06C94.8494 58.644 94.9694 59.116 95.2094 59.476C95.4574 59.836 95.7974 60.016 96.2294 60.016ZM102.467 61.144C101.731 61.144 101.143 60.872 100.703 60.328C100.263 59.784 100.043 59.028 100.043 58.06C100.043 57.42 100.159 56.868 100.391 56.404C100.631 55.94 100.943 55.584 101.327 55.336C101.711 55.088 102.115 54.964 102.539 54.964C102.875 54.964 103.159 55.024 103.391 55.144C103.631 55.256 103.863 55.412 104.087 55.612L104.039 54.664V52.528H105.419V61H104.279L104.183 60.364H104.135C103.919 60.58 103.667 60.764 103.379 60.916C103.091 61.068 102.787 61.144 102.467 61.144ZM102.803 60.004C103.243 60.004 103.655 59.784 104.039 59.344V56.596C103.839 56.412 103.639 56.284 103.439 56.212C103.239 56.14 103.039 56.104 102.839 56.104C102.463 56.104 102.139 56.276 101.867 56.62C101.603 56.956 101.471 57.432 101.471 58.048C101.471 58.68 101.587 59.164 101.819 59.5C102.051 59.836 102.379 60.004 102.803 60.004ZM111.991 61.144C111.503 61.144 111.047 61.024 110.623 60.784C110.199 60.536 109.855 60.184 109.591 59.728C109.327 59.264 109.195 58.708 109.195 58.06C109.195 57.404 109.327 56.848 109.591 56.392C109.855 55.928 110.199 55.576 110.623 55.336C111.047 55.088 111.503 54.964 111.991 54.964C112.487 54.964 112.947 55.088 113.371 55.336C113.795 55.576 114.139 55.928 114.403 56.392C114.667 56.848 114.799 57.404 114.799 58.06C114.799 58.708 114.667 59.264 114.403 59.728C114.139 60.184 113.795 60.536 113.371 60.784C112.947 61.024 112.487 61.144 111.991 61.144ZM111.991 60.016C112.423 60.016 112.763 59.836 113.011 59.476C113.259 59.116 113.383 58.644 113.383 58.06C113.383 57.468 113.259 56.992 113.011 56.632C112.763 56.272 112.423 56.092 111.991 56.092C111.559 56.092 111.219 56.272 110.971 56.632C110.731 56.992 110.611 57.468 110.611 58.06C110.611 58.644 110.731 59.116 110.971 59.476C111.219 59.836 111.559 60.016 111.991 60.016ZM116.165 61V55.108H117.305L117.401 56.152H117.449C117.657 55.768 117.909 55.476 118.205 55.276C118.501 55.068 118.805 54.964 119.117 54.964C119.397 54.964 119.621 55.004 119.789 55.084L119.549 56.284C119.445 56.252 119.349 56.228 119.261 56.212C119.173 56.196 119.065 56.188 118.937 56.188C118.705 56.188 118.461 56.28 118.205 56.464C117.949 56.64 117.729 56.952 117.545 57.4V61H116.165ZM123.044 61V55.108H124.184L124.28 56.152H124.328C124.536 55.768 124.788 55.476 125.084 55.276C125.38 55.068 125.684 54.964 125.996 54.964C126.276 54.964 126.5 55.004 126.668 55.084L126.428 56.284C126.324 56.252 126.228 56.228 126.14 56.212C126.052 56.196 125.944 56.188 125.816 56.188C125.584 56.188 125.34 56.28 125.084 56.464C124.828 56.64 124.608 56.952 124.424 57.4V61H123.044ZM129.923 61.144C129.379 61.144 128.887 61.024 128.447 60.784C128.007 60.536 127.659 60.184 127.403 59.728C127.147 59.264 127.019 58.708 127.019 58.06C127.019 57.42 127.147 56.868 127.403 56.404C127.667 55.94 128.007 55.584 128.423 55.336C128.839 55.088 129.275 54.964 129.731 54.964C130.267 54.964 130.715 55.084 131.075 55.324C131.435 55.556 131.707 55.884 131.891 56.308C132.075 56.724 132.167 57.208 132.167 57.76C132.167 58.048 132.147 58.272 132.107 58.432H128.363C128.427 58.952 128.615 59.356 128.927 59.644C129.239 59.932 129.631 60.076 130.103 60.076C130.359 60.076 130.595 60.04 130.811 59.968C131.035 59.888 131.255 59.78 131.471 59.644L131.939 60.508C131.659 60.692 131.347 60.844 131.003 60.964C130.659 61.084 130.299 61.144 129.923 61.144ZM128.351 57.496H130.967C130.967 57.04 130.867 56.684 130.667 56.428C130.467 56.164 130.167 56.032 129.767 56.032C129.423 56.032 129.115 56.16 128.843 56.416C128.579 56.664 128.415 57.024 128.351 57.496ZM135.129 61.144C134.729 61.144 134.329 61.068 133.929 60.916C133.529 60.756 133.185 60.56 132.897 60.328L133.545 59.44C133.809 59.64 134.073 59.8 134.337 59.92C134.601 60.04 134.881 60.1 135.177 60.1C135.497 60.1 135.733 60.032 135.885 59.896C136.037 59.76 136.113 59.592 136.113 59.392C136.113 59.224 136.049 59.088 135.921 58.984C135.801 58.872 135.645 58.776 135.453 58.696C135.261 58.608 135.061 58.524 134.853 58.444C134.597 58.348 134.341 58.232 134.085 58.096C133.837 57.952 133.633 57.772 133.473 57.556C133.313 57.332 133.233 57.056 133.233 56.728C133.233 56.208 133.425 55.784 133.809 55.456C134.193 55.128 134.713 54.964 135.369 54.964C135.785 54.964 136.157 55.036 136.485 55.18C136.813 55.324 137.097 55.488 137.337 55.672L136.701 56.512C136.493 56.36 136.281 56.24 136.065 56.152C135.857 56.056 135.637 56.008 135.405 56.008C135.109 56.008 134.889 56.072 134.745 56.2C134.601 56.32 134.529 56.472 134.529 56.656C134.529 56.888 134.649 57.064 134.889 57.184C135.129 57.304 135.409 57.42 135.729 57.532C136.001 57.628 136.265 57.748 136.521 57.892C136.777 58.028 136.989 58.208 137.157 58.432C137.333 58.656 137.421 58.952 137.421 59.32C137.421 59.824 137.225 60.256 136.833 60.616C136.441 60.968 135.873 61.144 135.129 61.144ZM140.495 61.144C139.815 61.144 139.331 60.948 139.043 60.556C138.763 60.156 138.623 59.64 138.623 59.008V56.2H137.783V55.168L138.695 55.108L138.863 53.5H140.015V55.108H141.515V56.2H140.015V59.008C140.015 59.696 140.291 60.04 140.843 60.04C140.947 60.04 141.055 60.028 141.167 60.004C141.279 59.972 141.375 59.94 141.455 59.908L141.695 60.928C141.535 60.984 141.351 61.032 141.143 61.072C140.943 61.12 140.727 61.144 140.495 61.144ZM143.925 61.144C143.413 61.144 142.993 60.984 142.665 60.664C142.345 60.344 142.185 59.928 142.185 59.416C142.185 58.784 142.461 58.296 143.013 57.952C143.565 57.6 144.445 57.36 145.653 57.232C145.645 56.92 145.561 56.652 145.401 56.428C145.249 56.196 144.973 56.08 144.573 56.08C144.285 56.08 144.001 56.136 143.721 56.248C143.449 56.36 143.181 56.496 142.917 56.656L142.413 55.732C142.741 55.524 143.109 55.344 143.517 55.192C143.933 55.04 144.373 54.964 144.837 54.964C145.573 54.964 146.121 55.184 146.481 55.624C146.849 56.056 147.033 56.684 147.033 57.508V61H145.893L145.797 60.352H145.749C145.485 60.576 145.201 60.764 144.897 60.916C144.601 61.068 144.277 61.144 143.925 61.144ZM144.369 60.064C144.609 60.064 144.825 60.008 145.017 59.896C145.217 59.776 145.429 59.616 145.653 59.416V58.096C144.853 58.2 144.297 58.356 143.985 58.564C143.673 58.764 143.517 59.012 143.517 59.308C143.517 59.572 143.597 59.764 143.757 59.884C143.917 60.004 144.121 60.064 144.369 60.064ZM150.437 61.144C149.805 61.144 149.345 60.94 149.057 60.532C148.769 60.124 148.625 59.548 148.625 58.804V55.108H150.005V58.624C150.005 59.112 150.077 59.456 150.221 59.656C150.365 59.856 150.597 59.956 150.917 59.956C151.173 59.956 151.397 59.892 151.589 59.764C151.789 59.636 152.001 59.428 152.225 59.14V55.108H153.605V61H152.477L152.369 60.136H152.333C152.077 60.44 151.797 60.684 151.493 60.868C151.189 61.052 150.837 61.144 150.437 61.144ZM155.353 61V55.108H156.493L156.589 56.152H156.637C156.845 55.768 157.097 55.476 157.393 55.276C157.689 55.068 157.993 54.964 158.305 54.964C158.585 54.964 158.809 55.004 158.977 55.084L158.737 56.284C158.633 56.252 158.537 56.228 158.449 56.212C158.361 56.196 158.253 56.188 158.125 56.188C157.893 56.188 157.649 56.28 157.393 56.464C157.137 56.64 156.917 56.952 156.733 57.4V61H155.353ZM160.941 61.144C160.429 61.144 160.009 60.984 159.681 60.664C159.361 60.344 159.201 59.928 159.201 59.416C159.201 58.784 159.477 58.296 160.029 57.952C160.581 57.6 161.461 57.36 162.669 57.232C162.661 56.92 162.577 56.652 162.417 56.428C162.265 56.196 161.989 56.08 161.589 56.08C161.301 56.08 161.017 56.136 160.737 56.248C160.465 56.36 160.197 56.496 159.933 56.656L159.429 55.732C159.757 55.524 160.125 55.344 160.533 55.192C160.949 55.04 161.389 54.964 161.853 54.964C162.589 54.964 163.137 55.184 163.497 55.624C163.865 56.056 164.049 56.684 164.049 57.508V61H162.909L162.813 60.352H162.765C162.501 60.576 162.217 60.764 161.913 60.916C161.617 61.068 161.293 61.144 160.941 61.144ZM161.385 60.064C161.625 60.064 161.841 60.008 162.033 59.896C162.233 59.776 162.445 59.616 162.669 59.416V58.096C161.869 58.2 161.313 58.356 161.001 58.564C160.689 58.764 160.533 59.012 160.533 59.308C160.533 59.572 160.613 59.764 160.773 59.884C160.933 60.004 161.137 60.064 161.385 60.064ZM165.7 61V55.108H166.84L166.936 55.9H166.984C167.248 55.644 167.536 55.424 167.848 55.24C168.16 55.056 168.516 54.964 168.916 54.964C169.548 54.964 170.008 55.168 170.296 55.576C170.584 55.984 170.728 56.56 170.728 57.304V61H169.348V57.484C169.348 56.996 169.276 56.652 169.132 56.452C168.988 56.252 168.752 56.152 168.424 56.152C168.168 56.152 167.94 56.216 167.74 56.344C167.548 56.464 167.328 56.644 167.08 56.884V61H165.7ZM174.491 61.144C173.811 61.144 173.327 60.948 173.039 60.556C172.759 60.156 172.619 59.64 172.619 59.008V56.2H171.779V55.168L172.691 55.108L172.859 53.5H174.011V55.108H175.511V56.2H174.011V59.008C174.011 59.696 174.287 60.04 174.839 60.04C174.943 60.04 175.051 60.028 175.163 60.004C175.275 59.972 175.371 59.94 175.451 59.908L175.691 60.928C175.531 60.984 175.347 61.032 175.139 61.072C174.939 61.12 174.723 61.144 174.491 61.144Z" fill="#BDBDBD"/>
<rect x="18.5" y="41.5" width="395" height="30" rx="15" stroke="#222222"/>
</g>
<defs>
<filter id="filter0_d_5_681" x="0" y="0" width="432" height="84" filterUnits="userSpaceOnUse" color-interpolation-filters="sRGB">
<feFlood flood-opacity="0" result="BackgroundImageFix"/>
<feColorMatrix in="SourceAlpha" type="matrix" values="0 0 0 0 0 0 0 0 0 0 0 0 0 0 0 0 0 0 127 0" result="hardAlpha"/>
<feOffset dy="2"/>
<feGaussianBlur stdDeviation="1"/>
<feComposite in2="hardAlpha" operator="out"/>
<feColorMatrix type="matrix" values="0 0 0 0 0.395833 0 0 0 0 0.395833 0 0 0 0 0.395833 0 0 0 0.26 0"/>
<feBlend mode="normal" in2="BackgroundImageFix" result="effect1_dropShadow_5_681"/>
<feBlend mode="normal" in="SourceGraphic" in2="effect1_dropShadow_5_681" result="shape"/>
</filter>
</defs>
</svg>
