<svg width="364" height="31" viewBox="0 0 364 31" fill="none" xmlns="http://www.w3.org/2000/svg">
<path fill-rule="evenodd" clip-rule="evenodd" d="M17.3532 16.9092H17.8469L20.9657 20.0342L20.0344 20.9654L16.9094 17.8467V17.3529L16.7407 17.1779C16.0282 17.7904 15.1032 18.1592 14.0969 18.1592C11.8532 18.1592 10.0344 16.3404 10.0344 14.0967C10.0344 11.8529 11.8532 10.0342 14.0969 10.0342C16.3407 10.0342 18.1594 11.8529 18.1594 14.0967C18.1594 15.1029 17.7907 16.0279 17.1782 16.7404L17.3532 16.9092ZM11.2844 14.0967C11.2844 15.6529 12.5407 16.9092 14.0969 16.9092C15.6532 16.9092 16.9094 15.6529 16.9094 14.0967C16.9094 12.5404 15.6532 11.2842 14.0969 11.2842C12.5407 11.2842 11.2844 12.5404 11.2844 14.0967Z" fill="black"/>
<path d="M30.288 20.144C29.76 20.144 29.248 20.044 28.752 19.844C28.264 19.644 27.832 19.36 27.456 18.992L28.272 18.044C28.552 18.308 28.872 18.524 29.232 18.692C29.592 18.852 29.952 18.932 30.312 18.932C30.76 18.932 31.1 18.84 31.332 18.656C31.564 18.472 31.68 18.228 31.68 17.924C31.68 17.596 31.564 17.36 31.332 17.216C31.108 17.072 30.82 16.924 30.468 16.772L29.388 16.304C29.132 16.192 28.88 16.048 28.632 15.872C28.392 15.696 28.192 15.472 28.032 15.2C27.88 14.928 27.804 14.6 27.804 14.216C27.804 13.8 27.916 13.428 28.14 13.1C28.372 12.764 28.684 12.5 29.076 12.308C29.476 12.108 29.932 12.008 30.444 12.008C30.9 12.008 31.34 12.1 31.764 12.284C32.188 12.46 32.552 12.7 32.856 13.004L32.148 13.892C31.9 13.684 31.636 13.52 31.356 13.4C31.084 13.28 30.78 13.22 30.444 13.22C30.076 13.22 29.776 13.304 29.544 13.472C29.32 13.632 29.208 13.856 29.208 14.144C29.208 14.344 29.264 14.512 29.376 14.648C29.496 14.776 29.652 14.888 29.844 14.984C30.036 15.072 30.24 15.16 30.456 15.248L31.524 15.692C31.988 15.892 32.368 16.156 32.664 16.484C32.96 16.804 33.108 17.248 33.108 17.816C33.108 18.24 32.996 18.628 32.772 18.98C32.548 19.332 32.224 19.616 31.8 19.832C31.384 20.04 30.88 20.144 30.288 20.144ZM36.9351 20.144C36.3911 20.144 35.8991 20.024 35.4591 19.784C35.0191 19.536 34.6711 19.184 34.4151 18.728C34.1591 18.264 34.0311 17.708 34.0311 17.06C34.0311 16.42 34.1591 15.868 34.4151 15.404C34.6791 14.94 35.0191 14.584 35.4351 14.336C35.8511 14.088 36.2871 13.964 36.7431 13.964C37.2791 13.964 37.7271 14.084 38.0871 14.324C38.4471 14.556 38.7191 14.884 38.9031 15.308C39.0871 15.724 39.1791 16.208 39.1791 16.76C39.1791 17.048 39.1591 17.272 39.1191 17.432H35.3751C35.4391 17.952 35.6271 18.356 35.9391 18.644C36.2511 18.932 36.6431 19.076 37.1151 19.076C37.3711 19.076 37.6071 19.04 37.8231 18.968C38.0471 18.888 38.2671 18.78 38.4831 18.644L38.9511 19.508C38.6711 19.692 38.3591 19.844 38.0151 19.964C37.6711 20.084 37.3111 20.144 36.9351 20.144ZM35.3631 16.496H37.9791C37.9791 16.04 37.8791 15.684 37.6791 15.428C37.4791 15.164 37.1791 15.032 36.7791 15.032C36.4351 15.032 36.1271 15.16 35.8551 15.416C35.5911 15.664 35.4271 16.024 35.3631 16.496ZM41.7845 20.144C41.2725 20.144 40.8525 19.984 40.5245 19.664C40.2045 19.344 40.0445 18.928 40.0445 18.416C40.0445 17.784 40.3205 17.296 40.8725 16.952C41.4245 16.6 42.3045 16.36 43.5125 16.232C43.5045 15.92 43.4205 15.652 43.2605 15.428C43.1085 15.196 42.8325 15.08 42.4325 15.08C42.1445 15.08 41.8605 15.136 41.5805 15.248C41.3085 15.36 41.0405 15.496 40.7765 15.656L40.2725 14.732C40.6005 14.524 40.9685 14.344 41.3765 14.192C41.7925 14.04 42.2325 13.964 42.6965 13.964C43.4325 13.964 43.9805 14.184 44.3405 14.624C44.7085 15.056 44.8925 15.684 44.8925 16.508V20H43.7525L43.6565 19.352H43.6085C43.3445 19.576 43.0605 19.764 42.7565 19.916C42.4605 20.068 42.1365 20.144 41.7845 20.144ZM42.2285 19.064C42.4685 19.064 42.6845 19.008 42.8765 18.896C43.0765 18.776 43.2885 18.616 43.5125 18.416V17.096C42.7125 17.2 42.1565 17.356 41.8445 17.564C41.5325 17.764 41.3765 18.012 41.3765 18.308C41.3765 18.572 41.4565 18.764 41.6165 18.884C41.7765 19.004 41.9805 19.064 42.2285 19.064ZM46.544 20V14.108H47.684L47.78 15.152H47.828C48.036 14.768 48.288 14.476 48.584 14.276C48.88 14.068 49.184 13.964 49.496 13.964C49.776 13.964 50 14.004 50.168 14.084L49.928 15.284C49.824 15.252 49.728 15.228 49.64 15.212C49.552 15.196 49.444 15.188 49.316 15.188C49.084 15.188 48.84 15.28 48.584 15.464C48.328 15.64 48.108 15.952 47.924 16.4V20H46.544ZM53.3633 20.144C52.8273 20.144 52.3433 20.024 51.9113 19.784C51.4873 19.536 51.1473 19.184 50.8913 18.728C50.6433 18.264 50.5193 17.708 50.5193 17.06C50.5193 16.404 50.6553 15.848 50.9273 15.392C51.1993 14.928 51.5593 14.576 52.0073 14.336C52.4633 14.088 52.9513 13.964 53.4713 13.964C53.8473 13.964 54.1753 14.028 54.4553 14.156C54.7353 14.284 54.9833 14.44 55.1993 14.624L54.5273 15.524C54.3753 15.388 54.2193 15.284 54.0593 15.212C53.8993 15.132 53.7273 15.092 53.5433 15.092C53.0713 15.092 52.6833 15.272 52.3793 15.632C52.0833 15.992 51.9353 16.468 51.9353 17.06C51.9353 17.644 52.0793 18.116 52.3673 18.476C52.6633 18.836 53.0433 19.016 53.5073 19.016C53.7393 19.016 53.9553 18.968 54.1553 18.872C54.3633 18.768 54.5513 18.648 54.7193 18.512L55.2833 19.424C55.0113 19.664 54.7073 19.844 54.3713 19.964C54.0353 20.084 53.6993 20.144 53.3633 20.144ZM56.4463 20V11.528H57.8263V13.712L57.7783 14.852C58.0263 14.62 58.3023 14.416 58.6063 14.24C58.9103 14.056 59.2623 13.964 59.6623 13.964C60.2943 13.964 60.7543 14.168 61.0423 14.576C61.3303 14.984 61.4743 15.56 61.4743 16.304V20H60.0943V16.484C60.0943 15.996 60.0223 15.652 59.8783 15.452C59.7343 15.252 59.4983 15.152 59.1703 15.152C58.9143 15.152 58.6863 15.216 58.4863 15.344C58.2943 15.464 58.0743 15.644 57.8263 15.884V20H56.4463Z" fill="#BDBDBD"/>
<rect x="0.5" y="0.5" width="363" height="30" rx="15" stroke="#222222"/>
</svg>
