<svg width="428" height="56" viewBox="0 0 428 56" fill="none" xmlns="http://www.w3.org/2000/svg">
<path d="M39.5156 22.7188H35.4219V25.8359H39.1797V27.6562H35.4219V32H33.25V20.8984H39.5156V22.7188ZM41.2812 24.0234H42.9141L43.0625 25.0078C43.2031 24.8203 43.3438 24.6562 43.4844 24.5156C43.6302 24.3698 43.7786 24.2474 43.9297 24.1484C44.0807 24.0495 44.237 23.9766 44.3984 23.9297C44.5651 23.8828 44.7396 23.8594 44.9219 23.8594C45.0729 23.8594 45.2109 23.875 45.3359 23.9062C45.4661 23.9323 45.5885 23.974 45.7031 24.0312L45.5391 25.8672C45.4245 25.8099 45.3073 25.7682 45.1875 25.7422C45.0729 25.7109 44.9557 25.6953 44.8359 25.6953C44.7161 25.6953 44.5964 25.7135 44.4766 25.75C44.3568 25.7812 44.2344 25.8359 44.1094 25.9141C43.9896 25.987 43.8672 26.0859 43.7422 26.2109C43.6172 26.3307 43.4896 26.4844 43.3594 26.6719V32H41.2812V24.0234ZM46.5703 24.9062C47.0286 24.5781 47.5391 24.3255 48.1016 24.1484C48.6641 23.9661 49.2708 23.875 49.9219 23.875C50.4583 23.875 50.9375 23.9401 51.3594 24.0703C51.7812 24.1953 52.1354 24.3906 52.4219 24.6562C52.7135 24.9167 52.9349 25.2474 53.0859 25.6484C53.237 26.0443 53.3125 26.5208 53.3125 27.0781V29.7578C53.3125 30.1953 53.4948 30.4141 53.8594 30.4141C53.974 30.4141 54.0755 30.3958 54.1641 30.3594C54.2578 30.3177 54.3516 30.2604 54.4453 30.1875L54.6406 31.7734C54.4635 31.8828 54.2656 31.9688 54.0469 32.0312C53.8281 32.0938 53.5755 32.125 53.2891 32.125C52.862 32.125 52.5078 32.0443 52.2266 31.8828C51.9505 31.7214 51.7422 31.5156 51.6016 31.2656C51.4714 31.3854 51.3255 31.5026 51.1641 31.6172C51.0026 31.7266 50.8203 31.8229 50.6172 31.9062C50.4193 31.9844 50.2031 32.0469 49.9688 32.0938C49.7344 32.1406 49.4844 32.1641 49.2188 32.1641C48.8021 32.1641 48.4271 32.1068 48.0938 31.9922C47.7656 31.8776 47.4844 31.7188 47.25 31.5156C47.0156 31.3125 46.8359 31.0729 46.7109 30.7969C46.5911 30.5156 46.5312 30.2109 46.5312 29.8828C46.5312 29.4922 46.612 29.1458 46.7734 28.8438C46.9401 28.5417 47.1771 28.2865 47.4844 28.0781C47.7917 27.8646 48.1667 27.7057 48.6094 27.6016C49.0521 27.4922 49.5495 27.4375 50.1016 27.4375C50.3151 27.4375 50.513 27.4453 50.6953 27.4609C50.8828 27.4766 51.0599 27.5 51.2266 27.5312V27.1875C51.2266 26.8958 51.1901 26.651 51.1172 26.4531C51.0443 26.25 50.9349 26.0833 50.7891 25.9531C50.6484 25.8229 50.474 25.7318 50.2656 25.6797C50.0625 25.6224 49.8281 25.5938 49.5625 25.5938C49.0677 25.5938 48.612 25.6771 48.1953 25.8438C47.7839 26.0052 47.388 26.224 47.0078 26.5L46.5703 24.9062ZM51.2266 28.9844C51.0651 28.9479 50.901 28.9219 50.7344 28.9062C50.5729 28.8906 50.401 28.8828 50.2188 28.8828C49.9531 28.8828 49.7188 28.9036 49.5156 28.9453C49.3125 28.9818 49.1432 29.0391 49.0078 29.1172C48.8724 29.1901 48.7708 29.2812 48.7031 29.3906C48.6354 29.5 48.6016 29.625 48.6016 29.7656C48.6016 29.8958 48.625 30.0104 48.6719 30.1094C48.724 30.2083 48.7943 30.2943 48.8828 30.3672C48.9766 30.4349 49.0885 30.487 49.2188 30.5234C49.349 30.5547 49.4974 30.5703 49.6641 30.5703C50.0078 30.5703 50.3099 30.5078 50.5703 30.3828C50.8359 30.2526 51.0547 30.0859 51.2266 29.8828V28.9844ZM55.9062 24.0234H57.5391L57.6484 24.8281C57.9922 24.5 58.3672 24.2578 58.7734 24.1016C59.1849 23.9401 59.625 23.8594 60.0938 23.8594C60.5885 23.8594 61.0417 23.9531 61.4531 24.1406C61.8698 24.3229 62.2266 24.5859 62.5234 24.9297C62.8203 25.2682 63.0495 25.6771 63.2109 26.1562C63.3724 26.6302 63.4531 27.1589 63.4531 27.7422C63.4531 28.4089 63.3438 29.0156 63.125 29.5625C62.9062 30.1042 62.5807 30.5677 62.1484 30.9531C61.7214 31.3385 61.1927 31.6354 60.5625 31.8438C59.9375 32.0521 59.2188 32.1589 58.4062 32.1641C58.3281 32.1641 58.2552 32.1641 58.1875 32.1641C58.1198 32.1641 58.0521 32.1641 57.9844 32.1641V35.5547L55.9062 35.7734V24.0234ZM57.9844 30.3984C58.0885 30.3984 58.1901 30.3984 58.2891 30.3984C58.388 30.3984 58.487 30.3984 58.5859 30.3984C59.0547 30.3984 59.4609 30.3385 59.8047 30.2188C60.1536 30.0938 60.4401 29.9193 60.6641 29.6953C60.888 29.4661 61.0547 29.1953 61.1641 28.8828C61.2786 28.5651 61.3359 28.2109 61.3359 27.8203C61.3359 27.4818 61.2943 27.1745 61.2109 26.8984C61.1328 26.6224 61.0156 26.388 60.8594 26.1953C60.7083 25.9974 60.5234 25.8438 60.3047 25.7344C60.0859 25.625 59.8385 25.5703 59.5625 25.5703C59.2552 25.5703 58.9661 25.638 58.6953 25.7734C58.4297 25.9036 58.1927 26.0859 57.9844 26.3203V30.3984ZM65.3438 24.0234H66.9766L67.0859 24.8281C67.4297 24.5 67.8047 24.2578 68.2109 24.1016C68.6224 23.9401 69.0625 23.8594 69.5312 23.8594C70.026 23.8594 70.4792 23.9531 70.8906 24.1406C71.3073 24.3229 71.6641 24.5859 71.9609 24.9297C72.2578 25.2682 72.487 25.6771 72.6484 26.1562C72.8099 26.6302 72.8906 27.1589 72.8906 27.7422C72.8906 28.4089 72.7812 29.0156 72.5625 29.5625C72.3438 30.1042 72.0182 30.5677 71.5859 30.9531C71.1589 31.3385 70.6302 31.6354 70 31.8438C69.375 32.0521 68.6562 32.1589 67.8438 32.1641C67.7656 32.1641 67.6927 32.1641 67.625 32.1641C67.5573 32.1641 67.4896 32.1641 67.4219 32.1641V35.5547L65.3438 35.7734V24.0234ZM67.4219 30.3984C67.526 30.3984 67.6276 30.3984 67.7266 30.3984C67.8255 30.3984 67.9245 30.3984 68.0234 30.3984C68.4922 30.3984 68.8984 30.3385 69.2422 30.2188C69.5911 30.0938 69.8776 29.9193 70.1016 29.6953C70.3255 29.4661 70.4922 29.1953 70.6016 28.8828C70.7161 28.5651 70.7734 28.2109 70.7734 27.8203C70.7734 27.4818 70.7318 27.1745 70.6484 26.8984C70.5703 26.6224 70.4531 26.388 70.2969 26.1953C70.1458 25.9974 69.9609 25.8438 69.7422 25.7344C69.5234 25.625 69.276 25.5703 69 25.5703C68.6927 25.5703 68.4036 25.638 68.1328 25.7734C67.8672 25.9036 67.6302 26.0859 67.4219 26.3203V30.3984ZM81.8672 32H80.2422L80.125 31.2109C79.8229 31.5078 79.4714 31.7422 79.0703 31.9141C78.6693 32.0807 78.2318 32.1641 77.7578 32.1641C77.3359 32.1641 76.9375 32.0964 76.5625 31.9609C76.1875 31.8255 75.8594 31.6224 75.5781 31.3516C75.3021 31.0755 75.0833 30.7292 74.9219 30.3125C74.7604 29.8958 74.6797 29.4062 74.6797 28.8438V24.0234H76.7734V28.5859C76.7734 28.9245 76.8125 29.2135 76.8906 29.4531C76.974 29.6875 77.0859 29.8802 77.2266 30.0312C77.3672 30.1771 77.5286 30.2839 77.7109 30.3516C77.8932 30.4141 78.0859 30.4453 78.2891 30.4453C78.5703 30.4453 78.8359 30.3802 79.0859 30.25C79.3411 30.1198 79.5755 29.9323 79.7891 29.6875V24.0234H81.8672V32ZM90.1484 31.3281C89.7891 31.5938 89.3906 31.7995 88.9531 31.9453C88.5208 32.0911 88.0495 32.1641 87.5391 32.1641C86.9766 32.1641 86.4635 32.0703 86 31.8828C85.5365 31.6901 85.138 31.4167 84.8047 31.0625C84.4766 30.7083 84.2188 30.2786 84.0312 29.7734C83.849 29.2682 83.7578 28.6979 83.7578 28.0625C83.7578 27.3854 83.8594 26.7865 84.0625 26.2656C84.2656 25.7448 84.5417 25.3073 84.8906 24.9531C85.2448 24.5938 85.6562 24.3229 86.125 24.1406C86.599 23.9531 87.1042 23.8594 87.6406 23.8594C88.0833 23.8594 88.4844 23.9193 88.8438 24.0391C89.2083 24.1536 89.5391 24.3177 89.8359 24.5312L89.3828 26.1562C89.1536 25.9844 88.9115 25.8542 88.6562 25.7656C88.401 25.6719 88.138 25.625 87.8672 25.625C87.5964 25.625 87.3385 25.6771 87.0938 25.7812C86.8542 25.8802 86.6432 26.0286 86.4609 26.2266C86.2839 26.4193 86.1406 26.6615 86.0312 26.9531C85.9271 27.2448 85.875 27.5833 85.875 27.9688C85.875 28.3385 85.9219 28.6719 86.0156 28.9688C86.1094 29.2656 86.2448 29.5182 86.4219 29.7266C86.599 29.9297 86.8125 30.0859 87.0625 30.1953C87.3177 30.3047 87.6016 30.3594 87.9141 30.3594C88.2786 30.3594 88.6016 30.3021 88.8828 30.1875C89.1693 30.0677 89.4375 29.8932 89.6875 29.6641L90.1484 31.3281ZM97.4297 31.3281C97.0703 31.5938 96.6719 31.7995 96.2344 31.9453C95.8021 32.0911 95.3307 32.1641 94.8203 32.1641C94.2578 32.1641 93.7448 32.0703 93.2812 31.8828C92.8177 31.6901 92.4193 31.4167 92.0859 31.0625C91.7578 30.7083 91.5 30.2786 91.3125 29.7734C91.1302 29.2682 91.0391 28.6979 91.0391 28.0625C91.0391 27.3854 91.1406 26.7865 91.3438 26.2656C91.5469 25.7448 91.8229 25.3073 92.1719 24.9531C92.526 24.5938 92.9375 24.3229 93.4062 24.1406C93.8802 23.9531 94.3854 23.8594 94.9219 23.8594C95.3646 23.8594 95.7656 23.9193 96.125 24.0391C96.4896 24.1536 96.8203 24.3177 97.1172 24.5312L96.6641 26.1562C96.4349 25.9844 96.1927 25.8542 95.9375 25.7656C95.6823 25.6719 95.4193 25.625 95.1484 25.625C94.8776 25.625 94.6198 25.6771 94.375 25.7812C94.1354 25.8802 93.9245 26.0286 93.7422 26.2266C93.5651 26.4193 93.4219 26.6615 93.3125 26.9531C93.2083 27.2448 93.1562 27.5833 93.1562 27.9688C93.1562 28.3385 93.2031 28.6719 93.2969 28.9688C93.3906 29.2656 93.526 29.5182 93.7031 29.7266C93.8802 29.9297 94.0938 30.0859 94.3438 30.1953C94.599 30.3047 94.8828 30.3594 95.1953 30.3594C95.5599 30.3594 95.8828 30.3021 96.1641 30.1875C96.4505 30.0677 96.7188 29.8932 96.9688 29.6641L97.4297 31.3281ZM98.8438 24.0234H100.922V32H98.8438V24.0234ZM99.8828 20.0938C100.081 20.0938 100.263 20.1302 100.43 20.2031C100.596 20.2708 100.742 20.3672 100.867 20.4922C100.992 20.612 101.089 20.7578 101.156 20.9297C101.229 21.0964 101.266 21.276 101.266 21.4688C101.266 21.6667 101.229 21.849 101.156 22.0156C101.089 22.1823 100.992 22.3281 100.867 22.4531C100.742 22.5729 100.596 22.6693 100.43 22.7422C100.263 22.8099 100.081 22.8438 99.8828 22.8438C99.6849 22.8438 99.5026 22.8099 99.3359 22.7422C99.1693 22.6693 99.0234 22.5729 98.8984 22.4531C98.7734 22.3281 98.6745 22.1823 98.6016 22.0156C98.5339 21.849 98.5 21.6667 98.5 21.4688C98.5 21.276 98.5339 21.0964 98.6016 20.9297C98.6745 20.7578 98.7734 20.612 98.8984 20.4922C99.0234 20.3672 99.1693 20.2708 99.3359 20.2031C99.5026 20.1302 99.6849 20.0938 99.8828 20.0938ZM103.203 24.0234H104.836L104.945 24.7891C105.247 24.5026 105.594 24.276 105.984 24.1094C106.375 23.9427 106.812 23.8594 107.297 23.8594C107.724 23.8594 108.122 23.9271 108.492 24.0625C108.867 24.1979 109.193 24.4036 109.469 24.6797C109.75 24.9505 109.971 25.2943 110.133 25.7109C110.294 26.1276 110.375 26.6172 110.375 27.1797V32H108.289V27.4219C108.289 27.0833 108.247 26.7969 108.164 26.5625C108.086 26.3281 107.977 26.138 107.836 25.9922C107.695 25.8464 107.534 25.7396 107.352 25.6719C107.169 25.6042 106.979 25.5703 106.781 25.5703C106.505 25.5703 106.237 25.6354 105.977 25.7656C105.721 25.8906 105.49 26.0703 105.281 26.3047V32H103.203V24.0234ZM116.414 23.8594C116.977 23.8594 117.505 23.9531 118 24.1406C118.5 24.3229 118.938 24.5911 119.312 24.9453C119.688 25.2943 119.984 25.7214 120.203 26.2266C120.422 26.7318 120.531 27.3047 120.531 27.9453C120.531 28.612 120.422 29.2083 120.203 29.7344C119.984 30.2552 119.685 30.6953 119.305 31.0547C118.924 31.4141 118.477 31.6901 117.961 31.8828C117.451 32.0703 116.896 32.1641 116.297 32.1641C115.734 32.1641 115.201 32.0703 114.695 31.8828C114.195 31.6953 113.758 31.4271 113.383 31.0781C113.008 30.7292 112.711 30.3021 112.492 29.7969C112.273 29.2917 112.164 28.7188 112.164 28.0781C112.164 27.4115 112.273 26.8177 112.492 26.2969C112.711 25.7708 113.01 25.3281 113.391 24.9688C113.776 24.6042 114.227 24.3281 114.742 24.1406C115.263 23.9531 115.82 23.8594 116.414 23.8594ZM116.32 25.6094C116.049 25.6094 115.792 25.6641 115.547 25.7734C115.302 25.8776 115.086 26.0312 114.898 26.2344C114.711 26.4375 114.56 26.6875 114.445 26.9844C114.336 27.276 114.281 27.6068 114.281 27.9766C114.281 28.3776 114.339 28.7292 114.453 29.0312C114.568 29.3333 114.719 29.5859 114.906 29.7891C115.099 29.9922 115.32 30.1458 115.57 30.25C115.826 30.349 116.096 30.3984 116.383 30.3984C116.648 30.3984 116.904 30.3464 117.148 30.2422C117.398 30.1328 117.615 29.9792 117.797 29.7812C117.984 29.5781 118.133 29.3307 118.242 29.0391C118.352 28.7422 118.406 28.4089 118.406 28.0391C118.406 27.638 118.352 27.2865 118.242 26.9844C118.133 26.6823 117.982 26.4297 117.789 26.2266C117.602 26.0234 117.38 25.8698 117.125 25.7656C116.87 25.6615 116.602 25.6094 116.32 25.6094ZM126.766 20.8984C127.203 20.8724 127.617 20.8516 128.008 20.8359C128.404 20.8203 128.797 20.8125 129.188 20.8125C129.979 20.8125 130.68 20.8802 131.289 21.0156C131.904 21.151 132.417 21.349 132.828 21.6094C133.245 21.8646 133.56 22.1771 133.773 22.5469C133.992 22.9115 134.102 23.3229 134.102 23.7812C134.102 24.099 134.049 24.388 133.945 24.6484C133.846 24.9089 133.711 25.1406 133.539 25.3438C133.367 25.5417 133.167 25.7135 132.938 25.8594C132.708 26.0052 132.469 26.1224 132.219 26.2109C132.547 26.2734 132.854 26.3776 133.141 26.5234C133.427 26.6641 133.677 26.8438 133.891 27.0625C134.109 27.276 134.281 27.5234 134.406 27.8047C134.531 28.0807 134.594 28.388 134.594 28.7266C134.594 29.2578 134.471 29.7318 134.227 30.1484C133.987 30.5599 133.63 30.9115 133.156 31.2031C132.682 31.4896 132.096 31.7083 131.398 31.8594C130.701 32.0052 129.898 32.0781 128.992 32.0781C128.607 32.0781 128.229 32.0677 127.859 32.0469C127.49 32.0312 127.125 32.0156 126.766 32V20.8984ZM128.844 30.3203C128.974 30.3307 129.102 30.3359 129.227 30.3359C129.357 30.3359 129.484 30.3359 129.609 30.3359C130.047 30.3359 130.438 30.2995 130.781 30.2266C131.13 30.1536 131.422 30.0495 131.656 29.9141C131.896 29.7734 132.078 29.6042 132.203 29.4062C132.328 29.2031 132.391 28.974 132.391 28.7188C132.391 28.4844 132.328 28.2734 132.203 28.0859C132.083 27.8984 131.909 27.7422 131.68 27.6172C131.451 27.487 131.167 27.388 130.828 27.3203C130.495 27.2526 130.115 27.2188 129.688 27.2188H128.844V30.3203ZM128.844 25.5391H129.555C129.93 25.5391 130.26 25.5052 130.547 25.4375C130.839 25.3646 131.083 25.263 131.281 25.1328C131.484 24.9974 131.638 24.8333 131.742 24.6406C131.846 24.4479 131.898 24.2318 131.898 23.9922C131.898 23.7734 131.844 23.5755 131.734 23.3984C131.625 23.2161 131.466 23.0625 131.258 22.9375C131.055 22.8125 130.802 22.7188 130.5 22.6562C130.203 22.5885 129.862 22.5547 129.477 22.5547C129.372 22.5547 129.266 22.5547 129.156 22.5547C129.052 22.5547 128.948 22.5547 128.844 22.5547V25.5391ZM138.469 29.5234C138.469 29.8203 138.531 30.0417 138.656 30.1875C138.781 30.3281 138.958 30.3984 139.188 30.3984C139.323 30.3984 139.443 30.3828 139.547 30.3516C139.656 30.3203 139.76 30.2734 139.859 30.2109L140.086 31.8438C139.862 31.9479 139.617 32.026 139.352 32.0781C139.086 32.1354 138.823 32.1641 138.562 32.1641C138.214 32.1641 137.904 32.1146 137.633 32.0156C137.367 31.9167 137.141 31.7682 136.953 31.5703C136.766 31.3672 136.622 31.1146 136.523 30.8125C136.43 30.5052 136.383 30.151 136.383 29.75V20.3281L138.469 20.0938V29.5234ZM148.102 31.3125C147.674 31.5885 147.208 31.7995 146.703 31.9453C146.198 32.0911 145.654 32.1641 145.07 32.1641C144.424 32.1641 143.846 32.0729 143.336 31.8906C142.826 31.7031 142.391 31.4349 142.031 31.0859C141.677 30.7318 141.404 30.3021 141.211 29.7969C141.023 29.2865 140.93 28.7135 140.93 28.0781C140.93 27.4323 141.018 26.8516 141.195 26.3359C141.378 25.8203 141.633 25.3776 141.961 25.0078C142.289 24.638 142.682 24.3542 143.141 24.1562C143.604 23.9583 144.112 23.8594 144.664 23.8594C145.169 23.8594 145.628 23.9453 146.039 24.1172C146.451 24.2839 146.799 24.5312 147.086 24.8594C147.378 25.1823 147.602 25.5781 147.758 26.0469C147.914 26.5156 147.992 27.0521 147.992 27.6562C147.992 27.8073 147.987 27.9505 147.977 28.0859C147.971 28.2161 147.958 28.349 147.938 28.4844H143.008V28.5C143.039 28.8073 143.112 29.0833 143.227 29.3281C143.346 29.5677 143.503 29.7708 143.695 29.9375C143.888 30.1042 144.12 30.2344 144.391 30.3281C144.667 30.4167 144.979 30.4609 145.328 30.4609C145.776 30.4609 146.19 30.3958 146.57 30.2656C146.956 30.1354 147.326 29.9453 147.68 29.6953L148.102 31.3125ZM145.984 27.0469C145.979 26.8073 145.943 26.5911 145.875 26.3984C145.812 26.2057 145.721 26.0417 145.602 25.9062C145.487 25.7656 145.344 25.6589 145.172 25.5859C145.005 25.513 144.818 25.4766 144.609 25.4766C144.406 25.4766 144.219 25.5104 144.047 25.5781C143.88 25.6458 143.729 25.7474 143.594 25.8828C143.464 26.0182 143.352 26.1849 143.258 26.3828C143.164 26.5755 143.094 26.7969 143.047 27.0469H145.984ZM150.016 24.0234H151.648L151.758 24.7891C152.06 24.5026 152.406 24.276 152.797 24.1094C153.188 23.9427 153.625 23.8594 154.109 23.8594C154.536 23.8594 154.935 23.9271 155.305 24.0625C155.68 24.1979 156.005 24.4036 156.281 24.6797C156.562 24.9505 156.784 25.2943 156.945 25.7109C157.107 26.1276 157.188 26.6172 157.188 27.1797V32H155.102V27.4219C155.102 27.0833 155.06 26.7969 154.977 26.5625C154.898 26.3281 154.789 26.138 154.648 25.9922C154.508 25.8464 154.346 25.7396 154.164 25.6719C153.982 25.6042 153.792 25.5703 153.594 25.5703C153.318 25.5703 153.049 25.6354 152.789 25.7656C152.534 25.8906 152.302 26.0703 152.094 26.3047V32H150.016V24.0234ZM164.898 32L164.781 31.1953C164.443 31.5286 164.068 31.7734 163.656 31.9297C163.25 32.0859 162.81 32.1641 162.336 32.1641C161.841 32.1641 161.385 32.0703 160.969 31.8828C160.557 31.6953 160.203 31.4323 159.906 31.0938C159.609 30.7552 159.38 30.3464 159.219 29.8672C159.057 29.388 158.977 28.8594 158.977 28.2812C158.977 27.6146 159.086 27.0078 159.305 26.4609C159.529 25.9141 159.854 25.4479 160.281 25.0625C160.714 24.6771 161.242 24.3802 161.867 24.1719C162.497 23.9635 163.219 23.8594 164.031 23.8594C164.104 23.8594 164.172 23.8594 164.234 23.8594C164.302 23.8594 164.372 23.8594 164.445 23.8594V20.3281L166.531 20.0938V32H164.898ZM164.445 25.625C164.341 25.625 164.24 25.625 164.141 25.625C164.047 25.625 163.948 25.625 163.844 25.625C163.375 25.625 162.969 25.6875 162.625 25.8125C162.281 25.9375 161.995 26.112 161.766 26.3359C161.536 26.5599 161.367 26.8307 161.258 27.1484C161.148 27.4609 161.094 27.8099 161.094 28.1953C161.094 28.5339 161.133 28.8438 161.211 29.125C161.294 29.401 161.411 29.638 161.562 29.8359C161.719 30.0286 161.906 30.1797 162.125 30.2891C162.344 30.3932 162.591 30.4453 162.867 30.4453C163.174 30.4453 163.461 30.3802 163.727 30.25C163.997 30.1146 164.237 29.9323 164.445 29.7031V25.625ZM175.586 31.3125C175.159 31.5885 174.693 31.7995 174.188 31.9453C173.682 32.0911 173.138 32.1641 172.555 32.1641C171.909 32.1641 171.331 32.0729 170.82 31.8906C170.31 31.7031 169.875 31.4349 169.516 31.0859C169.161 30.7318 168.888 30.3021 168.695 29.7969C168.508 29.2865 168.414 28.7135 168.414 28.0781C168.414 27.4323 168.503 26.8516 168.68 26.3359C168.862 25.8203 169.117 25.3776 169.445 25.0078C169.773 24.638 170.167 24.3542 170.625 24.1562C171.089 23.9583 171.596 23.8594 172.148 23.8594C172.654 23.8594 173.112 23.9453 173.523 24.1172C173.935 24.2839 174.284 24.5312 174.57 24.8594C174.862 25.1823 175.086 25.5781 175.242 26.0469C175.398 26.5156 175.477 27.0521 175.477 27.6562C175.477 27.8073 175.471 27.9505 175.461 28.0859C175.456 28.2161 175.443 28.349 175.422 28.4844H170.492V28.5C170.523 28.8073 170.596 29.0833 170.711 29.3281C170.831 29.5677 170.987 29.7708 171.18 29.9375C171.372 30.1042 171.604 30.2344 171.875 30.3281C172.151 30.4167 172.464 30.4609 172.812 30.4609C173.26 30.4609 173.674 30.3958 174.055 30.2656C174.44 30.1354 174.81 29.9453 175.164 29.6953L175.586 31.3125ZM173.469 27.0469C173.464 26.8073 173.427 26.5911 173.359 26.3984C173.297 26.2057 173.206 26.0417 173.086 25.9062C172.971 25.7656 172.828 25.6589 172.656 25.5859C172.49 25.513 172.302 25.4766 172.094 25.4766C171.891 25.4766 171.703 25.5104 171.531 25.5781C171.365 25.6458 171.214 25.7474 171.078 25.8828C170.948 26.0182 170.836 26.1849 170.742 26.3828C170.648 26.5755 170.578 26.7969 170.531 27.0469H173.469ZM183.023 32L182.906 31.1953C182.568 31.5286 182.193 31.7734 181.781 31.9297C181.375 32.0859 180.935 32.1641 180.461 32.1641C179.966 32.1641 179.51 32.0703 179.094 31.8828C178.682 31.6953 178.328 31.4323 178.031 31.0938C177.734 30.7552 177.505 30.3464 177.344 29.8672C177.182 29.388 177.102 28.8594 177.102 28.2812C177.102 27.6146 177.211 27.0078 177.43 26.4609C177.654 25.9141 177.979 25.4479 178.406 25.0625C178.839 24.6771 179.367 24.3802 179.992 24.1719C180.622 23.9635 181.344 23.8594 182.156 23.8594C182.229 23.8594 182.297 23.8594 182.359 23.8594C182.427 23.8594 182.497 23.8594 182.57 23.8594V20.3281L184.656 20.0938V32H183.023ZM182.57 25.625C182.466 25.625 182.365 25.625 182.266 25.625C182.172 25.625 182.073 25.625 181.969 25.625C181.5 25.625 181.094 25.6875 180.75 25.8125C180.406 25.9375 180.12 26.112 179.891 26.3359C179.661 26.5599 179.492 26.8307 179.383 27.1484C179.273 27.4609 179.219 27.8099 179.219 28.1953C179.219 28.5339 179.258 28.8438 179.336 29.125C179.419 29.401 179.536 29.638 179.688 29.8359C179.844 30.0286 180.031 30.1797 180.25 30.2891C180.469 30.3932 180.716 30.4453 180.992 30.4453C181.299 30.4453 181.586 30.3802 181.852 30.25C182.122 30.1146 182.362 29.9323 182.57 29.7031V25.625ZM191.297 20.8984C191.734 20.8724 192.148 20.8516 192.539 20.8359C192.935 20.8203 193.328 20.8125 193.719 20.8125C194.51 20.8125 195.211 20.8802 195.82 21.0156C196.435 21.151 196.948 21.349 197.359 21.6094C197.776 21.8646 198.091 22.1771 198.305 22.5469C198.523 22.9115 198.633 23.3229 198.633 23.7812C198.633 24.099 198.581 24.388 198.477 24.6484C198.378 24.9089 198.242 25.1406 198.07 25.3438C197.898 25.5417 197.698 25.7135 197.469 25.8594C197.24 26.0052 197 26.1224 196.75 26.2109C197.078 26.2734 197.385 26.3776 197.672 26.5234C197.958 26.6641 198.208 26.8438 198.422 27.0625C198.641 27.276 198.812 27.5234 198.938 27.8047C199.062 28.0807 199.125 28.388 199.125 28.7266C199.125 29.2578 199.003 29.7318 198.758 30.1484C198.518 30.5599 198.161 30.9115 197.688 31.2031C197.214 31.4896 196.628 31.7083 195.93 31.8594C195.232 32.0052 194.43 32.0781 193.523 32.0781C193.138 32.0781 192.76 32.0677 192.391 32.0469C192.021 32.0312 191.656 32.0156 191.297 32V20.8984ZM193.375 30.3203C193.505 30.3307 193.633 30.3359 193.758 30.3359C193.888 30.3359 194.016 30.3359 194.141 30.3359C194.578 30.3359 194.969 30.2995 195.312 30.2266C195.661 30.1536 195.953 30.0495 196.188 29.9141C196.427 29.7734 196.609 29.6042 196.734 29.4062C196.859 29.2031 196.922 28.974 196.922 28.7188C196.922 28.4844 196.859 28.2734 196.734 28.0859C196.615 27.8984 196.44 27.7422 196.211 27.6172C195.982 27.487 195.698 27.388 195.359 27.3203C195.026 27.2526 194.646 27.2188 194.219 27.2188H193.375V30.3203ZM193.375 25.5391H194.086C194.461 25.5391 194.792 25.5052 195.078 25.4375C195.37 25.3646 195.615 25.263 195.812 25.1328C196.016 24.9974 196.169 24.8333 196.273 24.6406C196.378 24.4479 196.43 24.2318 196.43 23.9922C196.43 23.7734 196.375 23.5755 196.266 23.3984C196.156 23.2161 195.997 23.0625 195.789 22.9375C195.586 22.8125 195.333 22.7188 195.031 22.6562C194.734 22.5885 194.393 22.5547 194.008 22.5547C193.904 22.5547 193.797 22.5547 193.688 22.5547C193.583 22.5547 193.479 22.5547 193.375 22.5547V25.5391ZM207.742 31.3125C207.315 31.5885 206.849 31.7995 206.344 31.9453C205.839 32.0911 205.294 32.1641 204.711 32.1641C204.065 32.1641 203.487 32.0729 202.977 31.8906C202.466 31.7031 202.031 31.4349 201.672 31.0859C201.318 30.7318 201.044 30.3021 200.852 29.7969C200.664 29.2865 200.57 28.7135 200.57 28.0781C200.57 27.4323 200.659 26.8516 200.836 26.3359C201.018 25.8203 201.273 25.3776 201.602 25.0078C201.93 24.638 202.323 24.3542 202.781 24.1562C203.245 23.9583 203.753 23.8594 204.305 23.8594C204.81 23.8594 205.268 23.9453 205.68 24.1172C206.091 24.2839 206.44 24.5312 206.727 24.8594C207.018 25.1823 207.242 25.5781 207.398 26.0469C207.555 26.5156 207.633 27.0521 207.633 27.6562C207.633 27.8073 207.628 27.9505 207.617 28.0859C207.612 28.2161 207.599 28.349 207.578 28.4844H202.648V28.5C202.68 28.8073 202.753 29.0833 202.867 29.3281C202.987 29.5677 203.143 29.7708 203.336 29.9375C203.529 30.1042 203.76 30.2344 204.031 30.3281C204.307 30.4167 204.62 30.4609 204.969 30.4609C205.417 30.4609 205.831 30.3958 206.211 30.2656C206.596 30.1354 206.966 29.9453 207.32 29.6953L207.742 31.3125ZM205.625 27.0469C205.62 26.8073 205.583 26.5911 205.516 26.3984C205.453 26.2057 205.362 26.0417 205.242 25.9062C205.128 25.7656 204.984 25.6589 204.812 25.5859C204.646 25.513 204.458 25.4766 204.25 25.4766C204.047 25.4766 203.859 25.5104 203.688 25.5781C203.521 25.6458 203.37 25.7474 203.234 25.8828C203.104 26.0182 202.992 26.1849 202.898 26.3828C202.805 26.5755 202.734 26.7969 202.688 27.0469H205.625ZM216.539 24.0234C216.232 25.362 215.857 26.6953 215.414 28.0234C214.971 29.3516 214.453 30.6771 213.859 32H211.383C210.784 30.6771 210.26 29.3516 209.812 28.0234C209.37 26.6953 209 25.362 208.703 24.0234H210.844C210.948 24.5182 211.062 25.0208 211.188 25.5312C211.312 26.0417 211.451 26.5521 211.602 27.0625C211.758 27.5729 211.924 28.0833 212.102 28.5938C212.279 29.1042 212.464 29.6068 212.656 30.1016C212.844 29.6068 213.023 29.1042 213.195 28.5938C213.372 28.0833 213.536 27.5729 213.688 27.0625C213.839 26.5521 213.977 26.0417 214.102 25.5312C214.227 25.0208 214.341 24.5182 214.445 24.0234H216.539ZM217.586 24.9062C218.044 24.5781 218.555 24.3255 219.117 24.1484C219.68 23.9661 220.286 23.875 220.938 23.875C221.474 23.875 221.953 23.9401 222.375 24.0703C222.797 24.1953 223.151 24.3906 223.438 24.6562C223.729 24.9167 223.951 25.2474 224.102 25.6484C224.253 26.0443 224.328 26.5208 224.328 27.0781V29.7578C224.328 30.1953 224.51 30.4141 224.875 30.4141C224.99 30.4141 225.091 30.3958 225.18 30.3594C225.273 30.3177 225.367 30.2604 225.461 30.1875L225.656 31.7734C225.479 31.8828 225.281 31.9688 225.062 32.0312C224.844 32.0938 224.591 32.125 224.305 32.125C223.878 32.125 223.523 32.0443 223.242 31.8828C222.966 31.7214 222.758 31.5156 222.617 31.2656C222.487 31.3854 222.341 31.5026 222.18 31.6172C222.018 31.7266 221.836 31.8229 221.633 31.9062C221.435 31.9844 221.219 32.0469 220.984 32.0938C220.75 32.1406 220.5 32.1641 220.234 32.1641C219.818 32.1641 219.443 32.1068 219.109 31.9922C218.781 31.8776 218.5 31.7188 218.266 31.5156C218.031 31.3125 217.852 31.0729 217.727 30.7969C217.607 30.5156 217.547 30.2109 217.547 29.8828C217.547 29.4922 217.628 29.1458 217.789 28.8438C217.956 28.5417 218.193 28.2865 218.5 28.0781C218.807 27.8646 219.182 27.7057 219.625 27.6016C220.068 27.4922 220.565 27.4375 221.117 27.4375C221.331 27.4375 221.529 27.4453 221.711 27.4609C221.898 27.4766 222.076 27.5 222.242 27.5312V27.1875C222.242 26.8958 222.206 26.651 222.133 26.4531C222.06 26.25 221.951 26.0833 221.805 25.9531C221.664 25.8229 221.49 25.7318 221.281 25.6797C221.078 25.6224 220.844 25.5938 220.578 25.5938C220.083 25.5938 219.628 25.6771 219.211 25.8438C218.799 26.0052 218.404 26.224 218.023 26.5L217.586 24.9062ZM222.242 28.9844C222.081 28.9479 221.917 28.9219 221.75 28.9062C221.589 28.8906 221.417 28.8828 221.234 28.8828C220.969 28.8828 220.734 28.9036 220.531 28.9453C220.328 28.9818 220.159 29.0391 220.023 29.1172C219.888 29.1901 219.786 29.2812 219.719 29.3906C219.651 29.5 219.617 29.625 219.617 29.7656C219.617 29.8958 219.641 30.0104 219.688 30.1094C219.74 30.2083 219.81 30.2943 219.898 30.3672C219.992 30.4349 220.104 30.487 220.234 30.5234C220.365 30.5547 220.513 30.5703 220.68 30.5703C221.023 30.5703 221.326 30.5078 221.586 30.3828C221.852 30.2526 222.07 30.0859 222.242 29.8828V28.9844ZM226.922 24.0234H228.555L228.703 25.0078C228.844 24.8203 228.984 24.6562 229.125 24.5156C229.271 24.3698 229.419 24.2474 229.57 24.1484C229.721 24.0495 229.878 23.9766 230.039 23.9297C230.206 23.8828 230.38 23.8594 230.562 23.8594C230.714 23.8594 230.852 23.875 230.977 23.9062C231.107 23.9323 231.229 23.974 231.344 24.0312L231.18 25.8672C231.065 25.8099 230.948 25.7682 230.828 25.7422C230.714 25.7109 230.596 25.6953 230.477 25.6953C230.357 25.6953 230.237 25.7135 230.117 25.75C229.997 25.7812 229.875 25.8359 229.75 25.9141C229.63 25.987 229.508 26.0859 229.383 26.2109C229.258 26.3307 229.13 26.4844 229 26.6719V32H226.922V24.0234ZM232.211 24.9062C232.669 24.5781 233.18 24.3255 233.742 24.1484C234.305 23.9661 234.911 23.875 235.562 23.875C236.099 23.875 236.578 23.9401 237 24.0703C237.422 24.1953 237.776 24.3906 238.062 24.6562C238.354 24.9167 238.576 25.2474 238.727 25.6484C238.878 26.0443 238.953 26.5208 238.953 27.0781V29.7578C238.953 30.1953 239.135 30.4141 239.5 30.4141C239.615 30.4141 239.716 30.3958 239.805 30.3594C239.898 30.3177 239.992 30.2604 240.086 30.1875L240.281 31.7734C240.104 31.8828 239.906 31.9688 239.688 32.0312C239.469 32.0938 239.216 32.125 238.93 32.125C238.503 32.125 238.148 32.0443 237.867 31.8828C237.591 31.7214 237.383 31.5156 237.242 31.2656C237.112 31.3854 236.966 31.5026 236.805 31.6172C236.643 31.7266 236.461 31.8229 236.258 31.9062C236.06 31.9844 235.844 32.0469 235.609 32.0938C235.375 32.1406 235.125 32.1641 234.859 32.1641C234.443 32.1641 234.068 32.1068 233.734 31.9922C233.406 31.8776 233.125 31.7188 232.891 31.5156C232.656 31.3125 232.477 31.0729 232.352 30.7969C232.232 30.5156 232.172 30.2109 232.172 29.8828C232.172 29.4922 232.253 29.1458 232.414 28.8438C232.581 28.5417 232.818 28.2865 233.125 28.0781C233.432 27.8646 233.807 27.7057 234.25 27.6016C234.693 27.4922 235.19 27.4375 235.742 27.4375C235.956 27.4375 236.154 27.4453 236.336 27.4609C236.523 27.4766 236.701 27.5 236.867 27.5312V27.1875C236.867 26.8958 236.831 26.651 236.758 26.4531C236.685 26.25 236.576 26.0833 236.43 25.9531C236.289 25.8229 236.115 25.7318 235.906 25.6797C235.703 25.6224 235.469 25.5938 235.203 25.5938C234.708 25.5938 234.253 25.6771 233.836 25.8438C233.424 26.0052 233.029 26.224 232.648 26.5L232.211 24.9062ZM236.867 28.9844C236.706 28.9479 236.542 28.9219 236.375 28.9062C236.214 28.8906 236.042 28.8828 235.859 28.8828C235.594 28.8828 235.359 28.9036 235.156 28.9453C234.953 28.9818 234.784 29.0391 234.648 29.1172C234.513 29.1901 234.411 29.2812 234.344 29.3906C234.276 29.5 234.242 29.625 234.242 29.7656C234.242 29.8958 234.266 30.0104 234.312 30.1094C234.365 30.2083 234.435 30.2943 234.523 30.3672C234.617 30.4349 234.729 30.487 234.859 30.5234C234.99 30.5547 235.138 30.5703 235.305 30.5703C235.648 30.5703 235.951 30.5078 236.211 30.3828C236.477 30.2526 236.695 30.0859 236.867 29.8828V28.9844ZM247.719 25.6562C247.677 25.6562 247.641 25.6562 247.609 25.6562C247.578 25.651 247.544 25.6484 247.508 25.6484C247.565 25.7995 247.612 25.9557 247.648 26.1172C247.685 26.2786 247.703 26.4479 247.703 26.625C247.703 27.0729 247.617 27.474 247.445 27.8281C247.279 28.1823 247.047 28.4818 246.75 28.7266C246.458 28.9661 246.109 29.151 245.703 29.2812C245.302 29.4115 244.867 29.4792 244.398 29.4844C244.336 29.4844 244.276 29.4844 244.219 29.4844C244.167 29.4844 244.112 29.4792 244.055 29.4688C243.977 29.5625 243.917 29.6589 243.875 29.7578C243.833 29.8568 243.812 29.9661 243.812 30.0859C243.812 30.1745 243.831 30.2578 243.867 30.3359C243.904 30.4141 243.956 30.4844 244.023 30.5469C244.096 30.6042 244.18 30.651 244.273 30.6875C244.372 30.7188 244.482 30.7344 244.602 30.7344H245.398C245.878 30.7344 246.305 30.7891 246.68 30.8984C247.06 31.0026 247.38 31.1589 247.641 31.3672C247.906 31.5755 248.109 31.8281 248.25 32.125C248.396 32.4271 248.469 32.7682 248.469 33.1484C248.469 33.5703 248.378 33.9531 248.195 34.2969C248.013 34.6458 247.75 34.9401 247.406 35.1797C247.068 35.4193 246.651 35.6016 246.156 35.7266C245.667 35.8568 245.109 35.9219 244.484 35.9219C243.906 35.9219 243.385 35.862 242.922 35.7422C242.458 35.6276 242.062 35.4583 241.734 35.2344C241.411 35.0156 241.164 34.7474 240.992 34.4297C240.82 34.1172 240.734 33.763 240.734 33.3672C240.734 33.1016 240.771 32.849 240.844 32.6094C240.922 32.375 241.031 32.1615 241.172 31.9688C241.318 31.776 241.495 31.6094 241.703 31.4688C241.911 31.3229 242.143 31.2057 242.398 31.1172C242.242 31.0078 242.122 30.8672 242.039 30.6953C241.956 30.5234 241.914 30.3255 241.914 30.1016C241.914 29.888 241.953 29.6875 242.031 29.5C242.115 29.3073 242.232 29.1328 242.383 28.9766C242.003 28.7422 241.701 28.4375 241.477 28.0625C241.258 27.6875 241.148 27.2422 241.148 26.7266C241.148 26.2682 241.234 25.862 241.406 25.5078C241.583 25.1484 241.82 24.8464 242.117 24.6016C242.419 24.3568 242.773 24.1719 243.18 24.0469C243.586 23.9219 244.023 23.8594 244.492 23.8594C244.706 23.8594 244.911 23.8724 245.109 23.8984C245.307 23.9193 245.497 23.9609 245.68 24.0234H248.484V25.6562H247.719ZM244.125 32.3203C243.661 32.3203 243.307 32.4062 243.062 32.5781C242.818 32.75 242.695 32.9818 242.695 33.2734C242.695 33.4297 242.74 33.5729 242.828 33.7031C242.917 33.8333 243.039 33.9453 243.195 34.0391C243.357 34.1328 243.555 34.2057 243.789 34.2578C244.023 34.3099 244.284 34.3359 244.57 34.3359C244.862 34.3359 245.122 34.3073 245.352 34.25C245.586 34.1979 245.784 34.1224 245.945 34.0234C246.112 33.9297 246.24 33.8151 246.328 33.6797C246.417 33.5495 246.461 33.4036 246.461 33.2422C246.461 32.9609 246.344 32.737 246.109 32.5703C245.875 32.4036 245.557 32.3203 245.156 32.3203H244.125ZM244.414 25.4453C244.237 25.4453 244.068 25.474 243.906 25.5312C243.745 25.5885 243.604 25.6719 243.484 25.7812C243.37 25.8906 243.276 26.0208 243.203 26.1719C243.13 26.3229 243.094 26.4922 243.094 26.6797C243.094 26.8672 243.13 27.0365 243.203 27.1875C243.276 27.3385 243.372 27.4714 243.492 27.5859C243.612 27.6953 243.753 27.7812 243.914 27.8438C244.081 27.901 244.258 27.9297 244.445 27.9297C244.617 27.9297 244.781 27.901 244.938 27.8438C245.094 27.7812 245.232 27.6953 245.352 27.5859C245.471 27.4766 245.565 27.349 245.633 27.2031C245.706 27.0521 245.742 26.8854 245.742 26.7031C245.742 26.5156 245.706 26.3438 245.633 26.1875C245.565 26.0312 245.469 25.8984 245.344 25.7891C245.224 25.6745 245.083 25.5885 244.922 25.5312C244.766 25.474 244.596 25.4453 244.414 25.4453ZM256.57 31.3125C256.143 31.5885 255.677 31.7995 255.172 31.9453C254.667 32.0911 254.122 32.1641 253.539 32.1641C252.893 32.1641 252.315 32.0729 251.805 31.8906C251.294 31.7031 250.859 31.4349 250.5 31.0859C250.146 30.7318 249.872 30.3021 249.68 29.7969C249.492 29.2865 249.398 28.7135 249.398 28.0781C249.398 27.4323 249.487 26.8516 249.664 26.3359C249.846 25.8203 250.102 25.3776 250.43 25.0078C250.758 24.638 251.151 24.3542 251.609 24.1562C252.073 23.9583 252.581 23.8594 253.133 23.8594C253.638 23.8594 254.096 23.9453 254.508 24.1172C254.919 24.2839 255.268 24.5312 255.555 24.8594C255.846 25.1823 256.07 25.5781 256.227 26.0469C256.383 26.5156 256.461 27.0521 256.461 27.6562C256.461 27.8073 256.456 27.9505 256.445 28.0859C256.44 28.2161 256.427 28.349 256.406 28.4844H251.477V28.5C251.508 28.8073 251.581 29.0833 251.695 29.3281C251.815 29.5677 251.971 29.7708 252.164 29.9375C252.357 30.1042 252.589 30.2344 252.859 30.3281C253.135 30.4167 253.448 30.4609 253.797 30.4609C254.245 30.4609 254.659 30.3958 255.039 30.2656C255.424 30.1354 255.794 29.9453 256.148 29.6953L256.57 31.3125ZM254.453 27.0469C254.448 26.8073 254.411 26.5911 254.344 26.3984C254.281 26.2057 254.19 26.0417 254.07 25.9062C253.956 25.7656 253.812 25.6589 253.641 25.5859C253.474 25.513 253.286 25.4766 253.078 25.4766C252.875 25.4766 252.688 25.5104 252.516 25.5781C252.349 25.6458 252.198 25.7474 252.062 25.8828C251.932 26.0182 251.82 26.1849 251.727 26.3828C251.633 26.5755 251.562 26.7969 251.516 27.0469H254.453ZM258.57 29.9531C258.909 30.151 259.242 30.3021 259.57 30.4062C259.904 30.5052 260.242 30.5547 260.586 30.5547C260.768 30.5547 260.93 30.5391 261.07 30.5078C261.216 30.4714 261.336 30.4219 261.43 30.3594C261.529 30.2969 261.604 30.224 261.656 30.1406C261.714 30.0521 261.742 29.9557 261.742 29.8516C261.742 29.6849 261.688 29.5443 261.578 29.4297C261.474 29.3099 261.336 29.2057 261.164 29.1172C260.992 29.0234 260.794 28.9375 260.57 28.8594C260.352 28.776 260.128 28.6875 259.898 28.5938C259.669 28.4948 259.443 28.3854 259.219 28.2656C259 28.1406 258.805 27.9896 258.633 27.8125C258.461 27.6302 258.323 27.4141 258.219 27.1641C258.115 26.9141 258.062 26.6172 258.062 26.2734C258.062 25.9089 258.133 25.5781 258.273 25.2812C258.419 24.9844 258.628 24.7344 258.898 24.5312C259.169 24.3229 259.492 24.1615 259.867 24.0469C260.247 23.9323 260.674 23.875 261.148 23.875C261.565 23.875 261.966 23.9219 262.352 24.0156C262.742 24.1094 263.096 24.2474 263.414 24.4297L262.984 26.0078C262.724 25.8411 262.44 25.7135 262.133 25.625C261.826 25.5312 261.521 25.4844 261.219 25.4844C261.047 25.4844 260.891 25.5 260.75 25.5312C260.609 25.5625 260.492 25.6068 260.398 25.6641C260.305 25.7161 260.234 25.7812 260.188 25.8594C260.141 25.9375 260.117 26.0286 260.117 26.1328C260.117 26.2943 260.169 26.4297 260.273 26.5391C260.378 26.6484 260.516 26.7474 260.688 26.8359C260.865 26.9193 261.062 27 261.281 27.0781C261.505 27.1562 261.732 27.2422 261.961 27.3359C262.19 27.4297 262.414 27.5391 262.633 27.6641C262.852 27.7891 263.049 27.9453 263.227 28.1328C263.404 28.3151 263.544 28.5339 263.648 28.7891C263.753 29.0443 263.805 29.3464 263.805 29.6953C263.805 30.0755 263.729 30.4193 263.578 30.7266C263.427 31.0286 263.214 31.2865 262.938 31.5C262.661 31.7135 262.328 31.8776 261.938 31.9922C261.547 32.1068 261.117 32.1641 260.648 32.1641C260.414 32.1641 260.182 32.151 259.953 32.125C259.729 32.099 259.513 32.0599 259.305 32.0078C259.096 31.9557 258.896 31.8906 258.703 31.8125C258.51 31.7344 258.333 31.6458 258.172 31.5469L258.57 29.9531Z" fill="#2B2F39"/>
<path d="M275.508 32.636C275.012 31.82 274.624 30.968 274.344 30.08C274.064 29.192 273.924 28.22 273.924 27.164C273.924 26.108 274.064 25.136 274.344 24.248C274.624 23.36 275.012 22.508 275.508 21.692L276.372 22.076C275.924 22.844 275.592 23.664 275.376 24.536C275.16 25.408 275.052 26.284 275.052 27.164C275.052 28.044 275.16 28.92 275.376 29.792C275.592 30.664 275.924 31.484 276.372 32.252L275.508 32.636ZM278.475 27.464H280.479V25.736C280.479 25.512 280.487 25.248 280.503 24.944C280.519 24.64 280.531 24.376 280.539 24.152H280.491C280.395 24.352 280.295 24.548 280.191 24.74C280.087 24.932 279.979 25.132 279.867 25.34L278.475 27.464ZM280.479 30.5V28.532H277.107V27.596L280.131 22.868H281.775V27.464H282.735V28.532H281.775V30.5H280.479ZM286.127 30.644C285.631 30.644 285.187 30.556 284.795 30.38C284.403 30.196 284.095 29.948 283.871 29.636C283.647 29.324 283.535 28.96 283.535 28.544C283.535 28.072 283.675 27.676 283.955 27.356C284.235 27.036 284.555 26.78 284.915 26.588V26.54C284.619 26.332 284.367 26.084 284.159 25.796C283.959 25.5 283.859 25.152 283.859 24.752C283.859 24.336 283.959 23.98 284.159 23.684C284.359 23.38 284.631 23.144 284.975 22.976C285.327 22.808 285.723 22.724 286.163 22.724C286.851 22.724 287.395 22.916 287.795 23.3C288.203 23.676 288.407 24.172 288.407 24.788C288.407 25.164 288.299 25.504 288.083 25.808C287.867 26.112 287.635 26.356 287.387 26.54V26.588C287.739 26.788 288.047 27.04 288.311 27.344C288.575 27.648 288.707 28.056 288.707 28.568C288.707 28.96 288.599 29.312 288.383 29.624C288.167 29.936 287.867 30.184 287.483 30.368C287.099 30.552 286.647 30.644 286.127 30.644ZM286.631 26.192C286.839 25.984 286.995 25.772 287.099 25.556C287.211 25.34 287.267 25.112 287.267 24.872C287.267 24.536 287.167 24.26 286.967 24.044C286.767 23.82 286.491 23.708 286.139 23.708C285.843 23.708 285.595 23.8 285.395 23.984C285.195 24.168 285.095 24.424 285.095 24.752C285.095 25.008 285.163 25.224 285.299 25.4C285.435 25.568 285.619 25.716 285.851 25.844C286.091 25.964 286.351 26.08 286.631 26.192ZM286.151 29.66C286.519 29.66 286.819 29.56 287.051 29.36C287.291 29.152 287.411 28.872 287.411 28.52C287.411 28.24 287.327 28.012 287.159 27.836C286.999 27.66 286.779 27.508 286.499 27.38C286.227 27.244 285.919 27.108 285.575 26.972C285.335 27.148 285.135 27.356 284.975 27.596C284.823 27.836 284.747 28.104 284.747 28.4C284.747 28.776 284.883 29.08 285.155 29.312C285.427 29.544 285.759 29.66 286.151 29.66ZM292.594 30.5V22.652H293.986V30.5H292.594ZM297.936 30.644C297.256 30.644 296.772 30.448 296.484 30.056C296.204 29.656 296.064 29.14 296.064 28.508V25.7H295.224V24.668L296.136 24.608L296.304 23H297.456V24.608H298.956V25.7H297.456V28.508C297.456 29.196 297.732 29.54 298.284 29.54C298.388 29.54 298.496 29.528 298.608 29.504C298.72 29.472 298.816 29.44 298.896 29.408L299.136 30.428C298.976 30.484 298.792 30.532 298.584 30.572C298.384 30.62 298.168 30.644 297.936 30.644ZM302.529 30.644C301.985 30.644 301.493 30.524 301.053 30.284C300.613 30.036 300.265 29.684 300.009 29.228C299.753 28.764 299.625 28.208 299.625 27.56C299.625 26.92 299.753 26.368 300.009 25.904C300.273 25.44 300.613 25.084 301.029 24.836C301.445 24.588 301.881 24.464 302.337 24.464C302.873 24.464 303.321 24.584 303.681 24.824C304.041 25.056 304.313 25.384 304.497 25.808C304.681 26.224 304.773 26.708 304.773 27.26C304.773 27.548 304.753 27.772 304.713 27.932H300.969C301.033 28.452 301.221 28.856 301.533 29.144C301.845 29.432 302.237 29.576 302.709 29.576C302.965 29.576 303.201 29.54 303.417 29.468C303.641 29.388 303.861 29.28 304.077 29.144L304.545 30.008C304.265 30.192 303.953 30.344 303.609 30.464C303.265 30.584 302.905 30.644 302.529 30.644ZM300.957 26.996H303.573C303.573 26.54 303.473 26.184 303.273 25.928C303.073 25.664 302.773 25.532 302.373 25.532C302.029 25.532 301.721 25.66 301.449 25.916C301.185 26.164 301.021 26.524 300.957 26.996ZM306.091 30.5V24.608H307.231L307.327 25.412H307.375C307.623 25.148 307.891 24.924 308.179 24.74C308.475 24.556 308.807 24.464 309.175 24.464C309.607 24.464 309.951 24.56 310.207 24.752C310.471 24.936 310.671 25.192 310.807 25.52C311.087 25.216 311.379 24.964 311.683 24.764C311.995 24.564 312.335 24.464 312.703 24.464C313.327 24.464 313.787 24.668 314.083 25.076C314.379 25.484 314.527 26.06 314.527 26.804V30.5H313.135V26.984C313.135 26.496 313.059 26.152 312.907 25.952C312.763 25.752 312.539 25.652 312.235 25.652C311.867 25.652 311.455 25.896 310.999 26.384V30.5H309.619V26.984C309.619 26.496 309.543 26.152 309.391 25.952C309.247 25.752 309.019 25.652 308.707 25.652C308.339 25.652 307.927 25.896 307.471 26.384V30.5H306.091ZM317.848 30.644C317.448 30.644 317.048 30.568 316.648 30.416C316.248 30.256 315.904 30.06 315.616 29.828L316.264 28.94C316.528 29.14 316.792 29.3 317.056 29.42C317.32 29.54 317.6 29.6 317.896 29.6C318.216 29.6 318.452 29.532 318.604 29.396C318.756 29.26 318.832 29.092 318.832 28.892C318.832 28.724 318.768 28.588 318.64 28.484C318.52 28.372 318.364 28.276 318.172 28.196C317.98 28.108 317.78 28.024 317.572 27.944C317.316 27.848 317.06 27.732 316.804 27.596C316.556 27.452 316.352 27.272 316.192 27.056C316.032 26.832 315.952 26.556 315.952 26.228C315.952 25.708 316.144 25.284 316.528 24.956C316.912 24.628 317.432 24.464 318.088 24.464C318.504 24.464 318.876 24.536 319.204 24.68C319.532 24.824 319.816 24.988 320.056 25.172L319.42 26.012C319.212 25.86 319 25.74 318.784 25.652C318.576 25.556 318.356 25.508 318.124 25.508C317.828 25.508 317.608 25.572 317.464 25.7C317.32 25.82 317.248 25.972 317.248 26.156C317.248 26.388 317.368 26.564 317.608 26.684C317.848 26.804 318.128 26.92 318.448 27.032C318.72 27.128 318.984 27.248 319.24 27.392C319.496 27.528 319.708 27.708 319.876 27.932C320.052 28.156 320.14 28.452 320.14 28.82C320.14 29.324 319.944 29.756 319.552 30.116C319.16 30.468 318.592 30.644 317.848 30.644ZM321.876 32.636L321.012 32.252C321.46 31.484 321.792 30.664 322.008 29.792C322.224 28.92 322.332 28.044 322.332 27.164C322.332 26.284 322.224 25.408 322.008 24.536C321.792 23.664 321.46 22.844 321.012 22.076L321.876 21.692C322.372 22.508 322.76 23.36 323.04 24.248C323.32 25.136 323.46 26.108 323.46 27.164C323.46 28.22 323.32 29.192 323.04 30.08C322.76 30.968 322.372 31.82 321.876 32.636Z" fill="#2B2F39"/>
<path d="M379 25.5L384 30.5L389 25.5H379Z" fill="black" fill-opacity="0.54"/>
</svg>
