<svg width="264" height="94" viewBox="0 0 264 94" fill="none" xmlns="http://www.w3.org/2000/svg">
<g clip-path="url(#clip0_126_45)">
<path d="M17.15 18.38H1.99V9.57H0L9.57 0L19.14 9.57H17.15V18.38ZM2.99 17.38H16.15V8.57H16.72L9.57 1.41L2.42 8.56H2.99V17.37V17.38Z" fill="#0F5654"/>
<path d="M11.71 17.8802H10.71V12.4502H7.92999V17.8802H6.92999V11.4502H11.71V17.8802Z" fill="#0F5654"/>
</g>
<g clip-path="url(#clip1_126_45)">
<path d="M49.74 18.88H37.93C36.39 18.88 35.13 17.62 35.13 16.08V0L37.11 1.98L38.68 0.42L39.99 1.74L41.39 0.34L42.79 1.74L43.89 0.63L45.13 1.87L46.25 0.75L47.36 1.86L49.14 0.08V16.86C49.14 17.18 49.52 17.88 49.74 17.88V18.88ZM36.13 2.41V16.07C36.13 17.06 36.94 17.87 37.93 17.87H48.43C48.24 17.49 48.14 17.1 48.14 16.85V2.49L47.36 3.27L46.25 2.16L45.13 3.28L43.89 2.04L42.79 3.15L41.39 1.75L39.99 3.15L38.68 1.83L37.11 3.39L36.13 2.41Z" fill="#6D6D6D"/>
<path d="M50.87 18.88H49.74C48.7 18.88 48.14 17.45 48.14 16.86V9.20996H52.32V17.41C52.32 18.02 51.77 18.88 50.87 18.88ZM49.14 10.21V16.86C49.14 17.18 49.52 17.88 49.74 17.88H50.87C51.16 17.88 51.32 17.5 51.32 17.41V10.21H49.14Z" fill="#6D6D6D"/>
<path d="M38.46 12.6498C38.7748 12.6498 39.03 12.3946 39.03 12.0798C39.03 11.765 38.7748 11.5098 38.46 11.5098C38.1452 11.5098 37.89 11.765 37.89 12.0798C37.89 12.3946 38.1452 12.6498 38.46 12.6498Z" fill="#6D6D6D"/>
<path d="M38.46 14.9501C38.7748 14.9501 39.03 14.6949 39.03 14.3801C39.03 14.0653 38.7748 13.8101 38.46 13.8101C38.1452 13.8101 37.89 14.0653 37.89 14.3801C37.89 14.6949 38.1452 14.9501 38.46 14.9501Z" fill="#6D6D6D"/>
<path d="M46.52 11.5098H39.74V12.6498H46.52V11.5098Z" fill="#6D6D6D"/>
<path d="M46.52 13.8101H39.74V14.9501H46.52V13.8101Z" fill="#6D6D6D"/>
<path d="M42.19 10.0799V9.47992C41.77 9.45992 41.35 9.34992 41.11 9.20992L41.3 8.46992C41.57 8.61992 41.94 8.74992 42.35 8.74992C42.71 8.74992 42.96 8.60992 42.96 8.35992C42.96 8.10992 42.76 7.96992 42.29 7.80992C41.61 7.57992 41.15 7.26992 41.15 6.64992C41.15 6.08992 41.54 5.65992 42.22 5.51992V4.91992H42.84V5.47992C43.26 5.49992 43.55 5.58992 43.76 5.68992L43.58 6.40992C43.41 6.33992 43.12 6.19992 42.67 6.19992C42.26 6.19992 42.13 6.37992 42.13 6.54992C42.13 6.75992 42.35 6.88992 42.89 7.08992C43.64 7.35992 43.95 7.69992 43.95 8.26992C43.95 8.83992 43.55 9.30992 42.82 9.43992V10.0899H42.2L42.19 10.0799Z" fill="#6D6D6D"/>
</g>
<g clip-path="url(#clip2_126_45)">
<path d="M74.79 9.29C72.23 9.29 70.14 7.21 70.14 4.64C70.14 2.07 72.23 0 74.79 0C77.35 0 79.44 2.08 79.44 4.65C79.44 7.22 77.36 9.3 74.79 9.3V9.29ZM74.79 1C72.78 1 71.14 2.64 71.14 4.65C71.14 6.66 72.78 8.3 74.79 8.3C76.8 8.3 78.44 6.66 78.44 4.65C78.44 2.64 76.8 1 74.79 1Z" fill="#0F5654"/>
<path d="M81.32 18.4301H80.32C80.4 16.9001 79.88 15.3801 78.86 14.2101C77.8 13.0101 76.34 12.3201 74.84 12.3101H74.83C73.42 12.3101 72.01 12.9401 70.96 14.0301C69.83 15.2101 69.26 16.7501 69.33 18.3801V18.4301H68.32C68.24 16.5201 68.91 14.7201 70.23 13.3401C71.46 12.0501 73.14 11.3101 74.82 11.3101H74.84C76.61 11.3101 78.35 12.1401 79.6 13.5501C80.78 14.9001 81.39 16.6601 81.31 18.4301H81.32Z" fill="#0F5654"/>
</g>
<g clip-path="url(#clip3_126_45)">
<path d="M19.14 44.4399H17.15V53.2499H11.72V46.2899H6.92V53.2499H1.99V44.4399H0L9.57 34.8799L19.14 44.4399Z" fill="#0F5654"/>
<path d="M11.72 52.2498V53.2498H10.71V47.3198H7.92998V53.2498H6.91998V52.2498H6.92998V46.3198H11.71V52.2498H11.72Z" fill="white"/>
<path d="M10.71 47.3198H7.92999V53.2498H10.71V47.3198Z" fill="#0F5654"/>
</g>
<g clip-path="url(#clip4_126_45)">
<path d="M49.15 44.0899V34.9599L47.37 36.7399L46.26 35.6299L45.14 36.7499L43.89 35.5099L42.79 36.6199L41.4 35.2199L40 36.6199L38.69 35.2999L37.12 36.8599L35.14 34.8799V50.9599C35.14 52.4999 36.39 53.7599 37.94 53.7599H50.88C51.77 53.7599 52.33 52.8999 52.33 52.2899V44.0899H49.15ZM42.3 42.6799C41.62 42.4599 41.16 42.1399 41.16 41.5299C41.16 40.9699 41.55 40.5299 42.23 40.3999V39.7999H42.85V40.3499C43.28 40.3699 43.56 40.4599 43.77 40.5599L43.59 41.2799C43.42 41.2099 43.13 41.0599 42.67 41.0599C42.26 41.0599 42.13 41.2399 42.13 41.4199C42.13 41.6299 42.35 41.7599 42.89 41.9599C43.64 42.2299 43.95 42.5799 43.95 43.1499C43.95 43.7199 43.55 44.1899 42.82 44.3199V44.9599H42.2V44.3599C41.78 44.3399 41.36 44.2299 41.12 44.0899L41.31 43.3499C41.58 43.4999 41.95 43.6299 42.36 43.6299C42.72 43.6299 42.97 43.4899 42.97 43.2399C42.97 42.9899 42.77 42.8399 42.3 42.6799ZM38.47 49.8299C38.15 49.8299 37.9 49.5699 37.9 49.2599C37.9 48.9499 38.15 48.6899 38.47 48.6899C38.79 48.6899 39.03 48.9399 39.03 49.2599C39.03 49.5799 38.78 49.8299 38.47 49.8299ZM38.47 47.5299C38.15 47.5299 37.9 47.2799 37.9 46.9599C37.9 46.6399 38.15 46.3899 38.47 46.3899C38.79 46.3899 39.03 46.6499 39.03 46.9599C39.03 47.2699 38.78 47.5299 38.47 47.5299ZM46.52 49.8299H39.74V48.6899H46.52V49.8299ZM46.52 47.5299H39.74V46.3899H46.52V47.5299ZM51.33 52.2899C51.32 52.3799 51.17 52.7599 50.88 52.7599H49.75C49.53 52.7599 49.15 52.0499 49.15 51.7399V45.0899H51.33V52.2899Z" fill="#0F5654"/>
<path d="M51.33 45.0898V52.2898C51.32 52.3798 51.17 52.7598 50.88 52.7598H49.75C49.53 52.7598 49.15 52.0498 49.15 51.7398V45.0898H51.33Z" fill="white"/>
<path d="M39.03 46.9596C39.03 47.2796 38.78 47.5296 38.47 47.5296C38.16 47.5296 37.9 47.2796 37.9 46.9596C37.9 46.6396 38.15 46.3896 38.47 46.3896C38.79 46.3896 39.03 46.6496 39.03 46.9596Z" fill="white"/>
<path d="M39.03 49.2599C39.03 49.5699 38.78 49.8299 38.47 49.8299C38.16 49.8299 37.9 49.5699 37.9 49.2599C37.9 48.9499 38.15 48.6899 38.47 48.6899C38.79 48.6899 39.03 48.9399 39.03 49.2599Z" fill="white"/>
<path d="M46.52 46.3896H39.74V47.5296H46.52V46.3896Z" fill="white"/>
<path d="M46.52 48.6899H39.74V49.8299H46.52V48.6899Z" fill="white"/>
<path d="M42.89 41.9598C42.35 41.7598 42.13 41.6298 42.13 41.4198C42.13 41.2398 42.26 41.0598 42.67 41.0598C43.13 41.0598 43.42 41.2098 43.59 41.2798L43.77 40.5598C43.56 40.4598 43.28 40.3698 42.85 40.3498V39.7998H42.23V40.3998C41.55 40.5298 41.16 40.9698 41.16 41.5298C41.16 42.1398 41.62 42.4598 42.3 42.6798C42.77 42.8398 42.97 42.9898 42.97 43.2398C42.97 43.4898 42.72 43.6298 42.36 43.6298C41.95 43.6298 41.58 43.4998 41.31 43.3498L41.12 44.0898C41.36 44.2298 41.78 44.3398 42.2 44.3598V44.9598H42.82V44.3198C43.55 44.1898 43.95 43.7098 43.95 43.1498C43.95 42.5898 43.64 42.2298 42.89 41.9598Z" fill="white"/>
</g>
<g clip-path="url(#clip5_126_45)">
<path d="M79.45 39.5299C79.45 42.0899 77.37 44.1699 74.8 44.1699C72.23 44.1699 70.16 42.0899 70.16 39.5299C70.16 36.9699 72.24 34.8799 74.8 34.8799C77.36 34.8799 79.45 36.9699 79.45 39.5299Z" fill="#0F5654"/>
<path d="M81.32 53.3099H68.33C68.24 51.3999 68.92 49.5999 70.24 48.2199C71.47 46.9299 73.14 46.1899 74.83 46.1899C76.61 46.1899 78.35 47.0199 79.59 48.4299C80.78 49.7799 81.38 51.5299 81.3 53.3099H81.32Z" fill="#0F5654"/>
</g>
<path fill-rule="evenodd" clip-rule="evenodd" d="M20.94 80.7598C20.48 76.5898 17.17 73.2798 13 72.8198V70.7598H11V72.8198C6.83 73.2798 3.52 76.5898 3.06 80.7598H1V82.7598H3.06C3.52 86.9298 6.83 90.2398 11 90.6998V92.7598H13V90.6998C17.17 90.2398 20.48 86.9298 20.94 82.7598H23V80.7598H20.94ZM12 77.7598C9.79 77.7598 8 79.5498 8 81.7598C8 83.9698 9.79 85.7598 12 85.7598C14.21 85.7598 16 83.9698 16 81.7598C16 79.5498 14.21 77.7598 12 77.7598ZM5 81.7598C5 85.6298 8.13 88.7598 12 88.7598C15.87 88.7598 19 85.6298 19 81.7598C19 77.8898 15.87 74.7598 12 74.7598C8.13 74.7598 5 77.8898 5 81.7598Z" fill="#2B2F39"/>
<path d="M57.835 73.6299L56.055 71.8599L46.165 81.7599L56.065 91.6599L57.835 89.8899L49.705 81.7599L57.835 73.6299Z" fill="#2B2F39"/>
<path fill-rule="evenodd" clip-rule="evenodd" d="M92 71.7598C88.13 71.7598 85 74.8898 85 78.7598C85 84.0098 92 91.7598 92 91.7598C92 91.7598 99 84.0098 99 78.7598C99 74.8898 95.87 71.7598 92 71.7598ZM87 78.7598C87 75.9998 89.24 73.7598 92 73.7598C94.76 73.7598 97 75.9998 97 78.7598C97 81.6398 94.12 85.9498 92 88.6398C89.92 85.9698 87 81.6098 87 78.7598ZM89.5 78.7598C89.5 77.3791 90.6193 76.2598 92 76.2598C92.8932 76.2598 93.7185 76.7363 94.1651 77.5098C94.6116 78.2833 94.6116 79.2363 94.1651 80.0098C93.7185 80.7833 92.8932 81.2598 92 81.2598C90.6193 81.2598 89.5 80.1405 89.5 78.7598Z" fill="#2B2F39"/>
<path d="M127 79.2598L132 84.2598L137 79.2598H127Z" fill="#2B2F39"/>
<path d="M167 84.2598L172 79.2598L177 84.2598H167Z" fill="#2B2F39"/>
<path fill-rule="evenodd" clip-rule="evenodd" d="M211.99 71.7598C206.47 71.7598 202 76.2398 202 81.7598C202 87.2798 206.47 91.7598 211.99 91.7598C217.52 91.7598 222 87.2798 222 81.7598C222 76.2398 217.52 71.7598 211.99 71.7598ZM212 89.7598C207.58 89.7598 204 86.1798 204 81.7598C204 77.3398 207.58 73.7598 212 73.7598C216.42 73.7598 220 77.3398 220 81.7598C220 86.1798 216.42 89.7598 212 89.7598ZM211 76.7598H212.5V82.0098L217 84.6798L216.25 85.9098L211 82.7598V76.7598Z" fill="#2B2F39"/>
<path fill-rule="evenodd" clip-rule="evenodd" d="M257.21 79.2495H262C262.55 79.2495 263 79.6995 263 80.2495L262.97 80.5195L260.43 89.7895C260.19 90.6295 259.42 91.2495 258.5 91.2495H245.5C244.58 91.2495 243.81 90.6295 243.58 89.7895L241.04 80.5195C241.01 80.4295 241 80.3395 241 80.2495C241 79.6995 241.45 79.2495 242 79.2495H246.79L251.17 72.6995C251.36 72.4095 251.68 72.2695 252 72.2695C252.32 72.2695 252.64 72.4095 252.83 72.6895L257.21 79.2495ZM254.8 79.2495L252 75.0495L249.2 79.2495H254.8ZM258.5 89.2495L245.51 89.2595L243.31 81.2495H260.7L258.5 89.2495ZM250 85.2495C250 84.1495 250.9 83.2495 252 83.2495C253.1 83.2495 254 84.1495 254 85.2495C254 86.3495 253.1 87.2495 252 87.2495C250.9 87.2495 250 86.3495 250 85.2495Z" fill="#2B2F39"/>
<defs>
<clipPath id="clip0_126_45">
<rect width="19.13" height="18.38" fill="white"/>
</clipPath>
<clipPath id="clip1_126_45">
<rect width="17.19" height="18.88" fill="white" transform="translate(35.13)"/>
</clipPath>
<clipPath id="clip2_126_45">
<rect width="13" height="18.43" fill="white" transform="translate(68.32)"/>
</clipPath>
<clipPath id="clip3_126_45">
<rect width="19.14" height="18.37" fill="white" transform="translate(0 34.8799)"/>
</clipPath>
<clipPath id="clip4_126_45">
<rect width="17.19" height="18.88" fill="white" transform="translate(35.14 34.8799)"/>
</clipPath>
<clipPath id="clip5_126_45">
<rect width="13.59" height="18.43" fill="white" transform="translate(68.33 34.8799)"/>
</clipPath>
</defs>
</svg>
