<svg width="142" height="35" viewBox="0 0 142 35" fill="none" xmlns="http://www.w3.org/2000/svg">
<path d="M0.75 0.695312H7.26562V15.2734C8.42188 14.3047 9.53125 13.2734 10.5938 12.1797C11.6719 11.0859 12.7109 9.9375 13.7109 8.73438C14.7109 7.51562 15.6875 6.24219 16.6406 4.91406C17.5938 3.57031 18.5156 2.16406 19.4062 0.695312H26.1094C24.4531 3.63281 22.7891 6.32031 21.1172 8.75781C19.4453 11.1953 17.7266 13.3672 15.9609 15.2734C17.9297 18.1953 19.8047 21.2344 21.5859 24.3906C23.3828 27.5469 25.0859 30.75 26.6953 34H19.4766C18.8359 32.7656 18.1797 31.5469 17.5078 30.3438C16.8359 29.1406 16.1406 27.9453 15.4219 26.7578C14.7031 25.5547 13.9688 24.3516 13.2188 23.1484C12.4688 21.9297 11.6875 20.7109 10.875 19.4922C10.25 19.9922 9.64844 20.4766 9.07031 20.9453C8.49219 21.4141 7.89062 21.8594 7.26562 22.2812V34H0.75V0.695312ZM40.8047 9.57812C42.4922 9.57812 44.0781 9.85938 45.5625 10.4219C47.0625 10.9688 48.375 11.7734 49.5 12.8359C50.625 13.8828 51.5156 15.1641 52.1719 16.6797C52.8281 18.1953 53.1562 19.9141 53.1562 21.8359C53.1562 23.8359 52.8281 25.625 52.1719 27.2031C51.5156 28.7656 50.6172 30.0859 49.4766 31.1641C48.3359 32.2422 46.9922 33.0703 45.4453 33.6484C43.9141 34.2109 42.25 34.4922 40.4531 34.4922C38.7656 34.4922 37.1641 34.2109 35.6484 33.6484C34.1484 33.0859 32.8359 32.2812 31.7109 31.2344C30.5859 30.1875 29.6953 28.9062 29.0391 27.3906C28.3828 25.875 28.0547 24.1562 28.0547 22.2344C28.0547 20.2344 28.3828 18.4531 29.0391 16.8906C29.6953 15.3125 30.5938 13.9844 31.7344 12.9062C32.8906 11.8125 34.2422 10.9844 35.7891 10.4219C37.3516 9.85938 39.0234 9.57812 40.8047 9.57812ZM40.5234 14.8281C39.7109 14.8281 38.9375 14.9922 38.2031 15.3203C37.4688 15.6328 36.8203 16.0938 36.2578 16.7031C35.6953 17.3125 35.2422 18.0625 34.8984 18.9531C34.5703 19.8281 34.4062 20.8203 34.4062 21.9297C34.4062 23.1328 34.5781 24.1875 34.9219 25.0938C35.2656 26 35.7188 26.7578 36.2812 27.3672C36.8594 27.9766 37.5234 28.4375 38.2734 28.75C39.0391 29.0469 39.8516 29.1953 40.7109 29.1953C41.5078 29.1953 42.2734 29.0391 43.0078 28.7266C43.7578 28.3984 44.4062 27.9375 44.9531 27.3438C45.5156 26.7344 45.9609 25.9922 46.2891 25.1172C46.6172 24.2266 46.7812 23.2266 46.7812 22.1172C46.7812 20.9141 46.6172 19.8594 46.2891 18.9531C45.9609 18.0469 45.5078 17.2891 44.9297 16.6797C44.3672 16.0703 43.7031 15.6094 42.9375 15.2969C42.1719 14.9844 41.3672 14.8281 40.5234 14.8281ZM58.7812 10.0703H63.6797L64.0078 12.3672C64.8672 11.4922 65.8359 10.8125 66.9141 10.3281C68.0078 9.82812 69.2344 9.57812 70.5938 9.57812C71.3125 9.57812 72 9.64844 72.6562 9.78906C73.3281 9.92969 73.9609 10.1406 74.5547 10.4219C75.1484 10.6875 75.6953 11.0312 76.1953 11.4531C76.7109 11.875 77.1797 12.3672 77.6016 12.9297C78.0234 12.4297 78.5 11.9766 79.0312 11.5703C79.5625 11.1484 80.1406 10.7891 80.7656 10.4922C81.3906 10.1953 82.0547 9.96875 82.7578 9.8125C83.4766 9.65625 84.2344 9.57812 85.0312 9.57812C86.2344 9.57812 87.375 9.78125 88.4531 10.1875C89.5312 10.5938 90.4688 11.2109 91.2656 12.0391C92.0625 12.8516 92.6875 13.8828 93.1406 15.1328C93.6094 16.3828 93.8438 17.8516 93.8438 19.5391V34H87.5625V20.2656C87.5625 19.25 87.4453 18.3906 87.2109 17.6875C86.9922 16.9844 86.6875 16.4141 86.2969 15.9766C85.9219 15.5391 85.4844 15.2188 84.9844 15.0156C84.5 14.8125 83.9922 14.7109 83.4609 14.7109C83.0547 14.7109 82.6641 14.7734 82.2891 14.8984C81.9141 15.0078 81.5469 15.1719 81.1875 15.3906C80.8281 15.6094 80.4844 15.875 80.1562 16.1875C79.8438 16.4844 79.5469 16.8203 79.2656 17.1953C79.3281 17.5703 79.3672 17.9609 79.3828 18.3672C79.4141 18.7578 79.4297 19.1719 79.4297 19.6094V34H73.1719V20.2656C73.1719 19.25 73.0547 18.3906 72.8203 17.6875C72.6016 16.9844 72.2969 16.4141 71.9062 15.9766C71.5312 15.5391 71.0938 15.2188 70.5938 15.0156C70.1094 14.8125 69.6016 14.7109 69.0703 14.7109C68.3203 14.7109 67.6016 14.9062 66.9141 15.2969C66.2266 15.6719 65.5938 16.2109 65.0156 16.9141V34H58.7812V10.0703ZM120.727 31.9375C119.445 32.7656 118.047 33.3984 116.531 33.8359C115.016 34.2734 113.383 34.4922 111.633 34.4922C109.695 34.4922 107.961 34.2188 106.43 33.6719C104.898 33.1094 103.594 32.3047 102.516 31.2578C101.453 30.1953 100.633 28.9062 100.055 27.3906C99.4922 25.8594 99.2109 24.1406 99.2109 22.2344C99.2109 20.2969 99.4766 18.5547 100.008 17.0078C100.555 15.4609 101.32 14.1328 102.305 13.0234C103.289 11.9141 104.469 11.0625 105.844 10.4688C107.234 9.875 108.758 9.57812 110.414 9.57812C111.93 9.57812 113.305 9.83594 114.539 10.3516C115.773 10.8516 116.82 11.5938 117.68 12.5781C118.555 13.5469 119.227 14.7344 119.695 16.1406C120.164 17.5469 120.398 19.1562 120.398 20.9688C120.398 21.4219 120.383 21.8516 120.352 22.2578C120.336 22.6484 120.297 23.0469 120.234 23.4531H105.445V23.5C105.539 24.4219 105.758 25.25 106.102 25.9844C106.461 26.7031 106.93 27.3125 107.508 27.8125C108.086 28.3125 108.781 28.7031 109.594 28.9844C110.422 29.25 111.359 29.3828 112.406 29.3828C113.75 29.3828 114.992 29.1875 116.133 28.7969C117.289 28.4062 118.398 27.8359 119.461 27.0859L120.727 31.9375ZM114.375 19.1406C114.359 18.4219 114.25 17.7734 114.047 17.1953C113.859 16.6172 113.586 16.125 113.227 15.7188C112.883 15.2969 112.453 14.9766 111.938 14.7578C111.438 14.5391 110.875 14.4297 110.25 14.4297C109.641 14.4297 109.078 14.5312 108.562 14.7344C108.062 14.9375 107.609 15.2422 107.203 15.6484C106.812 16.0547 106.477 16.5547 106.195 17.1484C105.914 17.7266 105.703 18.3906 105.562 19.1406H114.375ZM124.078 14.9922V10.0703H127.453V4.35156L133.688 3.74219V10.0703H140.367V14.9922H133.688V25.6797C133.688 26.8516 133.953 27.7266 134.484 28.3047C135.016 28.8672 135.797 29.1484 136.828 29.1484C137.5 29.1484 138.133 29.0391 138.727 28.8203C139.336 28.6016 139.93 28.2656 140.508 27.8125L141.305 32.8281C140.461 33.3906 139.516 33.8047 138.469 34.0703C137.422 34.3516 136.359 34.4922 135.281 34.4922C132.75 34.4922 130.812 33.8125 129.469 32.4531C128.125 31.0938 127.453 29.0234 127.453 26.2422V14.9922H124.078Z" fill="black"/>
</svg>
