<svg width="241" height="26" viewBox="0 0 241 26" fill="none" xmlns="http://www.w3.org/2000/svg">
<path d="M0.511719 21.9414L2.30469 19.8496C3.17188 20.752 4.17383 21.4727 5.31055 22.0117C6.45898 22.5391 7.63086 22.8027 8.82617 22.8027C10.3613 22.8027 11.5684 22.4512 12.4473 21.748C13.3262 21.0449 13.7656 20.1133 13.7656 18.9531C13.7656 18.4844 13.6895 18.0625 13.5371 17.6875C13.3965 17.3008 13.2324 16.9844 13.0449 16.7383C12.8574 16.4922 12.5586 16.2402 12.1484 15.9824C11.75 15.7129 11.4043 15.5078 11.1113 15.3672C10.8301 15.2266 10.4023 15.0273 9.82812 14.7695L6.45312 13.293C3.26562 11.957 1.67188 9.92969 1.67188 7.21094C1.67188 5.40625 2.36914 3.91211 3.76367 2.72852C5.1582 1.54492 6.92773 0.953125 9.07227 0.953125C10.4316 0.953125 11.7148 1.2168 12.9219 1.74414C14.1406 2.27148 15.1895 2.98047 16.0684 3.87109L14.4512 5.80469C12.8809 4.31641 11.0879 3.57227 9.07227 3.57227C7.74805 3.57227 6.6875 3.88867 5.89062 4.52148C5.09375 5.14258 4.69531 5.98047 4.69531 7.03516C4.69531 7.46875 4.77734 7.87305 4.94141 8.24805C5.11719 8.62305 5.30469 8.92773 5.50391 9.16211C5.71484 9.39648 6.03125 9.64258 6.45312 9.90039C6.875 10.1465 7.21484 10.334 7.47266 10.4629C7.73047 10.5801 8.11133 10.7441 8.61523 10.9551L11.9551 12.3965C12.7051 12.7246 13.3496 13.0645 13.8887 13.416C14.4277 13.7559 14.9316 14.1777 15.4004 14.6816C15.8691 15.1738 16.2207 15.7598 16.4551 16.4395C16.7012 17.1074 16.8242 17.8633 16.8242 18.707C16.8242 20.6289 16.0918 22.2344 14.627 23.5234C13.1621 24.8008 11.2168 25.4395 8.79102 25.4395C7.17383 25.4395 5.65039 25.1289 4.2207 24.5078C2.80273 23.8867 1.56641 23.0312 0.511719 21.9414ZM19.8828 16.2812C19.8828 14.8516 20.0996 13.5508 20.5332 12.3789C20.9785 11.1953 21.5762 10.2227 22.3262 9.46094C23.0762 8.69922 23.9375 8.11328 24.9102 7.70312C25.8828 7.28125 26.9082 7.07031 27.9863 7.07031C29.0645 7.07031 30.0898 7.28125 31.0625 7.70312C32.0352 8.11328 32.8965 8.69922 33.6465 9.46094C34.3965 10.2227 34.9883 11.1953 35.4219 12.3789C35.8672 13.5508 36.0898 14.8516 36.0898 16.2812C36.0898 17.6875 35.8672 18.9766 35.4219 20.1484C34.9883 21.3203 34.3965 22.2871 33.6465 23.0488C32.8965 23.8105 32.0352 24.4023 31.0625 24.8242C30.0898 25.2344 29.0645 25.4395 27.9863 25.4395C26.9082 25.4395 25.8828 25.2344 24.9102 24.8242C23.9375 24.4023 23.0762 23.8105 22.3262 23.0488C21.5762 22.2871 20.9785 21.3203 20.5332 20.1484C20.0996 18.9766 19.8828 17.6875 19.8828 16.2812ZM22.9414 16.2812C22.9414 18.2734 23.4043 19.8906 24.3301 21.1328C25.2676 22.3633 26.4863 22.9785 27.9863 22.9785C29.498 22.9785 30.7168 22.3633 31.6426 21.1328C32.5684 19.8906 33.0312 18.2734 33.0312 16.2812C33.0312 14.2656 32.5684 12.6367 31.6426 11.3945C30.7168 10.1406 29.498 9.51367 27.9863 9.51367C26.4863 9.51367 25.2676 10.1406 24.3301 11.3945C23.4043 12.6367 22.9414 14.2656 22.9414 16.2812ZM40.4492 18.584V7.50977H43.4375V18.1973C43.4375 19.8379 43.6953 21.0273 44.2109 21.7656C44.7266 22.5039 45.5586 22.873 46.707 22.873C47.5859 22.873 48.377 22.6445 49.0801 22.1875C49.7949 21.7305 50.5742 20.9746 51.418 19.9199V7.50977H54.3711V25H51.9277L51.6816 22.2578H51.5586C50.6797 23.3008 49.7832 24.0918 48.8691 24.6309C47.9668 25.1699 46.9473 25.4395 45.8105 25.4395C42.2363 25.4395 40.4492 23.1543 40.4492 18.584ZM60.2773 25V7.50977H62.7207L62.9844 10.6738H63.0898C63.6992 9.54883 64.4316 8.66992 65.2871 8.03711C66.1543 7.39258 67.0742 7.07031 68.0469 7.07031C68.7266 7.07031 69.3535 7.19336 69.9277 7.43945L69.3477 10.0234C68.7266 9.83594 68.1641 9.74219 67.6602 9.74219C66.8516 9.74219 66.0488 10.0703 65.252 10.7266C64.4668 11.3711 63.793 12.3848 63.2305 13.7676V25H60.2773ZM71.1055 16.2812C71.1055 14.8516 71.3281 13.5508 71.7734 12.3789C72.2305 11.1953 72.8457 10.2227 73.6191 9.46094C74.4043 8.69922 75.3008 8.11328 76.3086 7.70312C77.3164 7.28125 78.3887 7.07031 79.5254 7.07031C81.4355 7.07031 83.1406 7.76758 84.6406 9.16211L83.1641 11.0605C81.9688 10.0293 80.7969 9.51367 79.6484 9.51367C78.0547 9.51367 76.7422 10.1406 75.7109 11.3945C74.6797 12.6484 74.1641 14.2773 74.1641 16.2812C74.1641 18.2734 74.6621 19.8906 75.6582 21.1328C76.6543 22.3633 77.9551 22.9785 79.5605 22.9785C81.002 22.9785 82.373 22.3926 83.6738 21.2207L85.0098 23.1719C83.3105 24.6836 81.4121 25.4395 79.3145 25.4395C76.9238 25.4395 74.9551 24.6191 73.4082 22.9785C71.873 21.3379 71.1055 19.1055 71.1055 16.2812ZM86.75 16.2812C86.75 14.8984 86.9727 13.6211 87.418 12.4492C87.8633 11.2656 88.4492 10.2871 89.1758 9.51367C89.9141 8.74023 90.752 8.14258 91.6895 7.7207C92.627 7.28711 93.5996 7.07031 94.6074 7.07031C96.8105 7.07031 98.5215 7.80859 99.7402 9.28516C100.971 10.75 101.586 12.748 101.586 15.2793C101.586 15.9238 101.551 16.4629 101.48 16.8965H89.668C89.7734 18.7832 90.3535 20.2832 91.4082 21.3965C92.4629 22.498 93.8281 23.0488 95.5039 23.0488C96.9922 23.0488 98.4453 22.5977 99.8633 21.6953L100.9 23.6289C99.0137 24.8359 97.0918 25.4395 95.1348 25.4395C92.7324 25.4395 90.7344 24.6133 89.1406 22.9609C87.5469 21.2969 86.75 19.0703 86.75 16.2812ZM89.6328 14.9629H99.002C99.002 13.1816 98.6211 11.8105 97.8594 10.8496C97.1094 9.88867 96.0488 9.4082 94.6777 9.4082C93.4004 9.4082 92.2812 9.90625 91.3203 10.9023C90.3711 11.8984 89.8086 13.252 89.6328 14.9629ZM111.746 21.9414L113.539 19.8496C114.406 20.752 115.408 21.4727 116.545 22.0117C117.693 22.5391 118.865 22.8027 120.061 22.8027C121.596 22.8027 122.803 22.4512 123.682 21.748C124.561 21.0449 125 20.1133 125 18.9531C125 18.4844 124.924 18.0625 124.771 17.6875C124.631 17.3008 124.467 16.9844 124.279 16.7383C124.092 16.4922 123.793 16.2402 123.383 15.9824C122.984 15.7129 122.639 15.5078 122.346 15.3672C122.064 15.2266 121.637 15.0273 121.062 14.7695L117.688 13.293C114.5 11.957 112.906 9.92969 112.906 7.21094C112.906 5.40625 113.604 3.91211 114.998 2.72852C116.393 1.54492 118.162 0.953125 120.307 0.953125C121.666 0.953125 122.949 1.2168 124.156 1.74414C125.375 2.27148 126.424 2.98047 127.303 3.87109L125.686 5.80469C124.115 4.31641 122.322 3.57227 120.307 3.57227C118.982 3.57227 117.922 3.88867 117.125 4.52148C116.328 5.14258 115.93 5.98047 115.93 7.03516C115.93 7.46875 116.012 7.87305 116.176 8.24805C116.352 8.62305 116.539 8.92773 116.738 9.16211C116.949 9.39648 117.266 9.64258 117.688 9.90039C118.109 10.1465 118.449 10.334 118.707 10.4629C118.965 10.5801 119.346 10.7441 119.85 10.9551L123.189 12.3965C123.939 12.7246 124.584 13.0645 125.123 13.416C125.662 13.7559 126.166 14.1777 126.635 14.6816C127.104 15.1738 127.455 15.7598 127.689 16.4395C127.936 17.1074 128.059 17.8633 128.059 18.707C128.059 20.6289 127.326 22.2344 125.861 23.5234C124.396 24.8008 122.451 25.4395 120.025 25.4395C118.408 25.4395 116.885 25.1289 115.455 24.5078C114.037 23.8867 112.801 23.0312 111.746 21.9414ZM131.557 20.4648C131.557 18.5664 132.412 17.1016 134.123 16.0703C135.834 15.0391 138.564 14.3184 142.314 13.9082C142.314 13.3105 142.256 12.7656 142.139 12.2734C142.033 11.7812 141.852 11.3184 141.594 10.8848C141.336 10.4512 140.961 10.1172 140.469 9.88281C139.977 9.63672 139.391 9.51367 138.711 9.51367C137.07 9.51367 135.33 10.1406 133.49 11.3945L132.312 9.33789C134.668 7.82617 136.959 7.07031 139.186 7.07031C141.26 7.07031 142.789 7.70312 143.773 8.96875C144.77 10.2344 145.268 12.0039 145.268 14.2773V25H142.824L142.561 22.9082H142.49C140.416 24.5957 138.488 25.4395 136.707 25.4395C135.195 25.4395 133.959 24.9941 132.998 24.1035C132.037 23.2129 131.557 22 131.557 20.4648ZM134.475 20.2539C134.475 21.2031 134.756 21.9062 135.318 22.3633C135.881 22.8203 136.619 23.0488 137.533 23.0488C138.342 23.0488 139.115 22.8613 139.854 22.4863C140.604 22.0996 141.424 21.5078 142.314 20.7109V15.8594C139.479 16.2109 137.463 16.7441 136.268 17.459C135.072 18.1621 134.475 19.0938 134.475 20.2539ZM150.84 25V7.50977H153.283L153.547 10.0234H153.652C154.59 9.08594 155.521 8.35938 156.447 7.84375C157.385 7.32812 158.41 7.07031 159.523 7.07031C163.074 7.07031 164.85 9.34961 164.85 13.9082V25H161.896V14.3125C161.896 12.6836 161.627 11.5 161.088 10.7617C160.561 10.0117 159.723 9.63672 158.574 9.63672C157.73 9.63672 156.963 9.84766 156.271 10.2695C155.58 10.6797 154.754 11.3652 153.793 12.3262V25H150.84ZM168.576 23.0137L170.053 21.0449C170.885 21.7246 171.705 22.2461 172.514 22.6094C173.334 22.9609 174.23 23.1367 175.203 23.1367C176.305 23.1367 177.154 22.8789 177.752 22.3633C178.361 21.8477 178.666 21.1914 178.666 20.3945C178.666 20.0547 178.578 19.7324 178.402 19.4277C178.238 19.123 178.045 18.8711 177.822 18.6719C177.611 18.4609 177.295 18.25 176.873 18.0391C176.463 17.8164 176.117 17.6465 175.836 17.5293C175.555 17.4121 175.162 17.2598 174.658 17.0723C174.061 16.8613 173.557 16.668 173.146 16.4922C172.736 16.3164 172.273 16.0762 171.758 15.7715C171.254 15.4668 170.85 15.1562 170.545 14.8398C170.24 14.5117 169.977 14.1074 169.754 13.627C169.543 13.1348 169.438 12.6074 169.438 12.0449C169.438 10.6035 169.977 9.41406 171.055 8.47656C172.145 7.53906 173.615 7.07031 175.467 7.07031C177.436 7.07031 179.246 7.73242 180.898 9.05664L179.492 10.9199C178.121 9.88867 176.791 9.37305 175.502 9.37305C174.459 9.37305 173.662 9.61914 173.111 10.1113C172.561 10.5918 172.285 11.1895 172.285 11.9043C172.285 12.2793 172.379 12.6191 172.566 12.9238C172.754 13.2168 173.018 13.4688 173.357 13.6797C173.709 13.8906 174.084 14.084 174.482 14.2598C174.881 14.4355 175.326 14.6172 175.818 14.8047C175.865 14.8164 175.895 14.8281 175.906 14.8398C175.93 14.8398 175.959 14.8457 175.994 14.8574C176.029 14.8691 176.059 14.8809 176.082 14.8926C176.117 14.9043 176.146 14.916 176.17 14.9277C176.65 15.1035 177.014 15.2441 177.26 15.3496C177.518 15.4434 177.863 15.5957 178.297 15.8066C178.742 16.0059 179.088 16.1934 179.334 16.3691C179.592 16.5332 179.879 16.7559 180.195 17.0371C180.512 17.3184 180.752 17.6055 180.916 17.8984C181.08 18.1914 181.221 18.5371 181.338 18.9355C181.455 19.334 181.514 19.7617 181.514 20.2188C181.514 21.707 180.945 22.9492 179.809 23.9453C178.672 24.9414 177.102 25.4395 175.098 25.4395C173.914 25.4395 172.748 25.2168 171.6 24.7715C170.451 24.3262 169.443 23.7402 168.576 23.0137ZM193.168 25V1.39258H200.41C201.758 1.39258 202.947 1.51562 203.979 1.76172C205.021 1.99609 205.936 2.38281 206.721 2.92188C207.506 3.44922 208.104 4.16992 208.514 5.08398C208.924 5.98633 209.129 7.07031 209.129 8.33594C209.129 10.75 208.344 12.5723 206.773 13.8027C205.215 15.0332 203.094 15.6484 200.41 15.6484H196.156V25H193.168ZM196.156 13.1875H200.041C202.104 13.1875 203.633 12.7949 204.629 12.0098C205.637 11.2246 206.141 10 206.141 8.33594C206.141 6.67187 205.648 5.5 204.664 4.82031C203.691 4.14062 202.15 3.80078 200.041 3.80078H196.156V13.1875ZM213.629 25V7.50977H216.072L216.336 10.6738H216.441C217.051 9.54883 217.783 8.66992 218.639 8.03711C219.506 7.39258 220.426 7.07031 221.398 7.07031C222.078 7.07031 222.705 7.19336 223.279 7.43945L222.699 10.0234C222.078 9.83594 221.516 9.74219 221.012 9.74219C220.203 9.74219 219.4 10.0703 218.604 10.7266C217.818 11.3711 217.145 12.3848 216.582 13.7676V25H213.629ZM224.457 16.2812C224.457 14.8516 224.674 13.5508 225.107 12.3789C225.553 11.1953 226.15 10.2227 226.9 9.46094C227.65 8.69922 228.512 8.11328 229.484 7.70312C230.457 7.28125 231.482 7.07031 232.561 7.07031C233.639 7.07031 234.664 7.28125 235.637 7.70312C236.609 8.11328 237.471 8.69922 238.221 9.46094C238.971 10.2227 239.562 11.1953 239.996 12.3789C240.441 13.5508 240.664 14.8516 240.664 16.2812C240.664 17.6875 240.441 18.9766 239.996 20.1484C239.562 21.3203 238.971 22.2871 238.221 23.0488C237.471 23.8105 236.609 24.4023 235.637 24.8242C234.664 25.2344 233.639 25.4395 232.561 25.4395C231.482 25.4395 230.457 25.2344 229.484 24.8242C228.512 24.4023 227.65 23.8105 226.9 23.0488C226.15 22.2871 225.553 21.3203 225.107 20.1484C224.674 18.9766 224.457 17.6875 224.457 16.2812ZM227.516 16.2812C227.516 18.2734 227.979 19.8906 228.904 21.1328C229.842 22.3633 231.061 22.9785 232.561 22.9785C234.072 22.9785 235.291 22.3633 236.217 21.1328C237.143 19.8906 237.605 18.2734 237.605 16.2812C237.605 14.2656 237.143 12.6367 236.217 11.3945C235.291 10.1406 234.072 9.51367 232.561 9.51367C231.061 9.51367 229.842 10.1406 228.904 11.3945C227.979 12.6367 227.516 14.2656 227.516 16.2812Z" fill="black"/>
</svg>
