<?xml version="1.0" standalone="no"?>
<svg height="48" overflow="visible" viewBox="0 0 48 48" width="48" xmlns="http://www.w3.org/2000/svg"><g><defs><path id="path-16892824809183016" d="M23.99999833263583 0 C37.259997411417125 0 47.99999666527166 11.01165587377524 47.99999666527166 24.60705223189997 C47.997360607590316 35.17886980268573 41.419335661851875 44.57154207584674 31.6499978011635 47.952993036915075 C30.4499978845317 48.199063559234084 29.99999791579478 47.4300931769872 29.99999791579478 46.78415805589984 C29.99999791579478 45.9536700430732 30.029997913710577 43.308411928143954 30.029997913710577 40.01721869212733 C30.029997913710577 37.71030754538671 29.279997965815706 36.233884411472715 28.409998026257654 35.46491402922583 C33.74999765526913 34.84973772342834 39.35999726552274 32.75813828371684 39.35999726552274 23.315181989725218 C39.35999726552274 20.608406244216223 38.42999733013311 18.424530358635096 36.89999743642758 16.702036702402104 C37.13999741975394 16.086860396604603 37.979997361396194 13.564637542834854 36.65999745310123 10.18116786094861 C36.65999745310123 10.18116786094861 34.64999759274297 9.504473924571359 30.05999791162637 12.703390714718356 C28.139998045015506 12.149732039500606 26.09999818674146 11.872902701891732 24.05999832846742 11.872902701891732 C22.01999847019337 11.872902701891732 19.979998611919317 12.149732039500606 18.059998745308462 12.703390714718356 C13.469999064191857 9.535232739861232 11.459999203833604 10.181167860948612 11.459999203833604 10.181167860948612 C10.139999295538633 13.564637542834854 10.979999237180884 16.086860396604603 11.219999220507248 16.702036702402104 C9.689999326801713 18.424530358635103 8.759999391412078 20.639165059506098 8.759999391412078 23.31518198972522 C8.759999391412078 32.72737946842696 14.339999003749904 34.84973772342834 19.67999863276137 35.46491402922583 C18.989998680698097 36.080090335023336 18.359998724466408 37.15664887016896 18.149998739055846 38.75610726524247 C16.76999883492928 39.40204238632984 13.319999074612884 40.44784210618559 11.159999224675659 36.726025456110705 C10.709999255938733 35.987813889153706 9.359999349727971 34.173043787051085 7.469999481032899 34.20380260234096 C5.4599996206746475 34.23456141763084 6.659999537306442 35.37263758335621 7.499999478948694 35.83401981270434 C8.519999408085715 36.41843730321195 9.689999326801713 38.60231318879308 9.959999308043864 39.3097659404602 C10.439999274696582 40.69391262850457 11.999999166317913 43.33917074343384 18.029998747392668 42.20109457770846 C18.029998747392668 44.261935202130076 18.059998745308462 46.199740565392204 18.059998745308462 46.78415805589983 C18.059998745308462 47.43009317698719 17.60999877657153 48.16830474394419 16.409998859939744 47.952993036915075 C6.606540698587981 44.60729055750798 -0.005424098513604762 35.200675720086586 0 24.60705223189997 C0 11.01165587377524 10.739999253854528 0 23.99999833263583 0 Z"/></defs> <path d="M24.00000041684106 0 C37.25999949562234 0 47.99999874947687 11.011655873775226 47.99999874947687 24.607052231899956 C47.99736269179553 35.17886980268577 41.419337746057096 44.571542075846764 31.649999885368715 47.95299303691513 C30.449999968736932 48.199063559234105 30 47.43009317698716 30 46.784158055899866 C30 45.9536700430732 30.02999999791581 43.30841192814398 30.02999999791581 40.01721869212736 C30.02999999791581 37.71030754538674 29.28000005002093 36.23388441147267 28.410000110462875 35.46491402922584 C33.74999973947433 34.84973772342835 39.35999934972796 32.75813828371679 39.35999934972796 23.31518198972526 C39.35999934972796 20.608406244216212 38.42999941433834 18.42453035863514 36.899999520632804 16.702036702402097 C37.13999950395916 16.086860396604607 37.97999944560141 13.564637542834816 36.65999953730645 10.181167860948563 C36.65999953730645 10.181167860948563 34.6499996769482 9.504473924571357 30.05999999583159 12.703390714718353 C28.140000129220738 12.149732039500577 26.10000027094668 11.87290270189169 24.06000041267265 11.87290270189169 C22.020000554398592 11.87290270189169 19.980000696124534 12.149732039500577 18.060000829513683 12.703390714718353 C13.470001148397074 9.535232739861272 11.460001288038825 10.181167860948563 11.460001288038825 10.181167860948563 C10.140001379743865 13.564637542834816 10.980001321386112 16.086860396604607 11.220001304712468 16.702036702402097 C9.690001411006932 18.42453035863514 8.760001475617287 20.639165059506126 8.760001475617287 23.31518198972526 C8.760001475617287 32.72737946842699 14.34000108795513 34.84973772342835 19.68000071696659 35.46491402922584 C18.99000076490333 36.08009033502333 18.36000080867163 37.156648870168965 18.150000823261053 38.75610726524246 C16.770000919134503 39.40204238632987 13.320001158818116 40.44784210618559 11.16000130888088 36.72602545611073 C10.710001340143947 35.9878138891537 9.360001433933178 34.17304378705103 7.470001565238107 34.20380260234094 C5.460001704879858 34.23456141763086 6.660001621511668 35.37263758335621 7.500001563153916 35.834019812704355 C8.52000149229093 36.41843730321193 9.690001411006932 38.60231318879312 9.960001392249097 39.30976594046024 C10.44000135890181 40.69391262850456 12.000001250523127 43.3391707434339 18.030000831597874 42.20109457770843 C18.030000831597874 44.261935202130076 18.060000829513683 46.199740565392176 18.060000829513683 46.784158055899866 C18.060000829513683 47.43009317698716 17.61000086077675 48.16830474394419 16.41000094414497 47.95299303691513 C6.606542782793213 44.60729055750801 -0.00542201430837963 35.200675720086565 0.000002084205220853619 24.607052231899956 C0.000002084205220853619 11.011655873775226 10.740001338059756 0 24.00000041684106 0 Z" style="stroke-width: 0; stroke-linecap: butt; stroke-linejoin: miter;"/></g></svg>