<?xml version="1.0" encoding="UTF-8"?><svg id="Layer_2" xmlns="http://www.w3.org/2000/svg" viewBox="0 0 326.92 424.09"><defs><style>.cls-1,.cls-2{fill:#f2cc8f;}.cls-3{fill:#2d2d2d;}.cls-3,.cls-4,.cls-2{fill-rule:evenodd;}.cls-4{fill:#3e405b;}</style></defs><g id="clean_up_logo"><g id="logo"><path class="cls-4" d="m20,0C9,0,0,9,0,20v384.09c0,11,9,20,20,20h286.92c11,0,20-9,20-20V0H20Zm294.92,404.09c0,4.33-3.66,8-8,8h-79.55l-151.73-148.41-12.53-12.27-51.11-49.99V20c0-4.34,3.66-8,8-8h294.92v392.09Z"/><path class="cls-3" d="m20,424.09h-2.47c-9.64,0-17.53-7.89-17.53-17.54v-2.46c0,11,9,20,20,20Z"/><polygon class="cls-2" points="326.92 0 326.92 84.16 290.64 48.68 278.11 36.41 240.88 0 326.92 0"/><polygon class="cls-1" points="290.64 48.68 86.4 252.92 84.85 251.41 73.86 240.66 278.11 36.41 290.64 48.68"/></g></g></svg>